<svg xmlns="http://www.w3.org/2000/svg" width="361" height="361" viewBox="0 0 361 361" version="1.1">
	<path fill-opacity="0.353" d="M 0 57.500 L 0 115 26.481 115 L 52.962 115 53.574 117.750 C 54.597 122.347, 54.975 123.913, 55.567 126 C 56.125 127.966, 55.657 128, 28.067 128 L 0 128 0 133.500 L 0 139 23.827 139 L 47.654 139 47.218 141.970 C 46.908 144.078, 48.092 147.635, 51.296 154.220 C 53.778 159.324, 58.113 168.780, 60.927 175.234 L 66.045 186.968 63.585 190.865 C 59.860 196.766, 57.662 205.434, 58.306 211.678 C 58.985 218.258, 63.071 227.427, 67.250 231.750 L 70.392 235 35.196 235 L 0 235 0 240 L 0 245 46.250 245.015 C 84.071 245.027, 92.044 245.259, 90 246.287 C 88.311 247.137, 86.987 249.161, 85.918 252.523 L 84.337 257.500 42.168 257.761 L 0 258.022 0 309.511 L 0 361 76.917 361 C 137.514 361, 153.940 360.735, 154.338 359.750 C 154.741 358.750, 154.858 358.750, 154.921 359.750 C 154.967 360.484, 156.340 360.987, 158.250 360.968 C 160.996 360.942, 161.906 360.268, 164.113 356.626 C 167.396 351.211, 175.215 346.995, 181.946 347.010 C 188.747 347.024, 196.284 350.926, 200.175 356.446 L 203.385 361 211.779 361 L 220.172 361 215.214 354.750 C 212.487 351.313, 208.166 345.259, 205.611 341.298 C 203.056 337.338, 200.411 333.752, 199.733 333.332 C 199.055 332.911, 193.325 332.551, 187 332.533 C 177.241 332.505, 174.971 332.189, 172.005 330.447 C 170.084 329.318, 168.209 327.293, 167.840 325.947 C 167.471 324.601, 166.484 321.094, 165.646 318.154 C 164.586 314.436, 164.408 312.056, 165.061 310.339 C 165.578 308.981, 166 306.265, 166 304.303 L 166 300.737 170 301.273 C 174.023 301.813, 176.057 300.657, 174.256 298.856 C 173.722 298.322, 168.609 296.534, 162.893 294.881 C 150.572 291.320, 144 287.828, 144 284.844 C 144 282.436, 143.780 282.415, 160.500 286.414 C 166.550 287.861, 176.270 289.561, 182.100 290.192 L 192.700 291.340 204.238 286.670 C 216.023 281.900, 218.436 281.357, 220.905 282.920 C 221.958 283.587, 221.083 284.434, 217.405 286.306 C 214.707 287.679, 211.429 289.951, 210.120 291.354 C 207.915 293.718, 207.823 294.239, 208.870 298.396 C 209.491 300.865, 210 304.906, 210 307.376 C 210 311.450, 210.394 312.186, 214.250 315.319 C 216.587 317.219, 225.700 323.476, 234.500 329.225 C 254.688 342.414, 263 351.091, 263 358.977 C 263 361.009, 263.248 361.018, 312.250 360.759 L 361.500 360.500 361.759 309 L 362.018 257.500 310.608 257.768 L 259.199 258.035 262.547 251.768 L 265.895 245.500 313.698 245 L 361.500 244.500 361.794 239.500 L 362.088 234.500 326.823 234.776 L 291.558 235.051 294.725 231.776 C 300.164 226.150, 303.410 217.666, 303.458 208.951 C 303.496 202.152, 303.114 200.619, 299.611 193.531 L 295.723 185.660 299.962 177.080 C 302.294 172.361, 306.463 164.744, 309.226 160.154 C 311.989 155.564, 314.250 150.703, 314.250 149.352 C 314.250 145.880, 310.288 142, 306.742 142 C 304.860 142, 303.980 141.559, 304.249 140.750 C 304.564 139.805, 311.600 139.378, 333.083 139 L 361.500 138.500 361.793 133 L 362.086 127.500 334.927 127.782 L 307.767 128.064 308.439 125.282 C 308.809 123.752, 309.551 120.820, 310.089 118.767 L 311.068 115.034 336.284 114.767 L 361.500 114.500 361.758 57.250 L 362.016 0 181.008 0 L 0 0 0 57.500 M 0.468 58 C 0.468 89.625, 0.595 102.562, 0.749 86.750 C 0.904 70.937, 0.904 45.062, 0.749 29.250 C 0.595 13.437, 0.468 26.375, 0.468 58 M 166.513 112.743 C 164.320 112.966, 161.882 113.678, 161.096 114.325 C 159.948 115.269, 160.633 115.598, 164.578 116 L 169.490 116.500 172.563 134.500 L 175.636 152.500 176.326 141 C 176.705 134.675, 177.302 125.563, 177.651 120.750 L 178.287 112 174.393 112.168 C 172.252 112.261, 168.706 112.519, 166.513 112.743 M 0.310 133.500 C 0.315 136.800, 0.502 138.029, 0.725 136.232 C 0.947 134.435, 0.943 131.735, 0.715 130.232 C 0.486 128.729, 0.304 130.200, 0.310 133.500 M 170 164.687 C 163.220 165.398, 136.473 169.116, 134.308 169.649 C 132.506 170.092, 134.280 171.618, 144.273 178.221 C 150.960 182.639, 158.011 186.801, 159.943 187.470 C 163.324 188.640, 163.374 188.729, 161.293 189.843 C 157.473 191.888, 152.661 191.102, 139.944 186.357 C 124.364 180.544, 115.072 179.547, 107.536 182.881 C 101.830 185.405, 101.621 185.430, 102.362 183.500 C 103.054 181.696, 102.823 181.668, 99.547 183.161 C 98.146 183.799, 96.984 185.036, 96.964 185.911 C 96.786 193.872, 94.896 207.509, 93.724 209.298 C 92.417 211.293, 92.546 212.433, 94.987 220.509 C 103.412 248.383, 113.693 264.544, 130.735 276.705 L 137.065 281.222 139.485 278.611 C 140.816 277.175, 142.766 276, 143.818 276 C 144.870 276, 150.854 277.347, 157.116 278.994 C 163.377 280.640, 169.097 281.990, 169.827 281.994 C 170.557 281.997, 169.800 280.646, 168.146 278.992 C 164.906 275.752, 161.009 266.618, 160.986 262.212 C 160.962 257.327, 159.895 255.320, 156.448 253.677 C 151.940 251.527, 151.121 248.158, 153.981 243.531 C 156.273 239.821, 159.612 238.824, 160.653 241.537 C 160.977 242.383, 160.513 243.881, 159.621 244.866 C 156.314 248.520, 158.126 250.013, 165.832 249.981 C 168.399 249.970, 172.746 249.379, 175.490 248.668 C 179.575 247.609, 181.481 247.610, 185.990 248.672 C 193.080 250.341, 200.137 250.352, 202.399 248.697 C 204.019 247.513, 204.036 247.275, 202.590 246.075 C 201.716 245.349, 201 243.654, 201 242.308 C 201 238.723, 204.889 239.625, 207.303 243.770 C 209.859 248.158, 208.910 251.599, 204.572 253.667 C 201.513 255.126, 201.132 255.792, 200.511 260.760 C 199.138 271.747, 194.848 279.578, 188.837 282.068 L 185.551 283.429 188.982 284.130 C 191.722 284.690, 193.829 284.164, 199.456 281.512 C 211.673 275.754, 218.455 274.698, 224.575 277.603 C 227.922 279.191, 227.996 279.173, 232.865 275.599 C 248.879 263.843, 259.648 246.131, 267.674 218.344 C 270.062 210.078, 270.235 208.605, 269.043 206.698 C 268.293 205.497, 266.242 199.820, 264.485 194.083 C 262.039 186.096, 260.799 183.470, 259.196 182.877 C 257.590 182.283, 257.232 182.440, 257.658 183.551 C 258.377 185.425, 258.149 185.396, 252.464 182.881 C 244.903 179.537, 235.603 180.537, 220.181 186.354 C 207.366 191.187, 204.036 191.752, 199.315 189.890 L 196.500 188.779 200.101 187.494 C 202.082 186.786, 209.002 182.678, 215.480 178.364 L 227.257 170.520 219.878 169.260 C 207.756 167.190, 180.876 163.988, 177.057 164.160 C 175.101 164.248, 171.925 164.485, 170 164.687 M 67.609 199.020 C 64.128 207.720, 66.115 219.265, 72.369 226.672 C 75.689 230.605, 84.294 235, 88.675 235 C 91.691 235, 91.881 234.818, 91.014 232.750 C 90.495 231.512, 88.877 226.563, 87.418 221.750 C 85.504 215.439, 84.309 212.994, 83.132 212.978 C 79.489 212.928, 74.047 206.244, 71.955 199.250 C 71.255 196.912, 70.354 195, 69.950 195 C 69.547 195, 68.493 196.809, 67.609 199.020 M 289.182 200.678 C 285.965 207.010, 282.940 210, 279.746 210 C 278.751 210, 277.777 210.563, 277.580 211.250 C 277.384 211.938, 275.650 217.563, 273.727 223.750 L 270.230 235 273.419 235 C 277.717 235, 286.340 230.571, 289.631 226.672 C 296.047 219.072, 297.980 206.980, 294.133 198.500 L 292.319 194.500 289.182 200.678 M 107.364 197.493 C 106.145 200.670, 108.389 202.459, 114.572 203.241 C 123.906 204.421, 134.694 208.582, 144.174 214.657 C 146.438 216.108, 147.097 216.164, 148.472 215.023 C 151.359 212.627, 149.782 209.933, 143.149 205.930 C 135.194 201.129, 123.391 197.148, 114.709 196.337 C 108.902 195.795, 107.959 195.944, 107.364 197.493 M 239.808 197.547 C 228.570 200.272, 213 208.603, 213 211.890 C 213 216.250, 215.408 216.192, 224.116 211.623 C 233.927 206.474, 240.335 204.264, 248.428 203.241 C 254.932 202.418, 257.363 200.347, 255.070 197.584 C 253.459 195.643, 247.718 195.629, 239.808 197.547 M 175.250 221.491 C 169.426 224.022, 171.533 228.021, 177.546 225.847 C 180.333 224.839, 181.492 224.826, 183.027 225.785 C 185.909 227.585, 188 227.266, 188 225.026 C 188 222.928, 183.433 219.971, 180.300 220.039 C 179.310 220.061, 177.037 220.714, 175.250 221.491 M 0.300 240 C 0.300 243.025, 0.487 244.262, 0.716 242.750 C 0.945 241.238, 0.945 238.762, 0.716 237.250 C 0.487 235.738, 0.300 236.975, 0.300 240 M 94 246 C 95.958 247.266, 97.282 247.266, 96.500 246 C 96.160 245.450, 95.121 245.007, 94.191 245.015 C 92.734 245.029, 92.707 245.165, 94 246 M 98 250.365 C 98 252.136, 101.007 258, 101.915 258 C 102.475 258, 101.966 256.313, 100.786 254.250 C 98.218 249.766, 98 249.461, 98 250.365 M 91.061 257.516 C 90.374 259.707, 88.283 264.036, 86.416 267.135 L 83.019 272.770 86.416 276.478 C 88.285 278.518, 90.861 282.395, 92.143 285.093 C 93.424 287.792, 94.726 290, 95.036 290 C 95.346 290, 96.147 287.353, 96.815 284.118 C 97.483 280.882, 99.199 276.512, 100.629 274.405 C 102.233 272.041, 102.797 270.432, 102.102 270.201 C 100.416 269.639, 95.066 261.494, 93.598 257.253 L 92.310 253.532 91.061 257.516 M 0.465 309.500 C 0.465 338.100, 0.593 349.656, 0.749 335.180 C 0.906 320.704, 0.906 297.304, 0.749 283.180 C 0.593 269.056, 0.465 280.900, 0.465 309.500 M 153.225 325.012 C 152.551 326.090, 152 328.029, 152 329.320 C 152 331.244, 152.524 331.667, 154.905 331.667 C 156.795 331.667, 157.644 331.236, 157.336 330.434 C 157.076 329.757, 157.344 328.905, 157.932 328.542 C 159.480 327.585, 159.242 326, 157.550 326 C 156.752 326, 155.728 325.337, 155.274 324.526 C 154.582 323.288, 154.253 323.366, 153.225 325.012 M 136 340.500 C 136 341.875, 136.388 343, 136.861 343 C 137.335 343, 137.508 341.875, 137.245 340.500 C 136.982 339.125, 136.594 338, 136.383 338 C 136.173 338, 136 339.125, 136 340.500 M 139.825 341.326 C 139.452 343.151, 139.592 343.808, 140.218 343.182 C 140.751 342.649, 141.011 341.377, 140.794 340.356 C 140.503 338.981, 140.251 339.233, 139.825 341.326 M 178.750 339.662 C 179.438 339.940, 180.563 339.940, 181.250 339.662 C 181.938 339.385, 181.375 339.158, 180 339.158 C 178.625 339.158, 178.063 339.385, 178.750 339.662 M 156.946 343.750 L 153.500 347.500 157.250 344.054 C 160.740 340.846, 161.460 340, 160.696 340 C 160.529 340, 158.842 341.688, 156.946 343.750 M 173.813 340.683 C 174.534 340.972, 175.397 340.936, 175.729 340.604 C 176.061 340.272, 175.471 340.036, 174.417 340.079 C 173.252 340.127, 173.015 340.364, 173.813 340.683 M 192.083 341.365 C 192.313 341.565, 193.625 342.265, 195 342.920 C 197.357 344.042, 197.389 344.022, 195.559 342.555 C 193.966 341.279, 190.711 340.164, 192.083 341.365 M 142.029 343.961 C 141.220 344.473, 140.818 345.152, 141.136 345.470 C 141.455 345.788, 142.284 345.362, 142.980 344.524 C 144.423 342.786, 144.146 342.622, 142.029 343.961 M 161.453 348.250 L 157.500 352.500 161.750 348.547 C 165.702 344.871, 166.460 344, 165.703 344 C 165.540 344, 163.627 345.913, 161.453 348.250 M 198 344.378 C 198 344.585, 198.787 345.373, 199.750 346.128 C 201.336 347.371, 201.371 347.336, 200.128 345.750 C 198.821 344.084, 198 343.555, 198 344.378 M 176.047 351.305 C 172.497 352.437, 164.360 359.693, 165.435 360.768 C 165.766 361.099, 167.716 359.739, 169.768 357.745 C 171.821 355.751, 174.767 353.642, 176.315 353.060 C 182.623 350.685, 190.030 352.680, 195.113 358.121 C 196.733 359.856, 198.345 360.989, 198.694 360.639 C 199.874 359.459, 191.395 352.435, 187.315 351.213 C 182.584 349.795, 180.736 349.810, 176.047 351.305 M 148.624 356.539 C 148.281 357.432, 148.029 358.689, 148.063 359.332 C 148.098 359.974, 148.558 359.422, 149.085 358.105 C 149.612 356.787, 149.864 355.531, 149.645 355.312 C 149.426 355.093, 148.966 355.645, 148.624 356.539 M 208.564 358.293 C 208.940 359.279, 209.499 359.834, 209.807 359.526 C 210.115 359.219, 209.808 358.412, 209.124 357.733 C 208.136 356.753, 208.022 356.868, 208.564 358.293 " stroke="none" fill="black" fill-rule="evenodd"/>
	<path fill-opacity="0.478" d="M 0 57.484 L 0 114.967 26.675 115.234 L 53.350 115.500 54.632 121 C 55.338 124.025, 55.934 126.838, 55.958 127.250 C 55.981 127.662, 43.400 128, 28 128 L 0 128 0 133 L 0 138 24.413 138 L 48.826 138 47.690 141.011 C 46.677 143.695, 46.952 144.808, 50.228 151.261 C 52.249 155.242, 56.117 163.675, 58.824 170 C 61.531 176.325, 64.302 182.686, 64.982 184.136 C 66.065 186.447, 65.900 187.314, 63.646 191.161 C 60.055 197.288, 57.681 207.135, 58.543 212.321 C 59.697 219.253, 62.811 226.419, 66.586 230.829 L 70.156 235 35.078 235 L 0 235 0 240 L 0 245 47.965 245 L 95.930 245 97.110 247.250 C 98.256 249.433, 98.233 249.448, 96.317 247.750 C 91.985 243.910, 88.068 245.973, 85.954 253.208 L 84.408 258.500 42.204 258.500 L -0 258.500 -0 309.756 L -0 361.013 73.612 360.756 L 147.223 360.500 149.116 355.424 C 152.061 347.530, 163.233 335.982, 167.900 336.009 C 168.780 336.015, 167.200 337.338, 164.388 338.951 C 158.516 342.319, 154.918 346.254, 151.445 353.109 C 148.382 359.153, 148.336 361.001, 151.250 360.996 C 152.977 360.993, 153.933 359.939, 155.363 356.462 C 158.004 350.042, 164.837 343.584, 171.761 340.964 C 182.308 336.975, 197.779 340.435, 202.652 347.872 C 204.018 349.957, 203.504 349.732, 199.946 346.685 C 186.664 335.316, 165.335 339.538, 157.451 355.097 C 156.103 357.757, 155 360.173, 155 360.467 C 155 360.760, 156.238 361, 157.752 361 C 159.865 361, 161.315 359.913, 164.002 356.313 C 168.562 350.203, 174.645 347, 181.689 347 C 190.369 347, 197.984 351.299, 201.615 358.250 C 202.692 360.312, 203.796 361, 206.026 361 C 209.217 361, 209.607 360.125, 207.945 356.684 C 206.926 354.574, 206.943 354.566, 208.445 356.441 C 209.300 357.509, 210 358.971, 210 359.691 C 210 360.576, 211.459 361, 214.500 361 C 216.975 361, 219 360.810, 219 360.578 C 219 360.346, 216.112 356.327, 212.583 351.648 C 209.054 346.968, 204.938 341.044, 203.438 338.484 C 200.182 332.929, 198.822 332.314, 191.273 332.986 C 179.458 334.038, 170.249 331.655, 167.945 326.950 C 166.259 323.508, 164.624 315.188, 164.908 311.500 C 165.077 309.300, 165.280 306.038, 165.358 304.250 C 165.498 301.039, 165.559 301, 170.464 301 C 174.950 301, 175.279 300.850, 173.877 299.449 C 173.024 298.595, 167.640 296.546, 161.913 294.895 C 151.528 291.901, 144.424 288.268, 143.318 285.386 C 142.166 282.385, 144.498 281.997, 151.540 284.020 C 159.962 286.439, 177.089 289.654, 186.058 290.500 C 192.232 291.082, 193.270 290.851, 203.748 286.559 C 214.729 282.062, 219.150 281.176, 221.907 282.922 C 222.951 283.582, 221.730 284.612, 217.178 286.910 C 209.953 290.557, 207.510 293.581, 208.878 297.180 C 209.391 298.528, 210.130 302.301, 210.521 305.565 C 210.986 309.441, 211.973 312.332, 213.366 313.900 C 214.540 315.219, 223.165 321.335, 232.532 327.489 C 241.900 333.644, 251.255 340.163, 253.321 341.977 C 257.636 345.765, 261.991 352.722, 262.934 357.332 L 263.582 360.500 312.541 360.500 L 361.500 360.500 361.676 308.500 C 361.773 279.900, 361.623 257.063, 361.343 257.750 C 360.945 258.727, 349.712 259, 309.917 259 C 281.913 259, 259 258.790, 259 258.534 C 259 258.278, 260.614 255.133, 262.586 251.544 L 266.173 245.019 313.836 244.760 L 361.500 244.500 361.794 239.500 L 362.088 234.500 326.918 234.775 L 291.748 235.051 295.018 231.326 C 299.055 226.728, 301.731 220.822, 303.078 213.534 C 304.343 206.693, 302.404 197.863, 298.108 190.901 L 295.271 186.303 300.482 175.901 C 303.348 170.181, 307.562 162.357, 309.846 158.516 C 312.131 154.675, 314 150.320, 314 148.838 C 314 145.183, 309.512 141.648, 305.811 142.388 C 303.344 142.881, 303.166 142.725, 303.909 140.716 C 304.722 138.516, 304.932 138.496, 333.114 138 L 361.500 137.500 361.794 132.500 L 362.089 127.500 335.044 127.781 C 312.869 128.012, 308 127.820, 308 126.713 C 308 125.970, 308.690 123.039, 309.534 120.199 L 311.067 115.034 336.284 114.767 L 361.500 114.500 361.758 57.250 L 362.016 0 181.008 0 L 0 0 0 57.484 M 0.468 58 C 0.468 89.625, 0.595 102.562, 0.749 86.750 C 0.904 70.937, 0.904 45.062, 0.749 29.250 C 0.595 13.437, 0.468 26.375, 0.468 58 M 224.012 82.250 C 218.419 85.102, 217.143 88.391, 219.610 93.590 C 221.805 98.217, 228.469 102.540, 235.727 104.047 C 248.654 106.731, 258.780 100.054, 254.715 91.528 C 250.175 82.008, 234.044 77.134, 224.012 82.250 M 118.180 85.686 C 115.804 86.526, 112.091 88.896, 109.930 90.952 C 105.090 95.556, 104.515 100.606, 108.388 104.479 C 115.278 111.369, 135.510 107.772, 141.059 98.671 C 144.545 92.954, 143.011 88.573, 136.316 85.125 C 133.265 83.554, 123.340 83.861, 118.180 85.686 M 165.004 112.742 C 161.479 113.167, 159 114.543, 159 116.075 C 159 116.532, 161.250 116.639, 164 116.314 C 166.750 115.988, 169 115.961, 169 116.253 C 169 117.455, 175.182 152.515, 175.439 152.772 C 175.886 153.219, 176.897 141.504, 177.534 128.500 C 177.857 121.900, 178.328 115.487, 178.580 114.250 C 179.012 112.129, 178.737 112.009, 173.769 112.160 C 170.871 112.248, 166.927 112.510, 165.004 112.742 M 0.300 133 C 0.300 136.025, 0.487 137.262, 0.716 135.750 C 0.945 134.238, 0.945 131.762, 0.716 130.250 C 0.487 128.738, 0.300 129.975, 0.300 133 M 247.884 129.664 C 246.624 130, 246.116 132.014, 245.580 138.798 C 245.201 143.584, 244.016 151.737, 242.945 156.915 C 241.874 162.094, 241.111 166.415, 241.249 166.518 C 241.387 166.621, 245.775 167.681, 251 168.874 C 256.225 170.067, 261.434 171.290, 262.575 171.592 C 264.353 172.063, 264.897 171.380, 266.373 166.821 C 267.321 163.894, 268.596 158.295, 269.207 154.378 C 270.239 147.770, 270.168 147.045, 268.229 144.321 C 266.438 141.807, 265.620 141.446, 262.525 141.807 C 257.795 142.360, 254.664 139.740, 255.254 135.723 C 255.577 133.523, 255.064 132.469, 252.930 130.950 C 251.424 129.877, 250.036 129.052, 249.846 129.116 C 249.656 129.180, 248.773 129.426, 247.884 129.664 M 85.459 134.067 C 85.096 134.653, 85.014 135.348, 85.276 135.610 C 85.538 135.872, 86.019 135.392, 86.345 134.543 C 87.021 132.781, 86.445 132.471, 85.459 134.067 M 106.279 137.347 C 101.437 141.487, 93 150.530, 93 151.580 C 93 151.832, 94.128 151.755, 95.507 151.409 C 98.617 150.628, 103 153.285, 103 155.950 C 103 158.229, 98.511 162, 95.799 162 C 92.890 162, 90 160.139, 90 158.265 C 90 157.037, 89.706 156.894, 88.881 157.719 C 88.055 158.545, 88.076 160.150, 88.961 163.838 C 90.996 172.322, 90.773 172.246, 104.500 169.059 C 118.162 165.887, 117.186 167.337, 114.639 154 C 113.746 149.325, 112.675 142.661, 112.258 139.192 L 111.500 132.883 106.279 137.347 M 259.441 137.532 C 260.509 138.339, 261.832 139, 262.382 139 C 262.932 139, 262.509 138.339, 261.441 137.532 C 260.374 136.724, 259.050 136.064, 258.500 136.064 C 257.950 136.064, 258.374 136.724, 259.441 137.532 M 254.062 152.749 C 249.087 156.777, 255.079 163.465, 261.699 161.273 C 263.821 160.571, 264.573 159.616, 264.801 157.338 C 265.323 152.125, 258.456 149.190, 254.062 152.749 M 94.667 155.667 C 93.302 157.031, 94.069 158.129, 96.172 157.820 C 98.920 157.415, 99.843 155, 97.250 155 C 96.196 155, 95.033 155.300, 94.667 155.667 M 256.217 156.166 C 256.459 156.900, 257.684 157.650, 258.940 157.834 C 260.491 158.061, 261.082 157.741, 260.783 156.834 C 260.541 156.100, 259.316 155.350, 258.060 155.166 C 256.509 154.939, 255.918 155.259, 256.217 156.166 M 165.500 165.117 C 154.735 166.446, 136.829 168.981, 133.635 169.629 L 130.770 170.209 134.635 172.408 C 136.761 173.617, 142.550 177.324, 147.500 180.647 C 152.450 183.969, 157.850 187.154, 159.500 187.725 L 162.500 188.762 159.685 189.881 C 155.397 191.586, 154.056 191.343, 141.240 186.549 C 123.449 179.894, 112.389 178.894, 105.622 183.328 C 102.289 185.512, 101.696 185.437, 103 183 C 104.281 180.607, 103.814 180.528, 100.013 182.493 C 96.910 184.098, 96.755 184.683, 95.493 199.500 C 95.165 203.350, 94.226 207.527, 93.405 208.781 C 92.062 210.835, 92.124 211.815, 94.031 218.609 C 102.208 247.751, 115.208 267.695, 133.326 278.892 L 137.010 281.169 140.082 278.585 C 142.386 276.646, 143.821 276.155, 145.827 276.620 C 147.297 276.961, 152.550 278.254, 157.500 279.493 C 162.450 280.733, 168.300 282.051, 170.500 282.422 L 174.500 283.097 171.389 281.148 C 169.677 280.075, 167.365 277.916, 166.250 276.349 C 163.706 272.772, 161 263.801, 161 258.940 C 161 255.764, 160.571 255.065, 157.960 253.984 C 153.575 252.167, 151.944 249.459, 153.151 245.998 C 154.548 241.990, 157.707 239.307, 159.233 240.833 C 160.148 241.748, 160 242.730, 158.586 245.124 C 155.968 249.555, 157.571 250.255, 168.500 249.453 C 179.311 248.659, 181.980 248.662, 193 249.473 C 203.401 250.239, 205 249.501, 202.414 245.124 C 200.991 242.714, 200.848 241.752, 201.777 240.823 C 202.706 239.894, 203.517 240.137, 205.402 241.908 C 210.203 246.418, 209.303 251.775, 203.365 254.046 C 201.664 254.697, 200.988 256.253, 200.046 261.682 C 199.395 265.432, 198.069 270.300, 197.098 272.500 C 195.198 276.807, 188.892 283, 186.406 283 C 185.568 283, 185.160 283.450, 185.500 284 C 186.737 286.002, 193.283 284.924, 200.312 281.560 C 212.780 275.592, 219.899 274.560, 224.362 278.070 L 226.994 280.140 230.247 277.896 C 248.748 265.130, 259.653 247.665, 268.464 216.689 C 270.944 207.971, 270.950 207.851, 269.070 205.189 C 268.026 203.710, 265.951 198.225, 264.460 193 C 262.970 187.775, 261.694 183.443, 261.625 183.374 C 261.556 183.305, 260.419 182.916, 259.099 182.509 C 257.141 181.906, 256.812 182.067, 257.317 183.385 C 258.100 185.425, 257.562 185.415, 254.378 183.328 C 247.611 178.894, 236.551 179.894, 218.760 186.549 C 205.947 191.342, 204.605 191.585, 200.315 189.884 L 197.500 188.768 200.580 187.634 C 202.275 187.010, 209.158 182.900, 215.876 178.500 L 228.091 170.500 217.296 168.767 C 202.384 166.374, 181.309 163.977, 176.500 164.128 C 174.300 164.197, 169.350 164.642, 165.500 165.117 M 67.284 198.750 C 64.831 204.447, 65.098 214.505, 67.853 220.195 C 71.739 228.224, 79.253 233.805, 88.385 235.444 C 91.836 236.063, 92.210 235.938, 91.733 234.321 C 86.488 216.536, 85.287 213.740, 82.360 212.509 C 78.273 210.791, 74.494 206.003, 72.510 200.031 C 71.591 197.264, 70.402 195, 69.869 195 C 69.335 195, 68.171 196.688, 67.284 198.750 M 288.682 200.948 C 286.149 206.787, 282.553 210, 278.550 210 C 277.697 210, 277 210.683, 277 211.518 C 277 212.354, 275.390 218.018, 273.421 224.107 C 271.453 230.195, 270.044 235.377, 270.289 235.622 C 271.139 236.473, 280.452 233.884, 283.648 231.909 C 287.884 229.291, 292.883 223.516, 294.759 219.073 C 297.595 212.355, 295.737 195, 292.182 195 C 291.676 195, 290.101 197.677, 288.682 200.948 M 108.250 197.127 C 105.264 200.167, 108.222 203, 114.383 203 C 119.590 203, 132.676 207.433, 139.371 211.465 C 145.727 215.292, 148.727 215.875, 149.653 213.463 C 150.514 211.218, 147.703 208.614, 140.168 204.680 C 128.308 198.486, 110.950 194.379, 108.250 197.127 M 241.500 197.628 C 233.522 199.349, 217.423 206.646, 214.629 209.808 C 212.564 212.145, 213.052 215, 215.516 215 C 216.384 215, 220.336 213.238, 224.297 211.085 C 232.550 206.599, 243.510 203, 248.914 203 C 253.842 203, 256.906 200.783, 255.399 198.309 C 253.967 195.956, 250.125 195.767, 241.500 197.628 M 177.376 221.159 C 173.682 222.144, 171.247 224.647, 172.634 226.034 C 173.233 226.633, 174.767 226.537, 176.792 225.773 C 179.303 224.825, 180.697 224.825, 183.208 225.773 C 186.904 227.168, 189.056 225.977, 187.100 223.620 C 185.212 221.345, 180.834 220.238, 177.376 221.159 M 0.300 240 C 0.300 243.025, 0.487 244.262, 0.716 242.750 C 0.945 241.238, 0.945 238.762, 0.716 237.250 C 0.487 235.738, 0.300 236.975, 0.300 240 M 98.005 250.782 C 97.996 253.034, 100.859 259, 101.949 259 C 102.527 259, 102.986 258.663, 102.969 258.250 C 102.911 256.860, 98.010 249.487, 98.005 250.782 M 90.546 257.861 C 89.594 260.729, 87.334 265.274, 85.525 267.963 L 82.235 272.851 84.981 275.482 C 86.491 276.928, 89.453 281.065, 91.564 284.674 L 95.402 291.236 96.723 285.418 C 97.450 282.218, 99.185 277.654, 100.579 275.275 L 103.113 270.950 99.562 266.801 C 97.608 264.519, 95.170 260.400, 94.144 257.649 L 92.278 252.647 90.546 257.861 M 171.367 254.318 L 165.233 255.319 165.704 259.410 C 166.502 266.340, 168.919 272.548, 171.951 275.453 C 175.681 279.027, 182.270 279.946, 186.922 277.540 C 190.782 275.544, 194.552 268.085, 195.542 260.486 L 196.195 255.472 188.339 254.236 C 179.749 252.884, 180.168 252.882, 171.367 254.318 M 0.465 309.500 C 0.465 338.100, 0.593 349.656, 0.749 335.180 C 0.906 320.704, 0.906 297.304, 0.749 283.180 C 0.593 269.056, 0.465 280.900, 0.465 309.500 M 153.250 324.970 C 152.563 326.071, 152 328.141, 152 329.570 C 152 331.220, 152.456 332.003, 153.250 331.718 C 153.938 331.472, 155.287 331.675, 156.250 332.170 C 157.674 332.903, 158 332.635, 158 330.735 C 158 329.451, 158.540 327.860, 159.200 327.200 C 160.133 326.267, 159.991 326, 158.560 326 C 157.548 326, 156.221 325.317, 155.610 324.483 C 154.641 323.159, 154.341 323.221, 153.250 324.970 M 136.667 337.667 C 135.651 338.682, 135.872 344, 136.929 344 C 137.592 344, 138.077 337.040, 137.417 337.004 C 137.371 337.002, 137.033 337.300, 136.667 337.667 M 140.116 339.668 C 140.052 340.311, 139.709 341.661, 139.353 342.668 C 138.851 344.089, 138.984 344.244, 139.947 343.356 C 140.629 342.727, 140.973 341.377, 140.710 340.356 C 140.447 339.335, 140.180 339.026, 140.116 339.668 M 142.145 343.517 C 139.935 345.848, 140.189 346.867, 142.573 345.235 C 143.492 344.605, 145.343 340.968, 144.719 341.017 C 144.598 341.027, 143.440 342.152, 142.145 343.517 M 173.500 352.871 C 169.906 355.103, 165.445 359.778, 166.194 360.527 C 166.488 360.822, 167.472 359.929, 168.379 358.544 C 173.825 350.232, 188.615 350, 195.447 358.119 C 198.539 361.794, 199.852 361.905, 196.997 358.250 C 191.540 351.266, 180.247 348.680, 173.500 352.871 " stroke="none" fill="black" fill-rule="evenodd"/>
	<path fill-opacity="0.855" d="M 107.328 11.750 C 103.993 18.213, 99.571 28.337, 97.500 34.250 C 95.430 40.163, 93.458 44.983, 93.118 44.963 C 92.778 44.943, 89.641 40.695, 86.148 35.524 C 76.731 21.585, 73.411 18, 69.922 18 C 64.576 18, 63 20.864, 63 30.578 C 63 35.296, 63.493 44.553, 64.095 51.150 C 64.697 57.747, 64.981 63.352, 64.728 63.606 C 64.474 63.860, 61.651 61.937, 58.455 59.334 C 54.026 55.726, 51.823 54.600, 49.193 54.600 C 42.354 54.600, 40.503 60.481, 43.605 72.356 C 44.487 75.735, 46.985 86.600, 49.156 96.500 C 53.582 116.689, 56.644 130.393, 57.479 133.750 C 57.950 135.647, 57.633 136, 55.453 136 C 51.709 136, 49.446 137.508, 48.018 140.956 C 46.856 143.762, 47.104 144.684, 51.320 153.245 C 57.028 164.833, 66 185.482, 66 187.029 C 66 187.668, 65.143 189.395, 64.095 190.866 C 58.507 198.715, 57.469 213.791, 61.879 223.070 C 64.217 227.989, 70.898 235.666, 75.078 238.235 C 78.610 240.407, 87.653 243, 91.696 243 C 95.356 243, 94.890 242.416, 102.962 257.108 C 108.410 267.023, 118.530 277.642, 129.167 284.605 C 135.857 288.984, 136.607 289.764, 135.060 290.731 C 132.170 292.535, 124.983 303.782, 119.870 314.500 C 115.430 323.807, 104 356.242, 104 359.535 C 104 360.763, 106.674 361, 120.500 361 L 137 361 137 353.639 C 137 346.477, 137.063 346.289, 139.321 346.721 C 141.527 347.143, 141.606 347.439, 140.901 352.635 C 140.492 355.643, 139.618 358.756, 138.957 359.552 C 137.938 360.780, 138.446 361, 142.297 361 C 146.827 361, 146.844 360.987, 148.423 356.250 C 149.295 353.637, 151.709 349.250, 153.788 346.500 C 157.537 341.543, 167.460 334.548, 169.209 335.629 C 169.710 335.939, 168.325 337.079, 166.132 338.164 C 161.092 340.658, 153.469 348.752, 150.965 354.268 C 148.540 359.611, 148.523 361, 150.883 361 C 152.170 361, 153.610 359.273, 155.439 355.536 C 158.749 348.770, 165.553 342.641, 172.209 340.431 C 179.563 337.988, 190.339 338.836, 196.295 342.327 C 200.452 344.763, 208.607 354.618, 210.298 359.250 C 210.766 360.531, 212.044 361, 215.064 361 L 219.192 361 215.571 356.250 C 213.579 353.637, 209.238 347.450, 205.924 342.500 L 199.898 333.500 188.199 333.500 C 177.576 333.500, 176.090 333.270, 172.040 331 C 167.931 328.697, 167.469 328.027, 166.171 322.500 C 164.826 316.768, 164.621 313.579, 165.011 304.383 L 165.185 300.266 169.592 300.763 C 172.218 301.059, 174 300.852, 174 300.251 C 174 298.977, 170.753 297.670, 159.737 294.513 C 150.277 291.801, 144.365 288.593, 143.405 285.649 C 142.188 281.919, 144.483 281.677, 154.941 284.436 C 168.707 288.067, 180.210 289.997, 188.092 289.999 C 193.523 290, 196.371 289.295, 204.258 286 C 213.525 282.128, 221.165 280.840, 222.458 282.932 C 222.775 283.445, 220.276 285.335, 216.905 287.131 C 209.447 291.106, 208.407 293.006, 209.892 299.933 C 210.502 302.774, 211 306.567, 211 308.362 C 211 312.763, 213.053 314.536, 234 328.223 C 255.192 342.071, 261.429 348.322, 263.459 357.750 C 264.053 360.507, 264.598 361, 267.054 361 C 269.777 361, 269.914 360.806, 269.352 357.750 C 267.779 349.206, 262.443 341.592, 252.513 333.720 C 248.332 330.406, 247.100 328.613, 244.897 322.633 C 239.747 308.652, 236.871 303.752, 229.842 296.982 L 223.075 290.464 228.062 287.661 C 235.768 283.329, 247.026 273.923, 252 267.661 C 254.475 264.545, 258.760 257.834, 261.523 252.748 L 266.546 243.500 271.621 242.878 C 277.510 242.156, 283.442 240.341, 287 238.174 C 291.091 235.682, 297.795 227.965, 300.121 223.070 C 304.745 213.342, 303.455 198.299, 297.302 190.174 L 294.783 186.849 299.734 176.674 C 302.458 171.078, 306.782 163.137, 309.343 159.026 C 314.455 150.821, 314.937 148.379, 312.127 144.909 C 310.752 143.211, 309.291 142.624, 306.627 142.699 C 304.632 142.756, 303 142.651, 303 142.466 C 303 142.281, 303.499 140.863, 304.109 139.315 C 306.230 133.932, 320.983 76.601, 320.994 73.705 C 321.005 70.489, 316.476 67, 312.295 67.004 C 307.549 67.008, 304.027 69.156, 296.852 76.423 L 291.205 82.143 290.108 75.322 C 288.531 65.510, 287.220 53.126, 286.425 40.539 C 285.779 30.321, 285.543 29.390, 282.943 26.789 C 277.828 21.674, 270.001 23.831, 266.885 31.216 C 265.610 34.239, 265.460 33.148, 265 17.500 L 264.500 0.500 255.683 0.210 L 246.866 -0.080 240.683 4.352 C 237.282 6.789, 233.407 9.960, 232.071 11.397 L 229.642 14.010 227.045 7.255 L 224.448 0.500 187.376 0.238 L 150.304 -0.024 143.975 8.958 L 137.646 17.939 133.264 10.251 C 127.208 -0.374, 127.689 0, 120.073 0 L 113.392 0 107.328 11.750 M 222.718 76.092 C 211.189 78.806, 206.141 86.571, 210.466 94.935 C 212.749 99.349, 220.635 105.709, 226.853 108.151 C 235.125 111.401, 250.728 111.447, 256.729 108.240 C 267.962 102.238, 265.689 89.561, 251.892 81.254 C 244.910 77.051, 243.357 77.048, 249.610 81.250 C 261.430 89.193, 262.309 100.768, 251.490 106.005 C 241.498 110.842, 224.361 106.623, 217.927 97.741 C 214.846 93.488, 214.031 87.680, 215.998 84.004 C 217.728 80.771, 222.761 77.926, 229.240 76.519 C 235.427 75.175, 235.447 75.159, 231 75.180 C 228.525 75.191, 224.798 75.602, 222.718 76.092 M 237.813 76.683 C 238.534 76.972, 239.397 76.936, 239.729 76.604 C 240.061 76.272, 239.471 76.036, 238.417 76.079 C 237.252 76.127, 237.015 76.364, 237.813 76.683 M 241.813 77.683 C 242.534 77.972, 243.397 77.936, 243.729 77.604 C 244.061 77.272, 243.471 77.036, 242.417 77.079 C 241.252 77.127, 241.015 77.364, 241.813 77.683 M 127 79.566 C 140.511 81.926, 145.318 84.850, 146.559 91.461 C 148.529 101.962, 132.856 113.081, 117.984 111.732 C 107.451 110.777, 101.427 105.318, 102.374 97.587 C 102.981 92.630, 105.389 89.351, 111.435 85.250 C 118.196 80.663, 115.560 81.192, 108.313 85.876 C 90.858 97.157, 94.982 112.943, 115.839 114.689 C 131.327 115.985, 148.842 106.936, 152.137 95.936 C 153.082 92.784, 152.962 91.590, 151.379 88.348 C 148.531 82.515, 142.646 79.713, 132.567 79.388 C 128.130 79.246, 125.625 79.325, 127 79.566 M 120.813 80.683 C 121.534 80.972, 122.397 80.936, 122.729 80.604 C 123.061 80.272, 122.471 80.036, 121.417 80.079 C 120.252 80.127, 120.015 80.364, 120.813 80.683 M 223.314 81.950 C 216.515 86.096, 216.218 91.271, 222.424 97.476 C 234.506 109.559, 258.979 106.006, 255.629 92.657 C 254.775 89.256, 250.234 85.057, 244.500 82.366 C 237.958 79.296, 227.988 79.100, 223.314 81.950 M 123 83.895 C 114.790 85.627, 106.846 91.781, 105.404 97.526 C 104.666 100.467, 106.804 104.171, 110.721 106.736 C 114.761 109.382, 126.070 109.030, 132.238 106.067 C 140.997 101.860, 145.058 94.714, 141.970 88.945 C 139.803 84.895, 130.278 82.359, 123 83.895 M 205.022 99.105 L 205 106.710 210.323 111.745 C 219.809 120.716, 230.890 124.631, 244.220 123.720 C 254.778 122.999, 258.927 120.838, 261.417 114.763 C 262.485 112.158, 263.144 109.811, 262.881 109.547 C 262.617 109.284, 260.270 110.148, 257.665 111.467 C 241.426 119.688, 213.927 111.055, 206.871 95.521 L 205.044 91.500 205.022 99.105 M 167.271 93.737 L 162.041 94.103 162.661 100.302 C 163.001 103.711, 163.329 106.520, 163.390 106.544 C 163.450 106.567, 171.488 106.410, 181.250 106.195 L 199 105.802 199 100.026 C 199 94.357, 198.942 94.238, 195.875 93.625 C 192.727 92.995, 176.966 93.057, 167.271 93.737 M 154.619 99.383 C 153.615 103.380, 142.950 112.401, 136.275 114.897 C 124.007 119.485, 110.898 119.336, 102.250 114.512 C 99.912 113.208, 98 112.317, 98 112.533 C 98 112.749, 98.917 115.375, 100.037 118.369 C 101.752 122.952, 102.661 124.047, 105.793 125.300 C 112.035 127.798, 121.667 128.331, 129.776 126.626 C 138.880 124.713, 145.361 121.224, 151.902 114.717 C 156.960 109.686, 157 109.597, 157 103.323 C 157 96.990, 155.742 94.908, 154.619 99.383 M 169.238 112.050 C 161.980 112.797, 161.972 112.801, 156.103 118.893 C 148.552 126.731, 138.881 131.510, 127.092 133.228 L 118.738 134.445 119.319 141.973 C 119.639 146.113, 120.676 153.028, 121.624 157.340 L 123.348 165.180 126.424 164.530 C 141.129 161.420, 164.274 158.703, 177.682 158.513 L 192.865 158.298 210.055 143.510 L 227.246 128.723 220.373 125.518 C 216.593 123.755, 211.241 120.514, 208.481 118.315 C 203.783 114.574, 202.823 114.242, 193.481 113.122 C 178.305 111.302, 177.048 111.247, 169.238 112.050 M 260.729 125.407 C 259.109 126.637, 259.752 127.547, 268.301 136.125 C 273.440 141.281, 278.386 146.625, 279.294 148 C 280.853 150.362, 280.859 150.286, 279.408 146.628 C 276.520 139.350, 265.781 123.971, 263.628 124.032 C 263.008 124.049, 261.703 124.668, 260.729 125.407 M 94.274 134.319 C 92.010 137.719, 88.978 142.975, 87.536 146 C 85.149 151.008, 85.116 151.232, 87.167 148.500 C 88.406 146.850, 92.551 142.238, 96.378 138.251 C 100.205 134.264, 103.148 130.838, 102.918 130.637 C 102.688 130.435, 101.575 129.791, 100.445 129.205 C 98.610 128.252, 97.950 128.799, 94.274 134.319 M 245.603 133.250 C 245.317 135.588, 244.806 140.425, 244.469 144 C 243.859 150.465, 241.689 162.048, 240.517 165.098 C 240.008 166.421, 241.897 167.167, 251.500 169.436 C 257.879 170.943, 263.680 171.953, 264.391 171.680 C 265.807 171.137, 268.270 163.029, 269.987 153.265 C 271.009 147.448, 270.932 146.827, 268.829 143.982 C 266.979 141.480, 266.087 141.042, 263.846 141.534 C 261.131 142.130, 257.178 140.698, 255.752 138.600 C 255.340 137.995, 255.249 136.328, 255.549 134.896 C 255.973 132.875, 255.533 131.924, 253.583 130.646 C 252.201 129.741, 249.957 129, 248.596 129 C 246.434 129, 246.057 129.535, 245.603 133.250 M 85.427 133.443 C 83.964 134.523, 83.779 135.148, 84.657 136.040 C 85.541 136.937, 86.093 136.696, 86.988 135.022 C 88.482 132.230, 87.886 131.628, 85.427 133.443 M 105.408 137.250 C 99.382 142.401, 94.404 147.932, 90.178 154.169 L 87.015 158.838 89.048 165.419 C 90.166 169.039, 91.625 172.001, 92.290 172.003 C 93.181 172.005, 116.554 166.990, 117.671 166.558 C 117.765 166.521, 116.974 162.893, 115.914 158.496 C 114.854 154.098, 113.697 146.563, 113.343 141.750 C 112.932 136.148, 112.283 133, 111.540 133 C 110.902 133, 108.143 134.912, 105.408 137.250 M 258 136.393 C 258 137.159, 258.712 138.059, 259.582 138.393 C 262.565 139.538, 263.308 138.998, 261.500 137 C 259.387 134.665, 258 134.424, 258 136.393 M 91.655 153.829 C 88.457 157.362, 90.289 161, 95.266 161 C 99.697 161, 102 159.315, 102 156.072 C 102 151.744, 94.929 150.210, 91.655 153.829 M 254.250 152.662 C 252.237 153.475, 252.735 158.788, 254.934 159.965 C 260.865 163.139, 266.768 159.348, 263.548 154.433 C 262 152.070, 257.732 151.257, 254.250 152.662 M 94.460 155.468 C 92.877 156.674, 92.762 157.135, 93.861 157.858 C 95.809 159.142, 99.151 158.022, 98.798 156.204 C 98.373 154.014, 96.731 153.735, 94.460 155.468 M 256.122 154.904 C 255.364 155.384, 255.019 156.222, 255.356 156.767 C 256.273 158.251, 259.593 158.877, 261.139 157.858 C 262.239 157.134, 262.128 156.678, 260.559 155.481 C 258.314 153.769, 257.982 153.725, 256.122 154.904 M 152.500 166.556 C 143.150 167.857, 134.469 169.177, 133.210 169.490 C 131.270 169.971, 132.800 171.306, 143.210 178.209 C 149.969 182.692, 157.030 186.897, 158.900 187.553 L 162.301 188.746 158.714 189.929 C 155.561 190.970, 154.243 190.794, 147.813 188.470 C 127.999 181.307, 125.564 180.675, 117.456 180.587 C 111.370 180.521, 108.762 180.926, 106.741 182.250 C 103.470 184.394, 102.611 184.457, 103.362 182.500 C 104.080 180.628, 103.624 180.626, 100.021 182.489 C 96.571 184.273, 96.345 184.970, 95.485 196.500 C 95.116 201.450, 94.141 206.937, 93.319 208.694 C 91.937 211.649, 92.018 212.558, 94.397 220.828 C 101.920 246.979, 113.711 265.424, 130.392 277.139 L 137.453 282.098 139.310 279.549 C 141.710 276.255, 143.719 276.302, 158.357 280.003 C 173.079 283.724, 175.592 283.873, 170.957 280.750 C 166.567 277.791, 163.131 270.908, 161.646 262.098 C 160.522 255.427, 160.220 254.854, 156.972 253.233 C 152.287 250.895, 151.663 246.247, 155.515 242.394 C 157.481 240.428, 158.444 240.044, 159.287 240.887 C 160.130 241.730, 159.955 242.806, 158.600 245.100 C 157.304 247.293, 157.089 248.489, 157.853 249.253 C 159.179 250.579, 172.311 250.485, 176.795 249.118 C 179.180 248.391, 182.173 248.512, 187.627 249.556 C 199.530 251.833, 206.755 249.702, 202.621 245.134 C 200.610 242.911, 200.556 241.384, 202.463 240.652 C 204.706 239.792, 208.153 244.826, 207.799 248.447 C 207.566 250.826, 206.702 251.890, 203.887 253.267 C 200.480 254.933, 200.245 255.362, 199.750 260.819 C 198.740 271.954, 192.801 281.290, 185.840 282.682 C 184.255 282.999, 182.683 283.704, 182.346 284.250 C 181.074 286.307, 195.333 284.427, 201 281.790 C 213.540 275.955, 218.086 275.182, 223.479 277.965 L 227.457 280.018 232.791 276.344 C 248.262 265.689, 260.144 246.467, 268.062 219.288 L 271.164 208.637 269.212 205.069 C 267.557 202.044, 266.311 198.345, 262.401 184.834 C 262.135 183.917, 260.613 182.712, 259.018 182.156 C 256.645 181.329, 256.218 181.404, 256.666 182.573 C 257.390 184.458, 256.499 184.373, 253.259 182.250 C 251.234 180.924, 248.641 180.523, 242.544 180.595 C 234.402 180.692, 232.888 181.078, 213.692 187.960 C 205.822 190.781, 204.502 190.991, 201.292 189.931 L 197.699 188.746 201.100 187.550 C 202.970 186.892, 209.894 182.791, 216.486 178.437 L 228.473 170.521 221.486 169.252 C 207.821 166.771, 183.752 164.001, 176.681 164.096 C 172.731 164.149, 161.850 165.256, 152.500 166.556 M 67.402 198.225 C 64.684 204.262, 64.853 215.120, 67.750 220.634 C 70.481 225.831, 75.122 230.511, 80.024 233.012 C 84.302 235.195, 91.994 236.713, 92.011 235.378 C 92.017 234.895, 90.556 229.713, 88.766 223.862 C 85.726 213.929, 85.297 213.147, 82.285 212.059 C 78.141 210.560, 75.544 207.199, 72.874 199.876 C 71.696 196.644, 70.411 194, 70.018 194 C 69.625 194, 68.448 195.901, 67.402 198.225 M 289.618 198.584 C 287.133 204.626, 283.588 208.712, 280.182 209.460 C 277.637 210.019, 277.124 211.013, 273.709 221.987 C 271.669 228.543, 270 234.436, 270 235.081 C 270 236.714, 277.137 235.481, 281.976 233.012 C 291.264 228.274, 296.403 219.923, 296.461 209.475 C 296.497 203.004, 293.956 193.992, 292.098 194.004 C 291.769 194.006, 290.653 196.067, 289.618 198.584 M 108.496 197.647 C 106.100 200.043, 107.849 201.795, 113.325 202.483 C 121.902 203.562, 129.057 205.922, 137.863 210.578 C 146.703 215.252, 148.565 215.770, 149.269 213.750 C 150.065 211.470, 148.848 210.052, 143.093 206.556 C 132.075 199.863, 111.562 194.581, 108.496 197.647 M 245.870 197.071 C 238.184 198.200, 228.712 201.479, 221.403 205.540 C 214.369 209.448, 212.718 211.102, 213.590 213.373 C 214.484 215.704, 216.316 215.403, 221.814 212.020 C 228.699 207.783, 238.920 204.149, 247.564 202.863 C 254.305 201.860, 255 201.545, 255 199.485 C 255 197.731, 252.680 195.389, 251.668 196.122 C 251.576 196.189, 248.966 196.616, 245.870 197.071 M 175.250 222.031 C 173.139 222.880, 172.299 224.965, 173.560 226.227 C 173.868 226.535, 175.525 226.086, 177.242 225.229 C 180.074 223.817, 180.620 223.819, 183.125 225.257 C 185.409 226.568, 186.077 226.612, 186.991 225.511 C 189.578 222.393, 180.812 219.795, 175.250 222.031 M 88.733 247.750 C 87.866 248.713, 86.833 250.850, 86.439 252.500 C 85.695 255.613, 80.173 265.693, 77.008 269.717 C 74.650 272.714, 75.437 275.469, 79.547 278.603 C 81.451 280.056, 84.589 284.482, 87.001 289.119 C 91.159 297.111, 93.513 299.202, 97.253 298.224 C 99.577 297.616, 101.531 293.746, 102.412 288.005 C 102.791 285.533, 104.654 280.734, 106.551 277.342 C 108.448 273.950, 110 270.641, 110 269.989 C 110 269.336, 108.695 267.583, 107.100 266.093 C 103.402 262.639, 98 254.156, 98 251.804 C 98 249.460, 94.516 246, 92.155 246 C 91.140 246, 89.600 246.787, 88.733 247.750 M 90.575 256.773 C 89.668 259.506, 87.410 264.258, 85.558 267.333 L 82.192 272.924 85.363 276.286 C 87.107 278.135, 90.072 282.534, 91.951 286.060 L 95.369 292.473 96.980 285.986 C 98.669 279.185, 100.177 275.762, 102.878 272.604 C 104.014 271.277, 104.147 270.584, 103.324 270.295 C 101.290 269.582, 96.727 262.877, 94.432 257.231 L 92.226 251.803 90.575 256.773 M 172.641 253.850 L 164.781 255.387 165.389 259.823 C 166.453 267.581, 168.329 272.263, 171.745 275.678 C 174.712 278.645, 175.662 279, 180.633 279 C 185.599 279, 186.557 278.643, 189.503 275.697 C 192.963 272.237, 196 264.183, 196 258.466 C 196 255.357, 195.880 255.275, 189.750 254.237 C 186.313 253.656, 182.825 252.985, 182 252.747 C 181.175 252.509, 176.963 253.005, 172.641 253.850 M 175.813 283.683 C 176.534 283.972, 177.397 283.936, 177.729 283.604 C 178.061 283.272, 177.471 283.036, 176.417 283.079 C 175.252 283.127, 175.015 283.364, 175.813 283.683 M 153.550 323.571 C 153.110 324.632, 152.431 327.106, 152.042 329.068 C 151.343 332.595, 151.374 332.635, 154.665 332.568 C 157.097 332.518, 157.995 332.044, 157.997 330.809 C 157.999 329.879, 158.450 328.840, 159 328.500 C 160.462 327.596, 160.221 326, 158.622 326 C 157.864 326, 156.593 325.020, 155.797 323.821 C 154.400 321.717, 154.324 321.708, 153.550 323.571 M 136.200 338.200 C 134.622 339.778, 134.686 341.195, 136.442 343.559 C 137.772 345.349, 137.872 345.169, 137.730 341.250 C 137.645 338.913, 137.536 337, 137.488 337 C 137.439 337, 136.860 337.540, 136.200 338.200 M 139.769 340.956 C 139.078 343.417, 139.491 344.842, 140.581 343.753 C 140.900 343.433, 141.004 342.121, 140.810 340.836 L 140.459 338.500 139.769 340.956 M 176.326 341.034 C 174.031 341.493, 170.881 342.529, 169.326 343.335 C 164.921 345.619, 158.935 351.930, 156.915 356.419 L 155.079 360.500 157.781 360.840 C 159.562 361.064, 160.828 360.585, 161.492 359.435 C 163.787 355.465, 168.549 350.761, 172.115 348.941 C 177.238 346.328, 186.749 346.321, 191.858 348.928 C 195.671 350.873, 203 358.158, 203 360.003 C 203 360.551, 204.350 361, 206 361 C 207.650 361, 208.996 360.663, 208.991 360.250 C 208.964 358.155, 202.612 348.806, 199.712 346.594 C 193.125 341.569, 184.221 339.452, 176.326 341.034 M 141.286 343.606 C 139.190 345.872, 139.175 346, 141.001 346 C 142.062 346, 143.395 345.130, 143.965 344.066 C 146.024 340.218, 144.639 339.980, 141.286 343.606 M 179.250 351.716 C 180.762 351.945, 183.238 351.945, 184.750 351.716 C 186.262 351.487, 185.025 351.300, 182 351.300 C 178.975 351.300, 177.738 351.487, 179.250 351.716 M 173.507 352.989 C 173.157 353.555, 173.558 353.723, 174.448 353.382 C 176.180 352.717, 176.497 352, 175.059 352 C 174.541 352, 173.843 352.445, 173.507 352.989 M 190.589 353.891 C 192.287 354.927, 194.650 357.011, 195.839 358.522 C 197.027 360.033, 198 360.811, 198 360.251 C 198 358.863, 190.299 351.999, 188.747 352.004 C 188.061 352.006, 188.890 352.855, 190.589 353.891 M 168.924 356.750 L 166.500 359.500 169.250 357.076 C 171.820 354.810, 172.459 354, 171.674 354 C 171.495 354, 170.258 355.238, 168.924 356.750 " stroke="none" fill="black" fill-rule="evenodd"/>
</svg>