<svg xmlns="http://www.w3.org/2000/svg" width="385" height="439" viewBox="0 0 385 439" version="1.1">
	<path d="M 170.870 1.472 C 131.998 7.827, 99.265 27.703, 76.003 59.077 C 38.278 109.957, 38.924 181.985, 77.555 231.983 L 82.987 239.013 78.993 243.007 C 75.450 246.550, 75 247.538, 75 251.777 C 75 256.575, 76.603 259.992, 80.265 263 C 81.960 264.393, 80.548 265.553, 60.484 279.250 C 42.452 291.560, 38.278 294, 35.254 294 C 20.519 294, 5.560 305.386, 1.373 319.789 C -5.240 342.536, 11.812 365.252, 35.500 365.252 C 47.814 365.252, 58.094 359.664, 65.311 349.049 C 67.065 346.469, 72.325 340.891, 77 336.653 L 85.500 328.949 85.762 367.028 L 86.024 405.107 81.088 409.914 C 73.456 417.348, 71.989 427.236, 77.340 435.177 L 79.579 438.500 127.935 438.760 L 176.291 439.019 180.064 435.053 C 186.763 428.012, 187.486 417.867, 181.861 409.846 C 179.174 406.013, 179.549 403.462, 183.423 399.235 C 186.603 395.766, 187.248 395.500, 192.500 395.500 C 197.752 395.500, 198.397 395.766, 201.577 399.235 C 205.451 403.462, 205.826 406.013, 203.139 409.846 C 197.514 417.867, 198.237 428.012, 204.936 435.053 L 208.709 439.019 257.065 438.760 L 305.421 438.500 307.660 435.177 C 313.011 427.236, 311.544 417.348, 303.912 409.914 L 298.976 405.107 299.238 367.028 L 299.500 328.949 308 336.653 C 312.675 340.891, 317.935 346.469, 319.689 349.049 C 329.483 363.457, 346.611 369.024, 362.500 362.963 C 370.421 359.942, 379.888 350.692, 382.418 343.500 C 383.386 340.750, 384.587 337.719, 385.089 336.764 C 386.215 334.618, 386.307 321.692, 385.192 322.382 C 384.747 322.656, 383.871 320.967, 383.246 318.628 C 379.778 305.664, 363.912 294, 349.746 294 C 346.722 294, 342.548 291.560, 324.516 279.250 C 304.452 265.553, 303.040 264.393, 304.735 263 C 308.397 259.992, 310 256.575, 310 251.777 C 310 247.538, 309.550 246.550, 306.007 243.007 L 302.013 239.013 307.445 231.983 C 346.076 181.985, 346.722 109.957, 308.997 59.077 C 287.662 30.303, 256.879 10.353, 222.467 3 C 209.418 0.212, 183.308 -0.561, 170.870 1.472 M 143.746 49.022 C 124.472 53.891, 112.057 73.440, 116.029 92.666 C 118.538 104.812, 125.767 114.023, 137 119.387 C 142.780 122.146, 144.496 122.490, 152.500 122.490 C 160.504 122.490, 162.220 122.146, 168 119.387 C 176.229 115.458, 182.390 109.291, 186.370 101 C 189.151 95.207, 189.490 93.522, 189.490 85.500 C 189.490 77.511, 189.143 75.770, 186.400 70 C 180.294 57.153, 168.624 49.201, 154.794 48.463 C 150.782 48.249, 145.811 48.501, 143.746 49.022 M 223.746 49.022 C 212.931 51.754, 203.554 59.577, 198.600 70 C 195.857 75.770, 195.510 77.511, 195.510 85.500 C 195.510 93.522, 195.849 95.207, 198.630 101 C 202.610 109.291, 208.771 115.458, 217 119.387 C 222.780 122.146, 224.496 122.490, 232.500 122.490 C 240.504 122.490, 242.220 122.146, 248 119.387 C 276.753 105.658, 276.929 65.236, 248.294 51.771 C 241.415 48.536, 230.505 47.315, 223.746 49.022 M 102.465 103.163 C 83.866 120.830, 74.522 140.014, 73.297 163.046 C 71.891 189.483, 82.945 213.872, 105.344 233.750 L 111.259 239 192.500 239 L 273.741 239 279.656 233.750 C 302.055 213.872, 313.109 189.483, 311.703 163.046 C 310.478 140.014, 301.134 120.830, 282.535 103.163 C 275.024 96.028, 273 94.792, 273 97.340 C 273 100.714, 266.538 111.147, 261.492 115.919 C 255.252 121.820, 247.945 125.524, 239.436 127.096 C 230.759 128.700, 223.601 127.524, 211.869 122.566 C 210.521 121.997, 210.228 122.576, 210.182 125.904 C 210.077 133.533, 204.633 140.813, 197.750 142.531 L 195 143.217 195 183.108 L 195 223 197.316 223 C 198.590 223, 202.303 222.519, 205.566 221.932 C 225.413 218.361, 241.761 209.659, 255.612 195.295 C 259.906 190.842, 262.211 189.144, 263.362 189.585 C 264.263 189.931, 265 190.784, 265 191.482 C 265 193.380, 252.801 205.329, 245.715 210.372 C 207.969 237.237, 159.624 232.765, 126.535 199.349 C 119.775 192.523, 118.841 190.659, 121.638 189.585 C 122.789 189.144, 125.094 190.842, 129.388 195.295 C 143.239 209.659, 159.587 218.361, 179.434 221.932 C 182.697 222.519, 186.410 223, 187.684 223 L 190 223 190 183.108 L 190 143.217 187.250 142.531 C 180.367 140.813, 174.923 133.533, 174.818 125.904 C 174.772 122.576, 174.479 121.997, 173.131 122.566 C 161.399 127.524, 154.241 128.700, 145.564 127.096 C 137.055 125.524, 129.748 121.820, 123.508 115.919 C 118.462 111.147, 112 100.714, 112 97.340 C 112 94.792, 109.976 96.028, 102.465 103.163 M 168.635 98.073 C 163.567 102.059, 166.140 110, 172.500 110 C 178.860 110, 181.433 102.059, 176.365 98.073 C 174.916 96.933, 173.177 96, 172.500 96 C 171.823 96, 170.084 96.933, 168.635 98.073 M 208.635 98.073 C 203.567 102.059, 206.140 110, 212.500 110 C 218.860 110, 221.433 102.059, 216.365 98.073 C 214.916 96.933, 213.177 96, 212.500 96 C 211.823 96, 210.084 96.933, 208.635 98.073 M 190.704 103.495 C 189.767 105.460, 189 107.233, 189 107.434 C 189 107.635, 190.575 107.800, 192.500 107.800 C 196.496 107.800, 196.542 107.673, 194.162 103.211 L 192.408 99.921 190.704 103.495 M 94.671 125.150 C 94.346 126.394, 94.223 127.557, 94.399 127.733 C 94.575 127.909, 104.978 130.991, 117.517 134.581 C 140.471 141.154, 141.928 141.325, 141.985 137.442 C 141.993 136.861, 131.988 133.541, 119.750 130.065 C 107.512 126.588, 96.997 123.551, 96.381 123.316 C 95.766 123.080, 94.997 123.905, 94.671 125.150 M 265.750 129.803 C 253.238 133.427, 243.007 136.866, 243.015 137.446 C 243.072 141.324, 244.533 141.153, 267.483 134.581 C 280.022 130.991, 290.425 127.909, 290.601 127.733 C 291.140 127.193, 289.808 122.993, 289.133 123.107 C 288.785 123.166, 278.262 126.179, 265.750 129.803 M 94.180 152.250 L 94.500 154.500 119.250 154.767 L 144 155.035 144 152.517 L 144 150 118.930 150 L 93.861 150 94.180 152.250 M 241 152.517 L 241 155.035 265.750 154.767 L 290.500 154.500 290.820 152.250 L 291.139 150 266.070 150 L 241 150 241 152.517 M 116.758 169.848 C 104.250 173.506, 94.019 176.950, 94.023 177.500 C 94.053 181.453, 95.515 181.280, 118.538 174.609 C 131.072 170.977, 141.520 167.813, 141.755 167.578 C 142.380 166.954, 140.986 162.983, 140.183 163.098 C 139.807 163.151, 129.266 166.189, 116.758 169.848 M 243.499 165.003 C 243.124 166.184, 243.010 167.343, 243.245 167.578 C 243.480 167.813, 253.928 170.977, 266.462 174.609 C 289.485 181.280, 290.946 181.452, 290.977 177.500 C 290.982 176.950, 280.976 173.625, 268.743 170.112 C 256.509 166.598, 245.978 163.528, 245.340 163.290 C 244.703 163.051, 243.874 163.822, 243.499 165.003 M 125.133 269.750 C 124.084 271.813, 122.251 276.650, 121.060 280.500 C 113.582 304.680, 117.836 328.940, 133.126 349.298 C 154.388 377.609, 194.988 386.603, 226.787 370.047 C 249.423 358.262, 263.642 337.840, 266.954 312.355 C 268.714 298.810, 265.831 281.473, 259.867 269.750 L 257.959 266 233.855 266 L 209.750 266 210.364 269.069 C 211.231 273.403, 209.333 280.875, 206.383 284.743 C 203.893 288.007, 195.499 293, 192.500 293 C 189.501 293, 181.107 288.007, 178.617 284.743 C 175.667 280.875, 173.769 273.403, 174.636 269.069 L 175.250 266 151.145 266 L 127.041 266 125.133 269.750 M 180.392 267.174 C 178.985 269.452, 179.679 276.766, 181.619 280.087 C 182.692 281.925, 185.017 284.274, 186.785 285.307 L 190 287.184 190 283.651 C 190 281.708, 189.550 279.840, 189 279.500 C 187.618 278.646, 187.744 274.656, 189.200 273.200 C 190.743 271.657, 194.257 271.657, 195.800 273.200 C 197.256 274.656, 197.382 278.646, 196 279.500 C 195.450 279.840, 195 281.708, 195 283.651 L 195 287.184 198.215 285.307 C 199.983 284.274, 202.308 281.925, 203.381 280.087 C 205.321 276.766, 206.015 269.452, 204.608 267.174 C 204.121 266.387, 200.135 266, 192.500 266 C 184.865 266, 180.879 266.387, 180.392 267.174 M 25.879 300.605 C 19.075 302.967, 12.134 308.722, 8.692 314.857 C 6.352 319.028, 5.583 321.823, 5.220 327.478 C 4.609 336.997, 6.699 343.336, 12.618 349.920 C 25.375 364.109, 45.630 364.103, 58.394 349.906 C 68.842 338.286, 68.244 319.231, 57.089 308.251 C 49.288 300.573, 35.620 297.225, 25.879 300.605 M 341.500 300.399 C 324.306 305.837, 315.463 322.139, 320.449 339.207 C 325.434 356.266, 346.279 365.480, 362.232 357.675 C 369.393 354.172, 376.300 346.624, 378.553 339.841 C 381.115 332.126, 380.184 321.765, 376.308 314.857 C 369.474 302.676, 354.269 296.361, 341.500 300.399 M 134.725 307.250 C 137.353 337.951, 162.128 361, 192.500 361 C 217.751 361, 239.988 344.825, 247.381 321.078 C 248.679 316.910, 249.981 310.688, 250.275 307.250 L 250.810 301 192.500 301 L 134.190 301 134.725 307.250 M 140 309.395 C 140 319.175, 147.561 333.778, 157.140 342.500 C 167.465 351.901, 178.201 356, 192.500 356 C 206.799 356, 217.535 351.901, 227.860 342.500 C 237.439 333.778, 245 319.175, 245 309.395 L 245 306 192.500 306 L 140 306 140 309.395 M 0.336 330 C 0.336 334.125, 0.513 335.813, 0.728 333.750 C 0.944 331.688, 0.944 328.313, 0.728 326.250 C 0.513 324.188, 0.336 325.875, 0.336 330 M 83.965 413.799 C 79.323 418.442, 78.061 423.553, 80.101 429.453 L 81.500 433.500 127.925 433.760 L 174.350 434.020 176.686 431.825 C 181.397 427.399, 181.917 418.563, 177.808 412.750 L 175.864 410 131.814 410 L 87.765 410 83.965 413.799 M 207.192 412.750 C 203.083 418.563, 203.603 427.399, 208.314 431.825 L 210.650 434.020 257.075 433.760 L 303.500 433.500 304.899 429.453 C 306.939 423.553, 305.677 418.442, 301.035 413.799 L 297.235 410 253.186 410 L 209.136 410 207.192 412.750 " stroke="none" fill="black" fill-rule="evenodd"/>
</svg>