<?xml version="1.0" standalone="no"?>
<!DOCTYPE svg PUBLIC "-//W3C//DTD SVG 20010904//EN"
 "http://www.w3.org/TR/2001/REC-SVG-20010904/DTD/svg10.dtd">
<svg version="1.0" xmlns="http://www.w3.org/2000/svg"
 width="294.000000pt" height="300.000000pt" viewBox="0 0 294.000000 300.000000"
 preserveAspectRatio="xMidYMid meet">
<metadata>
Created by potrace 1.10, written by Peter Selinger 2001-2011
</metadata>
<g transform="translate(0.000000,300.000000) scale(0.100000,-0.100000)"
fill="#000000" stroke="none">
<path d="M750 2904 c-25 -7 -62 -13 -82 -13 -21 -1 -38 -5 -38 -11 0 -5 -7
-10 -15 -10 -8 0 -23 -4 -33 -9 -119 -60 -167 -87 -204 -112 -14 -11 -31 -19
-37 -19 -6 0 -11 -7 -11 -15 0 -8 -7 -15 -15 -15 -8 0 -15 -4 -15 -10 0 -5
-20 -30 -45 -54 -25 -25 -45 -50 -45 -56 0 -5 -5 -10 -11 -10 -5 0 -15 -13
-20 -30 -6 -16 -15 -30 -20 -30 -5 0 -9 -7 -9 -15 0 -8 -9 -24 -20 -35 -11
-11 -20 -28 -20 -39 0 -10 -7 -24 -15 -31 -8 -7 -15 -24 -15 -39 0 -15 -5 -32
-12 -39 -6 -6 -15 -33 -19 -59 -4 -27 -12 -68 -18 -93 -13 -56 -13 -288 0
-355 5 -27 14 -81 19 -119 5 -39 14 -74 20 -80 5 -5 10 -21 10 -36 0 -14 7
-38 15 -54 8 -15 15 -35 15 -42 0 -8 9 -31 20 -51 11 -21 20 -46 20 -55 0 -10
5 -18 10 -18 6 0 10 -5 10 -12 0 -16 48 -116 60 -123 6 -3 10 -15 10 -26 0
-10 7 -19 15 -19 8 0 15 -9 15 -20 0 -12 5 -26 10 -33 24 -28 80 -106 80 -111
0 -12 251 -281 278 -299 6 -4 24 -19 39 -33 14 -13 30 -24 34 -24 5 0 9 -7 9
-15 0 -8 9 -15 21 -15 11 0 17 -5 14 -10 -3 -6 2 -13 12 -17 10 -4 23 -12 29
-17 30 -28 55 -46 64 -46 5 0 13 -6 17 -13 4 -8 27 -26 51 -42 23 -15 42 -32
42 -36 0 -5 6 -9 13 -9 6 0 26 -13 44 -28 17 -15 46 -38 63 -52 35 -28 63 -51
100 -83 36 -31 221 -199 243 -220 21 -21 24 -19 92 48 59 60 161 145 173 145
6 0 12 4 14 9 2 5 86 72 188 150 102 77 190 145 197 151 7 5 14 10 17 10 5 0
58 44 93 77 13 13 28 23 33 23 6 0 10 7 10 15 0 8 7 15 15 15 8 0 15 5 15 10
0 6 4 10 9 10 19 0 173 147 246 234 22 26 45 53 50 59 19 21 80 112 80 119 0
3 11 19 25 35 13 15 23 29 22 31 -1 1 16 40 38 87 22 46 40 90 40 97 0 7 9 28
20 46 11 18 20 40 20 50 0 9 7 30 15 46 8 15 15 39 15 52 0 13 6 41 14 61 31
85 40 180 40 403 1 262 -5 297 -72 465 -28 69 -103 178 -159 230 -80 75 -204
133 -378 176 -27 7 -117 14 -200 16 -149 4 -213 -5 -280 -40 -11 -6 -42 -22
-70 -36 -51 -26 -63 -34 -94 -61 -9 -8 -28 -21 -42 -28 -15 -8 -38 -25 -52
-38 -14 -13 -31 -24 -37 -24 -5 0 -10 -8 -10 -17 0 -9 -3 -13 -7 -10 -3 4 -17
-3 -30 -15 -13 -12 -23 -16 -23 -10 0 15 -52 62 -62 56 -4 -3 -8 1 -8 9 0 7
-19 24 -42 37 -24 13 -56 33 -73 45 -67 49 -174 92 -290 116 -102 21 -170 22
-235 3z m215 -26 c22 -5 52 -9 68 -9 15 1 27 -3 27 -9 0 -6 6 -10 13 -8 6 1
23 -4 37 -12 14 -7 26 -12 28 -11 8 8 61 -23 55 -32 -4 -6 0 -8 10 -4 10 3 17
2 17 -4 0 -6 4 -8 8 -5 7 4 57 -30 109 -74 7 -5 16 -10 22 -10 5 0 11 -4 13
-9 2 -5 24 -25 49 -44 43 -33 49 -34 68 -21 12 9 21 13 21 10 0 -3 8 2 18 12
11 9 33 28 50 42 18 14 44 35 59 48 16 12 36 25 46 28 9 3 17 9 17 13 0 4 19
15 43 25 23 11 49 24 57 31 8 7 32 20 52 28 34 14 36 14 31 -1 -4 -13 -3 -14
5 -4 24 34 64 42 203 42 77 0 139 -4 139 -8 0 -4 8 -8 18 -9 64 -6 112 -17
112 -27 0 -6 5 -4 10 4 5 8 10 10 10 4 0 -7 17 -15 38 -19 39 -7 143 -52 152
-65 3 -4 17 -14 33 -21 43 -23 123 -105 156 -162 17 -29 35 -59 41 -67 23 -36
42 -91 36 -105 -3 -9 -2 -14 3 -11 9 6 22 -30 27 -74 1 -14 10 -51 19 -83 13
-46 15 -95 12 -245 -2 -103 -10 -212 -17 -242 -7 -30 -13 -66 -14 -80 -4 -41
-26 -110 -36 -110 -5 0 -7 -6 -4 -14 6 -15 -20 -112 -35 -130 -5 -6 -10 -15
-11 -21 -4 -34 -14 -54 -23 -48 -5 3 -7 1 -3 -5 7 -12 -33 -102 -47 -102 -4 0
-5 -5 -2 -10 3 -6 -2 -22 -13 -38 -10 -15 -22 -34 -25 -42 -12 -26 -31 -54
-50 -72 -10 -9 -18 -19 -18 -22 3 -20 0 -26 -9 -21 -5 3 -10 -1 -10 -9 0 -9
-11 -23 -26 -32 -14 -9 -23 -23 -20 -30 3 -7 -3 -16 -13 -19 -10 -3 -31 -23
-45 -45 -14 -22 -29 -40 -33 -40 -4 0 -2 5 5 12 7 7 12 17 12 22 0 6 -12 -7
-26 -28 -33 -48 -61 -76 -68 -69 -3 4 -6 0 -7 -8 -1 -14 -96 -100 -197 -178
-31 -23 -59 -46 -62 -51 -3 -4 -20 -15 -38 -24 -18 -9 -30 -21 -27 -26 4 -6 1
-10 -5 -10 -6 0 -27 -12 -45 -26 -20 -15 -39 -23 -47 -18 -7 4 -10 4 -6 0 4
-5 -5 -19 -20 -32 -15 -13 -35 -31 -44 -40 -10 -9 -22 -13 -30 -8 -7 4 -10 4
-6 0 8 -9 -22 -46 -37 -46 -6 0 -25 -13 -43 -29 -17 -16 -41 -32 -52 -36 -11
-4 -18 -11 -15 -16 4 -5 2 -9 -3 -9 -6 0 -20 -11 -33 -25 -13 -13 -28 -25 -33
-25 -5 0 -19 -11 -32 -25 -24 -26 -41 -34 -28 -13 4 7 3 8 -5 4 -6 -4 -9 -11
-6 -15 6 -11 -51 -61 -61 -53 -4 4 -4 -2 0 -13 4 -11 4 -16 0 -12 -4 4 -13 -1
-20 -11 -10 -14 -15 -15 -26 -4 -11 11 -10 12 7 7 11 -4 5 3 -13 14 -24 16
-32 27 -27 39 5 13 4 14 -6 5 -9 -9 -19 -5 -45 20 -19 18 -45 41 -58 52 -14
10 -22 23 -20 27 3 4 -1 8 -10 8 -8 0 -16 3 -18 8 -1 4 -40 38 -85 75 -46 38
-83 73 -83 78 0 6 -4 8 -9 5 -4 -3 -16 3 -26 14 -10 11 -22 17 -28 13 -6 -4
-8 2 -5 14 4 16 1 19 -19 17 -16 -1 -29 6 -39 22 -9 13 -20 21 -25 18 -5 -3
-9 -1 -9 5 0 5 6 12 13 15 6 3 1 3 -12 0 -17 -5 -21 -3 -16 6 5 8 4 11 -3 6
-6 -3 -17 1 -25 9 -9 8 -21 15 -27 15 -7 0 -9 7 -6 16 3 9 2 12 -4 9 -10 -6
-51 23 -117 85 -18 17 -36 30 -40 30 -15 0 -143 141 -144 158 0 12 -2 13 -6 4
-4 -10 -17 -1 -44 27 -22 22 -39 45 -39 50 0 5 -13 20 -28 33 -16 13 -27 29
-24 36 2 7 -1 12 -6 12 -11 0 -89 109 -94 131 -2 8 -6 16 -9 19 -13 11 -77
116 -84 140 -4 14 -14 34 -21 45 -8 11 -14 28 -14 39 0 11 -7 27 -16 37 -8 9
-16 28 -18 42 -1 14 -8 32 -15 40 -6 8 -11 19 -10 23 1 5 0 16 -4 24 -21 56
-37 118 -37 146 0 18 -5 45 -11 61 -14 38 -16 392 -2 418 6 11 13 38 16 60 6
41 27 101 52 146 8 14 12 29 8 33 -3 3 -1 6 6 6 7 0 9 5 6 10 -3 6 -2 10 4 10
6 0 13 11 17 25 3 14 10 25 15 25 5 0 9 6 9 13 0 7 15 29 32 49 18 20 40 45
48 57 8 12 20 21 27 21 7 0 13 7 13 15 0 8 3 15 8 15 4 0 24 16 45 35 41 38
91 67 101 60 3 -3 4 -2 1 2 -7 9 79 55 151 80 69 24 181 46 194 38 5 -3 11 -1
15 5 6 10 71 5 140 -12z"/>
<path d="M1960 2741 c-49 -16 -90 -42 -90 -56 0 -8 12 -25 26 -38 15 -12 32
-28 38 -35 6 -7 17 -19 24 -28 8 -8 11 -21 8 -29 -3 -8 -1 -17 4 -20 5 -3 7
-25 4 -49 -6 -38 -3 -46 22 -70 25 -22 38 -26 90 -26 106 0 110 -45 15 -142
-34 -34 -61 -66 -61 -72 1 -28 22 -39 86 -46 77 -8 124 -23 124 -41 0 -7 3
-10 6 -6 9 9 34 -19 34 -37 0 -9 -8 -16 -17 -16 -14 0 -15 -2 -5 -9 43 -27
-151 -49 -232 -26 -50 14 -238 26 -231 14 2 -3 -12 -11 -31 -18 -18 -7 -34
-17 -34 -22 0 -6 -10 -8 -22 -5 -13 3 -17 3 -10 0 17 -8 15 -24 -2 -24 -14 0
-15 -35 -1 -48 3 -3 43 -1 88 6 118 17 209 15 252 -5 19 -9 35 -21 35 -25 0
-5 4 -7 9 -4 16 10 36 -27 38 -72 2 -41 -1 -48 -40 -86 -59 -56 -99 -90 -133
-112 -32 -21 -67 -54 -58 -54 4 0 1 -6 -5 -14 -9 -11 -4 -20 26 -43 37 -28 41
-29 108 -21 39 4 76 5 83 3 6 -2 12 -1 12 4 0 5 12 11 28 14 51 10 147 35 164
42 9 3 26 1 38 -5 15 -8 20 -8 16 -1 -11 17 10 13 28 -5 12 -12 16 -12 16 -2
1 8 6 6 15 -6 8 -10 12 -23 8 -29 -3 -6 -1 -7 5 -3 6 4 8 14 5 24 -3 9 11 0
31 -22 20 -21 36 -35 36 -30 0 5 4 5 8 -1 4 -5 17 -16 29 -23 20 -10 24 -9 35
8 7 11 19 20 26 20 7 0 11 4 7 9 -3 5 6 31 20 56 13 26 36 81 51 124 14 42 30
81 34 86 5 6 11 30 15 55 4 24 12 53 18 65 16 27 16 397 1 416 -6 8 -14 30
-18 50 -4 21 -13 42 -21 49 -8 7 -15 21 -15 31 0 11 -5 19 -11 19 -5 0 -7 5
-4 10 3 6 1 10 -4 10 -6 0 -11 6 -11 13 0 8 -25 41 -55 74 -30 33 -52 63 -50
67 3 3 2 4 -1 1 -4 -2 -25 10 -48 28 -22 18 -54 39 -71 47 -16 8 -34 21 -38
28 -5 7 -13 10 -18 6 -5 -3 -15 -2 -22 3 -17 13 -80 33 -119 39 -66 10 -264
13 -288 5z m312 -36 c110 -23 193 -70 283 -160 44 -44 89 -98 100 -120 11 -22
28 -52 38 -67 10 -16 16 -32 13 -36 -3 -5 3 -25 13 -45 16 -32 18 -59 17 -229
-1 -141 -6 -200 -15 -218 -8 -13 -14 -38 -13 -54 0 -17 -3 -35 -8 -41 -5 -6
-21 -44 -36 -85 -14 -41 -42 -108 -62 -148 l-35 -73 -46 44 c-55 52 -105 77
-158 77 -21 0 -101 -16 -178 -36 -148 -37 -223 -41 -264 -12 -22 16 -24 14 44
66 78 61 152 128 183 166 6 8 12 37 12 63 0 57 -18 78 -95 113 -41 19 -66 23
-137 22 -47 -1 -106 -6 -130 -12 -23 -5 -54 -10 -67 -10 l-25 0 24 22 c55 51
87 60 192 56 58 -2 103 -9 110 -16 8 -8 45 -12 105 -12 100 0 127 9 170 58 17
21 19 29 10 45 -35 59 -92 89 -184 95 -40 3 -73 7 -73 10 0 2 29 33 64 67 51
49 65 71 71 102 9 58 -9 73 -92 73 -88 0 -103 13 -103 91 0 76 -27 128 -81
159 -38 21 -40 24 -23 33 68 39 227 44 376 12z"/>
<path d="M744 2733 c4 -8 1 -13 -8 -14 -24 -2 -29 -3 -61 -16 -36 -14 -84 -26
-107 -27 -9 -1 -20 -5 -25 -10 -5 -5 -2 -6 6 -1 9 5 12 4 7 -3 -4 -7 -14 -12
-22 -12 -8 0 -14 -5 -14 -11 0 -5 -4 -7 -10 -4 -5 3 -10 1 -10 -5 0 -7 -6 -10
-14 -7 -8 3 -17 -1 -20 -9 -3 -9 -11 -12 -17 -8 -7 4 -9 3 -6 -3 6 -10 -27
-27 -45 -24 -5 1 -8 -5 -8 -11 0 -19 -48 -61 -60 -53 -5 3 -7 0 -4 -8 3 -8 -6
-27 -21 -41 -14 -14 -23 -26 -20 -26 4 0 -4 -19 -17 -42 -13 -24 -24 -47 -24
-53 0 -5 -6 -23 -13 -40 -7 -16 -16 -49 -18 -72 -3 -24 -9 -43 -12 -43 -9 0
-11 -16 -15 -188 -4 -118 -1 -161 10 -187 8 -19 14 -49 14 -67 1 -18 9 -51 19
-73 11 -21 18 -47 16 -57 -2 -10 0 -18 5 -18 5 0 12 -10 16 -22 3 -13 16 -43
27 -68 12 -25 21 -47 22 -50 1 -8 39 -64 53 -79 11 -12 11 -15 0 -22 -10 -7
-10 -9 2 -9 8 0 28 -21 45 -48 16 -26 36 -53 45 -60 8 -8 9 -11 3 -7 -9 4 -11
1 -7 -9 3 -9 9 -14 13 -12 3 2 12 -2 19 -10 7 -8 9 -14 5 -14 -4 0 0 -5 10
-11 24 -14 33 -5 55 54 l18 46 32 -16 c18 -8 32 -18 32 -22 0 -9 141 4 199 17
25 6 48 9 52 6 19 -11 88 33 89 58 0 3 -12 20 -26 37 -14 17 -23 34 -20 39 3
5 -1 9 -9 9 -8 0 -12 -4 -8 -9 3 -5 -11 1 -31 14 -26 16 -35 28 -32 41 3 11 2
16 -1 13 -12 -12 -35 35 -38 79 -2 25 -7 49 -10 55 -3 5 -1 10 4 10 6 0 10 3
9 8 -4 12 24 72 33 72 5 0 9 11 9 25 0 18 -11 31 -47 51 -27 15 -61 38 -76 51
l-29 23 28 0 c30 0 94 20 94 30 0 3 9 6 20 7 25 2 80 47 98 80 12 21 11 27 -3
43 -9 10 -22 17 -29 14 -30 -12 -216 104 -216 134 0 6 26 10 59 11 74 1 134
26 189 81 43 42 46 52 40 128 -1 12 -9 22 -17 22 -8 0 -11 3 -8 7 4 3 1 13 -6
21 -10 13 -9 14 3 8 8 -4 4 1 -9 12 l-24 20 28 26 c15 14 32 23 37 20 4 -3 7
-2 6 3 -4 13 22 53 34 53 6 0 20 8 31 18 15 12 18 13 13 2 -4 -8 2 -4 13 10
26 30 37 68 24 81 -5 5 -35 18 -67 30 -45 15 -84 20 -169 20 -70 0 -117 5
-126 12 -12 9 -13 9 -7 0z m282 -48 c27 -8 57 -20 67 -28 17 -12 14 -16 -35
-50 -69 -47 -148 -123 -148 -141 0 -16 31 -78 44 -87 4 -4 11 -27 13 -53 5
-38 3 -46 -11 -46 -9 0 -16 -7 -16 -16 0 -10 -6 -14 -15 -10 -9 3 -15 0 -15
-8 0 -31 -53 -51 -154 -56 -63 -3 -101 -9 -103 -17 -2 -6 20 -36 49 -65 54
-56 145 -107 207 -117 32 -6 33 -7 18 -23 -9 -9 -17 -21 -17 -27 0 -6 -6 -11
-14 -11 -8 0 -16 -7 -20 -15 -3 -8 -12 -15 -21 -15 -8 0 -32 -9 -52 -20 -21
-11 -54 -20 -73 -20 -51 0 -65 -12 -49 -39 8 -11 19 -21 25 -21 6 0 17 -7 24
-15 7 -8 16 -12 21 -9 5 2 16 -4 26 -16 10 -11 25 -20 35 -20 28 0 30 -18 6
-52 -13 -18 -26 -34 -30 -36 -5 -2 -8 -31 -8 -63 0 -79 35 -157 87 -196 21
-15 39 -31 41 -35 2 -5 10 -8 18 -8 8 0 14 -7 14 -16 0 -8 5 -12 10 -9 14 9
12 -4 -3 -19 -7 -7 -43 -16 -80 -20 -37 -3 -79 -11 -93 -16 -40 -15 -120 -12
-134 5 -7 8 -19 15 -27 15 -7 0 -16 7 -19 15 -15 39 -44 -6 -68 -109 -1 -4
-13 8 -26 28 -14 20 -28 36 -32 36 -5 0 -8 7 -8 15 0 8 -4 15 -9 15 -5 0 -14
14 -21 30 -7 17 -16 30 -21 30 -5 0 -9 6 -9 13 0 7 -8 22 -19 33 -10 11 -22
30 -25 42 -4 12 -12 22 -17 22 -5 0 -9 9 -9 19 0 11 -7 26 -15 35 -8 8 -15 22
-15 31 0 9 -6 29 -14 43 -24 49 -57 158 -51 173 3 8 -1 31 -8 50 -19 44 -22
266 -6 334 6 28 11 60 10 73 0 13 8 43 19 67 11 24 20 49 20 56 0 20 41 99 51
99 5 0 9 5 9 11 0 6 6 17 14 25 8 7 16 17 18 22 6 16 124 100 178 127 111 57
184 74 316 75 78 0 138 -5 170 -15z"/>
<path d="M1624 2530 c-12 -5 -33 -19 -46 -32 -43 -41 -73 -63 -81 -60 -5 1 -6
-2 -3 -7 11 -17 -10 -21 -30 -6 -18 15 -18 15 1 8 11 -3 17 -3 13 1 -3 4 -12
8 -20 10 -7 1 -28 12 -45 24 -17 12 -36 22 -42 22 -6 0 -11 5 -11 10 0 6 -6
10 -14 10 -8 0 -16 5 -18 12 -8 24 -63 -24 -65 -57 -4 -50 -1 -84 11 -125 9
-30 62 -80 85 -80 9 0 25 -7 35 -15 14 -10 45 -15 97 -15 87 0 112 7 150 44
15 13 30 22 34 18 4 -4 6 -2 4 3 -3 12 22 67 34 76 14 11 10 77 -8 116 -25 54
-38 61 -81 43z m48 -20 c0 -5 1 -16 2 -22 1 -7 7 -19 14 -26 26 -28 9 -100
-30 -130 -10 -7 -18 -20 -18 -28 0 -8 -4 -14 -10 -14 -5 0 -19 -9 -30 -20 -29
-29 -153 -28 -218 1 -77 35 -92 60 -92 152 0 51 4 77 11 77 14 0 83 -41 87
-52 2 -4 8 -8 12 -8 5 0 24 -13 42 -30 18 -16 36 -30 40 -30 7 0 52 38 124
106 33 31 63 42 66 24z"/>
<path d="M1405 2168 c-11 -6 -26 -20 -33 -30 -12 -16 -17 -17 -30 -6 -14 10
-15 10 -6 -1 9 -10 8 -20 -4 -40 -10 -18 -13 -34 -7 -47 4 -10 7 -22 7 -26 -1
-5 3 -8 9 -8 5 0 7 -5 3 -12 -4 -7 -3 -8 5 -4 12 8 41 -10 41 -25 0 -5 -37 -9
-82 -9 -88 1 -115 -2 -146 -19 -11 -6 -23 -7 -27 -3 -5 4 -5 2 -2 -4 4 -7 -4
-15 -20 -19 -15 -3 -33 -15 -41 -26 -7 -11 -18 -16 -24 -13 -6 4 -8 2 -4 -4 3
-6 2 -13 -4 -17 -14 -9 -49 -79 -54 -107 -5 -33 37 -65 77 -59 12 2 8 -16 -8
-29 -8 -7 -12 -16 -9 -21 3 -5 -2 -12 -10 -15 -19 -7 -20 -33 -3 -55 16 -21
59 -44 76 -40 8 1 10 -2 5 -11 -11 -18 20 7 73 59 23 22 39 44 36 47 -3 3 2 8
11 12 22 8 20 41 -3 54 -11 5 -41 11 -68 11 -26 1 -38 4 -26 6 12 2 39 20 59
39 35 32 42 34 106 34 41 0 68 -4 68 -11 0 -5 4 -7 10 -4 5 3 18 1 28 -4 36
-19 74 -18 96 3 12 12 20 26 18 33 -2 6 4 23 13 37 21 32 12 62 -26 85 -16 10
-26 20 -23 24 3 3 -3 3 -15 0 -12 -3 -21 -1 -21 5 0 6 20 14 44 17 47 7 71 22
117 70 34 35 35 44 10 72 -11 12 -17 24 -13 28 4 4 3 5 -3 4 -17 -5 -74 12
-81 23 -5 7 -2 8 6 3 7 -5 11 -4 7 1 -8 14 -109 15 -132 2z m122 -30 c27 -13
50 -26 53 -29 3 -3 13 -8 23 -12 27 -10 21 -22 -33 -67 -47 -39 -54 -42 -110
-42 -54 0 -63 3 -91 32 -30 29 -31 33 -18 58 20 41 71 82 101 82 15 0 49 -10
75 -22z m-71 -223 c10 -8 27 -15 36 -15 35 0 42 -48 11 -78 -7 -7 -13 -22 -13
-33 0 -10 -6 -20 -12 -20 -28 -3 -53 4 -60 14 -4 7 -43 13 -89 16 -68 3 -89 0
-124 -18 -24 -12 -48 -28 -55 -36 -7 -8 -21 -15 -31 -15 -11 0 -19 -4 -19 -9
0 -11 -50 -11 -72 0 -10 6 -18 16 -18 24 0 24 34 84 48 85 6 0 12 7 12 15 0 8
7 15 15 15 8 0 15 7 15 15 0 9 12 18 30 22 17 3 30 9 30 14 0 13 30 17 156 18
92 1 125 -2 140 -14z m-233 -241 c7 -7 -45 -78 -78 -106 -28 -24 -47 -22 -81
7 -26 23 -27 27 -11 36 9 5 17 14 17 19 0 6 8 19 18 29 13 14 31 20 73 20 31
1 59 -2 62 -5z"/>
<path d="M1756 1788 c-44 -16 -76 -53 -76 -86 0 -31 32 -66 85 -92 17 -8 34
-16 39 -19 5 -2 6 1 2 7 -6 11 30 28 49 23 6 -1 7 0 3 4 -3 4 5 23 18 42 36
54 29 94 -23 121 -26 14 -58 14 -97 0z m95 -17 c3 0 11 -12 17 -26 9 -20 9
-30 0 -45 -7 -11 -16 -20 -20 -20 -5 0 -8 -5 -8 -11 0 -17 -32 -38 -57 -39
-12 0 -30 11 -41 25 -11 14 -25 25 -31 25 -6 0 -11 11 -11 25 0 18 9 28 35 41
20 9 38 20 40 24 4 7 51 7 76 1z"/>
<path d="M1409 1683 c-9 -10 -22 -33 -29 -51 -7 -18 -22 -39 -34 -47 -12 -9
-15 -15 -7 -15 8 0 3 -10 -13 -25 -15 -14 -24 -25 -21 -25 3 0 -1 -10 -9 -22
-24 -34 -20 -57 10 -64 15 -4 89 -4 166 -1 110 5 142 10 156 23 21 22 24 41 5
48 -9 4 -13 13 -9 21 3 9 -1 18 -10 22 -17 6 -74 86 -74 103 0 6 5 8 13 4 8
-5 8 -2 -2 9 -15 18 -26 23 -16 7 3 -5 2 -10 -4 -10 -5 0 -12 8 -15 18 -9 26
-86 30 -107 5z m91 -21 c25 -31 40 -56 51 -84 6 -16 15 -28 20 -28 5 0 9 -6 9
-12 0 -7 12 -24 26 -37 l26 -25 -22 -8 c-12 -5 -90 -11 -174 -15 -150 -6 -151
-6 -133 14 9 11 17 24 17 30 0 5 9 18 20 28 11 10 20 24 20 32 0 7 7 16 15 19
8 4 15 12 15 20 0 7 8 29 18 48 14 29 23 36 47 36 18 0 37 -8 45 -18z"/>
<path d="M1914 1306 c-6 -25 -7 -46 -2 -46 4 0 7 -3 7 -7 -3 -21 2 -33 16 -33
8 0 15 -4 15 -9 0 -11 48 -20 125 -22 70 -2 105 -13 105 -32 0 -8 -9 -40 -20
-73 -31 -90 -34 -105 -34 -159 0 -77 10 -105 39 -105 22 0 85 51 85 70 0 4 11
13 25 20 13 7 22 16 20 20 -3 4 7 16 20 26 14 10 25 24 25 29 0 19 69 87 81
80 8 -5 8 -2 1 11 -11 20 8 60 22 47 4 -4 4 1 0 11 -6 15 -4 17 6 11 9 -5 11
-4 6 3 -4 6 4 28 18 49 14 21 28 57 32 80 5 35 3 43 -15 52 -16 9 -21 9 -21 0
0 -9 -35 -10 -137 -5 -206 11 -366 12 -385 3 -12 -6 -17 -4 -20 9 -1 9 -8 -4
-14 -30z m434 -12 c83 -5 116 -3 127 6 9 7 17 11 20 9 3 -4 -52 -120 -78 -164
-37 -61 -65 -100 -89 -123 -10 -9 -18 -21 -18 -27 0 -6 -13 -22 -30 -35 -16
-14 -30 -29 -30 -35 0 -5 -14 -21 -30 -35 -17 -13 -30 -30 -30 -37 0 -7 -2
-13 -4 -13 -2 0 -11 -2 -18 -5 -13 -5 -17 12 -18 83 -1 13 7 88 9 100 1 1 2 5
3 10 0 4 8 12 16 18 8 6 12 16 8 22 -4 7 -4 18 1 25 4 6 8 17 10 22 1 6 6 25
12 42 13 43 7 46 -109 55 -129 9 -141 12 -156 33 -15 20 -19 59 -6 51 4 -2 14
0 22 5 14 10 117 8 388 -7z"/>
<path d="M1333 1300 c-87 -22 -93 -25 -93 -55 0 -38 49 -58 139 -57 42 0 80
-3 86 -7 16 -11 71 -34 63 -25 -13 12 52 45 83 42 20 -2 37 6 59 27 32 31 37
50 17 77 -19 24 -252 23 -354 -2z m347 -23 c0 -6 -9 -21 -21 -33 -17 -18 -28
-21 -60 -17 -30 4 -40 2 -45 -11 -3 -9 -12 -16 -20 -16 -7 0 -17 -7 -22 -17
-9 -14 -10 -14 -16 5 -8 24 -48 33 -141 32 -88 -1 -93 0 -99 15 -7 19 15 34
50 33 17 -1 37 3 44 7 14 9 295 23 318 17 6 -2 12 -9 12 -15z"/>
<path d="M947 1189 c-15 -4 -49 -21 -75 -37 -58 -37 -125 -60 -185 -64 -25 -2
-44 -5 -42 -7 2 -2 -6 -11 -18 -21 -21 -18 -21 -19 -4 -54 9 -20 22 -36 28
-36 6 0 8 -7 5 -16 -5 -12 -2 -15 10 -10 11 4 15 2 11 -7 -3 -7 10 -23 29 -36
19 -13 34 -27 34 -32 0 -5 5 -9 10 -9 6 0 21 -11 34 -25 13 -14 29 -25 35 -25
7 0 10 -4 7 -9 -3 -5 11 -12 31 -16 33 -6 41 -3 60 19 12 15 20 34 17 46 -2
11 -6 29 -8 40 -3 11 -8 25 -11 30 -3 5 -8 18 -10 27 -7 40 -10 48 -18 54 -4
3 2 16 13 29 11 13 20 20 20 16 0 -4 12 2 26 13 15 12 32 21 39 21 6 0 22 11
35 25 l23 24 -22 33 c-11 18 -21 29 -21 24 0 -5 -6 -4 -12 1 -8 6 -25 7 -41 2z
m56 -37 c20 -22 18 -26 -47 -56 -28 -13 -64 -36 -81 -50 -29 -25 -29 -26 -12
-55 9 -16 17 -41 17 -54 0 -14 4 -28 9 -31 12 -8 23 -70 15 -90 -11 -27 -57
-9 -116 47 -10 9 -22 17 -28 17 -5 0 -10 5 -10 10 0 6 -10 21 -23 33 -12 12
-41 45 -64 73 l-42 51 57 12 c31 7 68 15 82 17 24 4 109 43 120 54 13 14 67
38 86 39 11 1 28 -7 37 -17z"/>
<path d="M1782 1124 c-11 -7 -22 -11 -26 -9 -3 3 -4 2 -1 -1 2 -4 0 -15 -6
-26 -16 -29 -13 -106 5 -133 12 -18 12 -25 3 -28 -6 -2 -1 -5 13 -5 14 -1 51
-3 82 -5 32 -2 55 -1 53 3 -3 4 2 13 10 20 8 7 12 16 9 21 -3 5 1 12 9 15 8 3
14 21 15 45 1 23 5 46 9 51 4 7 1 8 -7 3 -10 -6 -12 -4 -6 11 4 10 4 15 0 12
-3 -4 -14 2 -23 12 -21 25 -110 34 -139 14z m132 -40 c21 -30 18 -77 -9 -118
-15 -22 -25 -26 -66 -26 -58 0 -79 23 -79 85 0 64 21 85 83 85 44 -1 55 -5 71
-26z"/>
<path d="M1115 1038 c-64 -34 -60 -101 11 -175 6 -7 14 -10 16 -7 3 2 18 0 34
-6 16 -6 25 -8 22 -4 -4 4 4 16 18 26 14 11 23 23 20 25 -3 3 1 12 9 20 20 20
19 87 -1 104 -9 7 -26 14 -37 16 -12 1 -33 5 -47 7 -14 3 -34 0 -45 -6z m93
-24 c26 -5 31 -10 30 -38 0 -37 -42 -106 -64 -106 -9 0 -29 13 -45 29 -35 35
-42 106 -11 114 27 7 57 8 90 1z"/>
<path d="M1492 1014 c-24 -27 -65 -126 -67 -163 -1 -20 -9 -52 -17 -72 -14
-32 -21 -37 -62 -43 -25 -4 -87 -7 -138 -7 -51 0 -100 -4 -107 -9 -9 -5 -23
-5 -34 2 -11 5 -17 6 -14 1 3 -5 -8 -15 -24 -22 -31 -14 -40 -48 -14 -57 8 -4
12 -10 9 -15 -3 -5 2 -9 10 -9 8 0 19 -6 23 -13 4 -8 20 -22 35 -32 15 -9 25
-21 22 -26 -3 -5 3 -6 12 -2 11 4 15 2 11 -4 -4 -6 1 -10 11 -9 9 0 16 -5 14
-12 -1 -8 1 -11 6 -8 5 3 18 -2 28 -12 42 -38 127 -102 136 -102 5 0 6 -4 3
-10 -3 -5 0 -10 7 -10 8 0 21 -8 30 -17 24 -26 48 -45 48 -38 0 3 9 1 20 -5
21 -11 28 -8 137 73 32 24 57 36 65 31 7 -4 10 -4 6 1 -4 4 0 15 9 24 15 15
31 27 131 93 22 15 43 32 46 37 4 6 14 7 23 4 11 -4 14 -3 9 5 -4 7 -4 12 1
12 4 0 23 14 41 31 17 16 32 26 32 22 0 -4 5 0 11 10 6 9 14 15 20 12 14 -10
11 38 -5 61 -13 18 -27 21 -87 23 -40 1 -75 2 -78 3 -3 0 -8 -1 -11 -2 -21
-10 -98 -5 -112 8 -10 8 -18 12 -18 7 0 -4 -9 4 -20 18 -11 14 -20 31 -20 38
0 7 -3 10 -6 6 -10 -10 -44 64 -44 95 0 15 -5 30 -10 33 -6 4 -8 10 -5 15 3 4
-3 11 -12 14 -15 6 -15 8 -3 17 11 8 9 9 -9 4 -16 -5 -21 -4 -17 4 10 16 -7
13 -22 -5z m41 -49 c9 -20 17 -44 17 -55 0 -23 36 -94 56 -111 8 -6 14 -17 14
-24 0 -7 21 -23 47 -36 42 -20 51 -21 103 -11 115 24 205 8 183 -33 -6 -9 -13
-16 -17 -16 -10 2 -60 -32 -69 -46 -4 -7 -14 -13 -21 -13 -8 0 -16 -7 -20 -15
-3 -8 -12 -15 -20 -15 -7 0 -16 -7 -20 -15 -3 -8 -12 -15 -20 -15 -7 0 -16 -7
-20 -15 -3 -8 -15 -15 -26 -15 -12 0 -19 -3 -16 -8 2 -4 -34 -34 -82 -67 -47
-33 -90 -65 -96 -70 -6 -6 -25 -20 -42 -32 -29 -21 -32 -21 -55 -6 -13 9 -28
21 -34 27 -5 6 -39 32 -75 58 -36 25 -79 59 -96 74 -56 53 -96 84 -105 84 -5
0 -12 7 -15 15 -4 8 -11 15 -18 15 -6 0 -19 8 -28 19 -8 10 -22 21 -29 24 -10
3 -11 8 -3 16 7 7 72 16 165 22 199 12 202 12 214 24 16 15 45 97 45 127 0 27
49 148 60 148 4 0 14 -16 23 -35z"/>
<path d="M1456 387 c3 -10 9 -15 12 -12 3 3 0 11 -7 18 -10 9 -11 8 -5 -6z"/>
<path d="M1386 773 c-6 -14 -5 -15 5 -6 7 7 10 15 7 18 -3 3 -9 -2 -12 -12z"/>
</g>
</svg>
