<?xml version="1.0" standalone="no"?>
<!DOCTYPE svg PUBLIC "-//W3C//DTD SVG 20010904//EN"
 "http://www.w3.org/TR/2001/REC-SVG-20010904/DTD/svg10.dtd">
<svg version="1.0" xmlns="http://www.w3.org/2000/svg"
 width="750.000000pt" height="750.000000pt" viewBox="0 0 750.000000 750.000000"
 preserveAspectRatio="xMidYMid meet">
<metadata>
Created by potrace 1.10, written by Peter Selinger 2001-2011
</metadata>
<g transform="translate(0.000000,750.000000) scale(0.100000,-0.100000)"
fill="#000000" stroke="none">
<path d="M4064 6034 c-65 -69 -74 -108 -74 -318 0 -100 -3 -238 -7 -307 -6
-125 -7 -128 -38 -162 -43 -47 -72 -64 -124 -72 -37 -6 -56 -18 -109 -71 -36
-35 -68 -64 -73 -64 -5 0 -13 9 -19 19 -10 20 -80 65 -185 121 -33 17 -73 45
-88 62 -30 31 -32 61 -12 140 5 17 0 51 -11 88 -15 51 -30 73 -92 137 -98 101
-285 266 -349 309 -63 42 -114 45 -157 11 -35 -28 -39 -52 -55 -318 -6 -101
-17 -256 -23 -343 -12 -160 -12 -160 -44 -196 -24 -27 -49 -40 -96 -54 -35
-10 -83 -24 -108 -32 -47 -14 -173 -50 -225 -64 -16 -4 -52 -15 -80 -23 -27
-8 -66 -18 -85 -22 -138 -28 -120 -87 63 -208 174 -116 227 -134 300 -103 51
21 138 28 167 13 33 -17 36 -55 7 -88 -17 -20 -48 -33 -143 -57 -66 -18 -133
-32 -148 -32 -39 0 -96 -29 -96 -49 0 -33 32 -61 123 -105 116 -57 166 -74
244 -82 58 -6 66 -4 110 24 55 35 117 63 188 86 28 9 59 21 70 26 29 13 172
60 235 77 109 29 162 33 258 22 142 -17 170 5 118 96 -23 42 -28 44 -206 130
-52 25 -98 51 -102 58 -15 24 -8 57 18 80 26 22 64 31 259 58 85 11 134 29
155 54 16 19 34 19 50 -1 19 -22 68 -41 131 -49 67 -9 126 -38 141 -69 8 -19
6 -33 -12 -68 -26 -53 -54 -69 -165 -93 -173 -38 -203 -54 -190 -102 19 -77
102 -137 263 -192 86 -29 131 -27 190 8 59 34 212 86 297 99 33 6 89 17 125
26 109 28 160 35 275 35 71 0 124 -5 150 -14 58 -21 84 -18 141 15 65 37 74
64 42 127 -25 50 -52 70 -169 126 -53 26 -95 39 -140 43 -92 8 -148 24 -164
48 -20 27 -19 29 12 66 39 46 51 50 328 89 33 5 86 16 117 26 72 21 80 41 48
119 -19 44 -35 63 -84 99 -115 84 -183 115 -274 126 -82 9 -105 18 -123 52 -7
13 -3 25 16 47 20 23 25 41 25 81 0 29 -6 64 -14 79 -16 29 -425 439 -466 466
-42 27 -70 20 -116 -30z"/>
<path d="M4530 4294 c-83 -19 -228 -54 -260 -64 -14 -4 -52 -15 -85 -25 -33
-10 -98 -30 -145 -46 -121 -39 -193 -50 -266 -40 -34 5 -71 14 -82 20 -12 6
-49 11 -85 11 -59 0 -67 3 -118 41 -117 88 -189 102 -290 56 -31 -14 -71 -28
-88 -32 -17 -3 -33 -11 -36 -16 -4 -5 -15 -9 -27 -9 -11 0 -34 -6 -51 -13 -18
-8 -79 -29 -137 -47 -118 -36 -156 -50 -250 -93 -69 -31 -88 -32 -272 -11 -90
10 -162 -24 -195 -93 -14 -30 -14 -36 1 -75 24 -59 77 -136 149 -215 202 -223
327 -332 405 -353 42 -11 130 -2 192 19 14 5 59 17 100 26 41 9 102 26 135 37
73 26 195 104 195 125 0 8 -9 26 -20 40 -23 29 -26 81 -7 105 12 17 100 66
257 144 59 29 89 40 100 33 70 -40 329 -354 381 -461 12 -26 28 -49 34 -52 19
-7 128 26 210 64 62 29 92 35 215 40 l135 5 78 58 c77 58 87 73 65 95 -6 6
-11 35 -11 63 1 49 3 54 64 116 80 81 110 101 229 147 52 21 101 43 108 48 30
25 4 150 -43 202 -54 61 -175 115 -327 147 -106 22 -168 23 -258 3z m-1620
-339 c57 -30 50 -71 -33 -177 -68 -88 -117 -119 -165 -104 -17 6 -56 72 -82
142 -20 53 -2 71 130 126 74 31 109 34 150 13z m1488 -27 c7 -61 -162 -238
-227 -238 -18 0 -69 63 -81 101 -19 57 -2 84 79 125 69 35 98 42 176 40 47 -1
50 -3 53 -28z"/>
<path d="M5055 3501 c-42 -19 -96 -79 -129 -142 -18 -34 -38 -49 -116 -83 -72
-32 -138 -37 -640 -51 -527 -15 -891 -31 -919 -40 -15 -5 -486 -38 -524 -37
-10 1 -54 35 -98 77 -99 94 -169 139 -304 196 -71 30 -263 79 -308 79 -42 0
-67 -26 -67 -70 0 -48 81 -211 130 -259 46 -46 50 -68 16 -100 -23 -21 -38
-24 -193 -32 -572 -28 -693 -39 -721 -61 -22 -19 -13 -56 22 -92 23 -23 147
-90 378 -205 333 -166 346 -172 389 -165 47 8 85 23 136 55 60 38 232 74 311
65 64 -7 96 -27 112 -67 17 -41 -6 -90 -57 -122 -38 -24 -192 -57 -267 -57
-84 0 -89 -113 -9 -222 25 -35 51 -67 57 -73 6 -5 33 -38 59 -72 26 -34 53
-68 60 -75 7 -7 37 -44 66 -83 30 -38 57 -72 60 -75 4 -3 31 -36 61 -75 30
-38 57 -72 60 -75 3 -3 31 -37 63 -77 31 -40 72 -83 90 -97 70 -52 160 -74
242 -56 28 5 75 15 105 21 30 5 84 21 120 34 36 13 96 26 133 29 80 6 126 33
129 74 3 52 -4 107 -18 134 -34 66 -16 106 131 282 29 35 40 29 77 -42 37 -71
156 -251 216 -327 4 -5 28 -37 53 -70 26 -33 68 -80 94 -104 l47 -44 62 6 c37
3 95 20 148 41 67 28 109 38 187 46 177 17 274 49 316 104 31 41 31 51 0 92
-37 48 -45 77 -34 117 10 38 53 71 184 142 103 56 138 76 210 123 11 6 29 16
41 21 35 15 158 93 167 105 4 6 6 34 4 63 -4 60 -36 108 -94 144 -32 20 -133
90 -168 117 -5 4 -48 33 -95 65 -125 85 -123 83 -116 111 3 13 34 52 68 86
l63 62 90 -5 c120 -8 309 -31 365 -46 76 -21 143 -42 177 -57 17 -8 38 -14 46
-14 9 0 18 -4 22 -9 3 -5 19 -12 36 -16 17 -4 42 -13 57 -21 15 -8 33 -14 40
-14 7 0 20 -4 30 -10 80 -44 192 -80 247 -80 66 0 98 12 130 46 30 32 33 89
10 167 -12 41 -24 58 -58 82 -23 16 -65 49 -93 72 -78 63 -204 132 -299 164
-70 24 -103 29 -178 29 -143 1 -191 30 -315 190 -36 47 -91 111 -122 143 -51
50 -62 57 -96 56 -21 0 -57 -8 -79 -18z m-857 -667 c12 -8 22 -23 22 -32 -1
-9 -27 -55 -58 -102 -49 -72 -64 -87 -97 -98 -22 -7 -49 -16 -60 -21 -55 -24
-248 -91 -264 -91 -10 0 -35 11 -55 25 -20 14 -38 25 -40 25 -2 0 -34 18 -70
40 -99 60 -147 74 -252 75 -50 0 -102 -5 -115 -12 -40 -19 -191 -45 -243 -41
-51 3 -53 5 -80 68 -30 69 -25 105 17 119 17 6 167 15 332 21 165 5 370 14
455 20 85 6 198 12 250 13 52 2 127 4 165 5 50 1 77 -2 93 -14z m343 -491 c46
-28 36 -62 -41 -143 -8 -9 -73 -84 -145 -168 -114 -134 -133 -152 -160 -152
-48 0 -72 48 -141 281 -29 102 3 127 230 175 38 8 72 16 74 19 3 3 39 5 80 5
52 0 83 -5 103 -17z m-1520 -84 c26 -26 23 -47 -26 -154 -71 -156 -85 -175
-130 -175 -36 0 -65 27 -113 108 -36 59 -41 101 -14 125 25 22 222 117 244
117 10 0 27 -9 39 -21z"/>
</g>
</svg>
