<svg xmlns="http://www.w3.org/2000/svg" width="361" height="361" viewBox="0 0 361 361" version="1.1">
	<path d="M 0 57.500 L 0 115 26.461 115 L 52.923 115 53.906 118.750 C 54.447 120.813, 55.188 123.737, 55.553 125.250 L 56.217 128 28.108 128 L 0 128 0 133 L 0 138 24.535 138 C 48.483 138, 49.046 138.046, 48.035 139.934 C 46.435 142.924, 46.792 145.702, 49.299 149.770 C 50.564 151.821, 52.757 156.200, 54.174 159.500 C 55.591 162.800, 58.860 170.295, 61.438 176.155 L 66.125 186.809 63.151 192.155 C 55.794 205.379, 57.296 220.295, 67.110 231.472 L 70.207 235 35.104 235 L 0 235 0 240 L 0 245 47.965 245 L 95.930 245 97.110 247.250 C 98.256 249.433, 98.233 249.448, 96.317 247.750 C 92.121 244.030, 88.160 245.935, 86.018 252.702 L 84.500 257.500 42.250 257.761 L 0 258.022 -0 309.517 L -0 361.013 73.612 360.756 L 147.223 360.500 149.116 355.424 C 152.061 347.530, 163.233 335.982, 167.900 336.009 C 168.780 336.015, 167.185 337.346, 164.356 338.969 C 158.591 342.275, 153.996 347.349, 151.007 353.708 C 148.391 359.274, 148.448 361.001, 151.250 360.996 C 152.972 360.993, 153.931 359.944, 155.336 356.529 C 157.708 350.759, 163.981 344.338, 169.730 341.795 C 172.229 340.690, 177.024 339.630, 180.387 339.439 L 186.500 339.093 180.403 339.969 C 177.050 340.451, 172.742 341.499, 170.830 342.298 C 164.381 344.992, 157.455 352.448, 155.547 358.750 C 154.952 360.712, 155.226 361, 157.684 361 C 159.876 361, 161.283 359.959, 164.002 356.325 C 168.893 349.789, 173.733 347.500, 182.664 347.500 C 189.025 347.500, 190.314 347.840, 194.164 350.537 C 196.549 352.208, 199.588 355.245, 200.918 357.287 C 202.767 360.128, 204 361, 206.168 361 C 209.221 361, 209.593 360.097, 207.945 356.684 C 206.926 354.574, 206.943 354.566, 208.445 356.441 C 209.300 357.509, 210 358.971, 210 359.691 C 210 360.576, 211.459 361, 214.500 361 C 216.975 361, 219 360.765, 219 360.479 C 219 360.192, 216.809 357.154, 214.131 353.729 C 211.453 350.303, 207.181 344.238, 204.638 340.250 C 202.094 336.262, 199.673 332.978, 199.257 332.951 C 198.840 332.924, 193.058 332.812, 186.407 332.701 C 175.096 332.513, 174.099 332.333, 170.971 329.921 C 168.339 327.891, 167.327 326.080, 166.219 321.421 C 165.445 318.164, 164.889 313.925, 164.983 312 C 165.077 310.075, 165.232 306.813, 165.327 304.750 L 165.500 301 170.250 301 C 179.275 301, 175.498 298.682, 158.663 293.889 C 147.893 290.822, 140.126 284.894, 143.857 282.589 C 144.328 282.297, 147.815 282.950, 151.607 284.039 C 159.991 286.447, 177.119 289.656, 186.129 290.507 C 192.405 291.100, 193.355 290.887, 203.975 286.510 C 214.743 282.072, 220.888 281.026, 221.657 283.500 C 221.828 284.050, 219.653 285.625, 216.824 287 C 213.995 288.375, 210.871 290.625, 209.881 292 C 208.218 294.309, 208.191 294.958, 209.525 300.500 C 210.319 303.800, 210.976 307.856, 210.984 309.513 C 211.003 313.156, 214.904 316.358, 235 329.227 C 242.425 333.981, 250.416 339.513, 252.757 341.520 C 257.490 345.576, 261.945 352.498, 262.934 357.332 L 263.582 360.500 312.541 360.500 L 361.500 360.500 361.759 309 L 362.018 257.500 310.509 257.768 L 258.999 258.036 262.473 251.768 L 265.946 245.500 313.723 245 L 361.500 244.500 361.794 239.500 L 362.088 234.500 326.918 234.775 L 291.748 235.051 294.868 231.498 C 304.826 220.156, 306.259 204.456, 298.511 191.588 L 295.297 186.250 300.465 175.875 C 303.308 170.169, 307.516 162.455, 309.817 158.732 C 312.219 154.846, 314 150.726, 314 149.055 C 314 145.179, 309.632 141.624, 305.811 142.388 C 303.344 142.881, 303.166 142.725, 303.909 140.716 C 304.722 138.516, 304.932 138.496, 333.114 138 L 361.500 137.500 361.794 132.500 L 362.089 127.500 335.044 127.781 C 315.477 127.985, 308 127.751, 308 126.935 C 308 126.315, 308.705 123.384, 309.566 120.421 L 311.132 115.034 336.316 114.767 L 361.500 114.500 361.758 57.250 L 362.016 0 181.008 0 L 0 0 0 57.500 M 0.468 58 C 0.468 89.625, 0.595 102.562, 0.749 86.750 C 0.904 70.937, 0.904 45.062, 0.749 29.250 C 0.595 13.437, 0.468 26.375, 0.468 58 M 224.402 81.839 C 219.931 83.941, 219 85.435, 219 90.505 C 219 97.487, 229.393 104.123, 240.428 104.187 C 251.925 104.253, 257.734 99.086, 254.599 91.583 C 250.880 82.683, 234.113 77.273, 224.402 81.839 M 118.707 85.612 C 112.041 87.661, 106 93.788, 106 98.500 C 106 104.608, 111.137 108, 120.387 108 C 127.325 108, 134.298 105.528, 138.476 101.587 C 149.961 90.756, 136.738 80.071, 118.707 85.612 M 164.826 112.724 C 162.805 112.937, 160.613 113.762, 159.954 114.556 C 158.936 115.782, 159.515 116, 163.798 116 C 169.646 116, 168.626 113.620, 172.579 136.500 C 174.005 144.750, 175.292 151.622, 175.440 151.771 C 175.854 152.188, 176.860 139.924, 177.616 125.250 L 178.299 112 173.400 112.168 C 170.705 112.261, 166.847 112.511, 164.826 112.724 M 0.300 133 C 0.300 136.025, 0.487 137.262, 0.716 135.750 C 0.945 134.238, 0.945 131.762, 0.716 130.250 C 0.487 128.738, 0.300 129.975, 0.300 133 M 165.500 165.052 C 150.627 167.026, 136.378 169.073, 133.635 169.629 L 130.770 170.209 134.635 172.408 C 136.761 173.617, 142.615 177.374, 147.644 180.757 C 152.673 184.140, 158.031 187.221, 159.551 187.602 C 162.150 188.254, 162.205 188.377, 160.467 189.648 C 157.461 191.846, 153.770 191.252, 141.068 186.525 C 134.453 184.064, 126.427 181.629, 123.232 181.115 C 116.772 180.074, 109.004 181.112, 105.354 183.504 C 102.362 185.464, 102.083 185.400, 102.736 182.901 C 103.269 180.863, 103.195 180.848, 100.216 182.388 C 96.917 184.095, 97.277 182.718, 95.402 200.750 C 95.073 203.912, 94.135 207.638, 93.316 209.030 C 91.937 211.376, 92.130 212.485, 95.971 224.291 C 104.663 251.009, 116.758 268.653, 133.452 278.970 L 137.010 281.169 140.082 278.585 C 141.771 277.163, 143.466 276, 143.848 276 C 144.231 276, 149.709 277.303, 156.022 278.895 C 162.335 280.487, 168.850 282.087, 170.500 282.452 L 173.500 283.114 169.840 280.058 C 164.980 276.001, 162.086 269.730, 161.328 261.614 C 160.776 255.697, 160.447 254.899, 158.338 254.370 C 157.035 254.043, 155.106 252.679, 154.053 251.340 C 152.504 249.370, 152.328 248.359, 153.133 246.049 C 153.680 244.479, 154.971 242.431, 156.001 241.499 C 159.534 238.302, 161.600 242.574, 158.290 246.232 C 155.518 249.295, 158.222 250.195, 168 249.466 C 178.636 248.673, 182.364 248.673, 193 249.466 C 203.231 250.229, 205.167 249.430, 202.595 245.505 C 200.859 242.855, 201.032 240, 202.930 240 C 204.462 240, 208.011 244.194, 208.657 246.770 C 209.308 249.364, 206.860 252.709, 203.319 254.064 C 201.650 254.702, 200.985 256.026, 200.489 259.699 C 198.919 271.314, 194.124 279.771, 187.519 282.571 C 184.957 283.657, 184.772 283.956, 186.294 284.549 C 188.999 285.603, 194.004 284.493, 200.061 281.496 C 211.205 275.981, 219.481 274.776, 224.634 277.919 L 227.769 279.830 234.991 274.074 C 250.745 261.517, 260.959 243.719, 268.965 214.875 C 270.735 208.496, 270.737 208.148, 269.009 205.513 C 268.021 204.008, 265.958 198.440, 264.422 193.138 C 262.887 187.837, 261.602 183.443, 261.565 183.374 C 261.529 183.305, 260.419 182.916, 259.099 182.509 C 257.141 181.906, 256.812 182.067, 257.317 183.385 C 258.100 185.425, 257.562 185.415, 254.378 183.328 C 247.613 178.895, 236.823 179.868, 218.932 186.525 C 206.230 191.252, 202.539 191.846, 199.533 189.648 C 197.793 188.375, 197.844 188.256, 200.400 187.615 C 202.529 187.080, 212.231 181.103, 226.917 171.279 C 228.016 170.543, 225.225 169.970, 208.994 167.601 C 188.159 164.559, 175.016 163.789, 165.500 165.052 M 67.466 199.075 C 62.004 211.189, 68.845 228.152, 81.287 233.345 C 84.395 234.642, 92.036 236.396, 91.965 235.795 C 91.946 235.633, 90.429 230.602, 88.595 224.614 C 85.620 214.902, 84.945 213.596, 82.331 212.497 C 78.271 210.790, 74.489 205.989, 72.510 200.031 C 71.591 197.264, 70.494 195, 70.072 195 C 69.649 195, 68.477 196.834, 67.466 199.075 M 289.048 200.597 C 286.776 206.078, 282.625 209.967, 279 210.010 C 277.948 210.023, 276.556 213.381, 274.336 221.264 C 272.596 227.444, 270.848 233.319, 270.452 234.320 C 269.804 235.959, 270.121 236.068, 273.616 235.414 C 287.217 232.866, 296.285 222.229, 296.319 208.783 C 296.332 203.487, 293.692 195, 292.032 195 C 291.667 195, 290.324 197.519, 289.048 200.597 M 108.200 197.200 C 105.008 200.392, 107.657 202.407, 116.329 203.381 C 123.041 204.135, 135.799 208.804, 141.197 212.481 C 145.387 215.336, 148.783 215.730, 149.653 213.463 C 149.977 212.617, 149.405 211, 148.380 209.868 C 145.316 206.482, 129.077 199.237, 120.792 197.560 C 111.527 195.685, 109.766 195.634, 108.200 197.200 M 241.473 197.448 C 230.969 199.775, 214.510 207.818, 213.456 211.139 C 211.912 216.005, 215.830 216.161, 223.504 211.540 C 230.421 207.375, 239.274 204.324, 247.790 203.171 C 254.956 202.202, 257.024 200.853, 255.376 198.222 C 253.992 196.013, 249.165 195.744, 241.473 197.448 M 176.370 221.465 C 172.592 223.079, 171.379 224.779, 172.912 226.312 C 173.763 227.163, 174.545 227.141, 176.011 226.225 C 178.440 224.708, 181.494 224.659, 184.173 226.093 C 187.313 227.773, 189.020 225.547, 186.461 223.110 C 183.716 220.496, 180.039 219.896, 176.370 221.465 M 0.300 240 C 0.300 243.025, 0.487 244.262, 0.716 242.750 C 0.945 241.238, 0.945 238.762, 0.716 237.250 C 0.487 235.738, 0.300 236.975, 0.300 240 M 98 250.684 C 98 253.321, 100.353 258, 101.679 258 C 102.854 258, 102.693 257.218, 100.908 254.250 C 98.079 249.546, 98 249.449, 98 250.684 M 90.578 257.787 C 89.608 260.695, 87.334 265.274, 85.525 267.963 L 82.235 272.851 85.199 275.676 C 86.829 277.229, 89.785 281.394, 91.768 284.930 L 95.374 291.360 96.709 285.480 C 97.444 282.246, 99.190 277.646, 100.589 275.258 L 103.133 270.916 100.085 267.445 C 96.767 263.664, 94.083 258.940, 93.019 255.006 C 92.411 252.755, 92.162 253.038, 90.578 257.787 M 172.250 254.292 L 166 255.351 166 258.994 C 166 264.944, 168.700 272.338, 172.042 275.540 C 174.701 278.088, 175.898 278.500, 180.643 278.500 C 185.712 278.500, 186.423 278.206, 189.517 274.830 C 192.806 271.241, 194.184 267.676, 195.483 259.396 L 196.126 255.293 190.813 254.685 C 187.891 254.350, 183.925 253.887, 182 253.654 C 180.075 253.422, 175.688 253.709, 172.250 254.292 M 0.465 309.500 C 0.465 338.100, 0.593 349.656, 0.749 335.180 C 0.906 320.704, 0.906 297.304, 0.749 283.180 C 0.593 269.056, 0.465 280.900, 0.465 309.500 M 153.250 324.970 C 152.563 326.071, 152 328.141, 152 329.570 C 152 331.220, 152.456 332.003, 153.250 331.718 C 153.938 331.472, 155.287 331.675, 156.250 332.170 C 157.674 332.903, 158 332.635, 158 330.735 C 158 329.451, 158.540 327.860, 159.200 327.200 C 160.133 326.267, 159.991 326, 158.560 326 C 157.548 326, 156.221 325.317, 155.610 324.483 C 154.641 323.159, 154.341 323.221, 153.250 324.970 M 136.667 337.667 C 135.673 338.660, 135.861 342.796, 136.930 343.457 C 137.447 343.776, 137.780 342.473, 137.680 340.520 C 137.581 338.589, 137.463 337.007, 137.417 337.004 C 137.371 337.002, 137.033 337.300, 136.667 337.667 M 140.116 339.668 C 140.052 340.311, 139.709 341.661, 139.353 342.668 C 138.851 344.089, 138.984 344.244, 139.947 343.356 C 140.629 342.727, 140.973 341.377, 140.710 340.356 C 140.447 339.335, 140.180 339.026, 140.116 339.668 M 191.031 341.536 C 193.522 342.304, 197.560 344.635, 200.002 346.716 C 203.592 349.775, 204.065 349.983, 202.472 347.803 C 200.061 344.506, 192.089 339.975, 188.865 340.070 C 187.294 340.116, 188.022 340.608, 191.031 341.536 M 142.722 343.011 C 140.634 345.451, 140.545 346.112, 142.401 345.399 C 143.172 345.104, 144.030 343.993, 144.308 342.931 C 144.936 340.528, 144.845 340.532, 142.722 343.011 M 173.500 352.871 C 169.906 355.103, 165.445 359.778, 166.194 360.527 C 166.488 360.822, 167.472 359.929, 168.379 358.544 C 173.820 350.241, 189.256 350.016, 195.272 358.154 C 198.101 361.980, 199.716 361.814, 196.984 357.977 C 192.317 351.423, 180.106 348.768, 173.500 352.871 " stroke="none" fill="black" fill-rule="evenodd"/>
</svg>