<svg xmlns="http://www.w3.org/2000/svg" width="300" height="306" viewBox="0 0 300 306" version="1.1">
	<path d="M 74.500 9.744 C 70.100 10.569, 64.592 12.089, 62.261 13.122 C 59.929 14.155, 57.587 15, 57.055 15 C 56.523 15, 53.798 16.350, 51 18 C 48.202 19.650, 45.708 21, 45.458 21 C 42.948 21, 21 40.748, 21 43.007 C 21 43.553, 20.605 44, 20.121 44 C 19.638 44, 18.683 45.350, 18 47 C 17.317 48.650, 16.362 50, 15.879 50 C 15.395 50, 15 50.800, 15 51.778 C 15 52.756, 14.100 54.326, 13 55.268 C 11.900 56.210, 10.986 57.772, 10.968 58.740 C 10.951 59.708, 10.276 61.374, 9.468 62.441 C 8.661 63.509, 8 65.331, 8 66.491 C 8 67.651, 7.535 69.065, 6.966 69.634 C 6.397 70.203, 5.478 73.105, 4.923 76.084 C 4.367 79.063, 3.509 83.525, 3.016 86 C 1.834 91.929, 1.865 116.152, 3.062 122.500 C 3.581 125.250, 4.453 130.626, 5 134.447 C 5.547 138.268, 6.446 141.846, 6.997 142.397 C 7.549 142.949, 8.003 144.548, 8.006 145.950 C 8.010 147.353, 8.685 149.789, 9.506 151.364 C 10.328 152.940, 11 154.854, 11 155.618 C 11 156.382, 11.900 158.686, 13 160.739 C 14.100 162.791, 15 165.265, 15 166.235 C 15 167.206, 15.450 168, 16 168 C 16.550 168, 17 168.546, 17 169.213 C 17 171.066, 25.096 187, 26.038 187 C 26.493 187, 27.181 188.012, 27.566 189.250 C 27.952 190.487, 29.557 193.140, 31.134 195.144 C 32.710 197.148, 34 199.080, 34 199.436 C 34 199.793, 34.451 200.628, 35.002 201.292 C 35.554 201.956, 39.550 206.775, 43.883 212 C 53.114 223.132, 73.627 243, 75.890 243 C 76.409 243, 76.983 243.399, 77.167 243.886 C 77.637 245.135, 86.810 252, 88.009 252 C 88.554 252, 89 252.380, 89 252.843 C 89 253.307, 91.249 255.220, 93.998 257.093 C 96.747 258.967, 98.997 260.837, 98.998 261.250 C 98.999 261.663, 99.563 262.007, 100.250 262.016 C 100.938 262.025, 102.996 263.351, 104.825 264.963 C 106.653 266.575, 109.491 268.930, 111.130 270.197 C 115.960 273.928, 118.319 275.887, 121.500 278.808 C 123.150 280.323, 128.976 285.599, 134.447 290.531 C 139.917 295.464, 145.235 300.318, 146.264 301.317 C 148.405 303.397, 148.452 303.371, 155.931 295.990 C 158.444 293.510, 162.750 289.685, 165.500 287.490 C 168.250 285.296, 170.650 283.162, 170.833 282.750 C 171.017 282.337, 171.642 282, 172.223 282 C 172.804 282, 173.779 281.353, 174.390 280.561 C 175 279.770, 183.825 272.816, 194 265.107 C 204.175 257.399, 213.044 250.621, 213.708 250.046 C 214.372 249.471, 215.385 249, 215.958 249 C 216.531 249, 217 248.611, 217 248.136 C 217 247.661, 218.912 245.975, 221.250 244.389 C 223.588 242.803, 225.860 240.942, 226.300 240.253 C 226.740 239.564, 227.752 239, 228.550 239 C 229.347 239, 230 238.325, 230 237.500 C 230 236.675, 230.388 236, 230.862 236 C 232.605 236, 251.527 218.018, 258.749 209.500 C 261.080 206.750, 263.591 203.825, 264.328 203 C 266.595 200.462, 272 192.191, 272 191.258 C 272 190.774, 272.827 189.489, 273.838 188.405 C 275.904 186.187, 284.109 169.491, 285.947 163.764 C 286.606 161.709, 287.563 159.770, 288.073 159.455 C 288.583 159.140, 289.003 157.896, 289.006 156.691 C 289.010 155.486, 289.685 153.211, 290.506 151.636 C 291.328 150.060, 291.998 147.810, 291.995 146.636 C 291.992 145.461, 292.633 142.475, 293.418 140 C 296.558 130.102, 297.421 121.243, 297.460 98.500 C 297.500 75.433, 297.337 73.929, 293.332 60.500 C 288.312 43.662, 278.442 29.837, 265.500 21.513 C 252.003 12.832, 237.062 8.963, 214.500 8.307 C 202.260 7.951, 198.488 8.186, 194 9.582 C 188.359 11.337, 175.695 17.301, 174 19.002 C 173.725 19.277, 172.262 20.141, 170.750 20.921 C 169.238 21.700, 168 22.712, 168 23.169 C 168 23.626, 167.325 24, 166.500 24 C 165.675 24, 165 24.403, 165 24.896 C 165 25.388, 162.750 27.235, 160 29 C 157.250 30.765, 155 32.515, 155 32.889 C 155 33.263, 153.731 34.318, 152.180 35.235 C 149.542 36.793, 149.261 36.791, 147.842 35.200 C 142.564 29.286, 127.117 19.068, 117.232 14.953 C 108.488 11.313, 93.681 7.973, 87 8.135 C 84.525 8.195, 78.900 8.919, 74.500 9.744 M 200.500 28.857 C 196.765 29.847, 193 31.831, 193 32.808 C 193 33.213, 194.612 34.413, 196.583 35.475 C 201.437 38.089, 204 43.386, 204 50.805 C 204 58.675, 205.479 60, 214.257 60 C 218.924 60, 221.317 60.460, 222.429 61.571 C 224.663 63.806, 224.426 69.574, 222 72 C 220.900 73.100, 220 74.262, 220 74.582 C 220 74.902, 217.692 77.353, 214.870 80.030 C 209.055 85.547, 208.931 85.400, 220.218 86.362 C 227.767 87.005, 233.538 90.268, 236.643 95.650 C 237.985 97.974, 236.456 100.338, 231.346 103.839 C 228.636 105.696, 226.798 106, 218.296 106 C 212.173 106, 207.962 105.562, 207.250 104.850 C 206.615 104.215, 201.701 103.489, 196.276 103.227 C 185.738 102.720, 182.517 103.645, 177.032 108.756 C 174.224 111.372, 174.978 111.523, 183.114 109.975 C 186.076 109.412, 192.325 108.894, 197 108.825 C 203.899 108.723, 206.442 109.129, 210.500 110.979 C 218.149 114.466, 220.231 117.016, 220.231 122.898 C 220.231 125.615, 219.616 128.600, 218.865 129.532 C 216.579 132.369, 205.321 142.429, 197.730 148.417 L 194.032 151.334 196.266 152.917 C 199.895 155.489, 210.706 154.833, 224.819 151.185 C 231.595 149.433, 238.932 148, 241.124 148 C 246.488 148, 252.668 150.995, 257.427 155.900 L 261.354 159.947 263.316 156.723 C 264.395 154.951, 267.238 148.550, 269.634 142.500 C 272.029 136.450, 274.442 130.719, 274.995 129.764 C 275.548 128.809, 276 126.905, 276 125.534 C 276 124.162, 276.786 121.119, 277.747 118.770 C 280.267 112.611, 280.227 79.019, 277.694 74.500 C 276.769 72.850, 276.010 70.514, 276.006 69.309 C 276.003 68.104, 275.638 66.894, 275.194 66.620 C 274.751 66.346, 273.078 63.507, 271.475 60.311 C 269.649 56.670, 265.561 51.512, 260.530 46.500 C 251.666 37.669, 243.772 33.109, 232.867 30.519 C 225.450 28.758, 204.863 27.701, 200.500 28.857 M 67.500 33.378 C 63.650 34.637, 58.025 36.930, 55 38.473 C 49.614 41.220, 37.832 49.649, 37.161 51.234 C 36.974 51.675, 36.187 52.671, 35.411 53.446 C 34.635 54.222, 34 55.339, 34 55.929 C 34 56.518, 33.590 57, 33.089 57 C 32.179 57, 29.484 62.390, 27.087 69 C 21.837 83.483, 19.770 101.860, 21.969 114.500 C 22.639 118.350, 23.546 123.975, 23.985 127 C 24.424 130.025, 25.504 133.850, 26.386 135.500 C 27.267 137.150, 28.005 139.400, 28.026 140.500 C 28.047 141.600, 28.724 143.374, 29.532 144.441 C 30.339 145.509, 31 147.228, 31 148.263 C 31 149.297, 31.675 150.818, 32.500 151.643 C 33.325 152.468, 34 153.956, 34 154.949 C 34 155.942, 34.675 157.315, 35.500 158 C 36.325 158.685, 37 159.810, 37 160.500 C 37 161.190, 37.683 162.322, 38.518 163.015 C 39.354 163.708, 40.726 165.728, 41.568 167.503 C 42.411 169.278, 43.977 171.672, 45.050 172.823 C 46.122 173.974, 47 175.179, 47 175.500 C 47 175.822, 47.439 176.628, 47.975 177.292 C 48.511 177.956, 49.974 179.763, 51.225 181.308 L 53.500 184.115 55.374 177.558 C 56.515 173.566, 57.786 171, 58.624 171 C 59.381 171, 60 171.406, 60 171.901 C 60 172.397, 61.659 173.782, 63.688 174.978 C 66.712 176.763, 68.465 177.071, 73.438 176.692 C 83.329 175.938, 95.404 173.662, 96.821 172.284 C 97.601 171.526, 97.704 171, 97.071 171 C 96.482 171, 96 170.325, 96 169.500 C 96 168.675, 95.325 168, 94.500 168 C 93.675 168, 93 167.621, 93 167.157 C 93 166.694, 91.408 165.458, 89.463 164.410 C 84.424 161.696, 80 152.419, 80 144.566 C 80 139.802, 80.526 138.011, 83.001 134.343 L 86.002 129.897 83.001 128.851 C 81.350 128.275, 80 127.442, 80 127 C 80 126.558, 78.763 125.675, 77.250 125.039 C 71.981 122.823, 70 121.517, 70 120.263 C 70 119.568, 69.495 119, 68.878 119 C 68.102 119, 68.140 118.536, 69 117.500 C 69.740 116.608, 71.925 116, 74.387 116 C 76.666 116, 80.209 115.100, 82.261 114 C 84.314 112.900, 86.684 112, 87.528 112 C 88.372 112, 89.322 111.325, 89.638 110.500 C 89.955 109.675, 90.841 109, 91.607 109 C 92.373 109, 93 108.518, 93 107.929 C 93 107.339, 93.757 106.102, 94.682 105.179 C 96.256 103.607, 96.114 103.462, 92.432 102.906 C 90.269 102.580, 86.025 101.013, 83 99.424 C 76.891 96.216, 65.514 85.595, 66.492 84.013 C 66.836 83.456, 70.774 83, 75.243 83 C 83.662 83, 91.498 80.472, 92.688 77.372 C 92.977 76.617, 93.841 76, 94.607 76 C 95.373 76, 96 75.325, 96 74.500 C 96 73.675, 96.675 73, 97.500 73 C 99.926 73, 99.286 68.088, 96 61.500 C 94.354 58.200, 93.006 54.927, 93.004 54.228 C 92.999 52.541, 102.397 43.599, 107.748 40.199 C 110.085 38.715, 111.997 36.970, 111.998 36.322 C 111.999 35.674, 109.508 34.211, 106.462 33.072 C 98.213 29.985, 77.376 30.149, 67.500 33.378 M 162.342 53.741 C 159.129 56.349, 155.548 59.499, 154.385 60.741 C 151.658 63.654, 151.099 63.597, 147.161 60 C 145.355 58.350, 143.454 57, 142.938 57 C 142.422 57, 142 56.580, 142 56.067 C 142 55.554, 141.008 54.820, 139.797 54.435 C 138.585 54.051, 136.978 53.121, 136.225 52.368 C 133.001 49.144, 132 50.691, 132 58.897 C 132 66.067, 132.251 67.080, 134.723 69.897 C 136.220 71.604, 138.133 73.014, 138.973 73.032 C 139.813 73.049, 141.374 73.724, 142.441 74.532 C 143.805 75.564, 146.989 76, 153.154 76 L 161.926 76 166.012 71.750 C 170.725 66.850, 173 62.757, 173 59.182 C 173 56.396, 170.021 49, 168.899 49 C 168.505 49, 165.555 51.133, 162.342 53.741 M 142.459 88.752 C 140.786 90.264, 138.812 92.711, 138.072 94.190 C 136.817 96.698, 136.939 97.093, 139.867 100.021 C 142.705 102.859, 143.591 103.159, 149.053 103.133 C 154.668 103.106, 155.454 102.806, 160.090 98.925 C 162.836 96.626, 164.917 94.252, 164.716 93.649 C 164.129 91.888, 151.783 86.105, 148.500 86.053 C 146.584 86.022, 144.401 86.997, 142.459 88.752 M 117.250 111.525 C 114.362 112.876, 112 114.435, 112 114.990 C 112 115.546, 111.325 116, 110.500 116 C 109.675 116, 109 116.675, 109 117.500 C 109 118.325, 108.594 119, 108.099 119 C 106.347 119, 102.852 126.274, 103.453 128.669 C 103.941 130.615, 104.686 131, 107.960 131 C 110.117 131, 112.160 130.550, 112.500 130 C 112.840 129.450, 113.936 129, 114.937 129 C 115.937 129, 117.291 128.354, 117.946 127.565 C 118.600 126.776, 120.919 125.201, 123.099 124.065 C 127.877 121.575, 139.076 121.257, 143 123.500 C 144.375 124.286, 146.927 124.945, 148.671 124.965 C 151.392 124.995, 151.934 124.575, 152.500 122 C 152.862 120.350, 153.521 119, 153.963 119 C 155.047 119, 155.911 115.466, 155.127 114.239 C 154.782 113.698, 152.387 112.298, 149.805 111.128 C 145.883 109.350, 143.248 109.006, 133.805 109.035 C 123.937 109.066, 121.832 109.382, 117.250 111.525 M 178.727 127 C 177.329 128.100, 175.693 129, 175.092 129 C 174.492 129, 174 130.131, 174 131.514 C 174 134.527, 179.507 139.928, 182.623 139.971 C 185.542 140.011, 191 133.433, 191 129.874 C 191 124.946, 183.555 123.202, 178.727 127 M 110.750 137.083 C 109.787 138.137, 109 139.395, 109 139.878 C 109 140.360, 108.341 141.302, 107.535 141.971 C 106.281 143.012, 106.482 143.534, 108.929 145.594 C 112.291 148.423, 113.786 148.546, 116.501 146.217 C 119.771 143.411, 124.997 136.330, 124.307 135.640 C 123.955 135.288, 121.154 135.037, 118.083 135.083 C 113.930 135.145, 112.052 135.658, 110.750 137.083 M 143.169 139.750 C 140.053 146.130, 138.604 148.651, 136.849 150.743 C 136.038 151.709, 134.558 153.810, 133.558 155.412 L 131.742 158.323 146.759 157.673 C 165.627 156.857, 167.295 156.309, 163.160 152.289 C 162.148 151.305, 161.018 149.825, 160.649 149 C 160.280 148.175, 159.088 146.150, 158 144.500 C 156.912 142.850, 155.708 140.845, 155.325 140.044 C 153.747 136.748, 151.390 135, 148.522 135 C 145.895 135, 145.177 135.637, 143.169 139.750 M 199.750 173.224 C 196.520 174.589, 196.217 176.981, 198.958 179.462 C 200.403 180.770, 203.614 181.451, 211.208 182.060 C 223.294 183.029, 226 183.701, 226 185.732 C 226 187.350, 223.429 195.635, 221.418 200.500 C 219.712 204.628, 218.831 213.807, 219.754 217.843 L 220.518 221.186 225.259 216.579 C 227.867 214.044, 230 211.768, 230 211.520 C 230 211.272, 231.342 209.591, 232.983 207.784 C 237.459 202.856, 238.185 201.921, 242.158 195.975 C 248.184 186.956, 251.914 180.135, 253.355 175.500 C 253.953 173.574, 253.507 173.498, 241.238 173.455 C 234.232 173.431, 222.650 173.107, 215.500 172.737 C 206.465 172.268, 201.661 172.417, 199.750 173.224 M 141.500 175.121 C 139.300 175.612, 135.819 176.293, 133.765 176.636 C 123.855 178.290, 128.981 182.634, 139.598 181.580 C 145.930 180.952, 153 182.826, 153 185.132 C 153 185.740, 154.545 185.059, 156.433 183.619 C 158.785 181.825, 161.099 181, 163.778 181 C 168.102 181, 171.663 178.170, 170.653 175.537 C 170.163 174.261, 167.980 174.020, 157.781 174.115 C 151.027 174.178, 143.700 174.631, 141.500 175.121 M 91.500 190.084 C 83.755 194.554, 81.001 195.608, 72.572 197.327 C 68.266 198.205, 64.512 199.155, 64.229 199.437 C 63.427 200.240, 77.055 216, 78.552 216 C 78.798 216, 79.832 216.787, 80.850 217.750 C 86.517 223.112, 91.352 225.131, 92.342 222.551 C 93.054 220.695, 91.989 214.112, 90.865 213.417 C 90.389 213.123, 90 212.024, 90 210.975 C 90 209.926, 89.233 207.459, 88.295 205.492 L 86.590 201.916 89.545 199.372 C 91.170 197.973, 94.782 195.747, 97.572 194.426 C 104.064 191.350, 104.337 191.030, 102.347 188.831 C 100.104 186.352, 97.431 186.661, 91.500 190.084 M 181.655 194.829 C 179.532 197.175, 179.474 204.804, 181.557 207.777 C 182.800 209.552, 184.086 210, 187.942 210 C 192.029 210, 193.030 209.604, 194.461 207.419 C 197.156 203.306, 197.519 198.578, 195.366 195.623 C 193.793 193.465, 192.700 193.058, 188.405 193.031 C 184.710 193.009, 182.855 193.503, 181.655 194.829 M 113.750 202.689 C 111.073 203.389, 111.393 210.221, 114.250 213.363 C 118.134 217.636, 120.504 217.623, 123.433 213.314 C 126.739 208.448, 126.887 203.471, 123.750 202.630 C 121.249 201.960, 116.432 201.988, 113.750 202.689 M 153.356 205.174 C 151.183 208.013, 148.849 214.284, 147.982 219.613 C 147.482 222.680, 146.270 226.835, 145.287 228.845 C 143.670 232.152, 142.929 232.617, 137.500 233.734 C 134.200 234.413, 128.350 234.923, 124.500 234.867 C 117.456 234.766, 106.225 235.827, 104.656 236.742 C 103.762 237.263, 109.536 243, 110.955 243 C 111.412 243, 112.045 243.675, 112.362 244.500 C 112.678 245.325, 113.374 246, 113.907 246 C 114.440 246, 116.355 247.350, 118.161 249 C 119.968 250.650, 122.020 252, 122.723 252 C 123.425 252, 124 252.419, 124 252.931 C 124 253.444, 127.487 256.389, 131.750 259.476 C 136.012 262.563, 140.387 265.856, 141.472 266.794 C 147.249 271.792, 148.118 272.049, 151.431 269.737 C 153.119 268.560, 154.725 267.317, 155 266.975 C 155.275 266.633, 159.662 263.484, 164.750 259.976 C 169.838 256.469, 174 253.239, 174 252.800 C 174 252.360, 174.477 252, 175.060 252 C 175.962 252, 182.708 247.375, 186.708 244.015 C 187.372 243.457, 188.362 243, 188.908 243 C 189.454 243, 190.260 242.436, 190.700 241.747 C 191.140 241.058, 193.412 239.197, 195.750 237.611 C 198.088 236.025, 200 234.415, 200 234.033 C 200 233.651, 198.896 232.747, 197.547 232.025 C 195.729 231.052, 192.816 230.900, 186.297 231.436 C 181.459 231.835, 176.197 232.137, 174.604 232.109 C 171.464 232.053, 165.018 228.200, 165.007 226.372 C 165.003 225.752, 164.354 224.709, 163.565 224.054 C 161.480 222.324, 158.007 215.302, 157.958 212.719 C 157.935 211.499, 157.118 209.003, 156.143 207.174 C 154.768 204.594, 154.143 204.146, 153.356 205.174 " stroke="none" fill="black" fill-rule="evenodd"/>
</svg>