<svg xmlns="http://www.w3.org/2000/svg" width="361" height="361" viewBox="0 0 361 361" version="1.1">
	<path d="M 0 57.500 L 0 115 26.481 115 L 52.962 115 53.574 117.750 C 54.597 122.347, 54.975 123.913, 55.567 126 C 56.125 127.966, 55.657 128, 28.067 128 L 0 128 0 133.500 L 0 139 23.827 139 L 47.654 139 47.218 141.970 C 46.908 144.078, 48.092 147.635, 51.296 154.220 C 53.778 159.324, 58.113 168.780, 60.927 175.234 L 66.045 186.968 63.585 190.865 C 59.860 196.766, 57.662 205.434, 58.306 211.678 C 58.985 218.258, 63.071 227.427, 67.250 231.750 L 70.392 235 35.196 235 L 0 235 0 240 L 0 245 46.250 245.015 C 84.071 245.027, 92.044 245.259, 90 246.287 C 88.311 247.137, 86.987 249.161, 85.918 252.523 L 84.337 257.500 42.168 257.761 L 0 258.022 0 309.511 L 0 361 76.917 361 C 137.514 361, 153.940 360.735, 154.338 359.750 C 154.741 358.750, 154.858 358.750, 154.921 359.750 C 154.967 360.484, 156.340 360.987, 158.250 360.968 C 160.996 360.942, 161.906 360.268, 164.113 356.626 C 167.396 351.211, 175.215 346.995, 181.946 347.010 C 188.747 347.024, 196.284 350.926, 200.175 356.446 L 203.385 361 211.779 361 L 220.172 361 215.214 354.750 C 212.487 351.313, 208.166 345.259, 205.611 341.298 C 203.056 337.338, 200.411 333.752, 199.733 333.332 C 199.055 332.911, 193.325 332.551, 187 332.533 C 177.241 332.505, 174.971 332.189, 172.005 330.447 C 170.084 329.318, 168.209 327.293, 167.840 325.947 C 167.471 324.601, 166.484 321.094, 165.646 318.154 C 164.586 314.436, 164.408 312.056, 165.061 310.339 C 165.578 308.981, 166 306.265, 166 304.303 L 166 300.737 170 301.273 C 174.023 301.813, 176.057 300.657, 174.256 298.856 C 173.722 298.322, 168.609 296.534, 162.893 294.881 C 150.572 291.320, 144 287.828, 144 284.844 C 144 282.436, 143.780 282.415, 160.500 286.414 C 166.550 287.861, 176.270 289.561, 182.100 290.192 L 192.700 291.340 204.238 286.670 C 216.023 281.900, 218.436 281.357, 220.905 282.920 C 221.958 283.587, 221.083 284.434, 217.405 286.306 C 214.707 287.679, 211.429 289.951, 210.120 291.354 C 207.915 293.718, 207.823 294.239, 208.870 298.396 C 209.491 300.865, 210 304.906, 210 307.376 C 210 311.450, 210.394 312.186, 214.250 315.319 C 216.587 317.219, 225.700 323.476, 234.500 329.225 C 254.688 342.414, 263 351.091, 263 358.977 C 263 361.009, 263.248 361.018, 312.250 360.759 L 361.500 360.500 361.759 309 L 362.018 257.500 310.608 257.768 L 259.199 258.035 262.547 251.768 L 265.895 245.500 313.698 245 L 361.500 244.500 361.794 239.500 L 362.088 234.500 326.823 234.776 L 291.558 235.051 294.725 231.776 C 300.164 226.150, 303.410 217.666, 303.458 208.951 C 303.496 202.152, 303.114 200.619, 299.611 193.531 L 295.723 185.660 299.962 177.080 C 302.294 172.361, 306.463 164.744, 309.226 160.154 C 311.989 155.564, 314.250 150.703, 314.250 149.352 C 314.250 145.880, 310.288 142, 306.742 142 C 304.860 142, 303.980 141.559, 304.249 140.750 C 304.564 139.805, 311.600 139.378, 333.083 139 L 361.500 138.500 361.793 133 L 362.086 127.500 334.927 127.782 L 307.767 128.064 308.439 125.282 C 308.809 123.752, 309.551 120.820, 310.089 118.767 L 311.068 115.034 336.284 114.767 L 361.500 114.500 361.758 57.250 L 362.016 0 181.008 0 L 0 0 0 57.500 M 0.468 58 C 0.468 89.625, 0.595 102.562, 0.749 86.750 C 0.904 70.937, 0.904 45.062, 0.749 29.250 C 0.595 13.437, 0.468 26.375, 0.468 58 M 166.513 112.743 C 164.320 112.966, 161.882 113.678, 161.096 114.325 C 159.948 115.269, 160.633 115.598, 164.578 116 L 169.490 116.500 172.563 134.500 L 175.636 152.500 176.326 141 C 176.705 134.675, 177.302 125.563, 177.651 120.750 L 178.287 112 174.393 112.168 C 172.252 112.261, 168.706 112.519, 166.513 112.743 M 0.310 133.500 C 0.315 136.800, 0.502 138.029, 0.725 136.232 C 0.947 134.435, 0.943 131.735, 0.715 130.232 C 0.486 128.729, 0.304 130.200, 0.310 133.500 M 170 164.687 C 163.220 165.398, 136.473 169.116, 134.308 169.649 C 132.506 170.092, 134.280 171.618, 144.273 178.221 C 150.960 182.639, 158.011 186.801, 159.943 187.470 C 163.324 188.640, 163.374 188.729, 161.293 189.843 C 157.473 191.888, 152.661 191.102, 139.944 186.357 C 124.364 180.544, 115.072 179.547, 107.536 182.881 C 101.830 185.405, 101.621 185.430, 102.362 183.500 C 103.054 181.696, 102.823 181.668, 99.547 183.161 C 98.146 183.799, 96.984 185.036, 96.964 185.911 C 96.786 193.872, 94.896 207.509, 93.724 209.298 C 92.417 211.293, 92.546 212.433, 94.987 220.509 C 103.412 248.383, 113.693 264.544, 130.735 276.705 L 137.065 281.222 139.485 278.611 C 140.816 277.175, 142.766 276, 143.818 276 C 144.870 276, 150.854 277.347, 157.116 278.994 C 163.377 280.640, 169.097 281.990, 169.827 281.994 C 170.557 281.997, 169.800 280.646, 168.146 278.992 C 164.906 275.752, 161.009 266.618, 160.986 262.212 C 160.962 257.327, 159.895 255.320, 156.448 253.677 C 151.940 251.527, 151.121 248.158, 153.981 243.531 C 156.273 239.821, 159.612 238.824, 160.653 241.537 C 160.977 242.383, 160.513 243.881, 159.621 244.866 C 156.314 248.520, 158.126 250.013, 165.832 249.981 C 168.399 249.970, 172.746 249.379, 175.490 248.668 C 179.575 247.609, 181.481 247.610, 185.990 248.672 C 193.080 250.341, 200.137 250.352, 202.399 248.697 C 204.019 247.513, 204.036 247.275, 202.590 246.075 C 201.716 245.349, 201 243.654, 201 242.308 C 201 238.723, 204.889 239.625, 207.303 243.770 C 209.859 248.158, 208.910 251.599, 204.572 253.667 C 201.513 255.126, 201.132 255.792, 200.511 260.760 C 199.138 271.747, 194.848 279.578, 188.837 282.068 L 185.551 283.429 188.982 284.130 C 191.722 284.690, 193.829 284.164, 199.456 281.512 C 211.673 275.754, 218.455 274.698, 224.575 277.603 C 227.922 279.191, 227.996 279.173, 232.865 275.599 C 248.879 263.843, 259.648 246.131, 267.674 218.344 C 270.062 210.078, 270.235 208.605, 269.043 206.698 C 268.293 205.497, 266.242 199.820, 264.485 194.083 C 262.039 186.096, 260.799 183.470, 259.196 182.877 C 257.590 182.283, 257.232 182.440, 257.658 183.551 C 258.377 185.425, 258.149 185.396, 252.464 182.881 C 244.903 179.537, 235.603 180.537, 220.181 186.354 C 207.366 191.187, 204.036 191.752, 199.315 189.890 L 196.500 188.779 200.101 187.494 C 202.082 186.786, 209.002 182.678, 215.480 178.364 L 227.257 170.520 219.878 169.260 C 207.756 167.190, 180.876 163.988, 177.057 164.160 C 175.101 164.248, 171.925 164.485, 170 164.687 M 67.609 199.020 C 64.128 207.720, 66.115 219.265, 72.369 226.672 C 75.689 230.605, 84.294 235, 88.675 235 C 91.691 235, 91.881 234.818, 91.014 232.750 C 90.495 231.512, 88.877 226.563, 87.418 221.750 C 85.504 215.439, 84.309 212.994, 83.132 212.978 C 79.489 212.928, 74.047 206.244, 71.955 199.250 C 71.255 196.912, 70.354 195, 69.950 195 C 69.547 195, 68.493 196.809, 67.609 199.020 M 289.182 200.678 C 285.965 207.010, 282.940 210, 279.746 210 C 278.751 210, 277.777 210.563, 277.580 211.250 C 277.384 211.938, 275.650 217.563, 273.727 223.750 L 270.230 235 273.419 235 C 277.717 235, 286.340 230.571, 289.631 226.672 C 296.047 219.072, 297.980 206.980, 294.133 198.500 L 292.319 194.500 289.182 200.678 M 107.364 197.493 C 106.145 200.670, 108.389 202.459, 114.572 203.241 C 123.906 204.421, 134.694 208.582, 144.174 214.657 C 146.438 216.108, 147.097 216.164, 148.472 215.023 C 151.359 212.627, 149.782 209.933, 143.149 205.930 C 135.194 201.129, 123.391 197.148, 114.709 196.337 C 108.902 195.795, 107.959 195.944, 107.364 197.493 M 239.808 197.547 C 228.570 200.272, 213 208.603, 213 211.890 C 213 216.250, 215.408 216.192, 224.116 211.623 C 233.927 206.474, 240.335 204.264, 248.428 203.241 C 254.932 202.418, 257.363 200.347, 255.070 197.584 C 253.459 195.643, 247.718 195.629, 239.808 197.547 M 175.250 221.491 C 169.426 224.022, 171.533 228.021, 177.546 225.847 C 180.333 224.839, 181.492 224.826, 183.027 225.785 C 185.909 227.585, 188 227.266, 188 225.026 C 188 222.928, 183.433 219.971, 180.300 220.039 C 179.310 220.061, 177.037 220.714, 175.250 221.491 M 0.300 240 C 0.300 243.025, 0.487 244.262, 0.716 242.750 C 0.945 241.238, 0.945 238.762, 0.716 237.250 C 0.487 235.738, 0.300 236.975, 0.300 240 M 94 246 C 95.958 247.266, 97.282 247.266, 96.500 246 C 96.160 245.450, 95.121 245.007, 94.191 245.015 C 92.734 245.029, 92.707 245.165, 94 246 M 98 250.365 C 98 252.136, 101.007 258, 101.915 258 C 102.475 258, 101.966 256.313, 100.786 254.250 C 98.218 249.766, 98 249.461, 98 250.365 M 91.061 257.516 C 90.374 259.707, 88.283 264.036, 86.416 267.135 L 83.019 272.770 86.416 276.478 C 88.285 278.518, 90.861 282.395, 92.143 285.093 C 93.424 287.792, 94.726 290, 95.036 290 C 95.346 290, 96.147 287.353, 96.815 284.118 C 97.483 280.882, 99.199 276.512, 100.629 274.405 C 102.233 272.041, 102.797 270.432, 102.102 270.201 C 100.416 269.639, 95.066 261.494, 93.598 257.253 L 92.310 253.532 91.061 257.516 M 0.465 309.500 C 0.465 338.100, 0.593 349.656, 0.749 335.180 C 0.906 320.704, 0.906 297.304, 0.749 283.180 C 0.593 269.056, 0.465 280.900, 0.465 309.500 M 153.225 325.012 C 152.551 326.090, 152 328.029, 152 329.320 C 152 331.244, 152.524 331.667, 154.905 331.667 C 156.795 331.667, 157.644 331.236, 157.336 330.434 C 157.076 329.757, 157.344 328.905, 157.932 328.542 C 159.480 327.585, 159.242 326, 157.550 326 C 156.752 326, 155.728 325.337, 155.274 324.526 C 154.582 323.288, 154.253 323.366, 153.225 325.012 M 136 340.500 C 136 341.875, 136.388 343, 136.861 343 C 137.335 343, 137.508 341.875, 137.245 340.500 C 136.982 339.125, 136.594 338, 136.383 338 C 136.173 338, 136 339.125, 136 340.500 M 139.825 341.326 C 139.452 343.151, 139.592 343.808, 140.218 343.182 C 140.751 342.649, 141.011 341.377, 140.794 340.356 C 140.503 338.981, 140.251 339.233, 139.825 341.326 M 178.750 339.662 C 179.438 339.940, 180.563 339.940, 181.250 339.662 C 181.938 339.385, 181.375 339.158, 180 339.158 C 178.625 339.158, 178.063 339.385, 178.750 339.662 M 156.946 343.750 L 153.500 347.500 157.250 344.054 C 160.740 340.846, 161.460 340, 160.696 340 C 160.529 340, 158.842 341.688, 156.946 343.750 M 173.813 340.683 C 174.534 340.972, 175.397 340.936, 175.729 340.604 C 176.061 340.272, 175.471 340.036, 174.417 340.079 C 173.252 340.127, 173.015 340.364, 173.813 340.683 M 192.083 341.365 C 192.313 341.565, 193.625 342.265, 195 342.920 C 197.357 344.042, 197.389 344.022, 195.559 342.555 C 193.966 341.279, 190.711 340.164, 192.083 341.365 M 142.029 343.961 C 141.220 344.473, 140.818 345.152, 141.136 345.470 C 141.455 345.788, 142.284 345.362, 142.980 344.524 C 144.423 342.786, 144.146 342.622, 142.029 343.961 M 161.453 348.250 L 157.500 352.500 161.750 348.547 C 165.702 344.871, 166.460 344, 165.703 344 C 165.540 344, 163.627 345.913, 161.453 348.250 M 198 344.378 C 198 344.585, 198.787 345.373, 199.750 346.128 C 201.336 347.371, 201.371 347.336, 200.128 345.750 C 198.821 344.084, 198 343.555, 198 344.378 M 176.047 351.305 C 172.497 352.437, 164.360 359.693, 165.435 360.768 C 165.766 361.099, 167.716 359.739, 169.768 357.745 C 171.821 355.751, 174.767 353.642, 176.315 353.060 C 182.623 350.685, 190.030 352.680, 195.113 358.121 C 196.733 359.856, 198.345 360.989, 198.694 360.639 C 199.874 359.459, 191.395 352.435, 187.315 351.213 C 182.584 349.795, 180.736 349.810, 176.047 351.305 M 148.624 356.539 C 148.281 357.432, 148.029 358.689, 148.063 359.332 C 148.098 359.974, 148.558 359.422, 149.085 358.105 C 149.612 356.787, 149.864 355.531, 149.645 355.312 C 149.426 355.093, 148.966 355.645, 148.624 356.539 M 208.564 358.293 C 208.940 359.279, 209.499 359.834, 209.807 359.526 C 210.115 359.219, 209.808 358.412, 209.124 357.733 C 208.136 356.753, 208.022 356.868, 208.564 358.293 " stroke="none" fill="black" fill-rule="evenodd"/>
</svg>