<svg xmlns="http://www.w3.org/2000/svg" width="361" height="361" viewBox="0 0 361 361" version="1.1">
	<path fill-opacity="0.094" d="M 0 57.500 L 0 115 26.413 115 L 52.827 115 54.174 121.250 L 55.522 127.500 27.761 127.766 L 0 128.031 0 133.516 L 0 139 23.776 139 L 47.553 139 47.184 142.873 C 46.915 145.685, 47.473 147.807, 49.220 150.623 C 50.543 152.755, 54.016 160.125, 56.937 167 C 59.859 173.875, 63.125 181.230, 64.194 183.345 C 65.945 186.809, 65.986 187.358, 64.607 188.882 C 60.869 193.013, 58.599 200.376, 58.559 208.500 C 58.514 217.706, 59.778 221.999, 64.594 229.001 L 68.033 234 34.017 234 L 0 234 0 240 L 0 246 44.523 246 L 89.046 246 87.635 248.250 C 86.858 249.488, 85.688 252.188, 85.034 254.250 L 83.845 258 41.922 258 L 0 258 0 309.510 L 0 361.020 80.750 360.981 L 161.500 360.942 163.702 357.559 C 171.410 345.713, 186.318 343.721, 196.567 353.168 C 198.963 355.377, 201.197 358.046, 201.531 359.098 C 202.124 360.965, 204.096 361.006, 281.819 360.756 L 361.500 360.500 361.759 309 L 362.018 257.500 310.920 257.768 C 282.816 257.915, 259.977 257.690, 260.166 257.268 C 260.356 256.846, 261.752 254.142, 263.268 251.260 L 266.024 246.019 313.762 245.760 L 361.500 245.500 361.792 239.500 L 362.083 233.500 328.007 233.776 L 293.931 234.052 297.388 229.027 C 302.222 221.999, 303.486 217.714, 303.441 208.500 C 303.401 200.320, 301.129 193.010, 297.317 188.798 C 295.830 187.155, 295.989 186.415, 299.459 178.824 C 301.520 174.315, 305.125 167.447, 307.470 163.563 C 314.121 152.546, 315.105 150.266, 314.407 147.485 C 313.604 144.286, 310.389 142, 306.694 142 C 304.850 142, 303.981 141.556, 304.249 140.750 C 304.564 139.805, 311.600 139.378, 333.083 139 L 361.500 138.500 361.793 133 L 362.086 127.500 334.966 127.782 C 309.348 128.048, 307.875 127.965, 308.377 126.282 C 308.670 125.302, 309.431 122.370, 310.069 119.767 L 311.229 115.034 336.364 114.767 L 361.500 114.500 361.758 57.250 L 362.016 0 181.008 0 L 0 0 0 57.500 M 0.468 58 C 0.468 89.625, 0.595 102.562, 0.749 86.750 C 0.904 70.937, 0.904 45.062, 0.749 29.250 C 0.595 13.437, 0.468 26.375, 0.468 58 M 0.310 133.500 C 0.315 136.800, 0.502 138.029, 0.725 136.232 C 0.947 134.435, 0.943 131.735, 0.715 130.232 C 0.486 128.729, 0.304 130.200, 0.310 133.500 M 0.320 240 C 0.320 243.575, 0.502 245.037, 0.723 243.250 C 0.945 241.463, 0.945 238.537, 0.723 236.750 C 0.502 234.963, 0.320 236.425, 0.320 240 M 100 255.882 C 100 256.432, 100.450 257.160, 101 257.500 C 101.550 257.840, 102 257.668, 102 257.118 C 102 256.568, 101.550 255.840, 101 255.500 C 100.450 255.160, 100 255.332, 100 255.882 M 0.465 309.500 C 0.465 338.100, 0.593 349.656, 0.749 335.180 C 0.906 320.704, 0.906 297.304, 0.749 283.180 C 0.593 269.056, 0.465 280.900, 0.465 309.500 M 153.233 325.595 C 152.555 326.321, 152 327.947, 152 329.208 C 152 330.986, 152.560 331.500, 154.500 331.500 C 155.875 331.500, 157 330.974, 157 330.332 C 157 329.689, 157.230 328.563, 157.512 327.830 C 158.296 325.786, 154.773 323.947, 153.233 325.595 M 136.158 341 C 136.158 342.375, 136.385 342.938, 136.662 342.250 C 136.940 341.563, 136.940 340.438, 136.662 339.750 C 136.385 339.063, 136.158 339.625, 136.158 341 M 156.872 343.750 C 155.629 345.336, 155.664 345.371, 157.250 344.128 C 158.213 343.373, 159 342.585, 159 342.378 C 159 341.555, 158.179 342.084, 156.872 343.750 M 175.500 351.502 C 171.211 353.019, 163.805 360.102, 165.810 360.770 C 166.460 360.987, 168.117 359.826, 169.492 358.192 C 175.741 350.765, 186.166 350.347, 193.627 357.223 C 196.054 359.461, 198.275 361.058, 198.562 360.772 C 199.612 359.721, 193.465 353.662, 189.541 351.880 C 184.726 349.692, 180.908 349.590, 175.500 351.502 " stroke="none" fill="black" fill-rule="evenodd"/>
	<path fill-opacity="0.208" d="M 0 57.500 L 0 115 26.481 115 L 52.962 115 53.574 117.750 C 54.597 122.347, 54.975 123.913, 55.567 126 C 56.125 127.966, 55.657 128, 28.067 128 L 0 128 0 133.500 L 0 139 23.827 139 L 47.654 139 47.218 141.970 C 46.908 144.078, 48.092 147.635, 51.296 154.220 C 53.778 159.324, 58.113 168.780, 60.927 175.234 L 66.045 186.968 63.585 190.865 C 59.860 196.766, 57.662 205.434, 58.306 211.678 C 58.985 218.258, 63.071 227.427, 67.250 231.750 L 70.392 235 35.196 235 L 0 235 0 240 L 0 245 46.250 245.015 C 84.071 245.027, 92.044 245.259, 90 246.287 C 88.311 247.137, 86.987 249.161, 85.918 252.523 L 84.337 257.500 42.168 257.761 L 0 258.022 0 309.511 L 0 361 76.917 361 C 137.514 361, 153.940 360.735, 154.338 359.750 C 154.741 358.750, 154.858 358.750, 154.921 359.750 C 154.967 360.484, 156.340 360.987, 158.250 360.968 C 160.996 360.942, 161.906 360.268, 164.113 356.626 C 167.396 351.211, 175.215 346.995, 181.946 347.010 C 188.747 347.024, 196.284 350.926, 200.175 356.446 L 203.385 361 211.732 361 L 220.079 361 214.184 353.250 C 210.941 348.988, 206.293 342.575, 203.853 339 L 199.418 332.500 188.459 332.818 C 178.601 333.103, 177.048 332.903, 173.001 330.818 C 170.093 329.320, 168.265 327.616, 167.831 326 C 167.462 324.625, 166.442 320.962, 165.563 317.859 C 164.381 313.681, 164.230 311.525, 164.983 309.544 C 165.542 308.073, 166 305.510, 166 303.849 C 166 300.909, 166.114 300.837, 170.250 301.164 C 173.454 301.417, 174.500 301.142, 174.500 300.047 C 174.500 298.631, 173.038 298.055, 156.646 293.014 C 148.750 290.586, 144 287.463, 144 284.698 C 144 282.459, 143.939 282.453, 160.500 286.414 C 166.550 287.861, 176.273 289.561, 182.106 290.193 L 192.713 291.341 202.606 287.182 C 214.014 282.386, 218.087 281.390, 220.582 282.786 C 222.114 283.643, 221.674 284.133, 217.431 286.292 C 214.719 287.673, 211.415 289.966, 210.088 291.388 C 207.875 293.760, 207.772 294.295, 208.838 297.853 C 209.477 299.987, 210 303.717, 210 306.144 C 210 308.570, 210.706 311.564, 211.570 312.796 C 212.433 314.029, 219.746 319.349, 227.820 324.617 C 248.073 337.833, 248.789 338.349, 254.361 343.732 C 259.423 348.621, 262.939 354.754, 262.978 358.759 L 263 361.019 312.250 360.759 L 361.500 360.500 361.759 309 L 362.018 257.500 310.608 257.768 L 259.199 258.035 262.547 251.768 L 265.895 245.500 313.698 245 L 361.500 244.500 361.794 239.500 L 362.088 234.500 326.823 234.776 L 291.558 235.051 294.725 231.776 C 300.164 226.150, 303.410 217.666, 303.458 208.951 C 303.496 202.152, 303.114 200.619, 299.611 193.531 L 295.723 185.660 299.962 177.080 C 302.294 172.361, 306.463 164.744, 309.226 160.154 C 311.989 155.564, 314.250 150.703, 314.250 149.352 C 314.250 145.880, 310.288 142, 306.742 142 C 304.860 142, 303.980 141.559, 304.249 140.750 C 304.564 139.805, 311.600 139.378, 333.083 139 L 361.500 138.500 361.793 133 L 362.086 127.500 334.927 127.782 L 307.767 128.064 308.439 125.282 C 308.809 123.752, 309.551 120.820, 310.089 118.767 L 311.068 115.034 336.284 114.767 L 361.500 114.500 361.758 57.250 L 362.016 0 181.008 0 L 0 0 0 57.500 M 0.468 58 C 0.468 89.625, 0.595 102.562, 0.749 86.750 C 0.904 70.937, 0.904 45.062, 0.749 29.250 C 0.595 13.437, 0.468 26.375, 0.468 58 M 166.513 112.743 C 164.320 112.966, 161.882 113.678, 161.096 114.325 C 159.948 115.269, 160.633 115.598, 164.578 116 L 169.490 116.500 172.555 134.500 L 175.620 152.500 176.816 134.500 C 178.455 109.835, 178.700 111.969, 174.250 112.168 C 172.188 112.261, 168.706 112.519, 166.513 112.743 M 0.310 133.500 C 0.315 136.800, 0.502 138.029, 0.725 136.232 C 0.947 134.435, 0.943 131.735, 0.715 130.232 C 0.486 128.729, 0.304 130.200, 0.310 133.500 M 170 164.687 C 163.111 165.410, 136.456 169.121, 134.241 169.666 C 132.350 170.131, 133.978 171.533, 144.241 178.281 C 150.984 182.714, 157.973 186.862, 159.773 187.499 L 163.046 188.658 160.476 189.829 C 156.469 191.655, 152.650 191.237, 144.776 188.114 C 125.853 180.607, 114.141 179.033, 106.739 183 C 102.267 185.397, 101.893 185.442, 102.638 183.500 C 103.331 181.696, 102.873 181.645, 99.547 183.161 C 98.146 183.799, 96.984 185.036, 96.964 185.911 C 96.781 194.068, 94.924 207.194, 93.679 209.127 C 92.267 211.319, 92.398 212.301, 95.395 222 C 103.788 249.165, 114.627 265.822, 131.312 277.196 L 137.124 281.159 139.514 278.579 C 140.829 277.161, 142.571 276, 143.385 276 C 144.199 276, 150.101 277.350, 156.500 279 C 170.870 282.705, 172.123 282.770, 168.743 279.637 C 164.452 275.661, 162.361 270.348, 160.494 258.677 C 160.010 255.652, 159.299 254.652, 157.084 253.880 C 155.546 253.343, 153.673 251.757, 152.922 250.354 C 151.712 248.093, 151.797 247.390, 153.672 244.152 C 154.835 242.143, 156.568 240.343, 157.523 240.152 C 160.250 239.605, 161.063 242.084, 159.195 245.247 C 157.723 247.739, 157.700 248.199, 159.009 249.027 C 161.156 250.384, 169.742 250.213, 175.584 248.698 C 179.683 247.635, 181.512 247.631, 185.552 248.679 C 191.323 250.175, 200.857 250.376, 202.960 249.046 C 204.214 248.253, 204.166 247.841, 202.623 246.135 C 201.634 245.043, 200.983 243.328, 201.176 242.324 C 201.746 239.364, 205.201 240.180, 207.297 243.770 C 209.864 248.163, 208.913 251.597, 204.555 253.675 C 201.417 255.171, 201.111 255.737, 200.476 261.203 C 199.446 270.081, 194.588 278.951, 189.290 281.626 L 185.081 283.751 188.659 284.332 C 191.404 284.778, 193.779 284.186, 198.868 281.791 C 211.280 275.949, 218.390 274.788, 224.348 277.629 C 227.704 279.229, 227.842 279.205, 232.132 276.241 C 238.215 272.039, 248.031 261.566, 252.796 254.194 C 257.789 246.468, 263.201 233.660, 267.217 220.065 C 269.929 210.881, 270.148 209.262, 269.044 206.565 C 268.353 204.879, 266.334 199.037, 264.557 193.582 C 262.124 186.118, 260.802 183.471, 259.213 182.883 C 257.590 182.283, 257.231 182.437, 257.658 183.551 C 258.394 185.469, 257.706 185.382, 253.261 183 C 245.859 179.033, 234.147 180.607, 215.224 188.114 C 207.350 191.237, 203.531 191.655, 199.524 189.829 L 196.954 188.658 200.258 187.522 C 202.075 186.898, 208.916 182.820, 215.461 178.462 L 227.360 170.538 219.930 169.269 C 207.762 167.191, 180.883 163.988, 177.057 164.160 C 175.101 164.248, 171.925 164.485, 170 164.687 M 67.609 199.020 C 66.724 201.231, 66 205.868, 66 209.324 C 66 216.745, 69.292 224.377, 74.328 228.635 C 78.637 232.277, 85.472 235.189, 88.829 234.811 L 91.595 234.500 88.210 223.919 C 85.007 213.904, 84.642 213.272, 81.392 212.097 C 77.794 210.796, 72.696 203.446, 71.447 197.758 C 70.608 193.940, 69.495 194.307, 67.609 199.020 M 289.110 200.555 C 286.598 206.356, 283.019 210, 279.834 210 C 278.791 210, 277.777 210.563, 277.580 211.250 C 277.384 211.938, 275.650 217.563, 273.727 223.750 L 270.230 235 273.419 235 C 275.172 235, 278.935 233.840, 281.780 232.422 C 290.951 227.852, 295.941 219.714, 295.978 209.270 C 295.998 203.563, 293.687 194.976, 292.141 195.017 C 291.789 195.026, 290.424 197.518, 289.110 200.555 M 108.152 196.818 C 106.483 197.958, 106.982 201.026, 109 202.038 C 109.825 202.452, 113.875 203.290, 118 203.901 C 123.680 204.742, 128.150 206.340, 136.419 210.488 C 147.653 216.121, 150 216.369, 150 211.922 C 150 209.446, 138.683 202.843, 128.791 199.547 C 120.290 196.714, 110.247 195.386, 108.152 196.818 M 242.401 197.032 C 236.172 198.266, 223.624 203.391, 218.011 206.993 C 212.866 210.294, 211.782 212.744, 214.475 214.979 C 215.673 215.973, 216.889 215.625, 220.957 213.122 C 228.684 208.367, 237.214 205.117, 245.212 203.879 C 254.647 202.418, 254.938 202.324, 255.635 200.510 C 257.165 196.523, 251.921 195.145, 242.401 197.032 M 175.250 221.648 C 173.463 222.529, 172 223.883, 172 224.656 C 172 226.552, 174.859 227.541, 176.267 226.133 C 176.890 225.510, 178.570 225, 180 225 C 181.430 225, 183.110 225.510, 183.733 226.133 C 185.202 227.602, 188 226.519, 188 224.480 C 188 222.969, 182.480 219.975, 179.782 220.023 C 179.077 220.035, 177.037 220.767, 175.250 221.648 M 0.300 240 C 0.300 243.025, 0.487 244.262, 0.716 242.750 C 0.945 241.238, 0.945 238.762, 0.716 237.250 C 0.487 235.738, 0.300 236.975, 0.300 240 M 94 246 C 95.958 247.266, 97.282 247.266, 96.500 246 C 96.160 245.450, 95.121 245.007, 94.191 245.015 C 92.734 245.029, 92.707 245.165, 94 246 M 98 250.365 C 98 252.136, 101.007 258, 101.915 258 C 102.475 258, 101.966 256.313, 100.786 254.250 C 98.218 249.766, 98 249.461, 98 250.365 M 90.475 258.748 C 88.489 263.997, 86.541 267.463, 83.862 270.514 C 82.151 272.464, 82.201 272.633, 85.447 275.806 C 87.290 277.609, 90.082 281.539, 91.649 284.540 C 94.631 290.246, 96 291.346, 96 288.035 C 96 285.043, 98.991 276.847, 101.241 273.674 L 103.245 270.848 100.183 267.674 C 98.499 265.928, 96.031 262.137, 94.697 259.248 L 92.273 253.996 90.475 258.748 M 0.465 309.500 C 0.465 338.100, 0.593 349.656, 0.749 335.180 C 0.906 320.704, 0.906 297.304, 0.749 283.180 C 0.593 269.056, 0.465 280.900, 0.465 309.500 M 153.250 324.970 C 152.563 326.071, 152 328.029, 152 329.320 C 152 331.268, 152.517 331.667, 155.043 331.667 C 157.131 331.667, 157.929 331.258, 157.587 330.365 C 157.312 329.650, 157.518 328.798, 158.044 328.473 C 159.367 327.655, 159.245 326, 157.860 326 C 157.233 326, 156.221 325.317, 155.610 324.483 C 154.641 323.159, 154.341 323.221, 153.250 324.970 M 136 340.500 C 136 341.875, 136.388 343, 136.861 343 C 137.335 343, 137.508 341.875, 137.245 340.500 C 136.982 339.125, 136.594 338, 136.383 338 C 136.173 338, 136 339.125, 136 340.500 M 139.825 341.326 C 139.452 343.151, 139.592 343.808, 140.218 343.182 C 140.751 342.649, 141.011 341.377, 140.794 340.356 C 140.503 338.981, 140.251 339.233, 139.825 341.326 M 178.269 339.693 C 179.242 339.947, 180.592 339.930, 181.269 339.656 C 181.946 339.382, 181.150 339.175, 179.500 339.195 C 177.850 339.215, 177.296 339.439, 178.269 339.693 M 156.127 344.478 C 153.857 346.940, 152 349.265, 152 349.644 C 152 350.023, 152.148 350.146, 152.330 349.917 C 152.511 349.688, 154.593 347.363, 156.957 344.750 C 159.321 342.137, 161.030 340, 160.755 340 C 160.480 340, 158.397 342.015, 156.127 344.478 M 173.813 340.683 C 174.534 340.972, 175.397 340.936, 175.729 340.604 C 176.061 340.272, 175.471 340.036, 174.417 340.079 C 173.252 340.127, 173.015 340.364, 173.813 340.683 M 188.813 340.683 C 189.534 340.972, 190.397 340.936, 190.729 340.604 C 191.061 340.272, 190.471 340.036, 189.417 340.079 C 188.252 340.127, 188.015 340.364, 188.813 340.683 M 194.500 342.665 C 196.150 343.537, 198.392 344.981, 199.483 345.875 C 201.355 347.410, 201.387 347.399, 200.056 345.684 C 198.643 343.864, 193.800 340.965, 192.300 341.040 C 191.860 341.062, 192.850 341.793, 194.500 342.665 M 163.263 346.750 C 160.580 349.363, 159.986 350.105, 161.943 348.399 C 163.899 346.694, 166.613 344.556, 167.973 343.649 C 169.332 342.742, 169.926 342, 169.292 342 C 168.658 342, 165.945 344.137, 163.263 346.750 M 142.029 343.961 C 141.220 344.473, 140.818 345.152, 141.136 345.470 C 141.455 345.788, 142.284 345.362, 142.980 344.524 C 144.423 342.786, 144.146 342.622, 142.029 343.961 M 176.047 351.305 C 172.497 352.437, 164.360 359.693, 165.435 360.768 C 165.766 361.099, 167.716 359.739, 169.768 357.745 C 171.821 355.751, 174.767 353.642, 176.315 353.060 C 182.623 350.685, 190.030 352.680, 195.113 358.121 C 196.733 359.856, 198.345 360.989, 198.694 360.639 C 199.874 359.459, 191.395 352.435, 187.315 351.213 C 182.584 349.795, 180.736 349.810, 176.047 351.305 M 150.459 352.067 C 150.096 352.653, 150.014 353.348, 150.276 353.610 C 150.538 353.872, 151.019 353.392, 151.345 352.543 C 152.021 350.781, 151.445 350.471, 150.459 352.067 M 155.954 355.086 C 155.340 356.233, 155.026 357.360, 155.257 357.590 C 155.487 357.820, 156.189 356.882, 156.816 355.504 C 158.194 352.480, 157.523 352.154, 155.954 355.086 M 148.624 356.539 C 148.281 357.432, 148.029 358.689, 148.063 359.332 C 148.098 359.974, 148.558 359.422, 149.085 358.105 C 149.612 356.787, 149.864 355.531, 149.645 355.312 C 149.426 355.093, 148.966 355.645, 148.624 356.539 M 208.031 356.500 C 208.031 357.050, 208.467 358.175, 209 359 C 209.533 359.825, 209.969 360.050, 209.969 359.500 C 209.969 358.950, 209.533 357.825, 209 357 C 208.467 356.175, 208.031 355.950, 208.031 356.500 " stroke="none" fill="black" fill-rule="evenodd"/>
	<path fill-opacity="0.552" d="M 0 57.484 L 0 114.967 26.678 115.234 L 53.357 115.500 54.023 118 C 54.389 119.375, 55.004 122.188, 55.390 124.250 L 56.091 128 28.045 128 L 0 128 0 133 L 0 138 24.413 138 L 48.826 138 47.665 141.078 C 46.640 143.792, 46.825 144.733, 49.237 149.053 C 50.742 151.747, 55.190 161.464, 59.123 170.647 C 64.886 184.105, 66.048 187.650, 65.112 188.922 C 61.566 193.739, 59.558 199.929, 59.187 207.182 C 58.700 216.714, 60.633 223.091, 66.110 230.020 L 70.047 235 35.023 235 L 0 235 0 240 L 0 245 47.965 245 L 95.930 245 97.110 247.250 C 98.256 249.433, 98.233 249.448, 96.317 247.750 C 94.224 245.895, 91.316 245.513, 89.255 246.821 C 88.570 247.256, 87.178 250.062, 86.160 253.056 L 84.310 258.500 42.155 258.761 L 0 259.022 0 310.011 L 0 361 73.531 361 C 142.684 361, 147.096 360.896, 147.616 359.250 C 149.344 353.787, 151.905 349.047, 155 345.586 C 159.328 340.747, 165.765 335.985, 167.900 336.044 C 168.780 336.069, 167.790 336.991, 165.701 338.093 C 160.382 340.900, 154.520 347.041, 151.534 352.933 C 148.382 359.152, 148.317 361.001, 151.250 360.996 C 152.972 360.993, 153.931 359.944, 155.336 356.529 C 157.569 351.098, 163.427 344.877, 169.209 341.796 C 172.723 339.924, 175.040 339.513, 182 339.528 C 189.464 339.544, 191.138 339.897, 195.733 342.423 C 198.611 344.005, 201.725 346.457, 202.652 347.872 C 204.018 349.957, 203.504 349.732, 199.946 346.685 C 186.910 335.528, 166.655 339.210, 157.994 354.313 C 156.357 357.166, 155.015 359.837, 155.009 360.250 C 155.004 360.663, 156.238 361, 157.752 361 C 159.865 361, 161.315 359.913, 164.002 356.313 C 168.562 350.203, 174.645 347, 181.689 347 C 190.369 347, 197.984 351.299, 201.615 358.250 C 202.692 360.312, 203.796 361, 206.026 361 C 209.186 361, 209.636 360.057, 207.965 356.934 C 207.395 355.870, 207.159 355, 207.439 355 C 207.719 355, 208.647 356.350, 209.500 358 C 210.829 360.570, 211.621 361, 215.026 361 C 217.212 361, 219 360.725, 219 360.389 C 219 360.053, 217.258 357.690, 215.129 355.139 C 213.001 352.587, 208.718 346.594, 205.612 341.820 C 202.506 337.046, 199.220 332.996, 198.309 332.820 C 197.398 332.644, 194.143 332.725, 191.076 333 C 179.467 334.041, 170.235 331.626, 167.945 326.950 C 166.288 323.567, 164.614 315.206, 164.852 311.500 C 164.993 309.300, 165.196 306.038, 165.304 304.250 C 165.497 301.048, 165.573 301, 170.500 300.967 C 175.432 300.934, 175.471 300.909, 173.363 299.148 C 172.188 298.166, 167.238 296.321, 162.363 295.047 C 157.488 293.774, 152.150 292.064, 150.500 291.249 C 144.715 288.390, 141.414 284.098, 143.844 282.596 C 144.308 282.309, 150.721 283.587, 158.094 285.436 C 165.467 287.285, 176.234 289.301, 182.020 289.916 L 192.541 291.035 203.520 286.537 C 214.328 282.110, 219.132 281.165, 221.907 282.922 C 222.951 283.582, 221.730 284.612, 217.178 286.910 C 208.782 291.149, 207.730 292.953, 209.568 299.968 C 210.355 302.975, 211 306.825, 211 308.522 C 211 312.815, 214.411 315.774, 234 328.482 C 243.075 334.369, 252.001 340.607, 253.835 342.343 C 257.892 346.183, 262.057 353.045, 262.934 357.332 L 263.582 360.500 312.541 360.500 L 361.500 360.500 361.759 309.500 L 362.018 258.500 310.509 258.768 C 282.179 258.915, 259 258.763, 259 258.430 C 259 258.097, 260.611 254.944, 262.581 251.422 L 266.161 245.019 313.831 244.760 L 361.500 244.500 361.794 239.500 L 362.088 234.500 327.040 234.775 L 291.993 235.050 295.987 229.775 C 301.099 223.022, 303 217.346, 303 208.833 C 303 201.529, 300.740 194.027, 297.173 189.493 L 295.110 186.870 298.604 179.185 C 300.526 174.958, 304.776 166.969, 308.049 161.431 C 311.322 155.893, 314 150.188, 314 148.754 C 314 145.184, 309.463 141.657, 305.811 142.388 C 303.344 142.881, 303.166 142.725, 303.909 140.716 C 304.722 138.516, 304.932 138.496, 333.114 138 L 361.500 137.500 361.794 132.500 L 362.088 127.500 334.677 127.780 L 307.266 128.061 308.984 121.780 L 310.703 115.500 336.101 115 L 361.500 114.500 361.758 57.250 L 362.016 0 181.008 0 L 0 0 0 57.484 M 0.468 58 C 0.468 89.625, 0.595 102.562, 0.749 86.750 C 0.904 70.937, 0.904 45.062, 0.749 29.250 C 0.595 13.437, 0.468 26.375, 0.468 58 M 225.419 81.075 C 221.586 82.188, 219.199 84.750, 218.439 88.566 C 217.564 92.960, 221.358 97.851, 228.457 101.482 C 239.005 106.876, 252.036 105.156, 255.010 97.975 C 259.263 87.709, 240.155 76.796, 225.419 81.075 M 119.764 84.996 C 111.847 87.380, 106 93.320, 106 98.980 C 106 105.074, 110.893 108.125, 120.663 108.125 C 139.238 108.125, 151.158 90.573, 136.395 84.960 C 133.386 83.816, 123.612 83.837, 119.764 84.996 M 164.500 112.738 C 162.850 112.980, 160.938 113.642, 160.250 114.211 C 157.768 116.264, 159.065 117.060, 163.853 116.425 L 168.706 115.781 170.315 124.641 C 171.200 129.513, 172.686 138.118, 173.618 143.761 C 174.549 149.405, 175.439 153.894, 175.597 153.736 C 175.755 153.579, 176.362 146.486, 176.948 137.975 C 177.533 129.464, 178.202 120.138, 178.434 117.250 L 178.855 112 173.178 112.150 C 170.055 112.232, 166.150 112.497, 164.500 112.738 M 0.300 133 C 0.300 136.025, 0.487 137.262, 0.716 135.750 C 0.945 134.238, 0.945 131.762, 0.716 130.250 C 0.487 128.738, 0.300 129.975, 0.300 133 M 247.884 129.664 C 246.624 130, 246.114 132.018, 245.572 138.798 C 245.190 143.584, 243.971 151.704, 242.864 156.842 C 241.757 161.980, 240.997 166.312, 241.176 166.467 C 241.354 166.623, 245.699 167.707, 250.830 168.876 C 255.962 170.045, 261.201 171.263, 262.473 171.583 C 264.521 172.097, 264.961 171.611, 266.321 167.331 C 272.148 149, 270.876 141.223, 262.152 141.853 C 257.535 142.186, 254.500 139.396, 255.244 135.503 C 255.609 133.597, 255.091 132.430, 253.233 130.968 C 251.856 129.886, 250.453 129.052, 250.115 129.116 C 249.777 129.180, 248.773 129.426, 247.884 129.664 M 85.667 133.667 C 85.300 134.033, 85.014 135.046, 85.030 135.917 C 85.055 137.217, 85.251 137.174, 86.122 135.675 C 87.199 133.823, 86.887 132.447, 85.667 133.667 M 105.977 137.233 C 102.939 139.712, 98.857 143.711, 96.906 146.120 C 91.636 152.627, 91.496 153.017, 94.892 151.735 C 97.260 150.841, 98.292 150.961, 100.460 152.382 C 103.784 154.560, 103.519 157.541, 99.752 160.343 C 96.401 162.836, 92.215 161.815, 90.337 158.048 L 89.131 155.630 88.450 158.343 C 87.424 162.432, 90.978 171.541, 93.531 171.362 C 96.605 171.147, 115.413 166.741, 116.242 166.042 C 116.650 165.698, 116.111 161.160, 115.045 155.958 C 113.978 150.756, 112.745 143.401, 112.303 139.613 L 111.500 132.727 105.977 137.233 M 259.441 137.532 C 261.968 139.443, 263.596 139.423, 262 137.500 C 261.315 136.675, 260.023 136.014, 259.128 136.032 C 257.760 136.059, 257.810 136.298, 259.441 137.532 M 254.223 152.557 C 251.261 154.631, 251.416 157.395, 254.635 159.927 C 257.882 162.482, 260.104 162.546, 263.040 160.169 C 265.923 157.834, 265.143 153.842, 261.477 152.171 C 258.090 150.628, 256.885 150.692, 254.223 152.557 M 94.028 155.962 C 92.767 156.759, 92.803 156.987, 94.278 157.553 C 96.329 158.340, 99 157.480, 99 156.031 C 99 154.752, 96.006 154.710, 94.028 155.962 M 256.217 156.166 C 256.459 156.900, 257.684 157.650, 258.940 157.834 C 260.491 158.061, 261.082 157.741, 260.783 156.834 C 260.541 156.100, 259.316 155.350, 258.060 155.166 C 256.509 154.939, 255.918 155.259, 256.217 156.166 M 168 164.581 C 166.625 164.827, 158.546 165.970, 150.047 167.121 C 136.620 168.940, 127.971 170.736, 131.665 170.937 C 132.306 170.971, 138.381 174.668, 145.165 179.152 C 151.949 183.635, 158.625 187.629, 160 188.026 L 162.500 188.748 159.685 189.874 C 155.460 191.564, 154.387 191.370, 141.341 186.546 C 123.159 179.823, 112.390 178.894, 105.438 183.448 C 102.744 185.214, 102.712 185.209, 103.258 183.120 C 103.918 180.597, 103.745 180.563, 100.013 182.493 C 96.912 184.097, 96.758 184.670, 95.452 199.500 C 95.113 203.350, 94.172 207.536, 93.361 208.801 C 92.029 210.880, 92.142 211.992, 94.526 220.301 C 102.283 247.337, 114.537 266.349, 131.500 277.671 L 137.500 281.675 139.546 279.213 C 142.170 276.055, 143.817 276.112, 159.098 279.888 C 173.727 283.502, 175.645 283.690, 171.389 281.095 C 169.677 280.052, 167.365 277.916, 166.250 276.349 C 163.698 272.761, 161 263.796, 161 258.901 C 161 255.576, 160.587 254.963, 157.250 253.332 C 154.266 251.874, 153.438 250.861, 153.196 248.369 C 152.801 244.309, 157.124 238.775, 159.140 240.760 C 160.178 241.782, 160.074 242.605, 158.586 245.124 C 155.970 249.552, 157.573 250.253, 168.500 249.462 C 179.664 248.654, 181.336 248.654, 192.500 249.462 C 203.427 250.253, 205.030 249.552, 202.414 245.124 C 201 242.730, 200.852 241.748, 201.767 240.833 C 203.211 239.389, 206.721 242.171, 208.141 245.885 C 209.251 248.788, 207.062 252.646, 203.546 253.982 C 201.764 254.660, 201.036 255.917, 200.531 259.188 C 198.516 272.229, 193.342 281.107, 186.936 282.514 C 182.859 283.409, 184.257 285, 189.121 285 C 191.594 285, 195.870 283.702, 200.312 281.604 C 212.990 275.616, 220.773 274.675, 225.117 278.606 C 226.727 280.063, 227.247 279.930, 231.683 276.920 C 247.850 265.950, 259.915 246.582, 267.984 218.645 C 270.755 209.052, 270.950 207.599, 269.659 206.145 C 268.855 205.240, 266.728 199.775, 264.932 194 C 263.136 188.225, 261.629 183.443, 261.583 183.374 C 261.537 183.305, 260.419 182.916, 259.099 182.509 C 257.141 181.906, 256.812 182.067, 257.317 183.385 C 258.100 185.425, 257.562 185.415, 254.378 183.328 C 247.618 178.899, 236.673 179.885, 218.659 186.546 C 205.613 191.370, 204.540 191.564, 200.315 189.874 L 197.500 188.748 200.212 187.971 C 202.652 187.271, 228.232 170.898, 227.706 170.373 C 227.586 170.253, 219.391 168.962, 209.494 167.504 C 192.279 164.968, 173.318 163.632, 168 164.581 M 68.041 196.923 C 67.475 197.981, 66.525 201.118, 65.929 203.895 C 63.027 217.429, 72.267 231.705, 86.072 235.017 C 88.842 235.682, 91.332 236.001, 91.606 235.727 C 91.880 235.453, 90.619 230.389, 88.802 224.474 C 85.790 214.664, 85.225 213.603, 82.370 212.396 C 78.125 210.602, 74.520 206.081, 72.510 200.031 C 70.713 194.621, 69.664 193.891, 68.041 196.923 M 288.567 201.030 C 285.922 206.759, 282.426 209.975, 278.800 210.014 C 277.706 210.025, 275.082 217.488, 270.252 234.321 C 269.789 235.937, 270.167 236.063, 273.615 235.444 C 279.622 234.366, 283.418 232.520, 287.831 228.534 C 293.692 223.239, 296.421 217, 296.371 209.009 C 296.332 202.703, 294.053 195, 292.227 195 C 291.745 195, 290.098 197.714, 288.567 201.030 M 108.250 197.127 C 105.309 200.121, 108.202 202.990, 114.184 203.012 C 120.944 203.036, 135.169 208.136, 141.955 212.968 C 147.187 216.694, 152.445 214.359, 148.540 210.044 C 142.161 202.996, 111.988 193.323, 108.250 197.127 M 244.075 197.087 C 226.648 200.506, 207.422 211.922, 214.511 214.642 C 215.341 214.961, 220.179 213.127, 225.261 210.567 C 235.140 205.589, 243.237 203.031, 249.179 203.012 C 252.501 203.001, 256 201.009, 256 199.129 C 256 197.549, 253.470 196.006, 251.050 196.110 C 249.648 196.170, 246.509 196.610, 244.075 197.087 M 177.376 221.159 C 173.682 222.144, 171.247 224.647, 172.634 226.034 C 173.233 226.633, 174.767 226.537, 176.792 225.773 C 179.303 224.825, 180.697 224.825, 183.208 225.773 C 186.904 227.168, 189.056 225.977, 187.100 223.620 C 185.212 221.345, 180.834 220.238, 177.376 221.159 M 0.300 240 C 0.300 243.025, 0.487 244.262, 0.716 242.750 C 0.945 241.238, 0.945 238.762, 0.716 237.250 C 0.487 235.738, 0.300 236.975, 0.300 240 M 98.031 250.782 C 97.978 252.984, 100.846 259, 101.949 259 C 102.527 259, 102.998 258.663, 102.995 258.250 C 102.986 256.882, 98.063 249.476, 98.031 250.782 M 89.682 259.689 C 88.207 263.435, 85.927 267.839, 84.614 269.476 L 82.228 272.452 85.904 276.628 C 87.925 278.925, 90.856 283.411, 92.417 286.599 L 95.254 292.394 97.107 285.097 C 98.127 281.084, 99.905 276.271, 101.060 274.403 L 103.160 271.005 99.585 266.828 C 97.619 264.531, 95.189 260.452, 94.187 257.765 L 92.364 252.878 89.682 259.689 M 171.266 254.332 L 165.032 255.347 165.604 259.423 C 167.366 271.968, 172.568 279, 180.084 279 C 186.262 279, 189.832 276.613, 192.532 270.679 C 193.828 267.830, 195.183 263.244, 195.542 260.486 L 196.195 255.472 188.339 254.236 C 179.740 252.883, 180.188 252.880, 171.266 254.332 M 0.465 310 C 0.465 338.325, 0.593 349.913, 0.749 335.750 C 0.906 321.588, 0.906 298.413, 0.749 284.250 C 0.593 270.088, 0.465 281.675, 0.465 310 M 153.250 324.970 C 152.563 326.071, 152 328.141, 152 329.570 C 152 331.220, 152.456 332.003, 153.250 331.718 C 153.938 331.472, 155.287 331.675, 156.250 332.170 C 157.674 332.903, 158 332.635, 158 330.735 C 158 329.451, 158.540 327.860, 159.200 327.200 C 160.133 326.267, 159.991 326, 158.560 326 C 157.548 326, 156.221 325.317, 155.610 324.483 C 154.641 323.159, 154.341 323.221, 153.250 324.970 M 136 339 C 135.024 340.824, 136.076 345, 137.512 345 C 137.942 345, 137.715 337.016, 137.285 337.005 C 137.167 337.002, 136.589 337.900, 136 339 M 140.116 339.668 C 140.052 340.311, 139.709 341.661, 139.353 342.668 C 138.851 344.089, 138.984 344.244, 139.947 343.356 C 140.629 342.727, 140.973 341.377, 140.710 340.356 C 140.447 339.335, 140.180 339.026, 140.116 339.668 M 142.130 343.569 C 140.319 345.451, 140.145 346, 141.360 346 C 142.223 346, 143.432 345.061, 144.046 343.914 C 145.654 340.909, 144.832 340.761, 142.130 343.569 M 175 352.118 C 172.259 353.206, 166 358.873, 166 360.267 C 166 360.749, 167.499 359.553, 169.331 357.611 C 173.221 353.485, 176.601 352, 182.097 352 C 187.445 352, 192.037 354.067, 195.297 357.941 C 198.226 361.422, 199.065 360.884, 196.228 357.344 C 191.735 351.737, 182.002 349.341, 175 352.118 " stroke="none" fill="black" fill-rule="evenodd"/>
	<path fill-opacity="0.915" d="M 110.180 6.750 C 104.105 17.244, 103.911 17.668, 98.509 32.234 L 93.415 45.968 84.550 33.431 C 79.675 26.535, 74.756 20.242, 73.620 19.447 C 70.591 17.325, 67.654 17.675, 65.028 20.470 C 62.747 22.898, 62.720 23.183, 63.429 37.220 C 63.826 45.074, 64.475 54.507, 64.870 58.182 C 65.673 65.634, 65.835 65.588, 58.900 59.862 C 52.254 54.376, 49.248 53.426, 46.055 55.803 C 41.954 58.855, 41.371 62.011, 43.388 70.250 C 44.364 74.238, 46.930 85.600, 49.090 95.500 C 52.710 112.091, 56.277 128.263, 57.526 133.750 C 57.970 135.700, 57.635 136, 55.019 136 C 53.346 136, 51.119 136.881, 50.025 137.975 C 46.607 141.393, 46.569 144.264, 49.864 150.128 C 51.525 153.082, 55.111 160.713, 57.833 167.084 C 60.555 173.455, 63.674 180.406, 64.764 182.531 L 66.746 186.394 63.123 192.947 C 59.672 199.190, 59.500 199.950, 59.505 209 C 59.509 217.415, 59.822 219.094, 62.247 223.702 C 67.896 234.436, 76.227 240.390, 88.470 242.444 L 95.500 243.623 100.899 253.562 C 105.289 261.641, 108.094 265.277, 115.899 273 C 121.180 278.225, 128.301 284.120, 131.725 286.101 C 137.722 289.570, 137.863 289.742, 135.563 290.789 C 132.603 292.138, 124.909 303.843, 119.926 314.577 C 116.204 322.596, 105.900 351.521, 104.547 357.750 L 103.841 361 120.421 361 L 137 361 137 353.639 C 137 346.293, 137.005 346.278, 139.543 346.763 C 141.950 347.224, 142.050 347.496, 141.434 351.875 C 141.076 354.419, 140.147 357.512, 139.369 358.750 C 137.980 360.958, 138.037 361, 142.397 361 L 146.839 361 148.507 355.980 C 149.424 353.218, 151.881 348.800, 153.967 346.161 C 158.366 340.596, 167.602 334.202, 169.091 335.691 C 169.725 336.325, 168.649 337.305, 166.024 338.489 C 160.847 340.824, 153.496 348.677, 150.968 354.574 C 148.518 360.290, 148.516 361, 150.953 361 C 152.293 361, 153.504 359.650, 154.809 356.699 C 157.337 350.984, 162.256 345.521, 167.795 342.274 C 171.420 340.150, 173.948 339.539, 180.556 339.192 C 192.104 338.586, 197.969 341.271, 204.514 350.159 C 207.082 353.647, 209.664 357.512, 210.252 358.750 C 211.096 360.526, 212.157 361, 215.289 361 L 219.256 361 216.641 357.750 C 215.203 355.962, 210.983 350, 207.263 344.500 C 203.543 339, 200.050 334.161, 199.500 333.747 C 198.950 333.333, 194.840 333.278, 190.368 333.625 C 180.942 334.356, 173.650 332.962, 169.831 329.699 C 166.222 326.615, 163.914 316.409, 164.702 307.017 L 165.297 299.922 169.648 300.575 C 172.392 300.986, 174 300.846, 174 300.196 C 174 299.110, 170.864 297.901, 157 293.642 C 148.104 290.910, 143 287.380, 143 283.960 C 143 281.438, 143.351 281.462, 157.018 284.917 C 181.371 291.074, 191.223 291.408, 202.924 286.473 C 213.079 282.190, 217.863 281.035, 220.860 282.144 C 223.889 283.264, 223.088 284.233, 216.449 287.481 C 209.615 290.825, 208.307 293.190, 209.866 299.384 C 210.490 301.860, 211 305.665, 211 307.839 C 211 312.891, 212.815 314.515, 232.415 327 C 240.618 332.225, 250.027 338.975, 253.324 342 C 259.058 347.262, 263.968 355.201, 263.990 359.250 C 263.997 360.447, 264.789 361, 266.500 361 C 268.563 361, 268.998 360.519, 268.990 358.250 C 268.966 351.468, 261.412 340.417, 252.133 333.589 C 248.508 330.922, 247.097 329.018, 245.649 324.840 C 240.969 311.336, 236.238 303.055, 229.651 296.844 L 223.212 290.771 231.907 284.954 C 244.108 276.793, 254.411 265.685, 261.098 253.482 L 266.500 243.623 273.530 242.444 C 285.773 240.390, 294.104 234.436, 299.753 223.702 C 302.179 219.091, 302.490 217.420, 302.490 209 C 302.490 199.453, 301.223 195.419, 295.877 187.957 C 295.010 186.748, 295.792 184.372, 299.497 176.957 C 302.095 171.756, 306.422 163.838, 309.111 159.361 C 314.385 150.582, 314.841 148.646, 312.443 145.223 C 311.282 143.565, 309.885 143, 306.943 143 C 302.507 143, 302.612 143.136, 304.085 139.315 C 305.234 136.331, 308.034 125.760, 316.144 93.786 C 320.627 76.111, 321.007 73.787, 319.820 71.309 C 319.091 69.790, 317.327 68.136, 315.899 67.634 C 310.880 65.868, 306.751 67.653, 298.706 75.066 C 291.623 81.593, 291.028 81.939, 290.564 79.804 C 289.350 74.217, 287.849 61.241, 286.602 45.558 C 285.300 29.177, 285.166 28.540, 282.572 26.308 C 277.111 21.611, 269.722 24.240, 266.624 31.981 C 265.740 34.192, 264.720 36, 264.358 36 C 263.995 36, 264.009 28.657, 264.388 19.682 C 264.767 10.708, 264.787 2.608, 264.432 1.682 C 263.896 0.287, 262.325 0, 255.234 0 C 246.774 0, 246.622 0.044, 241.091 4.143 C 238.016 6.421, 234.082 9.616, 232.349 11.243 L 229.198 14.200 228.485 11.850 C 228.092 10.558, 226.867 7.362, 225.762 4.750 L 223.754 -0 187.127 0.005 L 150.500 0.010 144.151 9.005 C 140.659 13.952, 137.629 18, 137.418 18 C 137.207 18, 135.848 15.660, 134.399 12.800 C 132.949 9.940, 130.632 5.890, 129.249 3.800 C 126.778 0.066, 126.625 0, 120.411 0 L 114.088 0 110.180 6.750 M 219.816 76.516 C 203.012 81.920, 205.672 98.336, 224.803 107.289 C 232.619 110.946, 244.894 112.130, 252.608 109.970 C 266.714 106.020, 268.009 93.092, 255.271 83.376 C 246.144 76.415, 229.901 73.272, 219.816 76.516 M 222.316 78.943 C 215.716 81.940, 213.246 88.708, 216.474 94.949 C 218.719 99.291, 225.424 104.510, 231.119 106.349 C 250.032 112.458, 265.583 100.387, 255.944 87.081 C 249.467 78.140, 232.910 74.134, 222.316 78.943 M 120.746 80.086 C 111.742 82.208, 101.516 89.286, 98.611 95.407 C 96.140 100.614, 96.562 104.432, 100.047 108.400 C 110.583 120.401, 141.823 114.892, 150.783 99.453 C 155.321 91.634, 150.997 82.759, 141.344 80.079 C 136.826 78.824, 126.084 78.828, 120.746 80.086 M 227.347 80.147 C 221.826 81.387, 218 85.269, 218 89.633 C 218 97.108, 229.848 105, 241.070 105 C 262.355 105, 260.007 84.623, 238.201 80.099 C 235.286 79.495, 232.586 79.048, 232.201 79.107 C 231.815 79.166, 229.631 79.634, 227.347 80.147 M 123.500 80.607 C 113.439 83.034, 106.292 87.808, 103.522 93.952 C 97.348 107.642, 115.814 116.726, 133.425 108.663 C 147.917 102.028, 150.697 88.549, 138.838 82.416 C 135.943 80.919, 126.717 79.831, 123.500 80.607 M 120.173 84.484 C 104.089 89.504, 100.039 104.140, 113.685 107.929 C 124.925 111.051, 138.831 105.435, 142.682 96.220 C 144.594 91.642, 142.801 88.156, 137.038 85.250 C 132.003 82.711, 126.636 82.467, 120.173 84.484 M 204.681 93.875 C 202.644 103.975, 205.256 109.246, 215.868 116.452 C 224.542 122.341, 232.545 124.418, 244 123.753 C 248.675 123.481, 254.130 122.573, 256.123 121.734 C 259.259 120.413, 260.023 119.387, 261.807 114.104 C 263.804 108.193, 263.521 106.463, 261.045 109.445 C 257.346 113.902, 240.357 115.673, 230.216 112.658 C 218.648 109.220, 208.055 100.822, 206.169 93.597 L 205.361 90.500 204.681 93.875 M 165.730 93.717 L 161.961 94.123 162.229 100.390 L 162.498 106.656 180.784 106.578 L 199.071 106.500 198.785 100 L 198.500 93.500 184 93.405 C 176.025 93.353, 167.804 93.494, 165.730 93.717 M 154.490 99.022 C 152.395 103.668, 145.922 109.979, 140.319 112.837 C 128.386 118.925, 112.655 119.699, 102.969 114.674 L 97.778 111.981 98.457 114.685 C 100.884 124.353, 104.062 126.702, 116.081 127.710 C 129.631 128.846, 143.244 123.990, 152.155 114.841 L 157 109.867 157 102.433 C 157 98.345, 156.843 95, 156.652 95 C 156.460 95, 155.488 96.810, 154.490 99.022 M 168.076 112.060 C 162.233 112.839, 161.239 113.337, 157.076 117.572 C 147.504 127.310, 138.065 131.877, 125.717 132.744 L 117.934 133.290 118.562 139.395 C 119.262 146.202, 122.626 163.959, 123.353 164.686 C 123.610 164.943, 129.381 164.226, 136.177 163.093 C 158.265 159.409, 174.979 157.783, 184.064 158.432 L 192.628 159.044 210.382 143.792 C 226.875 129.622, 227.971 128.472, 225.818 127.592 C 217.947 124.375, 212.932 121.594, 208.769 118.139 C 204.532 114.621, 203.178 114.101, 195.769 113.144 C 182.565 111.439, 174.958 111.141, 168.076 112.060 M 261.159 124.990 L 258.819 126.967 267.266 135.234 C 271.912 139.780, 276.950 145.075, 278.463 147 C 280.075 149.051, 280.942 149.672, 280.558 148.500 C 279.173 144.272, 271.525 131.910, 267.604 127.563 L 263.500 123.013 261.159 124.990 M 94.248 133.786 C 90.029 139.828, 84.606 149.940, 85.244 150.577 C 85.452 150.786, 87.278 148.786, 89.300 146.133 C 91.323 143.481, 95.433 138.989, 98.433 136.152 L 103.887 130.993 101.063 129.533 C 98.246 128.076, 98.229 128.087, 94.248 133.786 M 245.637 133.250 C 243.933 148.154, 242.681 156.525, 241.464 161.138 C 240.699 164.036, 240.242 166.575, 240.447 166.781 C 240.653 166.986, 245.474 168.211, 251.161 169.502 C 256.847 170.792, 262.228 172.133, 263.119 172.481 C 265.308 173.336, 267.558 167.561, 269.562 155.947 C 271.085 147.122, 271.075 146.914, 268.968 143.954 C 267.111 141.347, 266.386 141.025, 263.563 141.554 C 260.973 142.040, 259.708 141.648, 257.402 139.646 C 254.879 137.455, 254.660 136.864, 255.725 135.116 C 256.786 133.377, 256.599 132.830, 254.340 131.053 C 252.905 129.924, 250.469 129, 248.926 129 C 246.371 129, 246.080 129.376, 245.637 133.250 M 85.750 133.080 C 84.787 133.641, 84 134.725, 84 135.491 C 84 138.115, 85.555 137.841, 87.230 134.921 C 88.995 131.846, 88.636 131.399, 85.750 133.080 M 104.917 137.574 C 98.769 143.034, 92.724 149.893, 89.352 155.235 C 86.911 159.102, 86.906 159.163, 88.542 164.813 C 89.448 167.941, 90.595 170.994, 91.091 171.598 C 91.734 172.381, 95.659 171.828, 104.746 169.677 C 111.761 168.017, 117.568 166.622, 117.651 166.579 C 117.735 166.536, 116.955 162.675, 115.918 158 C 114.882 153.325, 113.735 145.787, 113.370 141.250 C 112.900 135.422, 112.318 133, 111.386 133 C 110.660 133, 107.749 135.058, 104.917 137.574 M 258.185 136.750 C 258.394 137.850, 259.628 138.626, 261.509 138.841 L 264.500 139.181 261.842 137.091 C 258.602 134.542, 257.751 134.463, 258.185 136.750 M 92 154 C 89.589 156.411, 89.513 157.370, 91.571 159.429 C 94.814 162.671, 102 160.220, 102 155.871 C 102 151.834, 95.401 150.599, 92 154 M 254.200 153.200 C 251.213 156.187, 254.174 161, 259 161 C 261.775 161, 265 158.811, 265 156.929 C 265 153.300, 256.897 150.503, 254.200 153.200 M 94.036 155.456 C 91.506 158.505, 95.111 160.150, 98.559 157.519 C 100.239 156.237, 100.298 155.903, 99 155.034 C 96.907 153.634, 95.446 153.758, 94.036 155.456 M 255.406 155.152 C 254.650 156.375, 257.533 159, 259.632 159 C 261.847 159, 262.361 156.737, 260.462 155.348 C 258.202 153.696, 256.350 153.624, 255.406 155.152 M 170.500 164.251 C 160.968 165.172, 134.262 168.881, 131.681 169.642 C 130.190 170.082, 130.484 170.511, 133.311 172.026 C 135.207 173.043, 141.581 177.053, 147.475 180.937 C 153.369 184.822, 159.160 188.007, 160.345 188.015 C 162.103 188.028, 162.224 188.209, 161 189 C 157.979 190.952, 151.242 189.956, 140.764 186.008 C 134.937 183.812, 127.800 181.507, 124.905 180.886 C 118.596 179.533, 109.754 180.276, 106.458 182.436 C 103.298 184.506, 102.735 184.410, 103.521 181.935 L 104.176 179.869 100.220 181.888 L 96.264 183.906 95.276 195.203 C 94.732 201.416, 93.699 207.896, 92.980 209.602 C 91.788 212.432, 92.040 213.819, 95.853 225.410 C 104.391 251.364, 114.394 266.115, 131.480 277.948 L 137.459 282.090 139.313 279.545 C 141.700 276.268, 143.739 276.308, 158 279.912 C 172.415 283.555, 184.712 285.381, 190.800 284.783 C 193.385 284.529, 197.975 283.177, 201 281.779 C 212.214 276.596, 220.414 275.501, 224.833 278.596 C 226.978 280.098, 227.357 280.029, 231.305 277.417 C 248.305 266.167, 259.686 248.015, 268.454 218.171 L 271.194 208.843 269.103 204.671 C 267.953 202.377, 265.849 196.619, 264.427 191.875 C 262.368 185.005, 261.340 183.020, 259.374 182.125 C 256.183 180.671, 255.949 180.703, 256.638 182.500 C 257.373 184.414, 256.535 184.397, 253.542 182.436 C 250.246 180.276, 241.404 179.533, 235.095 180.886 C 232.200 181.507, 225.063 183.812, 219.236 186.008 C 208.982 189.872, 202.046 190.950, 199.169 189.126 C 198.216 188.521, 198.641 188.117, 200.669 187.697 C 202.226 187.376, 208.490 183.825, 214.589 179.806 C 220.687 175.788, 226.526 172.008, 227.564 171.407 C 229.079 170.528, 226.606 169.879, 214.975 168.100 C 191.025 164.438, 179.178 163.413, 170.500 164.251 M 67.402 198.225 C 64.684 204.262, 64.853 215.120, 67.750 220.634 C 72.043 228.804, 82.242 235.967, 89.615 235.990 L 92.730 236 89.944 227.497 C 88.411 222.821, 86.867 217.671, 86.512 216.053 C 86.024 213.833, 85.018 212.831, 82.411 211.971 C 78.420 210.653, 74.768 205.828, 72.426 198.777 C 71.553 196.150, 70.494 194, 70.072 194 C 69.649 194, 68.448 195.901, 67.402 198.225 M 289.538 198.539 C 287.270 204.478, 283.714 208.607, 280.270 209.299 C 277.693 209.817, 277.213 210.768, 273.389 222.928 L 269.278 236 272.389 235.990 C 279.758 235.967, 289.958 228.802, 294.250 220.634 C 297.147 215.120, 297.316 204.262, 294.598 198.225 C 293.552 195.901, 292.376 194, 291.984 194 C 291.592 194, 290.492 196.043, 289.538 198.539 M 108 199.218 C 108 201.520, 108.462 201.779, 113.653 202.389 C 121.545 203.317, 133.431 207.443, 140.296 211.637 C 146.447 215.397, 149.353 215.460, 148.820 211.823 C 148.595 210.285, 146.425 208.512, 141.500 205.839 C 131.861 200.609, 123.802 197.986, 115.250 197.296 C 108.023 196.713, 108 196.719, 108 199.218 M 239.500 198.416 C 228.174 201.237, 212.348 209.858, 213.410 212.627 C 213.735 213.472, 214 214.352, 214 214.582 C 214 215.838, 217.535 214.596, 222.678 211.532 C 229.853 207.258, 238.307 204.234, 247.500 202.651 C 253.529 201.613, 254.544 201.138, 254.820 199.223 C 255.117 197.156, 254.767 197.006, 249.820 197.085 C 246.894 197.132, 242.250 197.731, 239.500 198.416 M 175.250 222.220 C 174.012 222.817, 173 223.964, 173 224.769 C 173 225.842, 173.601 226.034, 175.250 225.487 C 176.488 225.076, 178.625 224.740, 180 224.740 C 181.375 224.740, 183.512 225.076, 184.750 225.487 C 186.450 226.051, 187 225.846, 187 224.652 C 187 221.373, 180.007 219.926, 175.250 222.220 M 154.615 243.465 C 153.727 244.820, 153 246.845, 153 247.965 C 153 250.484, 156.380 254, 158.801 254 C 160.277 254, 160.794 255.335, 161.670 261.413 C 163.837 276.458, 169.569 283, 180.584 283 C 185.257 283, 187.508 282.468, 190.102 280.750 C 194.635 277.748, 198.814 269.207, 199.636 261.265 C 200.250 255.336, 200.459 254.943, 203.891 253.265 C 206.567 251.956, 207.583 250.773, 207.823 248.685 C 208.226 245.169, 205.597 241, 202.977 241 C 200.579 241, 200.431 242.714, 202.621 245.134 C 203.513 246.119, 203.995 247.571, 203.692 248.359 C 202.841 250.578, 194.381 251.210, 187 249.604 C 181.343 248.374, 179.659 248.383, 174.017 249.671 C 168.031 251.038, 160.351 250.953, 157.989 249.493 C 156.537 248.596, 156.784 246.424, 158.500 245 C 159.325 244.315, 160 243.135, 160 242.378 C 160 240.091, 156.342 240.830, 154.615 243.465 M 88.655 247.829 C 87.745 248.835, 87 250.297, 86.999 251.079 C 86.998 253.383, 81.530 264.239, 78.654 267.644 C 74.972 272.007, 75.296 274.488, 80.186 279.343 C 82.488 281.629, 85.975 286.650, 87.936 290.500 C 90.945 296.409, 91.942 297.551, 94.338 297.825 C 98.042 298.249, 100.800 295.687, 101.565 291.113 C 102.623 284.782, 104.149 280.626, 107.194 275.788 C 110.537 270.477, 110.331 267.918, 106.352 265.311 C 103.573 263.490, 98.024 254.470, 98.009 251.750 C 97.997 249.447, 94.487 246, 92.155 246 C 91.140 246, 89.565 246.823, 88.655 247.829 M 90.163 257.774 C 88.995 260.977, 86.680 265.650, 85.019 268.158 L 81.998 272.718 85.266 276.183 C 87.063 278.089, 90.080 282.540, 91.970 286.074 L 95.406 292.500 96.186 289.500 C 96.615 287.850, 97.425 284.649, 97.985 282.387 C 98.545 280.125, 100.168 276.558, 101.592 274.460 C 104.098 270.767, 104.121 270.594, 102.322 269.072 C 98.831 266.119, 96.848 263.175, 94.567 257.562 L 92.286 251.951 90.163 257.774 M 177.500 252.913 C 176.400 253.371, 173.083 254.079, 170.129 254.484 L 164.758 255.221 165.380 259.757 C 166.502 267.939, 168.005 271.863, 171.395 275.458 C 174.466 278.714, 175.200 279, 180.468 279 C 185.620 279, 186.534 278.666, 189.503 275.697 C 192.957 272.243, 196 264.185, 196 258.491 C 196 255.425, 195.843 255.316, 189.750 254.170 C 186.313 253.523, 182.600 252.788, 181.500 252.536 C 180.400 252.284, 178.600 252.454, 177.500 252.913 M 153.269 324.590 C 152.660 326.190, 151.915 328.647, 151.612 330.050 C 151.106 332.399, 151.336 332.600, 154.531 332.600 C 157.161 332.600, 158 332.179, 158 330.859 C 158 329.901, 158.450 328.840, 159 328.500 C 160.462 327.596, 160.221 326, 158.622 326 C 157.864 326, 156.599 325.028, 155.810 323.840 C 154.377 321.682, 154.374 321.682, 153.269 324.590 M 136.200 338.200 C 134.622 339.778, 134.686 341.195, 136.442 343.559 C 137.772 345.349, 137.872 345.169, 137.730 341.250 C 137.645 338.913, 137.536 337, 137.488 337 C 137.439 337, 136.860 337.540, 136.200 338.200 M 139.630 341.250 C 138.626 344.996, 138.909 346, 140.965 346 C 142.921 346, 145.004 343.320, 144.995 340.816 C 144.992 340.092, 143.933 340.821, 142.641 342.436 L 140.292 345.372 140.759 342.186 C 141.296 338.532, 140.529 337.897, 139.630 341.250 M 175.154 341.558 C 166.598 343.879, 159.024 350.547, 156.045 358.382 C 155.111 360.839, 155.230 361, 157.999 361 C 160.202 361, 161.312 360.304, 162.385 358.250 C 164.226 354.725, 168.576 350.695, 172.894 348.514 C 177.315 346.281, 186.662 346.271, 191.348 348.495 C 194.985 350.221, 203 358.119, 203 359.978 C 203 360.540, 204.350 361, 206 361 C 207.650 361, 208.996 360.663, 208.991 360.250 C 208.985 359.837, 207.643 357.166, 206.006 354.313 C 199.723 343.358, 187.363 338.248, 175.154 341.558 M 184.813 351.683 C 185.534 351.972, 186.397 351.936, 186.729 351.604 C 187.061 351.272, 186.471 351.036, 185.417 351.079 C 184.252 351.127, 184.015 351.364, 184.813 351.683 M 190.589 353.891 C 192.287 354.927, 194.650 357.011, 195.839 358.522 C 197.027 360.033, 198 360.811, 198 360.251 C 198 358.863, 190.299 351.999, 188.747 352.004 C 188.061 352.006, 188.890 352.855, 190.589 353.891 M 168.924 356.750 L 166.500 359.500 169.250 357.076 C 171.820 354.810, 172.459 354, 171.674 354 C 171.495 354, 170.258 355.238, 168.924 356.750 " stroke="none" fill="black" fill-rule="evenodd"/>
</svg>