<?xml version="1.0" standalone="no"?>
<!DOCTYPE svg PUBLIC "-//W3C//DTD SVG 20010904//EN"
 "http://www.w3.org/TR/2001/REC-SVG-20010904/DTD/svg10.dtd">
<svg version="1.0" xmlns="http://www.w3.org/2000/svg"
 width="300.000000pt" height="130.000000pt" viewBox="0 0 300.000000 130.000000"
 preserveAspectRatio="xMidYMid meet">
<metadata>
Created by potrace 1.10, written by Peter Selinger 2001-2011
</metadata>
<g transform="translate(0.000000,130.000000) scale(0.100000,-0.100000)"
fill="#000000" stroke="none">
<path d="M960 1143 c-25 -23 -35 -44 -49 -108 -37 -161 -82 -350 -87 -367 -5
-16 4 -18 90 -18 144 0 142 -3 207 280 28 124 53 228 56 233 2 4 -39 7 -91 7
-90 0 -97 -2 -126 -27z m180 -16 c0 -8 -5 -39 -11 -70 -11 -55 -21 -68 -34
-47 -3 6 -39 10 -80 10 l-74 0 1 33 c0 17 9 44 20 60 18 26 23 27 99 27 59 0
79 -3 79 -13z m-52 -140 c13 -16 5 -55 -17 -80 -12 -14 -27 -18 -66 -16 -44 3
-50 1 -53 -18 -3 -21 -38 -60 -47 -51 -2 2 3 43 13 91 l17 87 71 0 c47 0 75
-5 82 -13z m-24 -204 c-25 -93 -49 -112 -136 -112 -65 0 -68 1 -68 25 0 13 5
44 12 69 10 37 15 44 31 39 21 -7 67 30 67 54 0 11 8 13 33 10 17 -3 41 -2 52
2 28 10 30 -9 9 -87z"/>
<path d="M967 953 c-17 -16 -3 -24 40 -21 62 4 71 28 11 28 -25 0 -48 -3 -51
-7z"/>
<path d="M788 1080 c-104 -5 -126 -16 -146 -68 -10 -25 -62 -252 -62 -269 0
-4 45 -6 100 -3 133 7 133 6 176 195 19 82 33 149 31 149 -1 1 -45 -1 -99 -4z
m70 -37 c-3 -15 -16 -18 -81 -19 -42 -1 -85 -5 -94 -8 -13 -5 -11 0 6 18 22
23 32 26 98 26 66 0 74 -2 71 -17z m-18 -52 c0 -19 -28 -30 -85 -33 -37 -2
-60 -8 -63 -16 -3 -10 8 -13 44 -12 69 2 69 2 48 -21 -14 -15 -28 -20 -59 -17
-33 2 -40 -1 -43 -17 -5 -25 -31 -55 -48 -55 -11 0 -11 6 -3 28 6 15 15 50 20
77 5 28 17 56 26 63 19 14 163 17 163 3z m-30 -151 c-18 -67 -38 -80 -125 -80
-68 0 -75 2 -75 20 0 15 7 20 24 20 16 0 34 12 49 31 17 22 34 32 55 33 19 1
39 11 54 26 19 22 23 23 26 9 2 -10 -2 -36 -8 -59z"/>
<path d="M1212 1064 c-12 -8 -26 -23 -31 -33 -8 -15 -71 -271 -71 -289 0 -4
45 -5 100 -2 131 7 132 7 175 186 19 76 35 142 35 147 0 4 -42 7 -93 7 -67 0
-99 -4 -115 -16z m175 -19 c1 -5 -2 -17 -7 -25 -7 -11 -12 -12 -18 -3 -5 8
-32 11 -79 9 -70 -3 -84 6 -39 24 28 12 138 8 143 -5z m-19 -67 c3 -15 -4 -18
-32 -18 -31 0 -36 -4 -42 -27 -18 -82 -26 -102 -41 -107 -9 -4 -17 -5 -19 -3
-3 2 5 41 21 114 4 18 0 22 -22 25 -17 2 -29 10 -31 21 -3 16 4 18 80 15 69
-3 83 -6 86 -20z m-151 -97 c-7 -65 7 -95 37 -79 32 17 54 50 61 91 6 33 22
47 37 32 3 -3 -1 -31 -8 -63 -19 -83 -46 -104 -136 -101 -65 2 -69 3 -64 23 4
12 11 42 16 69 5 26 14 55 18 65 5 9 7 23 5 30 -4 11 -1 11 17 0 19 -12 21
-19 17 -67z"/>
<path d="M1818 944 c-5 -4 -8 -29 -8 -56 0 -42 -3 -49 -17 -46 -14 2 -19 15
-21 51 -2 26 -7 47 -13 47 -13 0 -11 -94 3 -108 16 -16 43 -15 57 2 13 15 11
123 -1 110z"/>
<path d="M1930 940 c0 -5 7 -10 15 -10 8 0 15 5 15 10 0 6 -7 10 -15 10 -8 0
-15 -4 -15 -10z"/>
<path d="M2260 940 c0 -5 5 -10 10 -10 6 0 10 5 10 10 0 6 -4 10 -10 10 -5 0
-10 -4 -10 -10z"/>
<path d="M1500 880 c0 -33 4 -60 10 -60 6 0 10 13 10 29 0 23 5 31 23 34 l22
4 -23 2 c-17 1 -22 6 -20 19 2 9 11 16 20 14 9 -1 19 2 23 8 4 6 -8 10 -29 10
l-36 0 0 -60z"/>
<path d="M1662 920 c-7 -12 -8 -20 -2 -20 5 0 10 -16 10 -35 0 -35 22 -57 38
-40 4 4 1 10 -5 12 -7 3 -13 17 -13 33 0 16 6 31 13 33 10 4 10 6 0 6 -7 1
-13 8 -13 16 0 21 -13 19 -28 -5z"/>
<path d="M2298 923 c-8 -37 7 -98 25 -101 9 -2 17 1 17 7 0 6 -4 11 -10 11 -5
0 -10 14 -10 30 0 46 25 37 40 -14 7 -25 9 -50 5 -57 -5 -7 -3 -10 5 -7 17 5
61 116 49 123 -8 6 -29 -34 -29 -56 0 -6 -4 -7 -10 -4 -5 3 -10 17 -10 31 0
19 -5 24 -25 24 -16 0 -25 6 -25 15 0 21 -17 19 -22 -2z"/>
<path d="M1594 912 c-17 -11 -24 -122 -7 -122 7 0 13 6 13 13 0 7 10 17 23 22
27 12 34 56 12 79 -18 18 -25 19 -41 8z m31 -42 c0 -13 -6 -25 -12 -27 -9 -3
-13 6 -13 27 0 21 4 30 13 28 6 -3 12 -15 12 -28z"/>
<path d="M1863 913 c-15 -6 -18 -93 -3 -93 6 0 10 18 10 40 0 29 4 40 15 40
11 0 15 -11 15 -40 0 -22 5 -40 10 -40 6 0 10 18 10 40 0 29 -5 42 -19 50 -11
5 -21 10 -23 9 -2 0 -9 -3 -15 -6z"/>
<path d="M1955 913 c-16 -3 -20 -11 -19 -45 1 -23 6 -44 12 -46 6 -2 8 11 5
37 -7 54 12 54 28 1 7 -22 17 -40 23 -40 11 0 49 91 41 98 -9 9 -23 -10 -29
-40 -5 -26 -9 -30 -16 -18 -5 8 -10 23 -10 32 0 20 -8 25 -35 21z"/>
<path d="M2066 904 c-19 -18 -21 -55 -4 -72 15 -15 58 -16 58 -2 0 6 -11 10
-25 10 -35 0 -31 17 5 25 17 4 30 10 30 15 0 11 -29 40 -40 40 -5 0 -16 -7
-24 -16z m38 -13 c3 -5 -3 -11 -14 -14 -20 -5 -26 3 -13 16 9 10 21 9 27 -2z"/>
<path d="M2153 913 c-15 -6 -18 -93 -3 -93 6 0 10 18 10 40 0 22 5 40 10 40 6
0 10 5 10 10 0 11 -7 12 -27 3z"/>
<path d="M2203 913 c-20 -8 -15 -41 7 -48 11 -3 20 -11 20 -17 0 -6 -9 -8 -20
-5 -13 3 -20 0 -20 -9 0 -20 46 -18 55 3 4 12 -1 24 -14 35 -26 21 -26 28 0
28 11 0 17 5 14 10 -7 11 -22 12 -42 3z"/>
<path d="M2260 865 c0 -25 5 -45 10 -45 6 0 10 20 10 45 0 25 -4 45 -10 45 -5
0 -10 -20 -10 -45z"/>
<path d="M1380 785 c-10 -12 -10 -18 0 -30 20 -25 55 -15 55 15 0 30 -35 40
-55 15z m40 -29 c-10 -10 -30 1 -29 17 0 9 2 9 6 0 7 -20 23 -15 17 5 -5 14
-4 15 5 2 6 -8 6 -19 1 -24z"/>
<path d="M327 464 c-13 -13 -7 -44 8 -44 9 0 15 -9 15 -25 0 -16 -6 -25 -15
-25 -9 0 -15 -9 -15 -25 0 -16 6 -25 15 -25 10 0 15 -10 15 -30 0 -20 -5 -30
-15 -30 -9 0 -15 -9 -15 -25 0 -24 2 -25 68 -25 135 0 192 36 192 121 0 101
-35 130 -160 136 -47 2 -89 0 -93 -3z m75 -63 c-2 -22 1 -42 8 -46 7 -4 8 -11
1 -18 -15 -20 -17 -63 -2 -81 12 -14 10 -16 -25 -16 -30 0 -35 3 -26 12 16 16
15 71 0 86 -9 9 -10 15 -2 20 15 10 24 51 13 58 -17 10 -9 24 14 24 20 0 22
-4 19 -39z m121 25 c9 -7 17 -18 17 -25 0 -6 5 -11 10 -11 6 0 10 -21 10 -46
0 -37 -5 -51 -29 -75 -16 -16 -38 -29 -48 -29 -16 1 -16 2 2 12 34 19 50 42
53 75 4 35 -19 87 -45 102 -14 8 -15 10 -3 10 8 0 23 -6 33 -13z m-25 -29 c7
-8 15 -29 18 -48 8 -45 -18 -78 -68 -86 -36 -5 -37 -5 -36 26 1 27 4 31 30 31
23 0 28 4 28 25 0 21 -5 25 -30 25 -22 0 -30 5 -30 18 0 10 3 22 7 26 11 10
65 -2 81 -17z"/>
<path d="M640 440 c0 -18 4 -29 10 -25 15 9 12 -13 -13 -88 -12 -38 -27 -67
-32 -65 -6 2 -11 -10 -13 -25 l-3 -28 58 3 c51 3 58 6 61 26 2 15 -2 22 -13
22 -12 0 -15 5 -11 16 3 9 6 18 6 20 0 2 18 4 40 4 33 0 40 -3 40 -20 0 -11
-4 -20 -10 -20 -5 0 -10 -11 -10 -25 0 -24 3 -25 55 -25 51 0 55 2 52 23 -1
12 -6 25 -11 28 -7 5 -55 141 -56 158 0 2 7 1 15 -3 11 -4 15 2 15 23 l0 29
-90 1 -90 1 0 -30z m65 -26 c-12 -18 -15 -38 -12 -60 3 -19 1 -34 -4 -34 -15
0 -28 -43 -17 -62 7 -15 4 -18 -17 -18 -29 0 -29 0 -11 42 24 56 39 116 33
131 -7 19 1 27 26 27 19 0 19 -1 2 -26z m77 13 c-11 -13 19 -142 38 -161 17
-17 11 -26 -15 -26 -26 0 -32 9 -15 26 7 7 4 19 -10 37 -17 21 -19 31 -10 46
7 13 7 22 0 26 -6 4 -8 10 -5 15 3 4 -2 13 -10 20 -13 10 -15 9 -15 -9 0 -12
5 -31 10 -42 10 -17 7 -19 -21 -19 -24 0 -30 3 -25 16 3 9 9 27 12 40 5 21 22
31 73 43 2 1 -1 -5 -7 -12z"/>
<path d="M870 438 c0 -20 4 -26 15 -22 13 5 15 -7 15 -75 0 -65 -3 -81 -15
-81 -9 0 -15 -9 -15 -25 0 -24 3 -25 60 -25 60 0 60 0 60 30 0 22 -4 28 -15
24 -13 -5 -15 7 -15 75 0 67 2 79 15 75 11 -5 15 1 15 24 l0 30 -60 -1 c-59
-1 -60 -1 -60 -29z m82 -10 c-16 -16 -16 -160 0 -176 9 -9 5 -12 -20 -12 -33
0 -40 8 -22 26 5 5 10 21 10 34 0 14 0 42 0 63 0 20 -4 46 -10 57 -10 18 -8
20 22 20 25 0 29 -3 20 -12z"/>
<path d="M1100 440 c0 -22 4 -28 15 -24 13 5 15 -7 15 -76 0 -69 -2 -81 -15
-76 -11 4 -15 -2 -15 -24 0 -30 0 -30 60 -30 57 0 60 1 60 25 0 16 -6 25 -15
25 -10 0 -15 10 -15 30 0 28 2 30 40 30 38 0 40 -1 40 -31 0 -24 -4 -30 -15
-25 -11 4 -15 -2 -15 -24 0 -30 0 -30 60 -30 57 0 60 1 60 25 0 16 -6 25 -15
25 -12 0 -15 16 -15 80 0 66 2 78 15 74 11 -5 15 1 15 25 l0 31 -60 -1 c-59
-2 -60 -2 -60 -30 0 -21 4 -27 15 -23 11 5 15 -1 15 -20 0 -24 -4 -26 -41 -26
-36 0 -40 2 -37 23 2 12 9 21 16 19 7 -1 12 9 12 26 0 28 -1 28 -60 30 -60 1
-60 1 -60 -28z m82 -12 c-17 -17 -15 -53 3 -68 14 -12 14 -15 0 -30 -18 -19
-19 -43 -5 -71 10 -17 7 -19 -21 -19 -26 0 -29 3 -20 14 16 19 16 153 1 171
-11 13 -7 15 21 15 26 0 30 -3 21 -12z m138 -2 c-13 -13 -13 -166 0 -166 6 0
10 -4 10 -10 0 -5 -13 -10 -30 -10 -29 0 -40 13 -20 25 15 9 12 51 -5 65 -12
10 -12 15 2 36 13 20 14 30 5 50 -11 23 -10 24 18 22 20 -1 26 -6 20 -12z"/>
<path d="M1424 452 c-78 -49 -77 -174 2 -222 126 -78 255 90 155 202 -36 40
-110 49 -157 20z m33 -28 c-33 -18 -56 -65 -49 -100 7 -37 50 -74 87 -74 93 0
109 144 20 181 -19 7 -19 8 3 8 46 2 92 -70 78 -122 -21 -86 -125 -112 -181
-45 -22 26 -26 39 -22 75 5 49 39 93 71 93 18 -1 17 -3 -7 -16z m78 -34 c38
-42 11 -120 -42 -120 -53 0 -81 70 -47 118 19 28 65 29 89 2z"/>
<path d="M1705 460 c-66 -27 -95 -125 -55 -188 34 -55 112 -77 170 -47 28 15
70 60 70 76 0 18 -67 9 -85 -11 -22 -24 -53 -26 -83 -4 -28 20 -31 83 -4 107
26 24 79 22 94 -3 9 -13 24 -20 45 -20 33 0 33 0 33 50 0 49 -1 50 -30 50 -21
0 -30 -5 -30 -16 0 -14 -1 -14 -16 0 -16 17 -75 20 -109 6z m30 -29 c-49 -21
-71 -76 -50 -127 22 -53 81 -70 130 -38 15 10 25 12 25 6 0 -19 -36 -32 -85
-32 -35 0 -52 6 -70 24 -46 46 -45 109 2 152 14 13 35 24 47 23 21 0 21 0 1
-8z m100 -1 c16 14 37 -11 26 -29 -7 -11 -14 -10 -35 5 -14 11 -26 23 -26 29
0 5 5 4 12 -3 8 -8 15 -8 23 -2z"/>
<path d="M2000 438 c0 -20 4 -26 15 -22 8 4 15 10 15 15 0 5 14 9 32 9 25 0
29 -3 20 -12 -15 -15 -15 -43 0 -68 10 -15 10 -22 0 -32 -15 -15 -16 -60 0
-76 9 -9 7 -12 -12 -12 -25 0 -25 0 -22 90 3 61 0 90 -7 90 -7 0 -11 -29 -11
-81 0 -68 -2 -80 -15 -75 -11 4 -15 -2 -15 -24 l0 -30 66 0 65 0 -3 28 c-2 19
-8 26 -20 24 -14 -2 -18 4 -18 28 0 25 4 30 25 30 21 0 25 5 25 29 0 25 -3 28
-25 23 -22 -4 -25 -1 -25 22 0 24 4 26 39 26 33 0 40 -4 45 -26 5 -18 12 -24
27 -22 11 2 20 6 19 11 0 4 0 24 0 45 l0 39 -110 -1 -110 -1 0 -27z m200 -14
c0 -14 -3 -14 -15 -4 -8 7 -15 14 -15 16 0 2 7 4 15 4 8 0 15 -7 15 -16z"/>
<path d="M2240 444 c0 -13 5 -24 10 -24 6 0 10 -33 10 -80 0 -60 -3 -80 -13
-80 -8 0 -13 -10 -12 -22 1 -21 7 -23 64 -26 l62 -3 -3 28 c-2 16 -8 27 -15
26 -8 -2 -13 7 -13 22 0 22 4 25 40 25 51 0 80 27 80 75 0 35 -27 74 -52 76
-7 0 -46 2 -85 4 -72 4 -73 3 -73 -21z m82 -16 c-7 -7 -12 -26 -12 -43 0 -17
5 -36 12 -43 9 -9 9 -15 0 -24 -7 -7 -12 -21 -12 -33 0 -12 5 -26 12 -33 9 -9
5 -12 -20 -12 -30 0 -32 2 -26 26 9 35 8 135 -1 157 -6 14 -2 17 26 17 26 0
30 -3 21 -12z m102 -41 c2 -16 -4 -33 -15 -43 -11 -10 -19 -12 -19 -6 0 6 5
14 11 18 11 6 9 31 -6 69 -7 19 -7 19 9 4 10 -9 19 -28 20 -42z m-48 19 c15
-12 17 -18 8 -33 -6 -10 -21 -19 -33 -21 -18 -3 -21 1 -21 32 0 39 13 46 46
22z"/>
<path d="M2466 460 c-2 -3 -1 -24 2 -47 5 -49 27 -58 42 -18 18 48 30 26 30
-55 0 -64 -3 -80 -15 -80 -9 0 -15 -9 -15 -25 0 -24 3 -25 60 -25 60 0 60 0
60 30 0 22 -4 28 -15 24 -13 -5 -15 7 -15 75 0 63 3 81 14 81 8 0 17 -11 20
-25 4 -16 13 -25 26 -25 17 0 20 7 20 50 l0 50 -106 -2 c-58 -1 -107 -5 -108
-8z m48 -32 c-3 -4 -9 -8 -15 -8 -5 0 -9 4 -9 8 0 5 7 9 15 9 8 0 12 -4 9 -9z
m76 -7 c-13 -25 -13 -148 0 -156 18 -11 11 -25 -12 -25 -22 0 -23 2 -19 85 2
58 -1 90 -9 100 -11 13 -8 15 19 15 28 0 31 -2 21 -19z m65 8 c11 -17 -1 -21
-15 -4 -8 9 -8 15 -2 15 6 0 14 -5 17 -11z"/>
<path d="M700 165 c0 -20 5 -25 25 -25 20 0 25 5 25 25 0 20 -5 25 -25 25 -20
0 -25 -5 -25 -25z"/>
<path d="M1460 165 c0 -20 5 -25 25 -25 20 0 25 5 25 25 0 20 -5 25 -25 25
-20 0 -25 -5 -25 -25z"/>
</g>
</svg>
