<?xml version="1.0" encoding="UTF-8" standalone="no"?>
<!-- Created with Inkscape (http://www.inkscape.org/) -->

<svg
   xmlns:dc="http://purl.org/dc/elements/1.1/"
   xmlns:cc="http://creativecommons.org/ns#"
   xmlns:rdf="http://www.w3.org/1999/02/22-rdf-syntax-ns#"
   xmlns:svg="http://www.w3.org/2000/svg"
   xmlns="http://www.w3.org/2000/svg"
   xmlns:sodipodi="http://sodipodi.sourceforge.net/DTD/sodipodi-0.dtd"
   xmlns:inkscape="http://www.inkscape.org/namespaces/inkscape"
   width="696.40894"
   height="419.41019"
   id="svg2"
   version="1.1"
   inkscape:version="0.48.0 r9654"
   sodipodi:docname="Neues Dokument 1">
  <defs
     id="defs4">
    <inkscape:path-effect
       effect="bend_path"
       id="path-effect3767"
       is_visible="true"
       bendpath="m 132.92474,49.149125 c 93.25679,-34.320111 148.50504,16.711287 247.59998,0"
       prop_scale="1"
       scale_y_rel="false"
       vertical="false"
       bendpath-nodetypes="cc" />
    <inkscape:path-effect
       effect="skeletal"
       id="path-effect2995"
       is_visible="true"
       pattern="m -77.9343,199.83574 c 0,-2.76 2.24,-5 5,-5 2.76,0 5,2.24 5,5 0,2.76 -2.24,5 -5,5 -2.76,0 -5,-2.24 -5,-5 z"
       copytype="single_stretched"
       prop_scale="1"
       scale_y_rel="false"
       spacing="0"
       normal_offset="0"
       tang_offset="0"
       prop_units="false"
       vertical_pattern="false"
       fuse_tolerance="0" />
    <inkscape:path-effect
       effect="spiro"
       id="path-effect2993"
       is_visible="true" />
  </defs>
  <sodipodi:namedview
     id="base"
     pagecolor="#ffffff"
     bordercolor="#666666"
     borderopacity="1.0"
     inkscape:pageopacity="0.0"
     inkscape:pageshadow="2"
     inkscape:zoom="0.65439739"
     inkscape:cx="314.59937"
     inkscape:cy="199.57007"
     inkscape:document-units="px"
     inkscape:current-layer="layer1"
     showgrid="false"
     fit-margin-top="0"
     fit-margin-left="0"
     fit-margin-right="0"
     fit-margin-bottom="0"
     inkscape:window-width="1280"
     inkscape:window-height="977"
     inkscape:window-x="-4"
     inkscape:window-y="-4"
     inkscape:window-maximized="1" />
  <metadata
     id="metadata7">
    <rdf:RDF>
      <cc:Work
         rdf:about="">
        <dc:format>image/svg+xml</dc:format>
        <dc:type
           rdf:resource="http://purl.org/dc/dcmitype/StillImage" />
        <dc:title></dc:title>
      </cc:Work>
    </rdf:RDF>
  </metadata>
  <g
     inkscape:label="Ebene 1"
     inkscape:groupmode="layer"
     id="layer1"
     transform="translate(-18.257775,-22.522056)">
    <g
       style="font-size:135.30439758px;font-style:normal;font-variant:normal;font-weight:bold;font-stretch:normal;text-align:start;line-height:125%;letter-spacing:0px;word-spacing:0px;writing-mode:lr-tb;text-anchor:start;fill:#000000;fill-opacity:1;stroke:none;font-family:Souvenir Lt BT;-inkscape-font-specification:Souvenir Lt BT Bold"
       id="text2985"
       transform="matrix(1.7890764,0,0,1.7890764,-186.64434,-118.92701)">
      <path
         d="m 149.94125,138.06009 c -8.14824,-3.39137 -13.92906,-7.12413 -17.34248,-11.19829 -3.41346,-4.07405 -5.12018,-9.1942 -5.12017,-15.36048 -1e-5,-9.55756 3.75477,-17.35341 11.26436,-23.387577 7.50954,-6.033986 17.34244,-9.051025 29.49874,-9.051124 9.24926,9.9e-5 17.30938,1.376485 24.18037,4.129162 6.87085,2.752868 10.30631,5.913051 10.30639,9.480557 -8e-5,5.285409 -0.59468,9.205352 -1.7838,11.759852 -1.18928,2.55465 -2.9951,3.83194 -5.41746,3.83187 -3.08318,7e-5 -5.15327,-2.11406 -6.21026,-6.3424 -0.22029,-0.92485 -0.39647,-1.60754 -0.52853,-2.048062 -1.01309,-3.171115 -3.21531,-5.637599 -6.60666,-7.39946 -3.39148,-1.761687 -7.64176,-2.642575 -12.75085,-2.642664 -5.06516,8.9e-5 -9.04016,1.200298 -11.92503,3.60063 -2.88494,2.400503 -4.3274,5.670796 -4.32736,9.810886 -4e-5,3.03914 0.84782,5.52765 2.54357,7.46553 1.69566,1.93802 5.23022,4.0081 10.60369,6.21026 l 17.44158,7.33339 c 5.98996,2.51059 10.3944,5.7038 13.21332,9.57966 2.81876,3.87595 4.22818,8.69881 4.22826,14.46859 -8e-5,9.82192 -4.33845,17.849 -13.01512,24.08127 -8.67681,6.23228 -20.06228,9.34842 -34.15643,9.34843 -11.14326,-1e-5 -20.5137,-2.38941 -28.11134,-7.16823 -7.59766,-4.77881 -11.39649,-10.47154 -11.39649,-17.07822 0,-2.99499 1.01302,-5.49451 3.03906,-7.49856 2.02604,-2.00399 4.60264,-3.00599 7.7298,-3.00603 3.30331,4e-5 5.95699,1.06811 7.96102,3.20423 2.004,2.13618 3.24826,5.2303 3.73277,9.28236 0.044,0.44046 0.0881,1.05709 0.13213,1.84987 0.13211,2.64267 1.16715,4.62467 3.10513,5.94599 1.49748,0.96899 3.56757,1.75077 6.21026,2.34536 2.64263,0.59461 5.48349,0.89191 8.52259,0.8919 6.12213,10e-6 11.03307,-1.2993 14.73285,-3.89793 3.69967,-2.5986 5.54954,-6.03406 5.5496,-10.30639 -6e-5,-2.81881 -0.75983,-5.14215 -2.2793,-6.97002 -1.51959,-1.82781 -4.4155,-3.6006 -8.68776,-5.31836 z"
         id="path3783"
         inkscape:connector-curvature="0" />
      <path
         d="m 248.26287,161.05127 c -2.51058,6.47454 -5.902,11.40751 -10.17426,14.79892 -4.27234,3.39142 -9.20531,5.08712 -14.79892,5.08713 -5.32939,-1e-5 -9.84394,-1.71774 -13.54365,-5.1532 -3.69974,-3.43546 -5.5496,-7.64169 -5.54959,-12.61872 -1e-5,-3.56758 0.81481,-8.70975 2.44446,-15.42655 1.62963,-6.71673 2.44445,-11.52858 2.44446,-14.43555 -1e-5,-1.98195 -1.04606,-3.53452 -3.13816,-4.6577 -2.09211,-1.12308 -3.13817,-2.10307 -3.13816,-2.93996 -1e-5,-0.88084 0.46246,-1.75071 1.3874,-2.60963 0.92492,-0.85881 2.46647,-1.8388 4.62466,-2.93997 4.27229,-2.20216 7.58663,-3.67764 9.94302,-4.42646 2.35635,-0.74869 4.56958,-1.12307 6.63969,-1.12313 1.89388,6e-5 3.36937,0.71578 4.42647,2.14716 1.05703,1.43151 1.58556,3.38047 1.58559,5.8469 -3e-5,5.37347 -1.00204,12.44259 -3.00603,21.20738 -2.00404,8.76486 -3.00605,14.2704 -3.00603,16.51665 -2e-5,2.68672 0.53952,4.75681 1.61864,6.21026 1.07905,1.45347 2.63162,2.18021 4.65769,2.1802 4.44845,1e-5 8.03806,-2.91793 10.76886,-8.75383 2.7307,-5.83586 5.52752,-17.73884 8.39046,-35.709 l 1.12313,-6.27632 c 0.13208,-0.66061 0.39634,-1.11206 0.7928,-1.35437 0.39634,-0.24218 1.16712,-0.3633 2.31233,-0.36337 l 17.17731,0 c 0.57251,7e-5 1.01295,0.14321 1.32134,0.42944 0.30823,0.28635 0.46239,0.67174 0.46246,1.15616 -7e-5,0.22029 -0.0111,0.39646 -0.033,0.52854 -0.0221,0.13219 -0.0551,0.26432 -0.0991,0.3964 l -6.27633,29.53177 c -0.66073,3.25931 -1.17825,6.16624 -1.55256,8.72079 -0.37445,2.55459 -0.56164,4.38243 -0.56157,5.48352 -7e-5,1.98202 0.51745,3.51256 1.55257,4.59163 1.03497,1.0791 2.49944,1.61865 4.39342,1.61864 4.5365,1e-5 8.64364,-3.13815 12.32143,-9.4145 3.67761,-6.2763 5.51647,-13.46654 5.51656,-21.57074 -9e-5,-1.36533 -1.46457,-3.4134 -4.39343,-6.14419 -2.92904,-2.73071 -4.39351,-5.5055 -4.39343,-8.3244 -8e-5,-2.59856 0.75968,-4.69066 2.2793,-6.27632 1.51944,-1.58554 3.51245,-2.37834 5.97902,-2.3784 3.2592,6e-5 5.73669,1.65173 7.4325,4.95499 1.69561,3.30339 2.54346,8.14827 2.54356,14.53466 -10e-5,13.12526 -3.41354,24.21343 -10.24032,33.26453 -6.82697,9.05113 -15.21742,13.57668 -25.17138,13.57669 -5.32943,-1e-5 -9.21634,-1.20021 -11.66075,-3.60063 -2.44452,-2.40042 -3.66675,-6.22127 -3.6667,-11.46256 -5e-5,-0.52852 0.022,-1.13413 0.0661,-1.81683 0.044,-0.68267 0.11006,-1.68468 0.1982,-3.00603 z"
         id="path3785"
         inkscape:connector-curvature="0" />
      <path
         d="m 324.90309,152.66081 c -0.13216,0.79283 -0.20924,1.45349 -0.23124,1.982 -0.022,0.52856 -0.0331,1.03507 -0.033,1.51953 -3e-5,4.40446 1.24423,7.85093 3.73276,10.33942 2.48848,2.48852 5.93495,3.73278 10.33943,3.73277 5.32932,1e-5 10.55959,-1.62964 15.69081,-4.88893 5.13111,-3.25927 7.96096,-4.88891 8.48956,-4.88893 0.96891,2e-5 1.79474,0.36338 2.4775,1.0901 0.68262,0.72675 1.02396,1.59662 1.02403,2.60963 -7e-5,3.52356 -3.68878,7.17924 -11.06615,10.96706 -7.37749,3.78781 -15.53671,5.68172 -24.47768,5.68172 -8.98508,0 -16.03218,-2.41143 -21.14131,-7.23429 -5.10916,-4.82285 -7.66373,-11.44052 -7.66373,-19.85301 0,-10.87893 4.09612,-20.11724 12.28839,-27.71494 8.19223,-7.5976 17.97008,-11.39643 29.33357,-11.39649 7.97198,6e-5 14.18224,1.36544 18.63078,4.09613 4.44842,2.73081 6.67266,6.51862 6.67273,11.36345 -7e-5,6.16626 -3.76587,11.18732 -11.29739,15.06319 -7.53165,3.87594 -18.45465,6.38646 -32.76903,7.53159 z m 0.13213,-8.65472 c 6.95898,-0.70468 12.72879,-2.55454 17.30945,-5.5496 4.58057,-2.99497 6.87087,-6.25426 6.87093,-9.77785 -6e-5,-1.84982 -0.57263,-3.28126 -1.71774,-4.29433 -1.1452,-1.01297 -2.77484,-1.51948 -4.88892,-1.51954 -3.74382,6e-5 -7.19029,1.88296 -10.33943,5.6487 -3.1492,3.76584 -5.56063,8.93004 -7.23429,15.49262 z"
         id="path3787"
         inkscape:connector-curvature="0" />
      <path
         d="m 393.81352,152.66081 c -0.13216,0.79283 -0.20924,1.45349 -0.23124,1.982 -0.0221,0.52856 -0.0331,1.03507 -0.033,1.51953 -3e-5,4.40446 1.24423,7.85093 3.73276,10.33942 2.48848,2.48852 5.93495,3.73278 10.33943,3.73277 5.32932,1e-5 10.55959,-1.62964 15.69081,-4.88893 5.13111,-3.25927 7.96096,-4.88891 8.48956,-4.88893 0.96891,2e-5 1.79474,0.36338 2.4775,1.0901 0.68262,0.72675 1.02396,1.59662 1.02403,2.60963 -7e-5,3.52356 -3.68878,7.17924 -11.06615,10.96706 -7.37749,3.78781 -15.53671,5.68172 -24.47768,5.68172 -8.98508,0 -16.03218,-2.41143 -21.14131,-7.23429 -5.10916,-4.82285 -7.66373,-11.44052 -7.66373,-19.85301 0,-10.87893 4.09612,-20.11724 12.28839,-27.71494 8.19223,-7.5976 17.97008,-11.39643 29.33357,-11.39649 7.97198,6e-5 14.18224,1.36544 18.63078,4.09613 4.44842,2.73081 6.67266,6.51862 6.67273,11.36345 -7e-5,6.16626 -3.76586,11.18732 -11.29739,15.06319 -7.53164,3.87594 -18.45464,6.38646 -32.76903,7.53159 z m 0.13213,-8.65472 c 6.95898,-0.70468 12.72879,-2.55454 17.30945,-5.5496 4.58057,-2.99497 6.87087,-6.25426 6.87093,-9.77785 -6e-5,-1.84982 -0.57263,-3.28126 -1.71774,-4.29433 -1.1452,-1.01297 -2.77484,-1.51948 -4.88892,-1.51954 -3.74382,6e-5 -7.19029,1.88296 -10.33943,5.6487 -3.1492,3.76584 -5.56063,8.93004 -7.23429,15.49262 z"
         id="path3789"
         inkscape:connector-curvature="0" />
      <path
         d="m 449.97309,126.10204 -6.47452,0 c -0.83685,5e-5 -1.40943,-0.16512 -1.71773,-0.4955 -0.30832,-0.33028 -0.46248,-0.93589 -0.46247,-1.81683 -1e-5,-1.05701 0.3083,-2.24621 0.92493,-3.5676 0.61662,-1.32127 1.25526,-2.20216 1.91593,-2.64266 0.52853,-0.30825 2.08109,-0.61656 4.6577,-0.92494 2.57658,-0.30824 4.54757,-1.21115 5.91296,-2.70873 1.76175,-1.98193 3.43544,-5.21919 5.02106,-9.71179 0.66064,-1.89383 1.18917,-3.30325 1.5856,-4.22826 0.9249,-2.158094 1.79478,-3.490435 2.60963,-3.997028 0.81479,-0.506428 2.30129,-0.759683 4.4595,-0.759766 2.20218,8.3e-5 3.69969,0.242327 4.49252,0.726732 0.79277,0.484571 1.18916,1.38748 1.1892,2.708731 -4e-5,0.396479 -0.0331,0.880967 -0.0991,1.453461 -0.0661,0.57266 -0.1652,1.27737 -0.2973,2.11414 l -2.44446,14.00611 10.96706,0 c 0.96892,7e-5 1.70667,0.20928 2.21323,0.62764 0.50646,0.41848 0.75971,1.06813 0.75976,1.94896 l 0,0.26427 -0.3964,4.82286 c -0.0881,0.74881 -0.49555,1.29936 -1.22223,1.65167 -0.72678,0.3524 -1.81688,0.52858 -3.2703,0.52853 l -10.17425,0 -4.5586,32.0423 c -0.17621,1.05708 -0.28632,1.79483 -0.33033,2.21323 -0.0441,0.41844 -0.0661,0.73776 -0.0661,0.95797 -3e-5,1.14517 0.14312,1.90493 0.42944,2.27929 0.28625,0.3744 0.89186,0.56158 1.81683,0.56157 0.66063,1e-5 1.27725,-0.044 1.84986,-0.13213 0.57254,-0.0881 0.99097,-0.17617 1.25527,-0.26427 l 9.31539,-2.84086 c 0.088,-0.044 0.19815,-0.0771 0.33033,-0.0991 0.13209,-0.022 0.26422,-0.033 0.3964,-0.033 1.01298,2e-5 1.87184,0.41844 2.5766,1.25527 0.70466,0.83686 1.05701,1.89392 1.05706,3.1712 -5e-5,2.42245 -2.75282,4.77882 -8.25832,7.06912 -0.66071,0.26427 -1.18924,0.4845 -1.5856,0.66067 l -2.1802,0.92493 c -11.14326,4.71275 -18.80697,7.06912 -22.99118,7.06913 -2.59863,-1e-5 -4.47051,-0.57258 -5.61566,-1.71774 -1.14516,-1.14515 -1.71773,-3.06108 -1.71773,-5.74779 0,-0.74875 0.17617,-2.07008 0.52854,-3.964 0.22021,-1.05705 0.37437,-1.84985 0.46246,-2.37839 z"
         id="path3791"
         inkscape:connector-curvature="0" />
      <path
         d="m 216.13998,203.6222 0,15.45958 c -1e-4,2.15824 -0.45155,3.7989 -1.35436,4.92196 -0.90301,1.1232 -2.21333,1.68476 -3.93097,1.6847 -2.2904,6e-5 -3.94206,-2.18013 -4.95499,-6.54059 -0.22031,-0.88082 -0.37447,-1.54149 -0.46247,-1.982 -1.49759,-5.98996 -4.15127,-10.46046 -7.96102,-13.41152 -3.80992,-2.95089 -8.81997,-4.42637 -15.03015,-4.42646 -10.04218,9e-5 -18.37758,4.6798 -25.00621,14.03915 -6.62872,9.3595 -9.94306,21.04227 -9.94303,35.04833 -3e-5,9.24936 2.22421,16.45061 6.67273,21.60378 4.44844,5.15321 10.6587,7.7298 18.63078,7.72979 4.05203,10e-6 8.08209,-0.72672 12.09019,-2.1802 4.00797,-1.45345 7.88387,-3.61162 11.62772,-6.47452 0.9689,-0.74874 2.18012,-1.82782 3.63367,-3.23727 2.42235,-2.33432 4.3603,-3.5015 5.81386,-3.50153 1.5855,3e-5 2.88481,0.48452 3.89793,1.45347 1.01292,0.969 1.51943,2.20224 1.51953,3.69973 -1e-4,5.50556 -4.40453,10.71381 -13.21332,15.62475 -8.80896,4.91095 -19.29151,7.36642 -31.4477,7.36643 -14.05021,-10e-6 -25.20444,-4.04108 -33.46274,-12.12322 -8.25833,-8.08213 -12.38749,-18.88401 -12.38749,-32.40567 0,-8.58861 1.89391,-16.95704 5.68173,-25.10531 3.78781,-8.14814 8.87493,-14.84288 15.26139,-20.08425 5.15316,-4.18412 11.03308,-7.41037 17.63978,-9.67875 6.60661,-2.26819 13.45551,-3.40233 20.54671,-3.40243 8.45645,1e-4 16.59365,1.76187 24.41161,5.28532 7.81779,3.52365 11.72672,7.06922 11.72682,10.63673 z"
         id="path3793"
         inkscape:connector-curvature="0" />
      <path
         d="m 253.16039,233.15397 c -4.36043,5e-5 -8.22532,3.39147 -11.59469,10.17425 -3.36942,6.78288 -5.05412,14.843 -5.05409,24.18038 -3e-5,3.43548 0.66064,6.12219 1.982,8.06012 1.3213,1.93797 3.14914,2.90694 5.48352,2.90694 4.40441,0 8.21424,-3.55658 11.42953,-10.66976 3.21519,-7.11314 4.82281,-15.51461 4.82286,-25.20441 -5e-5,-2.99497 -0.62768,-5.31831 -1.8829,-6.97003 -1.25531,-1.65161 -2.98405,-2.47744 -5.18623,-2.47749 z m 6.67273,39.77209 c -3.34742,5.76983 -6.904,9.98707 -10.66976,12.65175 -3.76583,2.66469 -8.07116,3.99703 -12.91602,3.99703 -6.16623,0 -11.0001,-2.0921 -14.50162,-6.27632 -3.50153,-4.18421 -5.2523,-9.99807 -5.25229,-17.44159 -1e-5,-11.45151 3.60062,-21.39452 10.80189,-29.82907 7.20123,-8.43444 15.6027,-12.65169 25.2044,-12.65175 3.74374,6e-5 7.04706,0.74882 9.90999,2.24626 2.86284,1.49758 5.19719,3.67777 7.00306,6.5406 0.26421,-2.07003 1.7397,-4.00798 4.42647,-5.81386 2.68664,-1.80576 5.08706,-2.70867 7.20126,-2.70873 1.01295,6e-5 1.80575,0.31938 2.37839,0.95796 0.57251,0.63871 0.8588,1.50858 0.85887,2.60963 -7e-5,0.1322 -0.0221,0.30837 -0.0661,0.52854 -0.0441,0.22028 -0.0661,0.39646 -0.0661,0.52853 l -7.26733,38.51683 c -0.17624,0.70473 -0.28635,1.33236 -0.33033,1.8829 -0.0441,0.55057 -0.0661,1.15618 -0.0661,1.81683 -6e-5,1.76179 0.94689,3.17121 2.84086,4.22826 1.89385,1.05708 2.8408,2.22425 2.84087,3.50153 -7e-5,2.20223 -2.33442,4.64669 -7.00306,7.33339 -4.66877,2.68671 -8.74287,4.03006 -12.22232,4.03006 -1.62969,0 -2.85192,-0.51752 -3.6667,-1.55256 -0.81487,-1.03504 -1.22228,-2.54356 -1.22223,-4.52556 -5e-5,-1.01302 0.13209,-2.33435 0.3964,-3.964 0.26422,-1.62963 0.72669,-3.83185 1.3874,-6.60666 z"
         id="path3795"
         inkscape:connector-curvature="0" />
      <path
         d="m 306.55376,287.65891 -17.30945,0 c -0.70471,0 -1.20021,-0.17617 -1.4865,-0.52853 -0.28629,-0.35235 -0.42943,-0.991 -0.42943,-1.91593 l 0,-0.7928 0,-0.3964 6.93699,-33.69397 c 0.35235,-1.84982 0.63864,-3.54553 0.85887,-5.08712 0.22021,-1.54151 0.33032,-2.59858 0.33033,-3.1712 -10e-6,-1.98195 -1.03505,-3.46845 -3.10513,-4.4595 -2.07009,-0.99095 -3.10513,-2.25722 -3.10513,-3.79883 0,-2.33429 2.4885,-4.65763 7.46553,-6.97002 4.977,-2.31227 9.71176,-3.46844 14.20432,-3.4685 1.7177,6e-5 2.9069,0.36343 3.56759,1.0901 0.66064,0.72679 0.99097,2.16925 0.991,4.32736 -3e-5,1.40948 -0.0881,3.17125 -0.26426,5.28533 -0.17621,2.11418 -0.44048,4.44853 -0.7928,7.00306 3.08307,-5.68168 6.73875,-10.05308 10.96705,-13.11422 4.22822,-3.06102 8.78681,-4.59157 13.67579,-4.59163 5.63762,6e-5 10.25127,1.62971 13.84095,4.88893 3.58955,3.25934 5.38435,7.35547 5.38443,12.28839 -8e-5,2.55462 -0.26434,5.13121 -0.7928,7.72979 l -0.0661,0.13213 -3.89793,19.09325 c -0.1322,0.70473 -0.2313,1.35438 -0.2973,1.94896 -0.0661,0.59462 -0.0992,1.11214 -0.0991,1.55257 -7e-5,1.49752 0.94689,2.85189 2.84087,4.0631 1.89383,1.21123 2.84079,2.30133 2.84086,3.27029 -7e-5,0.92494 -0.38546,1.78381 -1.15616,2.5766 -0.77085,0.7928 -2.27937,1.7838 -4.52557,2.973 -3.43553,1.71773 -6.76087,3.09412 -9.97605,4.12916 -3.2153,1.03504 -5.57167,1.55256 -7.06913,1.55256 -2.07014,0 -3.63371,-0.64965 -4.69073,-1.94896 -1.05711,-1.29931 -1.58564,-3.18221 -1.5856,-5.64869 -4e-5,-0.83684 0.066,-1.76177 0.1982,-2.7748 0.13209,-1.01301 0.39636,-2.37839 0.7928,-4.09613 l 5.946,-27.61584 c 0.13208,-0.52849 0.2532,-1.32129 0.36336,-2.3784 0.11006,-1.05702 0.16512,-2.15813 0.16517,-3.30333 -5e-5,-2.11408 -0.47353,-3.67766 -1.42043,-4.69073 -0.94701,-1.01297 -2.41148,-1.51948 -4.39343,-1.51953 -3.61169,5e-5 -6.87097,2.04812 -9.77786,6.1442 -2.90696,4.09617 -5.15323,9.888 -6.73879,17.37551 l -5.68173,26.95517 c -0.0881,0.48449 -0.31935,0.86988 -0.6937,1.15617 -0.3744,0.28629 -0.82585,0.42943 -1.35436,0.42943 z"
         id="path3797"
         inkscape:connector-curvature="0" />
      <path
         d="m 417.81287,204.28286 0,-0.3964 c -6e-5,-1.2772 -1.04611,-2.25719 -3.13817,-2.93996 -2.09216,-0.6826 -3.13821,-1.59652 -3.13816,-2.74176 -5e-5,-1.2772 0.47343,-2.34528 1.42043,-3.20423 0.9469,-0.85878 2.74171,-1.7727 5.38443,-2.74177 3.8318,-1.40932 7.49849,-2.52144 11.00009,-3.33636 3.50146,-0.81472 6.04502,-1.22213 7.63069,-1.22223 1.71765,1e-4 2.98393,0.33043 3.79883,0.991 0.81474,0.66076 1.22215,1.67378 1.22223,3.03906 -8e-5,0.48458 -0.0111,0.86997 -0.033,1.15616 -0.0221,0.28639 -0.0551,0.53964 -0.0991,0.75977 l -11.49559,75.18379 c -7e-5,0.13215 -0.0221,0.30833 -0.0661,0.52853 -0.0441,0.22024 -0.0661,0.3744 -0.0661,0.46247 -7e-5,1.58562 1.14508,2.88492 3.43546,3.89793 2.29023,1.01303 3.43539,2.2683 3.43546,3.7658 -7e-5,2.55458 -2.53262,5.20825 -7.59765,7.96102 -5.06517,2.75278 -9.60174,4.12916 -13.60972,4.12916 -1.80588,0 -3.20429,-0.62763 -4.19523,-1.88289 -0.99105,-1.25527 -1.48655,-3.02805 -1.4865,-5.31837 -5e-5,-1.27728 0.41837,-3.94196 1.25526,-7.99405 0.22017,-1.01301 0.37433,-1.76176 0.46247,-2.24627 -2.24631,5.54961 -5.56065,9.84393 -9.94302,12.88299 -4.38246,3.03906 -9.43655,4.55859 -15.16229,4.55859 -6.95903,0 -12.5857,-2.31233 -16.88001,-6.93699 -4.29434,-4.62465 -6.4415,-10.65873 -6.4415,-18.10225 0,-5.32934 1.13414,-10.63669 3.40243,-15.92205 2.26828,-5.28528 5.38442,-9.90994 9.34843,-13.87398 3.61162,-3.5235 7.74078,-6.29829 12.38748,-8.3244 4.64665,-2.02598 9.2603,-3.039 13.84096,-3.03906 2.59857,6e-5 4.88888,0.41849 6.87092,1.25527 1.98195,0.8369 3.69968,2.09217 5.1532,3.76579 z m -14.79892,27.88011 c -4.31639,5e-5 -8.25836,3.38046 -11.82592,10.14122 -3.56763,6.76086 -5.35142,14.3475 -5.3514,22.75995 -2e-5,4.31636 0.73772,7.58666 2.21323,9.81089 1.47546,2.22425 3.62262,3.33637 6.4415,3.33636 4.84484,1e-5 8.8749,-3.29231 12.09019,-9.87696 3.21519,-6.58461 4.82281,-14.80989 4.82286,-24.67587 -5e-5,-3.47946 -0.75982,-6.26527 -2.2793,-8.35743 -1.51958,-2.09205 -3.55663,-3.13811 -6.11116,-3.13816 z"
         id="path3799"
         inkscape:connector-curvature="0" />
      <path
         d="m 473.32897,287.39465 c -1.27732,0.57257 -2.58764,1.00201 -3.93096,1.28829 -1.34338,0.28629 -2.74179,0.45146 -4.19523,0.4955 -3.08313,0 -5.54961,-0.61662 -7.39946,-1.84986 -1.84988,-1.23324 -3.47952,-3.36939 -4.88892,-6.40846 -1.6737,-3.43545 -2.99503,-7.71877 -3.964,-12.84995 -0.96899,-5.13115 -1.45347,-10.51557 -1.45347,-16.15329 0,-1.76174 0.0661,-3.79879 0.1982,-6.11116 0.13213,-2.31229 0.19819,-3.73272 0.1982,-4.26129 -10e-6,-2.90689 -1.10111,-4.88888 -3.30333,-5.946 -2.20222,-1.05701 -3.30333,-1.95992 -3.30333,-2.70873 0,-1.05701 0.36337,-1.92688 1.0901,-2.60963 0.72673,-0.68263 2.52154,-1.66262 5.38443,-2.93996 2.55456,-1.1451 5.50554,-2.09205 8.85292,-2.84087 3.34736,-0.74869 5.99002,-1.12307 7.928,-1.12313 1.62961,6e-5 2.82982,0.46253 3.60063,1.3874 0.77074,0.92499 1.15613,2.35644 1.15616,4.29433 -3e-5,0.4405 -0.0881,2.75283 -0.26426,6.93699 -0.17621,4.18427 -0.2643,8.1923 -0.26427,12.02412 -3e-5,8.5006 0.69367,15.40456 2.0811,20.71188 1.38736,5.30737 3.1161,7.96104 5.18623,7.96103 1.05702,10e-6 2.18015,-0.7047 3.36939,-2.11413 1.18916,-1.40941 2.77476,-3.94196 4.7568,-7.59766 2.11408,-4.05206 3.84282,-8.07111 5.18623,-12.05716 1.3433,-3.98598 2.01497,-6.83785 2.01503,-8.55562 -6e-5,-1.6296 -1.15622,-3.56755 -3.4685,-5.81386 -2.31238,-2.24622 -3.46854,-4.7127 -3.4685,-7.39946 -4e-5,-2.90688 0.84781,-5.26325 2.54357,-7.06913 1.69566,-1.80576 3.86484,-2.70867 6.50756,-2.70873 3.34731,6e-5 5.90189,1.25533 7.66372,3.7658 1.76172,2.51059 2.6426,6.16627 2.64267,10.96705 -7e-5,5.94604 -1.96004,13.852 -5.87993,23.71791 -3.92001,9.86596 -8.85297,18.87303 -14.79892,27.02124 -5.85794,8.01607 -11.71584,14.12723 -17.57371,18.33348 -5.85793,4.20622 -11.42954,6.30934 -16.71485,6.30936 -3.17121,-2e-5 -5.78084,-0.68271 -7.8289,-2.04806 -2.04806,-1.3654 -3.07209,-3.06111 -3.07209,-5.08713 0,-2.24628 0.75976,-4.03008 2.27929,-5.35139 1.51953,-1.32135 3.55659,-1.98201 6.11117,-1.982 1.80581,-1e-5 3.66668,0.36335 5.58262,1.0901 1.91592,0.72672 3.07208,1.09008 3.4685,1.0901 2.15816,-2e-5 4.82284,-1.21124 7.99406,-3.63367 3.17117,-2.42245 6.49652,-5.81386 9.97605,-10.17425 z"
         id="path3801"
         inkscape:connector-curvature="0" />
    </g>
    <path
       style="color:#000000;fill:#000000;fill-opacity:1;fill-rule:nonzero;stroke:none;stroke-width:3.79999995;marker:none;visibility:visible;display:inline;overflow:visible;enable-background:accumulate"
       d="m 299.8693,249.72081 c -17.20395,0.26273 -31.77111,2.78869 -43.3045,5.15406 -11.53337,2.36539 -20.06346,4.57583 -25.37256,5.18201 -2.65454,0.30308 -4.50359,0.22002 -5.50316,-0.33807 -0.99958,-0.5576 -1.15004,-1.59015 -0.3849,-3.11091 0.76511,-1.52079 2.44595,-3.53116 5.13307,-5.95325 2.6871,-2.42207 6.38131,-5.25781 11.1903,-8.31337 6.82765,-4.33819 15.45606,-8.81331 25.5669,-12.59358 10.11084,-3.78022 21.70602,-6.85295 34.3071,-8.40452 11.11191,-1.33363 22.84614,-1.52387 34.80966,-0.74515 11.96352,0.77869 24.15377,2.51512 36.22406,4.72368 11.91995,2.14691 23.77646,4.63541 35.36823,6.92981 11.59177,2.29438 22.92077,4.38121 33.83317,5.86498 1.45438,0.199 2.9027,0.38766 4.34431,0.56619 17.3812,2.15267 32.11707,2.62894 43.79854,2.79878 11.68148,0.16978 20.32754,0.0685 25.60542,0.77136 2.63894,0.35143 4.43506,0.89593 5.3359,1.69728 0.90084,0.80134 0.90636,1.86048 -0.0463,3.17319 -0.95273,1.31279 -2.86413,2.87992 -5.80469,4.61636 -2.94056,1.73647 -6.91108,3.6427 -11.98123,5.54468 -7.43386,2.78867 -16.73202,5.35614 -27.43627,7.10781 -10.70428,1.75168 -22.81364,2.67628 -35.75695,2.34938 -11.23735,-0.29101 -23.00922,-1.46864 -34.97868,-3.19429 -11.96946,-1.72569 -24.13577,-3.98617 -36.23574,-6.21976 -11.18122,-2.03134 -22.34332,-3.98388 -33.28125,-5.3887 -10.93793,-1.40478 -21.65212,-2.25092 -31.98542,-2.24429"
       id="path2997"
       inkscape:connector-curvature="0" />
  </g>
</svg>
