<?xml version="1.0" standalone="no"?>
<!DOCTYPE svg PUBLIC "-//W3C//DTD SVG 20010904//EN"
 "http://www.w3.org/TR/2001/REC-SVG-20010904/DTD/svg10.dtd">
<svg version="1.0" xmlns="http://www.w3.org/2000/svg"
 width="882.000000pt" height="900.000000pt" viewBox="0 0 882.000000 900.000000"
 preserveAspectRatio="xMidYMid meet">
<metadata>
Created by potrace 1.10, written by Peter Selinger 2001-2011
</metadata>
<g transform="translate(0.000000,900.000000) scale(0.100000,-0.100000)"
fill="#000000" stroke="none">
<path d="M5760 8721 c-30 -17 -64 -30 -75 -31 -11 0 -33 -7 -49 -15 -15 -8
-50 -15 -77 -15 -36 0 -54 -5 -70 -21 -24 -24 -76 -55 -174 -102 -38 -19 -84
-46 -101 -60 -18 -15 -44 -27 -58 -27 -16 0 -31 -9 -42 -25 -9 -13 -24 -27
-35 -30 -28 -9 -119 -72 -145 -101 -13 -13 -32 -24 -42 -24 -10 0 -33 -18 -51
-40 -17 -22 -38 -40 -46 -40 -7 0 -28 -12 -46 -27 -18 -16 -47 -37 -64 -48
-63 -39 -120 -87 -133 -111 -8 -15 -21 -24 -37 -24 -13 0 -32 -10 -42 -23 -10
-12 -33 -33 -51 -46 l-34 -24 -23 25 c-12 13 -26 34 -29 46 -4 12 -16 22 -26
22 -10 0 -32 16 -49 36 -17 19 -47 42 -65 49 -19 8 -37 23 -40 32 -3 10 -15
23 -25 28 -40 21 -181 119 -181 127 0 4 -17 15 -37 23 -21 9 -42 21 -48 28
-19 24 -217 147 -236 147 -8 0 -23 6 -34 14 -48 32 -136 76 -154 76 -11 0 -32
6 -48 14 -15 8 -46 22 -68 31 -73 31 -125 57 -131 66 -3 5 -40 9 -83 9 -44 0
-82 5 -88 11 -7 7 -42 15 -80 20 -37 4 -106 17 -153 28 -118 28 -311 28 -435
0 -49 -12 -117 -24 -150 -28 -33 -4 -70 -12 -82 -19 -12 -7 -49 -12 -83 -12
-79 0 -148 -18 -161 -41 -6 -13 -21 -19 -42 -19 -18 0 -42 -7 -53 -15 -10 -8
-26 -15 -35 -15 -9 0 -22 -6 -28 -14 -7 -8 -31 -18 -54 -21 -23 -4 -56 -18
-74 -31 -17 -13 -39 -24 -48 -24 -8 0 -18 -7 -21 -15 -4 -8 -16 -15 -29 -15
-12 0 -28 -7 -35 -15 -7 -8 -20 -15 -29 -15 -9 0 -31 -14 -50 -30 -18 -17 -42
-30 -53 -30 -11 0 -38 -15 -61 -34 -23 -19 -56 -42 -73 -52 -65 -40 -113 -74
-121 -87 -4 -8 -23 -22 -41 -31 -18 -9 -37 -27 -43 -39 -5 -12 -27 -32 -49
-44 -21 -13 -41 -32 -45 -43 -4 -11 -20 -27 -36 -35 -16 -9 -35 -28 -43 -44
-9 -16 -36 -41 -61 -55 -26 -16 -45 -34 -45 -45 0 -17 -55 -81 -71 -81 -5 0
-12 -15 -17 -32 -4 -18 -17 -37 -27 -42 -25 -11 -65 -71 -65 -97 0 -10 -5 -19
-10 -19 -6 0 -15 -11 -20 -25 -5 -14 -21 -30 -35 -37 -21 -10 -25 -18 -25 -58
0 -39 -4 -49 -29 -68 -42 -31 -91 -108 -91 -143 0 -16 -8 -42 -18 -57 -70
-102 -72 -107 -72 -168 0 -54 -3 -63 -30 -89 -18 -17 -30 -39 -30 -54 0 -14
-7 -35 -15 -45 -11 -14 -15 -46 -15 -106 0 -83 -7 -110 -42 -175 -28 -51 -56
-745 -38 -935 6 -63 15 -156 19 -207 4 -51 13 -98 18 -105 6 -7 14 -31 18 -53
4 -22 10 -44 15 -50 4 -5 10 -63 12 -127 2 -76 8 -122 16 -130 6 -6 12 -28 12
-47 0 -20 13 -57 30 -88 23 -41 30 -65 30 -109 0 -31 6 -70 14 -87 7 -18 21
-51 31 -75 10 -23 24 -47 32 -53 8 -7 13 -33 13 -70 0 -38 5 -63 15 -73 8 -8
15 -23 15 -33 0 -11 13 -32 30 -48 16 -16 30 -36 30 -45 0 -9 7 -25 15 -36 8
-10 15 -40 15 -66 0 -40 4 -50 30 -68 18 -13 30 -30 30 -44 0 -12 7 -31 15
-42 8 -10 15 -31 15 -45 0 -14 20 -54 45 -90 30 -43 45 -74 45 -96 0 -24 7
-37 26 -49 26 -17 64 -81 64 -108 0 -29 24 -67 46 -72 22 -6 52 -55 69 -114 4
-14 25 -46 46 -71 22 -26 39 -55 39 -64 0 -10 17 -34 39 -54 21 -20 44 -53 51
-73 6 -21 16 -38 20 -38 18 0 50 -45 60 -81 7 -23 18 -40 30 -44 11 -4 25 -16
32 -28 6 -12 22 -30 35 -40 12 -10 23 -24 23 -31 0 -6 18 -30 40 -51 22 -21
40 -44 40 -51 0 -15 18 -34 382 -401 165 -166 308 -305 318 -308 11 -3 31 -20
45 -38 15 -18 43 -41 63 -52 20 -11 44 -34 52 -52 17 -35 57 -63 90 -63 14 0
24 -9 32 -30 6 -20 24 -38 49 -50 21 -11 49 -30 63 -42 13 -13 49 -41 80 -62
30 -21 58 -47 61 -57 4 -13 20 -21 46 -25 39 -7 79 -42 79 -70 0 -7 10 -16 23
-20 12 -4 37 -20 55 -35 18 -16 39 -29 47 -29 8 0 15 -4 15 -8 0 -4 27 -25 61
-47 33 -21 65 -49 70 -62 6 -16 16 -23 37 -23 20 0 40 -13 72 -45 24 -25 52
-45 62 -45 10 0 24 -14 33 -30 9 -17 21 -30 27 -30 7 0 24 -12 39 -26 14 -14
42 -33 60 -42 19 -9 40 -29 47 -44 7 -16 21 -28 31 -28 23 0 176 -126 288
-238 35 -34 67 -62 71 -62 5 0 37 -28 73 -63 36 -34 101 -93 144 -132 115
-101 223 -203 274 -257 24 -27 50 -48 58 -48 7 0 16 -8 20 -17 9 -28 55 -73
73 -73 9 0 21 -5 27 -11 7 -7 15 -2 27 15 10 17 26 26 41 26 18 0 28 8 36 28
20 50 26 56 57 64 21 6 32 15 32 27 0 20 35 56 65 65 11 3 27 21 35 39 8 17
26 37 39 44 26 12 89 65 144 119 18 18 41 35 52 38 11 3 52 37 90 76 41 40 79
69 91 70 12 0 30 14 45 37 13 20 39 44 58 54 18 10 54 35 78 56 25 21 65 50
89 65 24 15 50 38 59 52 9 13 26 27 39 30 12 3 41 24 63 46 23 22 47 40 55 40
7 0 40 25 73 55 33 30 65 55 71 55 7 0 34 20 62 45 27 25 56 45 64 45 8 0 34
20 58 45 24 25 51 45 60 45 9 0 32 16 51 36 18 19 48 41 64 49 17 7 52 34 78
61 26 26 71 60 100 75 35 17 53 33 55 48 2 14 11 21 27 21 36 0 55 10 55 29 0
20 40 61 58 61 7 0 31 17 55 38 23 21 62 50 87 64 25 14 59 44 77 66 19 24 43
42 61 45 23 5 33 14 42 41 11 35 26 46 61 46 13 0 24 10 30 28 6 18 23 35 45
45 19 9 40 28 46 42 6 14 32 38 57 54 25 15 75 57 111 93 36 35 73 67 83 71 9
3 27 22 38 42 12 19 26 35 31 35 19 0 313 308 371 387 16 23 37 45 46 48 9 3
27 30 41 60 14 29 35 58 47 64 21 10 49 46 98 126 12 19 28 42 38 53 9 10 17
23 17 28 0 5 18 31 40 58 26 31 40 58 40 77 0 18 7 32 20 39 11 6 27 25 36 43
10 18 25 38 35 45 11 7 19 24 19 36 0 13 14 41 31 62 41 51 59 88 59 117 0 13
14 41 30 62 17 21 30 45 30 54 0 9 7 25 15 35 8 11 15 28 15 39 0 10 11 33 24
50 13 18 27 43 31 57 4 14 14 34 21 45 8 11 14 32 14 48 0 16 6 41 14 55 7 15
22 45 32 67 11 22 31 61 47 86 19 33 27 60 27 95 0 27 7 58 15 68 8 11 15 31
15 44 0 13 12 40 28 59 23 31 27 48 31 117 2 45 7 86 12 92 5 6 12 32 15 58 4
27 19 66 35 89 27 39 29 49 29 142 0 61 6 116 15 140 8 22 14 56 15 76 0 19
12 69 27 110 l27 74 1 616 c0 461 -3 622 -12 640 -27 54 -43 103 -43 133 0 17
-7 44 -15 60 -10 18 -15 57 -15 107 0 69 -4 87 -31 142 -18 34 -38 75 -45 90
-8 16 -14 51 -14 77 0 31 -5 52 -14 57 -13 8 -39 58 -51 101 -3 12 -11 22 -16
22 -5 0 -9 16 -9 36 0 26 -8 43 -30 66 -16 16 -30 33 -30 37 0 4 -13 25 -30
47 -16 21 -30 45 -30 53 0 7 -13 30 -28 50 -16 20 -39 54 -52 76 -13 22 -40
58 -60 80 -21 22 -41 49 -44 60 -4 11 -21 29 -39 40 -17 11 -38 33 -45 48 -7
15 -27 34 -45 43 -18 9 -52 37 -77 63 -49 50 -131 110 -208 151 -26 14 -65 37
-87 53 -22 15 -45 27 -50 27 -6 0 -47 19 -91 41 -43 23 -97 45 -119 49 -22 4
-65 18 -95 30 -30 12 -66 24 -80 27 -34 7 -107 40 -115 53 -3 6 -46 10 -99 10
-64 0 -103 5 -122 15 -16 8 -45 15 -65 15 -20 0 -63 12 -95 28 l-59 27 -435 3
-435 2 -55 -29z m665 -556 c38 -8 104 -15 145 -15 41 0 93 -7 115 -15 22 -8
60 -14 85 -15 25 0 54 -7 64 -15 11 -8 36 -15 55 -15 20 -1 47 -7 61 -15 14
-8 36 -15 50 -15 14 0 34 -7 44 -15 11 -8 27 -15 37 -15 9 0 22 -7 29 -15 7
-8 26 -15 42 -15 19 0 41 -11 61 -30 18 -16 37 -30 42 -30 24 0 136 -66 181
-106 27 -24 54 -44 61 -44 19 0 316 -301 336 -341 11 -20 32 -46 48 -58 16
-12 29 -31 29 -42 0 -12 11 -33 25 -47 28 -30 65 -99 65 -120 0 -8 11 -27 25
-44 14 -16 28 -42 31 -56 4 -15 19 -40 34 -57 22 -23 29 -42 33 -85 5 -60 28
-128 56 -169 14 -20 20 -53 24 -141 3 -63 11 -131 17 -150 19 -59 16 -558 -4
-652 -9 -42 -16 -121 -16 -175 0 -82 -4 -106 -23 -148 -40 -84 -57 -150 -57
-217 0 -50 -5 -71 -24 -98 -13 -19 -33 -60 -46 -90 -12 -30 -28 -67 -36 -82
-8 -14 -14 -38 -14 -52 0 -26 -10 -54 -61 -164 -16 -34 -29 -69 -29 -77 0 -8
-20 -54 -45 -102 -25 -47 -45 -92 -45 -98 0 -7 -11 -32 -24 -56 -14 -24 -34
-62 -46 -84 -12 -22 -28 -44 -36 -48 -8 -4 -14 -17 -14 -27 0 -41 -24 -28
-113 57 -163 158 -181 173 -217 179 -19 4 -49 18 -66 31 -17 12 -40 23 -51 23
-11 0 -26 7 -33 15 -19 22 -269 16 -355 -9 -33 -10 -80 -22 -105 -27 -25 -5
-53 -14 -63 -20 -10 -5 -46 -14 -80 -18 -34 -5 -87 -16 -117 -25 -95 -29 -173
-47 -244 -57 -38 -5 -76 -14 -86 -19 -25 -13 -267 -15 -282 -2 -7 6 -30 13
-51 17 -21 4 -63 24 -93 44 l-55 36 46 41 c25 23 45 47 45 53 0 6 10 11 21 11
13 0 42 21 71 50 27 27 55 50 63 50 8 0 29 18 46 40 18 22 38 40 44 40 6 0 36
26 66 59 30 32 65 61 77 65 11 4 31 19 44 34 13 15 46 44 74 66 29 21 69 65
90 98 22 33 46 64 55 68 30 17 32 236 3 332 -3 10 -16 21 -30 24 -16 4 -30 19
-39 40 -8 19 -26 39 -42 46 -15 7 -34 18 -41 25 -7 7 -27 13 -44 13 -19 0 -43
11 -65 30 -18 17 -43 30 -54 30 -11 0 -31 7 -44 16 -35 23 -531 22 -597 -1
-24 -8 -62 -15 -86 -15 -23 0 -59 -7 -78 -15 -39 -16 -167 -25 -180 -12 -13
13 18 56 47 66 16 5 29 16 29 24 0 20 41 55 75 63 17 3 41 17 55 29 62 56 79
59 313 63 139 2 235 -1 265 -8 26 -6 67 -15 91 -21 24 -5 68 -20 97 -34 52
-25 55 -25 328 -25 l275 0 19 24 c10 14 39 35 63 47 43 22 129 96 129 111 0 4
9 17 20 28 11 11 20 27 20 35 0 8 -9 24 -20 35 -11 11 -20 29 -20 40 0 11 -9
28 -20 38 -12 9 -41 36 -65 60 -24 23 -53 42 -63 42 -11 0 -26 7 -33 17 -18
21 -86 51 -159 70 -30 8 -125 19 -210 24 -182 10 -197 13 -205 40 -8 24 11 48
73 91 23 16 42 35 42 43 0 8 10 20 23 26 36 19 67 51 67 71 0 10 15 25 39 37
27 14 40 28 44 48 4 20 16 34 39 44 27 14 36 26 51 75 31 100 33 152 6 208
-39 80 -59 86 -277 86 l-184 0 -54 53 -54 52 0 175 c0 186 -3 199 -57 276 -11
16 -23 39 -27 51 -11 33 -46 73 -65 73 -10 0 -28 12 -42 26 -13 14 -47 37 -76
50 -65 31 -76 58 -37 90 16 13 34 23 41 24 6 0 26 8 45 17 18 9 45 22 60 30
14 7 39 13 55 13 15 0 46 7 68 15 57 20 384 20 480 0z m-3442 -91 c20 -8 46
-14 57 -14 18 0 37 -7 125 -45 17 -7 42 -16 56 -19 37 -8 79 -51 79 -81 0 -19
-9 -31 -31 -43 -17 -9 -50 -32 -72 -49 -23 -18 -45 -33 -49 -33 -9 0 -134 -94
-173 -130 -16 -15 -35 -29 -42 -31 -6 -2 -22 -20 -35 -39 -13 -19 -36 -41 -51
-48 -15 -7 -27 -19 -27 -27 0 -8 -20 -31 -45 -52 -42 -35 -45 -40 -45 -86 0
-41 5 -55 30 -84 17 -18 30 -38 30 -44 0 -6 7 -17 15 -25 8 -9 15 -30 15 -48
0 -25 6 -35 24 -44 15 -7 27 -23 31 -44 4 -18 12 -39 18 -46 14 -18 21 -152 8
-184 -7 -18 -18 -28 -38 -30 -20 -2 -33 -12 -45 -37 -20 -39 -34 -51 -65 -51
-15 0 -23 -8 -28 -29 -4 -21 -24 -41 -73 -75 -37 -25 -71 -46 -76 -46 -6 0
-30 -10 -55 -22 -43 -22 -63 -23 -295 -28 -288 -6 -288 -6 -243 -83 33 -57
211 -244 240 -253 12 -4 37 -20 55 -35 18 -16 39 -29 47 -29 8 0 22 -11 31
-25 9 -14 21 -25 28 -25 6 0 28 -9 49 -20 20 -11 43 -20 51 -20 7 0 46 -19 87
-41 68 -38 79 -41 144 -40 83 2 119 -15 95 -44 -8 -9 -19 -27 -25 -39 -6 -11
-20 -22 -32 -24 -17 -3 -23 -11 -25 -40 -2 -28 -8 -38 -23 -40 -50 -7 -65 -13
-65 -26 0 -21 -44 -66 -66 -66 -30 0 -121 -34 -143 -54 -41 -37 -123 -59 -241
-65 -95 -5 -119 -10 -137 -26 -26 -22 -29 -47 -9 -64 8 -7 17 -22 20 -35 4
-15 16 -26 32 -30 14 -4 44 -24 67 -45 26 -24 64 -45 101 -56 33 -11 69 -30
80 -43 23 -26 86 -62 109 -62 20 0 67 -39 67 -56 0 -8 -16 -31 -35 -53 -19
-21 -41 -54 -49 -73 -8 -19 -31 -54 -50 -77 l-36 -43 0 -166 c1 -126 4 -173
15 -192 8 -14 14 -35 15 -47 0 -12 13 -38 30 -56 17 -19 30 -46 30 -59 0 -29
37 -108 50 -108 5 0 21 -17 35 -38 14 -21 41 -46 61 -55 52 -25 144 -96 144
-111 0 -7 17 -17 38 -22 30 -7 39 -15 48 -43 6 -19 19 -40 29 -47 18 -13 15
-44 -4 -44 -6 0 -17 -13 -26 -30 -15 -30 -16 -30 -104 -30 -49 0 -109 -7 -137
-15 -27 -8 -65 -15 -84 -15 -19 0 -71 -12 -115 -26 -68 -23 -103 -27 -238 -31
-86 -3 -168 -2 -181 1 -12 3 -46 24 -73 46 -28 22 -60 40 -70 40 -22 0 -44 22
-61 63 -22 50 -82 28 -82 -31 0 -11 -7 -25 -15 -32 -8 -7 -15 -24 -15 -39 0
-14 -7 -35 -15 -45 -8 -11 -15 -34 -15 -51 0 -17 -4 -35 -9 -40 -6 -6 -14 -32
-18 -60 -7 -41 -12 -50 -28 -48 -11 1 -24 9 -30 19 -5 9 -22 31 -36 48 -14 17
-38 52 -53 77 -15 26 -35 49 -45 52 -12 3 -21 18 -25 41 -5 26 -14 40 -32 46
-13 5 -24 18 -24 28 0 10 -9 27 -19 36 -11 10 -29 38 -40 62 -11 24 -30 48
-41 54 -11 6 -20 21 -20 34 0 26 -80 140 -105 150 -9 3 -15 18 -15 38 0 25
-11 46 -45 85 -31 35 -45 60 -45 80 0 16 -7 38 -15 49 -8 10 -15 27 -15 36 0
9 -14 26 -30 38 -25 18 -30 28 -30 61 0 41 -20 89 -65 155 -19 29 -25 49 -25
93 0 35 -6 65 -15 77 -8 10 -15 28 -15 38 0 11 -9 29 -19 40 -34 37 -63 144
-71 261 -5 75 -14 128 -28 165 -12 30 -22 69 -22 86 0 17 -7 71 -16 120 -18
100 -22 539 -5 616 5 24 13 76 17 117 4 41 16 97 27 125 12 31 23 89 27 146 7
93 17 135 48 195 64 125 72 147 72 198 0 44 4 58 25 77 31 29 65 98 65 133 0
17 9 32 26 44 47 33 64 53 64 76 0 16 9 26 30 34 19 7 30 18 30 31 0 11 7 22
15 26 8 3 15 17 15 31 0 19 5 25 23 25 13 0 39 18 64 44 23 24 56 53 75 64 18
11 44 32 57 46 14 14 31 26 39 26 7 0 37 20 65 45 29 25 59 45 68 45 9 0 22 7
29 15 7 8 19 15 28 15 9 0 25 9 36 19 31 29 116 71 142 71 13 0 25 4 28 9 4 5
27 19 54 31 26 11 60 28 75 35 16 8 41 15 56 15 15 0 36 7 47 15 10 8 30 15
44 15 14 0 34 7 44 15 11 8 32 15 47 15 15 0 40 6 56 12 61 27 766 29 836 2z
m2021 -555 c18 -21 26 -42 26 -68 0 -25 7 -44 20 -56 30 -27 44 -82 43 -169
-1 -73 -3 -81 -32 -110 -19 -19 -31 -42 -31 -58 0 -19 -17 -43 -59 -85 -32
-32 -61 -67 -65 -78 -3 -11 -20 -28 -36 -37 -17 -10 -38 -30 -47 -45 -9 -15
-37 -38 -62 -51 -44 -21 -57 -22 -273 -22 -245 0 -279 6 -341 57 -16 13 -41
26 -55 29 -56 12 -79 26 -133 82 -104 106 -103 104 -103 355 -1 237 -1 237 56
237 26 0 103 -45 128 -75 7 -8 20 -15 30 -15 10 0 23 -6 29 -14 7 -8 23 -17
36 -20 15 -4 27 -16 31 -31 5 -19 13 -25 34 -25 29 0 60 -22 60 -42 0 -19 32
-48 53 -48 11 0 27 -7 36 -15 9 -8 26 -23 37 -33 12 -11 23 -25 26 -32 6 -20
57 -3 69 23 6 12 27 30 47 39 24 11 42 28 49 48 6 16 18 30 26 30 8 0 42 27
75 60 34 33 67 60 74 60 16 0 82 67 91 93 4 9 17 17 29 17 13 0 34 7 48 14 39
22 56 19 84 -15z m-540 -1064 c3 -8 16 -15 29 -15 13 0 43 -13 65 -30 23 -16
48 -30 56 -30 7 0 19 -7 26 -15 7 -8 24 -15 37 -15 14 0 41 -13 60 -30 18 -16
43 -30 55 -30 57 0 77 -71 31 -111 -14 -13 -46 -43 -71 -66 -25 -24 -49 -43
-53 -43 -4 0 -28 -19 -53 -42 -69 -66 -72 -68 -117 -68 -24 0 -71 -7 -106 -16
-49 -12 -71 -13 -95 -5 -17 6 -48 11 -68 11 -68 0 -100 11 -106 36 -3 13 -15
26 -27 30 -11 3 -31 18 -44 33 -13 14 -34 38 -48 54 -35 38 -33 81 5 124 17
18 30 41 30 49 0 23 38 68 63 74 12 3 24 15 27 27 3 12 28 37 55 56 48 34 53
35 146 36 78 1 98 -2 103 -14z m-140 -687 c27 -10 62 -30 78 -44 17 -14 42
-24 60 -24 31 0 88 -28 88 -43 0 -5 8 -25 17 -44 15 -33 15 -36 0 -45 -11 -6
-17 -22 -17 -44 0 -27 -5 -37 -25 -46 -14 -6 -25 -16 -25 -22 0 -6 -9 -28 -20
-49 -11 -20 -20 -51 -20 -67 0 -26 -6 -33 -36 -46 -26 -11 -40 -12 -47 -5 -6
6 -33 11 -61 11 -36 0 -56 6 -71 20 -12 11 -46 30 -76 43 -48 19 -76 22 -252
25 -216 3 -236 -1 -305 -60 -18 -15 -41 -28 -52 -28 -11 0 -47 -25 -81 -55
-34 -31 -71 -57 -83 -60 -12 -2 -36 -6 -54 -9 -19 -3 -41 -14 -50 -25 -24 -28
-126 -43 -185 -28 -63 16 -92 55 -92 122 0 41 8 62 42 117 24 37 45 78 48 90
3 13 22 32 43 43 27 15 38 27 40 49 3 22 12 31 42 43 26 11 42 25 49 43 10 30
83 70 127 70 12 0 36 11 52 24 54 46 107 59 262 66 80 3 237 4 350 1 171 -3
213 -7 254 -23z m1203 -458 c45 -20 71 -54 93 -121 13 -38 12 -44 -14 -96 -54
-110 -182 -233 -242 -233 -59 0 -97 23 -179 108 -22 23 -46 42 -52 42 -27 0
-43 32 -43 85 0 78 12 102 58 114 21 6 51 25 67 42 68 71 222 100 312 59z
m-1887 -295 c40 -21 38 -39 -10 -91 -22 -24 -40 -50 -40 -57 0 -7 -20 -34 -45
-59 -25 -26 -45 -53 -45 -61 0 -7 -10 -19 -23 -24 -13 -6 -45 -29 -71 -52 -38
-33 -55 -41 -87 -41 -44 0 -113 34 -126 62 -4 9 -24 27 -43 40 -49 33 -49 52
-1 98 30 30 41 48 41 71 0 24 6 32 28 40 15 6 36 24 47 42 11 17 31 34 45 38
14 4 87 7 163 8 106 1 145 -3 167 -14z m842 -25 c13 -21 33 -44 45 -49 17 -8
23 -19 23 -44 0 -26 10 -42 45 -77 31 -30 45 -52 45 -71 0 -14 9 -36 20 -49
11 -13 20 -27 20 -32 0 -5 11 -14 25 -20 19 -9 25 -19 25 -44 0 -26 9 -40 41
-67 46 -40 89 -95 89 -114 0 -7 -12 -20 -26 -30 -20 -13 -61 -18 -185 -24 -88
-4 -166 -12 -173 -18 -16 -13 -595 -16 -608 -3 -5 5 -2 14 7 22 8 7 15 17 15
22 0 6 14 26 30 45 17 18 30 42 30 52 0 10 27 46 60 80 42 43 60 70 60 88 0
17 15 41 45 71 35 34 45 52 45 77 0 18 7 38 15 45 8 7 15 21 15 32 0 11 14 33
30 48 23 21 30 37 30 64 l0 36 105 0 104 0 23 -40z m2163 -1081 c131 -20 188
-23 451 -24 281 0 303 1 323 19 42 38 67 -7 37 -66 -8 -15 -17 -42 -21 -60 -4
-18 -14 -42 -21 -53 -8 -11 -14 -26 -14 -34 0 -8 -18 -36 -40 -62 -25 -30 -42
-61 -46 -87 -4 -28 -18 -51 -45 -78 -22 -21 -39 -46 -39 -57 0 -27 -29 -79
-61 -109 -16 -15 -29 -37 -29 -49 0 -14 -18 -39 -45 -65 -25 -23 -45 -46 -45
-52 0 -16 -41 -82 -50 -82 -17 0 -71 -53 -66 -65 7 -19 -31 -74 -59 -87 -14
-6 -25 -19 -25 -29 0 -16 -53 -69 -69 -69 -4 0 -13 -16 -20 -36 -7 -21 -22
-39 -36 -44 -14 -5 -36 -27 -50 -50 -14 -22 -29 -40 -34 -40 -19 0 -72 -54
-86 -86 -8 -19 -19 -34 -26 -34 -7 0 -20 -7 -29 -15 -28 -26 -50 -8 -50 39 0
22 -9 78 -21 123 l-22 82 22 90 c11 49 21 110 21 134 0 25 7 58 15 73 8 16 15
36 15 45 0 8 11 25 25 37 25 22 30 41 26 94 -1 15 5 40 13 57 9 16 16 38 16
48 0 10 14 46 31 81 23 48 29 73 27 109 -3 47 -4 47 -53 65 -103 38 -187 49
-357 47 -136 -2 -170 1 -205 15 -23 10 -59 18 -80 19 -47 2 -99 43 -134 103
-20 35 -22 47 -14 80 8 29 16 39 38 45 15 4 51 19 80 34 l52 27 275 -5 c219
-4 305 -10 425 -28z m-1639 -53 c39 -45 32 -79 -30 -144 l-55 -57 -123 -3
-123 -3 -36 -40 c-20 -21 -45 -39 -56 -39 -11 0 -30 -11 -43 -25 -30 -32 -41
-31 -61 4 -12 20 -32 34 -70 46 -30 10 -63 24 -74 31 -24 17 -150 18 -279 3
-78 -9 -100 -8 -151 6 -33 9 -73 19 -90 22 -16 3 -36 10 -42 15 -21 16 -15 65
10 94 21 24 34 28 108 35 46 4 104 15 129 24 43 16 177 40 305 54 33 3 194 6
359 6 l299 -1 23 -28z m-2012 -406 c51 -55 50 -53 35 -83 -16 -30 -49 -55 -81
-62 -40 -9 -122 -51 -137 -69 -7 -9 -23 -16 -36 -16 -12 0 -41 -13 -63 -30
-23 -16 -46 -30 -52 -30 -5 0 -14 -8 -19 -18 -5 -10 -28 -37 -51 -59 l-41 -42
16 -37 c9 -21 19 -41 23 -44 23 -15 52 -95 52 -141 0 -37 7 -60 27 -90 14 -22
30 -59 34 -82 4 -23 13 -63 19 -89 13 -55 1 -112 -30 -146 -24 -25 -36 -27
-70 -7 -14 8 -38 14 -53 15 -19 0 -38 10 -55 30 -15 17 -31 30 -37 30 -6 0
-22 11 -35 23 -14 13 -39 30 -55 38 -16 8 -39 29 -50 46 -11 18 -34 37 -52 43
-20 7 -35 21 -41 39 -6 17 -24 34 -46 45 -20 9 -44 29 -53 44 -9 15 -31 43
-49 62 -59 64 -134 155 -134 164 0 5 -20 31 -45 57 -51 55 -61 99 -22 99 12 0
34 6 48 14 14 7 47 16 72 20 26 4 49 11 52 17 4 5 41 9 84 9 52 0 83 5 97 15
10 8 31 15 46 15 35 0 118 28 139 46 8 8 27 14 40 14 15 0 37 12 54 30 16 17
37 30 48 30 10 0 31 14 45 30 18 20 36 30 57 31 19 0 52 17 90 44 55 39 66 43
121 44 61 1 62 1 108 -49z m2609 -130 c72 0 78 -2 87 -24 4 -13 29 -45 54 -72
45 -47 46 -50 46 -114 0 -43 -5 -73 -15 -86 -8 -10 -15 -33 -15 -50 0 -20 -10
-40 -30 -59 -16 -16 -30 -36 -30 -45 0 -46 -155 -93 -235 -71 -22 6 -51 11
-65 11 -28 0 -100 65 -100 91 0 9 -7 22 -15 29 -12 10 -15 38 -15 136 0 140
10 167 86 233 37 33 39 33 103 27 36 -3 101 -6 144 -6z m-1998 -280 c5 -4 30
-12 55 -17 l45 -9 3 -87 c2 -75 -1 -95 -19 -132 -12 -25 -33 -55 -46 -67 -13
-12 -23 -27 -23 -35 0 -7 -16 -31 -36 -53 -29 -31 -43 -40 -70 -40 -18 0 -35
4 -39 9 -3 5 -19 12 -35 16 -39 9 -133 100 -148 144 -7 19 -12 83 -12 142 l0
108 38 7 c20 4 42 10 47 14 6 5 21 10 35 13 35 7 192 -3 205 -13z m945 -76 c6
-14 23 -42 39 -62 38 -49 51 -92 51 -169 0 -71 27 -143 65 -178 12 -11 25 -35
29 -54 4 -23 22 -50 55 -81 28 -27 53 -62 58 -79 15 -58 150 -146 261 -170 52
-11 114 -4 236 24 41 10 119 15 235 15 l174 0 49 -30 c26 -16 53 -30 58 -30
34 0 -14 -110 -48 -110 -9 -1 -37 -21 -62 -45 -25 -25 -53 -45 -63 -45 -10 0
-42 -25 -71 -55 -36 -38 -60 -55 -77 -55 -18 0 -36 -12 -58 -40 -19 -24 -44
-43 -61 -46 -15 -3 -43 -22 -61 -41 -18 -20 -48 -42 -67 -50 -18 -8 -47 -29
-64 -48 -21 -25 -42 -37 -69 -41 -29 -5 -39 -11 -39 -25 0 -17 -48 -59 -67
-59 -5 0 -22 -13 -38 -30 -16 -17 -37 -30 -47 -30 -9 0 -24 -13 -33 -30 -12
-23 -22 -30 -46 -30 -22 0 -32 -6 -39 -25 -6 -15 -29 -33 -65 -50 -30 -15 -55
-30 -55 -33 0 -4 -38 -32 -84 -62 -46 -30 -89 -65 -95 -77 -6 -13 -19 -23 -30
-23 -11 0 -31 -14 -44 -30 -14 -17 -34 -30 -44 -30 -10 0 -31 -14 -47 -30 -26
-27 -30 -28 -50 -15 -11 8 -26 15 -34 15 -7 0 -25 14 -39 30 -13 17 -33 30
-43 30 -18 0 -70 53 -70 71 0 5 -7 9 -15 9 -8 0 -32 16 -54 35 -21 19 -41 35
-44 35 -13 0 -126 82 -156 114 -19 20 -42 36 -51 36 -9 0 -36 20 -60 45 -24
25 -50 45 -58 45 -13 0 -102 88 -102 100 0 4 -16 12 -35 19 -19 6 -49 28 -67
47 -18 18 -38 34 -44 34 -19 0 -65 41 -74 66 -6 14 -18 24 -29 24 -36 0 -68
21 -84 56 -14 27 -22 34 -47 34 -23 0 -34 7 -51 38 -15 24 -40 46 -73 63 -40
20 -52 32 -54 53 -5 42 31 65 100 66 32 0 77 6 100 14 73 24 145 30 383 31
260 1 411 12 440 31 11 8 37 14 57 14 30 0 47 8 78 38 22 20 40 42 40 48 0 7
7 25 15 40 8 16 15 39 15 51 0 12 12 44 27 70 23 42 27 61 29 146 1 56 7 104
13 110 6 6 11 18 11 27 1 8 9 33 20 55 11 22 19 48 20 57 0 9 11 25 25 36 18
14 25 30 25 54 0 42 43 108 71 108 12 0 23 -10 29 -26z"/>
</g>
</svg>
