<?xml version="1.0" standalone="no"?>
<!DOCTYPE svg PUBLIC "-//W3C//DTD SVG 20010904//EN"
 "http://www.w3.org/TR/2001/REC-SVG-20010904/DTD/svg10.dtd">
<svg version="1.0" xmlns="http://www.w3.org/2000/svg"
 width="300.000000pt" height="300.000000pt" viewBox="0 0 300.000000 300.000000"
 preserveAspectRatio="xMidYMid meet">
<metadata>
Created by potrace 1.10, written by Peter Selinger 2001-2011
</metadata>
<g transform="translate(0.000000,300.000000) scale(0.050000,-0.050000)"
fill="#000000" stroke="none">
<path d="M1885 5975 c-61 -76 -192 -353 -256 -541 -41 -118 -77 -213 -80 -210
-2 3 -59 87 -125 186 -154 231 -210 290 -273 290 -113 0 -128 -122 -71 -620
21 -184 23 -183 -95 -84 -249 208 -329 109 -233 -289 29 -120 69 -302 88 -407
20 -104 50 -239 66 -300 62 -229 63 -276 7 -266 -118 23 -161 -98 -85 -236
150 -270 278 -618 243 -657 -185 -205 -97 -602 178 -807 45 -33 65 -54 44 -47
-20 7 -45 13 -55 13 -10 0 -38 20 -63 45 -44 44 -55 45 -610 51 l-565 6 0 -91
0 -91 640 0 c408 0 690 9 780 24 163 28 162 28 252 -144 121 -235 338 -463
535 -563 l79 -41 -50 -43 c-116 -100 -287 -446 -417 -843 -47 -143 -89 -272
-95 -287 -7 -19 7 -24 46 -20 49 6 61 22 95 127 68 212 259 719 285 756 38 54
51 3 64 -246 9 -191 7 -214 -29 -252 -30 -31 -35 -50 -21 -76 11 -19 13 -78 6
-131 -14 -99 15 -181 63 -181 32 0 53 105 37 180 -10 46 -6 60 17 60 17 0 37
11 45 23 10 16 4 20 -18 11 -21 -8 -41 1 -54 25 -22 42 -8 101 24 101 11 0 15
-13 9 -29 -6 -17 -3 -35 8 -42 10 -6 19 -2 19 10 0 11 10 21 22 21 12 0 17
-13 11 -30 -7 -16 -4 -30 6 -30 10 0 22 11 27 25 5 14 15 19 24 11 8 -8 2 -35
-14 -60 -16 -25 -36 -86 -44 -135 -7 -49 -23 -101 -35 -115 -17 -20 -7 -26 49
-26 64 0 73 7 95 75 39 117 132 239 226 295 115 66 164 65 63 -3 -185 -122
-340 -367 -234 -367 27 0 43 18 51 59 48 239 456 392 692 259 71 -40 241 -249
241 -297 0 -12 32 -21 70 -21 80 0 87 18 28 72 -23 21 -92 114 -154 208 -61
93 -114 174 -117 178 -4 4 -100 9 -215 10 -265 3 -302 25 -354 213 -28 97 -32
144 -17 191 11 34 14 78 6 98 -12 32 -5 35 70 25 191 -26 88 53 -137 105 -190
44 -317 126 -293 189 9 25 30 23 146 -10 439 -125 634 -134 861 -37 249 106
443 87 206 -20 -121 -55 -146 -93 -119 -184 10 -37 19 -101 19 -141 0 -92 62
-148 394 -357 292 -184 436 -321 470 -448 20 -75 33 -92 70 -92 132 0 -49 340
-250 468 -52 33 -81 79 -138 222 -85 214 -152 316 -265 407 l-84 68 136 82
c153 92 401 330 454 435 96 192 148 267 175 258 15 -5 368 -12 783 -16 l755
-7 0 93 0 92 -555 -6 c-545 -6 -556 -7 -600 -51 -25 -25 -64 -45 -88 -45 -35
0 -29 10 38 59 263 190 328 587 133 804 -34 36 41 208 212 487 113 185 82 325
-62 279 -39 -12 -42 -8 -30 34 8 26 38 133 66 238 l52 191 417 -9 417 -8 0
115 0 116 -115 -16 c-63 -9 -187 -19 -275 -21 -201 -6 -201 -6 -314 -83 -123
-84 -122 -87 -35 274 91 375 86 406 -67 416 -92 6 -99 3 -225 -118 -71 -69
-133 -121 -138 -116 -14 14 -71 540 -72 668 -3 297 -198 408 -309 177 -67
-140 -72 -126 -66 194 l6 309 -135 6 c-146 6 -231 -33 -389 -181 l-63 -60 -23
85 c-36 135 -59 160 -148 160 l-79 0 42 -45 c41 -43 145 -319 145 -384 0 -50
31 -36 89 39 56 74 400 350 435 350 13 0 17 -66 13 -175 -9 -221 22 -825 43
-825 8 0 36 52 61 115 65 164 174 380 200 396 38 23 44 -3 61 -265 16 -237 36
-377 102 -701 28 -139 37 -148 77 -73 50 94 345 349 372 322 17 -17 -107 -513
-163 -650 -26 -64 -51 -152 -56 -195 -9 -75 -22 -136 -85 -384 -14 -58 -22
-105 -18 -105 4 0 39 15 78 34 101 48 105 25 19 -107 -42 -65 -77 -121 -78
-127 -9 -49 -37 -100 -55 -100 -12 0 -17 -5 -10 -11 18 -18 -101 -332 -139
-368 -47 -43 -105 -65 -108 -40 -4 29 -9 44 -35 105 -13 31 -23 64 -23 74 0 9
-16 45 -35 78 -34 60 -34 64 10 141 25 43 45 88 45 99 0 11 10 45 23 76 13 31
22 62 20 70 -1 8 11 9 28 3 26 -10 27 -4 8 38 -16 35 -17 61 -2 89 29 54 -28
144 -192 300 l-130 125 54 24 c35 16 59 18 67 5 8 -11 51 -69 96 -129 46 -61
103 -150 128 -199 40 -78 48 -85 60 -50 9 22 5 52 -7 67 -12 15 -23 42 -25 60
-5 37 -2 33 80 -104 l45 -77 -1 71 c-1 38 -10 68 -19 66 -10 -2 -21 19 -26 47
-5 27 -31 85 -59 127 -29 43 -40 71 -25 62 26 -15 -8 27 -98 119 -25 26 -45
59 -45 74 1 22 5 22 20 -2 27 -41 25 -13 -3 48 -12 27 -15 66 -7 86 26 62 49
267 28 255 -7 -5 -19 28 -26 71 -7 44 -20 80 -30 80 -10 0 -37 29 -60 65 -23
36 -41 57 -42 48 0 -10 -39 14 -87 54 -49 39 -94 66 -100 59 -7 -7 -13 -2 -13
11 0 12 -7 22 -15 21 -8 -2 -19 -1 -25 1 -5 2 -32 8 -60 13 -27 5 -57 17 -67
27 -10 10 -29 13 -43 8 -14 -5 -32 0 -39 12 -7 11 -22 21 -33 21 -11 0 -14
-10 -7 -22 10 -15 3 -16 -24 -3 -33 16 -79 16 -243 0 -25 -3 -53 -17 -61 -31
-10 -15 -31 -20 -53 -11 -27 10 -32 7 -20 -13 12 -19 8 -23 -14 -15 -38 14
-156 -101 -156 -151 0 -33 -100 -71 -148 -57 -19 5 -243 3 -367 -3 -36 -2 -65
-11 -65 -19 0 -8 -10 -15 -21 -15 -12 0 -15 11 -7 23 10 16 4 20 -17 12 -18
-7 -36 0 -43 16 -6 16 -23 29 -39 29 -15 0 -40 16 -56 35 -24 32 -24 32 8 8
19 -16 35 -23 35 -17 0 6 -29 32 -64 57 -37 26 -57 33 -48 16 8 -16 1 -12 -17
10 -17 21 -31 31 -31 23 0 -9 -24 -1 -54 19 -53 34 -288 56 -336 31 -30 -16
-74 -26 -139 -31 -32 -3 -62 -15 -67 -28 -4 -13 -25 -23 -46 -23 -21 0 -38
-10 -38 -22 0 -13 -15 -17 -34 -9 -19 7 -28 7 -20 -1 17 -17 -127 -120 -156
-111 -11 4 -14 0 -6 -8 8 -8 -12 -52 -43 -98 -57 -82 -86 -279 -56 -371 16
-46 55 -193 55 -205 0 -6 -43 -31 -95 -55 -122 -58 -126 -65 -122 -225 2 -74
-3 -141 -10 -148 -7 -8 -13 -22 -13 -32 0 -29 50 30 86 103 19 38 34 98 34
135 0 49 9 67 33 67 19 0 53 16 75 35 41 34 41 33 -1 -15 -62 -73 -82 -121
-96 -221 l-12 -89 66 110 c141 237 159 257 209 234 60 -27 58 -38 -15 -91 -82
-61 -293 -348 -263 -358 13 -5 24 -17 24 -28 0 -11 -17 -14 -38 -8 -79 26 -36
-164 68 -301 29 -38 47 -77 40 -88 -14 -22 -51 -211 -52 -262 -3 -139 -193
102 -228 287 -7 41 -22 75 -32 75 -10 0 -18 17 -18 39 0 21 -9 44 -21 52 -12
7 -18 22 -14 34 4 12 -36 103 -89 202 -52 99 -91 184 -86 190 14 13 170 -94
170 -117 0 -11 10 -20 22 -20 13 0 18 16 12 35 -52 165 -76 273 -85 374 -5 65
-32 184 -59 263 -28 80 -50 161 -50 181 0 21 -32 171 -70 335 -39 164 -67 302
-63 306 13 12 290 -205 335 -261 61 -79 85 -67 70 32 -10 68 -70 736 -72 802
-1 52 291 -332 370 -486 l36 -70 48 109 c26 60 80 195 119 299 72 193 247 561
266 561 18 0 217 -366 232 -425 19 -79 24 -74 179 150 77 111 166 233 198 270
l58 68 -86 -7 c-84 -6 -90 -11 -191 -161 l-105 -155 -54 105 c-104 198 -121
215 -229 215 -53 0 -105 -11 -116 -25z m2099 -1124 c73 -16 156 -43 185 -62
28 -18 64 -28 81 -22 16 6 27 5 25 -3 -3 -8 35 -51 83 -94 156 -141 187 -267
113 -460 l-31 -80 14 80 c17 91 19 221 5 280 -10 46 -212 250 -247 250 -13 0
-59 19 -103 43 -254 137 -662 17 -754 -223 -11 -27 -12 -27 -13 0 -10 201 332
357 642 291z m-1552 -92 c45 -19 115 -75 155 -124 83 -101 99 -149 23 -67 -27
30 -50 62 -50 72 0 80 -339 158 -525 120 -389 -79 -579 -345 -464 -647 8 -18
5 -33 -5 -33 -23 0 -66 162 -66 251 0 323 567 583 932 428z m1528 -17 c34 -10
12 -15 -70 -15 -386 -3 -445 -325 -90 -485 387 -175 701 180 357 403 -47 30
-76 55 -65 55 90 0 280 -185 300 -292 59 -317 -630 -332 -875 -19 -162 207
132 442 443 353z m-1557 -94 c322 -162 19 -549 -428 -548 -439 2 -490 357 -77
532 97 41 98 21 1 -22 -325 -147 -244 -470 118 -470 447 0 594 513 149 522
-77 2 -86 5 -46 17 64 20 214 3 283 -31z m1611 2 c106 -31 246 -158 246 -221
0 -157 -253 -220 -461 -114 -324 164 -146 442 215 335z m-1788 -51 c291 -81
114 -397 -222 -399 -346 -1 -322 315 30 398 104 25 106 25 192 1z m1279 -288
c158 -198 619 -284 801 -150 76 56 87 39 45 -70 -86 -227 -591 -198 -860 50
l-91 84 2 143 c1 133 2 138 25 77 13 -36 48 -96 78 -134z m-215 136 c11 -4 19
-52 17 -107 l-2 -100 -303 -5 -302 -5 0 104 0 104 85 8 c108 10 479 11 505 1z
m-679 -170 c-24 -356 -795 -560 -949 -251 -50 102 -45 140 13 90 125 -107 422
-109 639 -4 105 51 266 209 266 262 0 16 8 23 19 17 10 -7 16 -58 12 -114z
m362 -182 c-6 -25 -17 -179 -25 -342 l-14 -298 52 34 c29 19 62 66 75 105 17
52 28 63 41 43 19 -30 22 -8 21 183 -1 130 -24 201 -85 258 -127 118 287 65
450 -58 122 -93 254 -149 400 -171 l97 -14 -13 -163 c-21 -253 -68 -436 -109
-423 -97 30 -309 71 -429 83 -168 17 -180 34 -63 86 124 55 324 203 341 252 7
22 20 45 28 50 31 21 43 100 16 100 -14 0 -49 -20 -77 -45 -27 -25 -146 -129
-264 -231 l-214 -186 -136 13 c-145 14 -705 -48 -900 -100 -58 -15 -108 -21
-113 -14 -10 17 -66 307 -81 425 l-13 92 136 13 c202 18 477 165 544 289 24
44 70 56 239 61 102 3 107 1 96 -42z m1242 -266 c34 -23 41 -43 32 -88 -13
-67 44 -111 124 -96 96 18 136 -60 111 -219 -23 -150 -68 -298 -89 -292 -8 2
-101 24 -209 48 l-195 44 35 137 c19 76 40 207 47 292 18 223 38 248 144 174z
m-2335 -149 c0 -84 33 -279 71 -410 10 -36 -8 -44 -185 -83 -108 -23 -209 -46
-224 -50 -20 -5 -40 30 -65 110 l-36 117 57 83 c79 114 337 359 362 343 11 -7
20 -56 20 -110z m1520 -451 c127 -17 270 -37 318 -45 l88 -14 -208 -133 c-114
-74 -234 -140 -266 -148 -55 -14 -56 -17 -21 -42 56 -41 102 -34 329 56 249
98 452 123 555 69 74 -38 92 -40 74 -10 -10 15 1 18 33 8 27 -8 49 -16 49 -17
1 -2 17 -61 36 -133 20 -71 53 -167 74 -212 l39 -81 -61 -209 c-119 -402 -288
-678 -540 -880 -110 -88 -128 -97 -156 -71 -81 71 -190 58 -418 -49 -123 -57
-285 -79 -285 -38 0 11 16 20 35 20 112 1 215 141 249 341 19 111 31 139 60
139 96 0 107 174 14 231 -41 26 -67 -26 -39 -79 43 -81 13 -99 -147 -82 -178
18 -246 18 -424 0 -160 -17 -190 1 -147 82 29 54 -3 115 -40 77 -92 -93 -84
-190 19 -226 54 -19 60 -30 61 -107 2 -175 71 -294 209 -359 l80 -38 -80 12
c-44 7 -158 34 -254 61 -217 60 -284 61 -323 6 l-30 -43 -67 46 c-310 216
-465 439 -618 896 -69 203 -74 231 -48 270 15 24 34 126 42 229 13 180 16 187
73 216 56 30 58 29 46 -9 -12 -39 -12 -39 62 -1 113 57 264 49 467 -24 349
-127 353 -128 414 -99 l56 26 -60 20 c-33 12 -82 36 -110 56 -27 19 -125 80
-216 136 -193 116 -220 98 226 153 143 18 274 36 290 40 47 12 308 -7 560 -41z
m-2145 -649 c19 -38 63 -83 98 -100 55 -26 71 -54 123 -210 69 -210 71 -205
-51 -173 -237 63 -375 283 -327 520 31 154 64 188 96 101 14 -38 42 -99 61
-138z m3663 42 c50 -234 -91 -463 -323 -525 -111 -30 -124 -22 -93 55 13 32
43 125 66 207 40 138 47 150 108 166 56 14 74 35 119 138 60 139 86 130 123
-41z m-1743 -856 c98 -13 101 -25 53 -186 -84 -282 -376 -301 -444 -28 -52
207 -55 199 72 223 63 11 141 17 174 12 33 -5 98 -14 145 -21z m-790 -661 c97
-108 103 -745 7 -745 -23 0 -27 40 -18 235 5 129 1 271 -9 315 -14 60 -17 26
-9 -132 10 -227 -5 -365 -39 -354 -12 4 -24 80 -28 169 -4 90 -22 229 -39 310
l-31 147 52 45 c62 54 74 55 114 10z m1247 -50 l-12 -65 22 56 c50 128 92 29
58 -137 -25 -121 -80 -126 -80 -7 0 31 -10 78 -23 106 -24 53 -12 112 24 112
14 0 18 -24 11 -65z m-1042 -89 c29 -42 36 -192 8 -175 -10 6 -24 -4 -32 -23
-10 -28 -81 201 -85 278 -1 23 77 -35 109 -80z m1295 -128 c84 -166 75 -189
-43 -116 -64 40 -95 73 -91 95 24 122 33 145 55 138 13 -5 49 -57 79 -117z
m-1247 -258 c16 0 18 -11 5 -35 -9 -19 -14 -45 -10 -57 5 -14 -16 -21 -52 -20
-67 2 -82 55 -38 137 20 39 24 39 47 9 13 -19 35 -34 48 -34z"/>
<path d="M2689 4039 c-17 -29 -24 -259 -7 -259 6 0 11 -13 11 -28 0 -85 163
-322 198 -288 7 7 -34 315 -66 496 -16 92 -98 140 -136 79z"/>
<path d="M4202 3443 c-29 -53 25 -123 95 -123 63 0 103 32 103 83 0 74 -163
107 -198 40z m147 -41 c19 -31 -44 -40 -82 -11 -35 26 -34 28 17 28 29 1 59
-7 65 -17z"/>
<path d="M1530 3440 c-69 -77 31 -153 130 -100 30 16 41 38 36 76 -8 72 -109
87 -166 24z m108 -18 c22 -14 19 -22 -16 -41 -54 -29 -93 -9 -61 31 28 32 39
34 77 10z"/>
<path d="M1787 2710 c-18 -48 42 -90 127 -90 110 0 313 -76 481 -181 47 -30
105 -13 105 30 0 115 -674 342 -713 241z"/>
<path d="M3989 2712 c-219 -53 -466 -198 -443 -259 14 -37 85 -44 106 -10 23
37 296 155 390 168 48 7 110 16 136 20 63 10 86 34 71 76 -16 40 -110 41 -260
5z"/>
<path d="M2905 2316 c-48 -24 -59 -65 -23 -87 12 -7 32 -3 44 9 27 27 107 29
124 2 22 -35 70 -22 70 19 0 72 -119 103 -215 57z"/>
<path d="M65 4264 c-63 -6 -65 -10 -65 -95 l0 -89 375 2 c206 2 402 9 435 16
l60 12 -70 53 c-158 118 -321 141 -735 101z"/>
<path d="M0 3790 l0 -90 379 0 378 0 71 75 71 75 -84 14 c-47 7 -249 14 -450
15 l-365 1 0 -90z"/>
<path d="M5207 3866 c-53 -7 -64 -18 -72 -72 -14 -92 -7 -93 450 -94 l415 0 0
90 0 90 -365 -3 c-201 -2 -393 -7 -428 -11z"/>
<path d="M1465 1876 c-12 -14 -30 -57 -39 -96 l-19 -70 -703 -5 -704 -6 0 -76
0 -77 145 -5 c80 -2 312 -4 515 -5 241 -1 380 -9 399 -24 22 -17 25 -16 14 3
-9 15 -5 25 11 25 14 0 82 27 151 59 136 64 152 56 75 -35 -66 -79 -63 -119
14 -198 35 -36 96 -122 136 -191 108 -188 240 -165 240 42 0 22 27 90 60 153
75 142 75 139 -11 233 -39 44 -85 112 -102 153 -18 41 -38 88 -46 104 -19 39
-108 49 -136 16z m203 -319 l53 -53 -44 -74 c-24 -41 -54 -125 -67 -187 l-23
-113 -61 120 c-34 66 -85 141 -112 167 l-50 47 48 71 c27 39 64 115 83 168
l34 97 43 -95 c23 -52 66 -119 96 -148z"/>
<path d="M4333 1687 c-15 -15 36 -105 80 -140 17 -14 124 -24 272 -26 165 -2
249 -11 259 -27 12 -18 15 -18 16 1 0 19 112 25 495 24 272 0 506 0 520 0 16
1 25 33 25 91 l0 90 -827 0 c-454 0 -832 -6 -840 -13z"/>
<path d="M2893 319 c-128 -38 -249 -154 -299 -284 -25 -66 81 -44 116 25 115
222 433 233 615 21 96 -112 171 -109 113 5 -97 189 -343 294 -545 233z"/>
<path d="M2920 159 c-59 -25 -160 -118 -160 -147 0 -11 30 10 68 46 116 112
274 111 406 -3 65 -56 71 -58 44 -16 -71 111 -243 168 -358 120z"/>
</g>
</svg>
