<?xml version="1.0" standalone="no"?>
<!DOCTYPE svg PUBLIC "-//W3C//DTD SVG 20010904//EN"
 "http://www.w3.org/TR/2001/REC-SVG-20010904/DTD/svg10.dtd">
<svg version="1.0" xmlns="http://www.w3.org/2000/svg"
 width="250.000000pt" height="250.000000pt" viewBox="0 0 250.000000 250.000000"
 preserveAspectRatio="xMidYMid meet">
<metadata>
Created by potrace 1.10, written by Peter Selinger 2001-2011
</metadata>
<g transform="translate(0.000000,250.000000) scale(0.100000,-0.100000)"
fill="#000000" stroke="none">
<path d="M1346 2005 c-12 -19 -16 -50 -16 -133 0 -119 -6 -132 -62 -146 -15
-3 -30 -15 -33 -26 -6 -20 -25 -28 -25 -10 0 5 -23 21 -51 35 l-51 26 7 41 c7
40 6 41 -68 114 -73 72 -118 97 -139 76 -6 -6 -15 -70 -20 -144 -5 -79 -14
-138 -21 -145 -7 -7 -59 -25 -117 -41 -127 -35 -133 -49 -50 -99 50 -30 60
-33 108 -27 49 6 54 5 50 -12 -2 -14 -19 -23 -71 -34 -39 -8 -67 -20 -67 -27
0 -7 22 -24 50 -38 50 -26 98 -32 115 -16 6 5 51 23 100 41 70 25 100 31 137
26 82 -9 77 35 -8 77 -68 34 -62 51 24 62 31 4 62 11 68 16 7 6 21 6 35 0 13
-5 36 -12 52 -15 18 -4 27 -13 27 -25 0 -25 -18 -38 -65 -45 -59 -10 -70 -19
-56 -45 23 -43 130 -78 157 -51 22 22 178 52 244 47 71 -6 100 4 100 32 0 33
-79 81 -134 81 -14 0 -28 5 -32 12 -12 19 23 35 89 42 35 4 69 11 76 15 38 24
-41 107 -110 115 -35 4 -56 20 -40 30 28 18 8 54 -72 134 -45 45 -90 82 -99
82 -8 0 -23 -11 -32 -25z m117 -85 c47 -49 57 -66 57 -95 0 -41 27 -70 74 -79
35 -7 74 -40 58 -50 -5 -3 -28 -8 -51 -12 -48 -8 -91 -37 -91 -63 0 -26 36
-54 83 -66 63 -15 56 -30 -15 -32 -35 -1 -99 -12 -143 -23 -121 -32 -123 -33
-150 -26 -34 9 -31 23 8 39 39 17 66 61 51 85 -6 9 -32 28 -59 41 l-49 23 25
19 c13 10 29 19 36 19 6 0 22 13 36 29 21 26 25 43 32 140 8 135 14 138 98 51z
m-441 -38 c45 -46 58 -66 58 -89 0 -36 27 -74 75 -103 19 -12 35 -25 35 -30 0
-5 -24 -13 -52 -20 -49 -10 -98 -42 -98 -62 0 -5 10 -22 22 -38 12 -16 20 -31
17 -33 -7 -5 -192 -68 -216 -74 -13 -3 -30 -2 -39 1 -13 5 -10 11 17 29 63 42
43 97 -36 97 -49 0 -95 17 -95 35 0 7 32 21 73 31 43 11 84 29 101 45 27 24
29 31 36 136 10 158 15 161 102 75z"/>
<path d="M1495 1433 c-11 -2 -58 -16 -105 -30 -99 -29 -178 -26 -241 10 l-37
21 -124 -43 c-89 -31 -140 -44 -185 -45 -118 -2 -120 -45 -6 -160 93 -95 104
-99 189 -77 38 10 79 23 90 29 27 14 50 42 35 42 -6 0 -11 9 -11 20 0 14 17
28 59 50 l60 30 46 -52 c26 -29 57 -69 68 -90 12 -21 25 -38 29 -38 3 0 27 9
53 20 26 11 65 20 87 20 22 0 53 8 69 17 25 15 29 22 24 45 -5 22 -1 33 25 57
17 15 49 34 71 41 30 10 39 18 39 35 0 70 -127 123 -235 98z m151 -48 c44 -18
45 -48 4 -65 -37 -15 -90 -74 -90 -100 0 -28 -28 -50 -64 -50 -19 0 -52 -7
-75 -15 -47 -16 -36 -24 -112 73 -23 29 -54 59 -69 67 -26 13 -32 12 -91 -18
-51 -25 -66 -39 -75 -65 -14 -44 -20 -49 -90 -67 -79 -20 -96 -13 -167 66 -72
78 -74 99 -12 99 39 0 45 -3 45 -21 0 -32 32 -79 58 -86 28 -7 65 18 90 59 13
23 14 33 5 57 -13 37 -6 45 59 62 40 11 51 10 94 -8 82 -34 121 -35 220 -7
165 48 196 50 270 19z m-666 -94 c-39 -67 -76 -78 -93 -28 -11 33 -10 35 40
52 44 15 69 4 53 -24z"/>
<path d="M1385 1338 c-48 -26 -58 -70 -25 -106 29 -31 57 -27 96 12 35 35 44
72 22 94 -15 15 -66 15 -93 0z m85 -29 c0 -6 -16 -27 -36 -47 l-36 -36 -19 23
c-25 31 -24 38 9 55 32 18 82 21 82 5z"/>
<path d="M1683 1174 c-7 -3 -22 -21 -33 -39 -27 -44 -78 -55 -263 -56 -78 0
-218 -6 -312 -13 l-170 -13 -30 30 c-61 59 -225 113 -225 74 0 -26 20 -71 42
-94 11 -12 17 -26 14 -31 -3 -6 -71 -13 -150 -17 -79 -4 -149 -11 -156 -15 -7
-4 -10 -15 -7 -24 6 -16 236 -136 261 -136 7 0 33 9 57 20 53 24 112 26 129 4
20 -23 -10 -47 -73 -59 -48 -9 -52 -12 -50 -37 2 -35 200 -279 237 -293 18 -6
45 -5 84 4 31 7 72 16 90 18 41 6 56 32 41 67 -10 22 -8 31 15 66 14 22 26 44
26 50 0 5 5 10 10 10 6 0 10 -10 10 -22 0 -25 104 -174 132 -192 12 -7 31 -7
65 3 26 8 71 17 98 21 87 14 107 32 80 73 -8 13 -11 28 -6 35 4 7 50 37 102
66 137 77 135 88 -41 208 l-25 16 26 27 27 27 81 -11 c44 -6 122 -26 172 -46
126 -49 169 -45 169 13 0 53 -137 142 -218 142 -46 0 -60 10 -135 98 -25 30
-46 37 -74 26z m84 -88 c50 -53 95 -76 151 -76 48 0 161 -78 146 -101 -9 -14
-41 -8 -146 30 -50 18 -117 34 -160 37 -70 6 -75 5 -106 -21 -26 -22 -32 -34
-30 -58 2 -25 15 -40 68 -77 36 -26 65 -53 65 -60 0 -8 -36 -35 -80 -62 -92
-55 -105 -69 -105 -114 0 -39 -5 -42 -73 -55 -138 -25 -120 -30 -174 46 -26
38 -60 82 -74 99 -26 29 -27 30 -53 13 -36 -24 -59 -63 -60 -103 -2 -40 -9
-47 -62 -62 -59 -17 -108 -15 -133 6 -31 26 -181 215 -181 228 0 13 22 24 50
24 25 0 71 56 63 78 -20 55 -84 68 -175 35 -47 -16 -48 -16 -100 8 -77 35
-120 61 -113 68 4 3 49 9 100 12 136 9 168 36 129 110 -8 17 -13 33 -10 36 10
10 101 -27 136 -56 56 -45 75 -51 132 -46 90 9 428 25 518 25 94 0 147 18 189
64 14 14 27 26 31 26 3 0 29 -24 57 -54z"/>
<path d="M1053 970 c-67 -4 -87 -9 -104 -27 -27 -27 -20 -65 17 -89 22 -15 33
-16 93 -5 67 12 71 12 122 -14 40 -21 62 -26 95 -22 66 7 116 37 141 83 21 37
21 42 7 63 -16 22 -20 23 -153 19 -75 -1 -173 -5 -218 -8z m357 -27 c0 -5 -9
-21 -19 -37 -14 -20 -39 -36 -80 -51 l-60 -22 -48 29 c-50 30 -85 32 -194 12
-33 -6 -37 -4 -43 21 -4 15 -5 30 -2 33 12 12 446 26 446 15z"/>
<path d="M1415 811 c-58 -14 -94 -45 -90 -76 8 -54 21 -87 45 -110 26 -25 29
-26 56 -12 35 18 112 111 120 144 13 52 -43 75 -131 54z m110 -31 c4 -6 -11
-30 -32 -53 -21 -23 -48 -55 -60 -71 -13 -16 -29 -26 -37 -23 -19 8 -48 109
-35 122 25 25 152 44 164 25z"/>
<path d="M937 769 c-53 -28 -65 -58 -40 -101 10 -18 32 -37 47 -43 25 -8 31
-6 56 22 38 42 49 97 25 123 -22 25 -40 25 -88 -1z m75 -15 c3 -3 -4 -27 -15
-55 -24 -57 -49 -64 -72 -19 -20 38 -21 37 23 59 39 21 55 25 64 15z"/>
</g>
</svg>
