<?xml version="1.0" standalone="no"?>
<!DOCTYPE svg PUBLIC "-//W3C//DTD SVG 20010904//EN"
 "http://www.w3.org/TR/2001/REC-SVG-20010904/DTD/svg10.dtd">
<svg version="1.0" xmlns="http://www.w3.org/2000/svg"
 width="900.000000pt" height="900.000000pt" viewBox="0 0 900.000000 900.000000"
 preserveAspectRatio="xMidYMid meet">
<metadata>
Created by potrace 1.10, written by Peter Selinger 2001-2011
</metadata>
<g transform="translate(0.000000,900.000000) scale(0.100000,-0.100000)"
fill="#000000" stroke="none">
<path d="M2840 8988 c0 -7 -14 -31 -30 -52 -17 -22 -30 -44 -30 -49 0 -6 -6
-18 -14 -26 -7 -9 -32 -52 -56 -96 -23 -44 -62 -116 -85 -160 -24 -44 -59
-120 -80 -170 -20 -49 -41 -98 -46 -107 -5 -10 -9 -23 -9 -29 0 -6 -6 -25 -14
-42 -16 -36 -118 -342 -133 -397 -14 -55 -42 -47 -75 22 -30 63 -228 359 -264
395 -7 7 -33 43 -58 80 -109 163 -191 211 -279 167 -104 -53 -120 -110 -97
-354 5 -58 12 -172 15 -255 3 -82 10 -170 15 -195 5 -25 11 -90 14 -145 8
-135 52 -250 70 -183 3 13 6 111 6 219 0 152 -3 203 -14 225 -11 19 -12 33 -5
46 6 11 6 25 0 36 -5 9 -10 84 -10 166 -1 82 -4 153 -7 157 -2 5 -2 38 2 74 6
57 11 71 38 96 28 26 32 27 53 14 12 -8 29 -15 38 -15 9 0 19 -8 22 -17 4 -10
15 -24 25 -31 10 -7 18 -18 18 -23 0 -6 20 -35 45 -63 25 -29 45 -60 45 -68 0
-8 9 -23 20 -33 12 -11 31 -36 42 -57 12 -21 25 -38 30 -38 4 0 19 -23 34 -51
14 -29 34 -61 45 -72 10 -12 19 -25 19 -29 0 -5 11 -13 25 -18 15 -6 25 -17
25 -30 0 -11 4 -20 9 -20 4 0 29 -16 54 -35 54 -42 79 -44 119 -10 55 46 122
166 133 239 6 34 8 36 19 20 11 -15 14 -9 20 44 4 34 11 64 16 67 6 4 10 25
10 48 0 38 1 39 15 21 14 -18 14 -17 15 15 0 29 16 74 51 143 5 10 9 23 9 29
0 7 13 33 28 58 16 25 32 59 36 75 4 16 18 43 32 59 13 16 24 36 24 45 0 9 14
37 30 62 16 25 30 52 30 59 0 8 12 32 26 52 24 35 43 92 44 132 0 12 -8 17
-30 17 -17 0 -30 -5 -30 -12z"/>
<path d="M3085 8968 c4 -18 13 -38 21 -44 8 -6 14 -20 14 -30 0 -10 7 -32 15
-48 8 -15 15 -33 15 -38 0 -5 11 -24 25 -42 14 -18 25 -40 25 -50 0 -9 8 -20
18 -23 21 -8 32 -23 32 -45 0 -38 86 -134 147 -167 19 -9 30 -8 63 9 21 11 44
29 50 40 6 11 17 20 25 20 8 0 15 4 15 10 0 5 16 27 35 47 19 20 35 43 35 51
0 8 11 26 25 41 54 55 95 106 95 116 0 20 25 65 36 65 7 0 14 14 18 30 3 17 9
44 12 60 6 27 4 30 -20 30 -15 0 -26 -6 -26 -13 0 -7 -11 -23 -25 -35 -23 -20
-116 -142 -198 -258 -19 -28 -48 -76 -62 -105 -41 -81 -44 -83 -72 -58 -12 13
-23 30 -23 38 0 16 -4 24 -68 144 -49 91 -50 92 -107 175 -27 41 -54 82 -60
93 -6 12 -20 19 -38 19 -27 0 -28 -2 -22 -32z"/>
<path d="M3930 8985 c0 -9 5 -15 11 -13 6 2 11 8 11 13 0 5 -5 11 -11 13 -6 2
-11 -4 -11 -13z"/>
<path d="M5500 8973 c0 -16 -3 -38 -6 -50 -5 -17 -2 -23 11 -23 12 0 16 -6 12
-20 -3 -11 -1 -22 3 -25 11 -7 59 -109 71 -150 8 -28 20 -43 78 -96 22 -20 26
-20 83 -8 50 11 70 22 115 65 30 29 68 54 84 58 19 4 33 14 39 31 6 15 17 25
29 25 11 0 29 13 41 29 11 17 29 33 40 36 11 4 20 11 20 16 0 5 18 27 40 49
48 48 55 90 15 90 -18 0 -25 -5 -25 -20 0 -13 -12 -24 -37 -35 -21 -8 -43 -18
-49 -22 -6 -5 -44 -30 -85 -58 -41 -27 -118 -94 -172 -147 -54 -54 -105 -98
-112 -98 -9 0 -15 10 -15 26 0 65 -50 219 -92 282 -15 24 -28 50 -28 58 0 9
-10 14 -30 14 -26 0 -30 -4 -30 -27z"/>
<path d="M6488 8963 c-1 -21 -2 -173 -3 -338 0 -165 -5 -324 -9 -353 -7 -42
-5 -56 7 -70 8 -9 19 -37 24 -61 4 -25 13 -46 18 -48 22 -7 37 111 46 362 15
431 15 483 2 496 -7 7 -13 21 -13 31 0 14 -8 18 -35 18 -33 0 -35 -2 -37 -37z"/>
<path d="M3120 8766 c0 -8 5 -18 10 -21 6 -3 10 1 10 9 0 8 -4 18 -10 21 -5 3
-10 -1 -10 -9z"/>
<path d="M5990 8715 c0 -8 5 -15 10 -15 6 0 10 7 10 15 0 8 -4 15 -10 15 -5 0
-10 -7 -10 -15z"/>
<path d="M6795 8372 c-67 -39 -84 -55 -108 -105 -38 -80 -49 -109 -57 -147 -4
-19 -11 -43 -15 -53 -6 -14 -4 -16 11 -11 33 12 53 36 60 71 5 26 10 32 23 28
17 -5 46 25 82 84 19 31 73 50 99 33 10 -6 27 -8 39 -5 29 8 61 -23 61 -59 0
-18 5 -28 15 -28 18 0 31 -48 17 -62 -6 -6 -7 -21 -2 -39 11 -37 15 -157 7
-166 -11 -10 -8 -148 2 -159 9 -9 19 -171 21 -318 0 -107 15 -65 21 59 l1 40
9 -50 c4 -27 10 -108 13 -180 3 -71 10 -148 16 -170 6 -22 17 -62 23 -90 13
-55 52 -115 75 -115 13 0 14 14 8 88 -3 48 -11 112 -16 142 -26 149 -53 403
-69 655 -30 442 -34 466 -95 518 -65 54 -181 73 -241 39z"/>
<path d="M3370 8252 c0 -34 14 -43 24 -15 4 9 0 23 -9 32 -13 14 -15 12 -15
-17z"/>
<path d="M1158 7616 c-97 -43 -143 -173 -104 -296 23 -72 42 -148 66 -255 12
-55 25 -110 30 -121 5 -12 11 -43 15 -70 3 -27 10 -58 15 -69 5 -11 13 -45 19
-75 5 -30 17 -91 26 -135 34 -166 74 -385 79 -431 2 -17 10 -42 17 -55 7 -13
16 -46 21 -74 4 -27 17 -81 29 -120 11 -38 24 -95 28 -125 8 -58 46 -178 62
-194 5 -6 9 -14 9 -18 0 -12 -68 -10 -75 2 -9 14 -67 13 -116 -2 -33 -11 -49
-24 -80 -71 -55 -82 -54 -125 4 -215 57 -87 129 -236 202 -417 42 -105 54
-134 65 -156 5 -9 27 -59 49 -111 22 -53 61 -135 86 -183 25 -48 45 -93 45
-99 0 -7 -16 -30 -35 -52 -38 -42 -125 -209 -125 -240 0 -11 -8 -32 -17 -49
-24 -44 -24 -353 0 -409 9 -21 17 -45 17 -53 0 -28 79 -179 128 -243 27 -36
66 -77 85 -90 20 -14 42 -35 49 -48 29 -55 262 -167 399 -192 59 -10 129 -8
181 6 12 4 26 -8 45 -38 15 -24 31 -45 34 -48 3 -3 23 -41 43 -85 64 -136 70
-149 88 -168 9 -11 22 -33 29 -51 10 -24 144 -203 170 -226 3 -3 20 -27 39
-55 56 -84 227 -241 367 -339 29 -20 56 -36 59 -36 3 0 23 -14 44 -30 21 -17
40 -30 43 -30 3 0 40 -16 82 -35 65 -30 75 -38 65 -50 -7 -8 -18 -15 -25 -15
-27 0 -98 -46 -124 -80 -15 -19 -38 -56 -50 -82 -13 -27 -27 -50 -32 -54 -22
-14 -122 -181 -182 -304 -86 -179 -98 -206 -147 -335 -23 -60 -48 -124 -56
-142 -8 -17 -14 -35 -14 -41 0 -5 -7 -23 -15 -38 -8 -16 -15 -38 -15 -50 0
-11 -4 -24 -9 -30 -5 -5 -19 -43 -31 -84 -27 -94 -49 -160 -60 -180 -4 -9 -11
-31 -15 -50 -4 -19 -11 -39 -15 -45 -4 -5 -11 -26 -14 -45 -4 -19 -11 -44 -16
-55 -9 -23 -40 -121 -40 -129 0 -3 24 -6 53 -6 45 0 55 3 65 23 13 24 58 144
73 192 5 17 13 39 18 50 5 11 26 72 47 135 21 63 47 138 60 165 12 28 25 66
29 85 4 19 11 40 15 45 4 6 15 35 25 65 9 30 24 71 32 90 9 19 24 62 34 94 11
33 23 64 28 70 5 6 18 44 30 83 13 40 26 75 31 78 4 3 11 22 15 42 4 21 19 56
33 78 15 22 36 57 47 78 14 26 26 37 42 37 12 0 24 -4 27 -8 2 -4 14 -84 26
-177 11 -94 25 -200 30 -238 16 -108 12 -245 -10 -346 -11 -50 -23 -97 -27
-104 -4 -6 -10 -59 -14 -117 -4 -58 -15 -132 -24 -165 -34 -120 -29 -157 25
-195 20 -14 27 -26 23 -41 -5 -18 -2 -20 27 -17 32 3 34 6 46 58 16 68 18 179
3 217 -6 15 -8 43 -4 61 5 26 10 32 23 27 9 -3 29 -9 44 -12 23 -4 28 -1 34
21 9 36 -2 44 -35 25 -26 -15 -30 -15 -48 0 -23 18 -53 76 -52 100 1 33 44 96
67 99 29 4 42 -26 19 -43 -23 -16 -21 -68 2 -89 17 -16 19 -16 25 6 3 13 6 33
6 46 0 14 6 22 18 22 26 0 43 -20 33 -39 -5 -9 -11 -31 -14 -49 -6 -28 -4 -33
11 -30 9 2 26 21 38 43 24 48 64 62 64 22 0 -35 -28 -88 -63 -118 -27 -24 -30
-32 -32 -95 -3 -104 -27 -212 -53 -241 -12 -14 -22 -27 -22 -29 0 -3 17 -4 37
-2 32 3 40 9 60 47 14 27 23 62 23 90 0 58 22 142 48 184 45 71 85 155 104
217 11 36 28 72 38 81 18 16 23 15 75 -3 75 -28 73 -46 -10 -138 -125 -135
-207 -292 -230 -437 -6 -40 -5 -43 15 -43 28 0 59 38 60 72 1 77 121 277 227
379 68 65 137 119 151 119 5 0 15 7 22 15 7 8 20 15 30 15 10 0 20 7 23 14 8
21 73 32 92 16 20 -17 19 -39 -2 -46 -31 -10 -98 -38 -103 -44 -3 -3 -30 -23
-61 -44 -62 -41 -115 -89 -169 -153 -48 -55 -55 -67 -96 -153 -57 -122 -62
-134 -67 -163 -4 -28 -4 -28 46 -25 50 3 51 4 59 39 16 79 87 196 171 282 78
79 232 187 269 187 8 0 19 5 26 12 7 7 54 18 105 24 146 19 392 -9 446 -50 18
-14 50 -32 88 -50 48 -22 135 -118 213 -236 8 -12 23 -33 33 -45 9 -13 17 -28
17 -34 0 -6 5 -11 10 -11 6 0 22 -27 37 -60 l28 -60 97 0 c54 0 98 2 98 4 0 1
-10 14 -22 28 -59 65 -85 97 -180 226 -57 76 -123 171 -148 211 -125 202 -132
211 -171 223 -30 8 -52 8 -101 -3 -93 -21 -400 -18 -452 4 -21 10 -45 17 -53
17 -17 0 -142 79 -160 101 -6 8 -19 61 -28 119 -9 58 -22 119 -29 135 -7 17
-21 47 -30 68 -19 45 -20 80 -4 110 7 12 20 51 29 86 16 58 16 67 1 106 -18
49 -11 81 16 70 9 -4 61 -12 115 -18 106 -11 133 -4 111 31 -16 24 -157 79
-234 91 -25 4 -61 12 -80 18 -19 7 -62 19 -95 29 -165 47 -206 64 -286 116
-92 60 -123 109 -103 162 16 41 83 37 176 -10 14 -8 34 -14 43 -14 10 0 38 -7
64 -15 69 -21 157 -43 246 -59 44 -9 103 -21 130 -27 28 -6 79 -14 115 -19 36
-4 87 -13 113 -19 26 -6 133 -12 236 -14 168 -2 191 0 208 15 11 10 24 18 30
18 11 0 175 67 326 134 112 49 201 60 268 32 43 -18 49 -24 42 -43 -5 -13 -27
-24 -153 -80 -100 -44 -166 -93 -201 -149 -20 -32 -21 -40 -10 -68 37 -94 54
-184 53 -288 l-1 -107 67 -59 c83 -73 177 -142 279 -206 43 -27 115 -73 160
-103 45 -29 84 -53 87 -53 3 0 33 -19 68 -43 35 -23 72 -46 81 -52 9 -5 50
-34 92 -62 42 -29 81 -53 86 -53 5 0 9 -4 9 -9 0 -4 18 -20 39 -34 97 -64 248
-232 295 -327 28 -57 49 -122 55 -170 l6 -45 69 -3 69 -3 -6 53 c-13 126 -89
286 -193 407 -65 76 -195 191 -274 245 -36 24 -70 49 -76 57 -6 8 -26 61 -44
119 -18 58 -42 125 -52 150 -11 25 -23 54 -27 65 -5 11 -25 55 -45 98 -20 42
-36 81 -36 87 0 14 -58 107 -108 173 -55 72 -105 122 -157 155 -22 14 -58 42
-80 63 -22 21 -49 45 -59 52 -25 18 -15 43 21 50 15 3 53 22 83 41 30 19 79
49 109 68 128 79 265 189 381 307 117 119 255 288 290 357 9 16 27 45 40 64
21 29 121 214 149 275 5 11 18 28 29 38 17 16 25 17 68 6 27 -6 57 -19 68 -28
16 -14 124 -16 1117 -19 l1099 -3 0 126 0 125 -810 0 c-831 0 -861 -1 -883
-38 -4 -5 13 -23 36 -39 30 -22 50 -29 72 -26 37 5 60 -9 51 -32 -4 -12 -16
-16 -38 -14 -47 3 -183 -10 -328 -32 -132 -20 -260 -25 -260 -10 0 10 35 21
71 21 14 0 29 4 35 9 5 5 32 16 59 25 28 9 76 32 108 51 32 19 62 35 66 35 4
0 51 41 105 92 93 88 154 170 190 253 10 22 24 53 32 68 8 16 14 37 14 47 0 9
7 34 15 53 21 51 21 323 0 374 -8 19 -15 44 -15 54 0 34 -91 208 -131 252 -21
23 -39 49 -39 58 0 17 22 71 40 99 8 12 68 139 101 215 5 11 13 28 19 38 22
38 31 54 55 102 28 54 36 68 75 130 14 22 29 47 33 55 4 8 16 29 27 45 11 17
24 39 30 50 6 11 19 34 30 50 11 17 24 40 29 52 5 11 15 24 20 28 6 3 11 33
11 66 0 80 -29 127 -101 164 -41 22 -80 22 -126 0 -52 -25 -63 -9 -39 58 10
28 27 63 37 76 13 16 19 40 19 73 0 27 5 59 12 71 6 12 15 38 19 57 3 19 15
62 24 95 10 33 29 106 44 162 14 57 34 110 43 120 15 15 20 15 45 2 23 -11
131 -15 616 -17 l587 -3 0 50 0 51 -37 0 c-21 1 -261 1 -533 0 -494 0 -541 -3
-606 -37 -17 -9 -39 -13 -49 -9 -19 7 -18 25 10 136 9 36 22 88 28 115 7 28
15 55 18 60 4 6 10 30 14 55 3 25 11 59 16 76 6 18 14 54 19 80 5 27 16 76 24
109 9 33 22 87 29 120 8 33 20 74 27 90 7 17 13 66 14 110 1 73 -1 83 -26 115
-46 60 -83 73 -190 68 -103 -5 -127 -15 -202 -85 -22 -21 -70 -63 -104 -91
-35 -29 -76 -67 -90 -84 -15 -18 -37 -43 -49 -57 -13 -13 -23 -30 -23 -37 0
-7 -13 -15 -30 -19 -35 -8 -39 -21 -9 -30 30 -10 101 15 106 36 3 10 11 15 18
13 6 -3 20 6 29 20 9 15 21 26 27 26 19 0 81 53 90 77 5 13 16 23 26 23 10 0
38 18 63 40 25 22 51 40 59 40 8 0 28 11 46 24 22 17 36 22 46 15 8 -5 26 -9
40 -9 38 0 80 -43 77 -77 -1 -16 1 -33 4 -39 4 -6 -2 -23 -12 -39 -13 -20 -16
-33 -9 -41 13 -16 0 -84 -17 -91 -8 -3 -14 -17 -14 -32 0 -15 -8 -37 -17 -51
-9 -13 -17 -40 -18 -59 -3 -66 -18 -161 -26 -167 -5 -3 -9 -21 -9 -40 0 -19
-4 -34 -9 -34 -5 0 -15 -16 -21 -35 -13 -38 -30 -38 -30 1 0 13 -4 24 -10 24
-21 0 -10 -60 15 -82 28 -24 32 -50 11 -67 -10 -8 -13 -23 -9 -47 3 -19 1 -34
-4 -34 -13 0 -43 -55 -43 -79 0 -13 -6 -21 -17 -21 -22 0 -43 -44 -76 -160
-34 -114 -38 -138 -42 -252 -3 -89 -6 -101 -34 -143 -16 -24 -35 -63 -41 -84
-6 -22 -15 -43 -20 -46 -14 -8 -12 -33 3 -51 79 -99 166 -164 218 -164 19 0
23 -9 20 -40 -3 -27 -50 -120 -61 -120 -5 0 -16 -15 -24 -34 -8 -18 -19 -37
-25 -40 -6 -4 -18 -22 -26 -39 -22 -47 -72 -134 -112 -195 -19 -29 -43 -76
-53 -103 -9 -28 -22 -55 -29 -62 -6 -6 -11 -15 -11 -20 0 -5 -15 -41 -34 -80
-18 -40 -39 -88 -47 -107 -7 -19 -19 -39 -26 -43 -15 -9 -18 -57 -4 -57 12 0
31 -56 31 -91 0 -21 -14 -39 -62 -81 -35 -29 -64 -56 -66 -60 -2 -5 -10 -8
-18 -8 -13 0 -52 -72 -68 -127 -11 -36 -63 -82 -105 -93 -22 -6 -42 -17 -45
-26 -9 -24 -49 -13 -57 16 -23 83 -45 149 -61 180 -10 19 -18 42 -18 52 0 9
-4 20 -10 23 -5 3 -10 23 -10 43 0 20 -7 46 -15 56 -8 11 -15 34 -15 51 0 19
-8 39 -20 50 -11 10 -20 27 -20 37 0 10 -11 29 -23 41 -13 12 -50 47 -82 77
l-59 55 -90 7 c-50 3 -125 16 -166 28 -67 19 -91 21 -230 16 -113 -3 -174 -10
-227 -25 -72 -21 -133 -27 -133 -14 0 4 18 28 40 54 22 26 40 52 40 57 0 5 7
16 16 23 13 10 15 24 11 61 l-6 48 44 0 c24 0 56 5 70 12 24 11 29 8 68 -30
24 -23 49 -42 57 -42 8 0 29 -9 45 -20 17 -12 47 -20 70 -20 22 0 50 -6 61
-14 12 -8 32 -17 45 -19 13 -2 31 -7 39 -10 21 -9 216 -55 266 -63 32 -5 51 0
94 20 30 15 60 24 67 22 28 -11 123 224 123 303 0 14 4 38 10 55 5 17 18 60
28 96 l18 66 -28 59 c-28 59 -36 119 -19 129 14 9 41 -4 41 -20 0 -16 46 -41
57 -31 8 9 -9 45 -36 77 -12 14 -44 54 -72 89 -91 118 -239 251 -361 325 -32
19 -37 44 -10 52 48 16 91 38 96 50 3 8 18 14 34 14 23 0 38 -10 68 -47 21
-27 41 -50 44 -53 14 -14 82 -103 125 -165 26 -38 51 -72 55 -75 13 -11 50
-78 50 -93 0 -8 7 -17 15 -21 8 -3 15 -15 15 -26 0 -11 6 -23 14 -26 8 -3 17
-13 20 -22 3 -9 10 -24 15 -32 5 -8 12 -24 16 -34 4 -13 9 -16 16 -9 7 7 5 19
-5 39 -20 37 -106 224 -106 228 0 2 -18 30 -41 62 -22 33 -56 83 -75 112 -77
116 -205 222 -253 209 -17 -4 -18 -1 -9 27 5 17 14 47 20 66 5 19 14 40 18 45
8 11 19 58 27 124 4 30 2 41 -6 37 -6 -4 -11 -14 -11 -23 0 -8 -9 -26 -20 -40
-11 -14 -20 -31 -20 -39 0 -7 -7 -25 -15 -41 -7 -15 -23 -49 -35 -75 -12 -25
-31 -53 -43 -61 -32 -21 -146 -57 -180 -57 -15 0 -38 -5 -49 -11 -33 -18 -378
-12 -463 7 -81 19 -233 72 -255 89 -8 7 -22 15 -30 19 -66 30 -168 106 -240
177 -145 144 -134 122 -141 282 -3 78 -5 158 -4 179 1 21 -2 41 -6 44 -5 3 -9
1 -9 -5 0 -6 -11 -27 -25 -47 -14 -20 -25 -30 -25 -22 0 22 -52 67 -91 79 -49
15 -469 22 -634 11 -132 -9 -198 -21 -255 -45 -23 -10 -22 -11 25 -19 34 -5
87 -2 163 8 90 13 174 16 418 12 346 -4 347 -5 324 -73 -14 -43 -9 -189 9
-248 10 -31 16 -36 34 -32 26 6 58 -19 81 -63 10 -20 12 -33 5 -37 -5 -4 -46
-7 -91 -8 -68 0 -83 2 -94 18 -19 26 -14 37 23 49 41 14 52 26 24 26 -12 0
-33 7 -47 17 -21 14 -62 17 -266 19 -133 2 -282 -1 -332 -7 -50 -5 -129 -14
-175 -19 -100 -11 -114 -5 -100 44 8 31 -1 178 -17 254 -8 38 -29 42 -38 7 -6
-24 -26 -36 -26 -15 0 6 -4 10 -9 10 -11 0 -19 -79 -26 -238 -2 -62 -8 -119
-12 -126 -7 -12 -31 -40 -115 -136 -8 -8 -31 -28 -51 -45 -21 -16 -44 -35 -50
-40 -55 -47 -105 -79 -177 -115 -195 -96 -300 -119 -545 -119 -242 -1 -441 63
-460 149 -4 16 -11 32 -16 35 -5 4 -9 14 -9 23 -1 9 -9 35 -20 57 -11 22 -19
46 -20 53 0 7 -7 15 -15 18 -8 4 -15 17 -15 30 0 13 -5 24 -11 24 -7 0 -9 -11
-6 -27 3 -16 10 -51 16 -79 5 -29 14 -60 20 -70 5 -11 17 -43 26 -71 9 -29 21
-55 26 -58 5 -4 9 -15 9 -26 0 -14 -7 -19 -25 -19 -34 0 -31 -13 10 -41 19
-13 35 -27 35 -30 0 -4 20 -10 45 -13 63 -10 60 -35 -8 -80 -59 -39 -203 -182
-269 -266 -23 -30 -45 -57 -48 -60 -8 -8 -27 -40 -50 -87 -23 -45 -19 -73 6
-52 22 18 17 -29 -7 -66 -10 -16 -26 -44 -34 -62 -22 -47 -43 -63 -81 -63 -32
0 -34 -2 -28 -27 4 -16 12 -37 19 -48 7 -11 15 -33 18 -50 9 -51 37 -128 65
-183 24 -48 33 -56 87 -78 33 -13 78 -24 100 -24 62 0 206 28 224 43 9 8 21
13 27 10 7 -2 44 7 82 21 39 13 96 28 127 31 30 4 58 11 61 16 2 5 23 13 45
19 21 6 55 24 73 41 l35 30 84 -12 85 -12 6 -39 c7 -42 35 -87 95 -150 19 -21
32 -41 28 -44 -4 -4 -68 6 -143 21 -123 25 -152 27 -278 22 -93 -3 -156 -10
-184 -20 -27 -10 -70 -16 -120 -15 -94 2 -136 -15 -208 -87 -28 -27 -62 -56
-77 -64 -23 -12 -26 -21 -31 -90 -3 -42 -11 -101 -17 -131 -7 -30 -15 -118
-19 -195 -8 -154 -27 -225 -62 -225 -10 0 -21 6 -24 14 -3 8 -16 17 -28 20
-25 6 -104 92 -129 142 -9 17 -23 36 -31 43 -8 7 -15 27 -14 44 1 33 -39 106
-58 107 -6 0 -37 24 -69 54 -48 46 -57 58 -51 78 15 50 18 100 8 121 -6 12
-22 51 -36 87 -29 77 -64 155 -116 265 -21 44 -43 99 -49 121 -6 23 -19 52
-30 65 -10 13 -22 40 -26 59 -4 19 -18 57 -31 84 -13 28 -24 57 -24 67 0 9 -7
22 -15 29 -8 7 -15 20 -15 30 0 10 -7 23 -15 30 -8 7 -15 19 -15 27 0 7 -7 16
-15 19 -8 4 -15 12 -15 19 0 7 -7 15 -15 18 -22 9 -45 72 -38 111 5 33 33 56
69 56 9 0 14 7 12 18 -2 13 5 18 29 20 50 5 89 58 97 134 5 39 3 65 -3 71 -16
16 -13 55 5 65 15 8 15 16 4 78 -7 38 -21 102 -31 143 -11 41 -19 83 -19 93 0
10 -6 18 -12 19 -19 0 -61 57 -54 74 3 8 1 17 -4 20 -6 4 -10 23 -10 44 0 23
-6 44 -16 52 -10 8 -14 23 -11 43 2 16 -4 52 -14 80 -11 28 -22 72 -25 98 -4
27 -11 51 -15 54 -14 8 -10 24 5 24 27 0 25 29 -7 92 -24 49 -32 79 -35 136
-3 50 -8 72 -17 72 -8 0 -15 18 -18 48 -4 47 -18 95 -43 143 -7 14 -15 56 -16
93 -2 37 -9 70 -14 74 -14 9 -17 172 -4 206 9 25 12 26 71 22 54 -4 70 -10
145 -61 56 -38 84 -63 84 -75 0 -13 9 -22 28 -26 15 -4 32 -10 37 -13 16 -11
90 -7 90 4 0 6 -36 44 -80 85 -203 189 -290 235 -377 196z m3617 -1427 c22 -5
78 -14 125 -20 198 -23 196 -23 227 -58 56 -65 198 -166 313 -222 25 -12 53
-25 62 -30 9 -5 51 -17 92 -28 41 -11 84 -25 95 -31 30 -16 237 -9 233 8 -3
18 43 33 104 33 60 1 74 -5 74 -30 0 -24 -38 -49 -81 -53 l-34 -3 -12 -170
c-11 -163 -28 -283 -59 -426 -8 -37 -14 -77 -14 -89 0 -12 -5 -31 -11 -42 -6
-12 -17 -55 -23 -96 -14 -88 -28 -104 -78 -83 -64 25 -192 51 -428 85 -159 24
-242 37 -305 47 -99 16 -202 29 -355 44 -258 26 -310 28 -393 17 -79 -11 -239
-30 -322 -38 -64 -7 -263 -34 -360 -50 -49 -8 -150 -23 -223 -34 -73 -10 -148
-24 -165 -29 -18 -5 -54 -15 -82 -21 -27 -6 -60 -14 -72 -17 -25 -6 -25 -6
-41 72 -6 28 -22 102 -35 165 -14 63 -29 147 -35 185 -23 147 -42 302 -42 335
0 63 -9 81 -37 74 -24 -6 -65 9 -91 34 -7 6 -18 12 -23 12 -6 0 -8 4 -5 8 4 7
105 9 149 3 4 -1 7 -10 7 -21 0 -30 43 -43 135 -42 113 2 216 19 320 52 91 28
246 103 320 153 64 44 216 179 231 207 38 69 57 82 140 92 200 25 607 29 699
7z m1623 -315 c-5 -25 -35 -41 -49 -27 -9 9 -9 16 1 28 17 21 52 20 48 -1z
m-3712 -104 c56 -24 49 -45 -11 -32 -40 8 -84 52 -52 52 8 0 37 -9 63 -20z
m3603 -19 c20 -15 51 -36 69 -45 37 -19 40 -35 12 -61 -14 -13 -20 -31 -20
-60 0 -33 6 -47 33 -72 63 -60 148 -82 193 -48 10 8 25 15 33 15 12 0 115
-104 133 -134 4 -7 3 -39 -3 -72 -5 -32 -16 -106 -24 -164 -17 -120 -32 -182
-70 -295 -29 -83 -52 -135 -61 -135 -16 0 -101 24 -111 32 -6 5 -33 13 -60 18
-45 8 -227 48 -321 70 -23 5 -55 10 -71 10 -16 0 -36 3 -45 6 -17 7 -22 39 -7
48 10 6 37 87 51 149 5 23 14 62 19 87 22 96 41 212 41 250 0 21 4 50 9 63 5
14 13 96 17 183 3 88 11 165 17 172 5 7 33 12 69 12 51 0 66 -4 97 -29z
m-3489 -66 c7 -8 10 -25 7 -36 -7 -28 9 -268 22 -334 6 -27 20 -104 31 -170
22 -128 43 -209 67 -263 8 -18 12 -39 10 -46 -3 -8 -32 -16 -68 -20 -35 -3
-77 -10 -93 -15 -17 -5 -58 -15 -91 -21 -56 -11 -141 -29 -225 -49 -19 -4 -55
-15 -80 -23 -93 -32 -107 -32 -123 -1 -13 25 -49 136 -93 285 l-17 58 27 21
c14 11 26 29 26 39 0 9 7 23 15 30 8 7 15 17 15 22 0 23 286 321 456 475 72
64 93 73 114 48z m3670 -54 c0 -5 23 -24 50 -42 28 -18 50 -33 50 -35 0 -21
-17 -34 -47 -34 -68 0 -129 53 -101 88 23 30 48 42 48 23z m-1888 -732 c12 -7
74 -15 137 -19 64 -4 129 -12 144 -19 16 -6 55 -11 88 -11 32 0 78 -4 101 -10
24 -5 81 -15 128 -21 94 -12 176 -24 290 -41 41 -6 109 -11 150 -12 96 -2 112
-11 74 -42 -16 -13 -35 -23 -42 -24 -22 0 -166 -86 -325 -194 -83 -56 -172
-116 -197 -133 -55 -37 -130 -63 -181 -63 -48 0 -55 -12 -21 -37 72 -53 208
-55 322 -5 52 23 90 38 140 57 25 9 60 23 78 31 18 8 38 14 45 14 7 0 24 6 39
14 15 8 40 17 57 21 17 4 33 11 36 16 4 5 17 9 31 9 14 0 35 5 46 11 35 19
127 39 227 49 174 18 332 -15 408 -86 34 -31 58 -32 48 -1 -23 75 -19 80 42
47 21 -11 46 -20 56 -20 10 0 19 -6 21 -12 2 -7 12 -49 22 -93 10 -44 29 -111
42 -150 13 -38 27 -86 32 -105 9 -38 25 -87 47 -137 7 -17 13 -35 13 -41 0 -5
16 -24 35 -43 41 -40 41 -41 16 -116 -10 -32 -26 -85 -35 -118 -27 -97 -48
-168 -61 -205 -7 -19 -18 -51 -24 -70 -7 -19 -17 -48 -21 -65 -13 -45 -59
-176 -75 -210 -134 -291 -142 -306 -236 -450 -126 -192 -302 -381 -449 -485
-19 -14 -51 -38 -70 -53 -43 -34 -48 -37 -84 -61 l-30 -19 -26 29 c-37 42 -68
59 -131 73 -62 13 -180 1 -233 -25 -15 -7 -51 -17 -80 -20 -30 -4 -64 -16 -84
-31 -28 -21 -55 -34 -147 -73 -11 -4 -49 -22 -85 -39 -64 -30 -69 -31 -210
-31 -112 1 -149 4 -165 15 -13 11 -32 13 -65 9 -25 -3 -64 -1 -85 6 -22 6 -65
17 -95 25 -244 59 -400 99 -427 111 -17 8 -38 14 -48 14 -9 0 -28 6 -43 14
-36 18 -142 28 -182 16 -40 -11 -74 -48 -90 -95 -13 -40 -38 -46 -67 -16 -10
10 -31 26 -48 37 -150 93 -363 279 -463 404 -20 25 -44 53 -53 62 -21 21 -133
192 -177 268 -32 57 -93 179 -119 240 -24 58 -39 93 -57 133 -9 21 -16 42 -16
48 0 6 -6 25 -13 42 -21 50 -68 188 -76 227 -5 19 -13 46 -19 60 -5 14 -18 52
-27 85 -10 33 -24 75 -31 93 -19 45 -18 55 11 82 39 37 65 96 65 148 0 26 7
103 15 172 8 69 15 166 15 217 0 87 1 93 26 112 15 12 30 21 35 21 4 0 28 14
53 31 25 17 55 29 66 27 18 -3 18 -5 -6 -51 -13 -27 -22 -53 -19 -58 5 -7 48
13 65 31 22 23 77 52 126 66 120 35 373 18 492 -32 18 -8 39 -14 47 -14 8 0
29 -6 47 -14 35 -15 59 -24 198 -76 130 -48 163 -61 185 -72 30 -16 125 -37
170 -38 52 0 113 17 148 42 38 28 34 38 -18 38 -76 0 -123 25 -368 193 -38 26
-71 47 -74 47 -3 0 -22 14 -43 30 -21 17 -41 30 -45 30 -4 0 -30 15 -58 34
-56 37 -139 76 -163 76 -16 0 -30 27 -20 37 9 9 94 22 226 33 63 6 133 15 155
21 42 11 134 23 297 38 53 5 106 14 117 20 11 6 57 11 103 12 46 0 103 6 128
13 57 17 294 20 322 5z m-2808 -801 c53 -185 107 -291 182 -353 19 -16 66 -40
102 -51 l67 -22 16 -68 c26 -108 47 -183 55 -195 4 -6 10 -25 15 -43 14 -56
59 -175 80 -210 17 -29 18 -35 4 -46 -26 -22 -189 13 -301 65 -149 70 -280
219 -344 390 -18 49 -40 164 -40 210 0 89 65 325 103 373 23 29 43 13 61 -50z
m5519 47 c9 -8 18 -28 22 -45 4 -16 11 -32 16 -35 5 -4 9 -15 9 -26 0 -11 6
-30 12 -42 12 -21 35 -134 42 -207 2 -19 -3 -59 -10 -88 -8 -29 -14 -66 -14
-82 0 -15 -6 -41 -14 -57 -8 -15 -29 -57 -46 -93 -55 -110 -119 -182 -231
-255 -105 -69 -353 -139 -374 -106 -4 7 9 49 28 94 19 45 40 98 46 117 43 123
111 368 111 398 0 32 31 52 80 52 36 0 56 7 86 29 53 38 90 83 105 128 7 21
22 56 34 78 12 22 30 66 39 98 18 58 33 69 59 42z m355 -1143 c3 -22 2 -23
-79 -20 -55 2 -84 7 -87 16 -6 19 37 31 103 29 54 -2 60 -4 63 -25z m709 11
c2 -6 0 -14 -6 -17 -12 -8 -671 -9 -679 -2 -2 3 -2 12 2 21 5 14 44 15 343 12
235 -2 338 -6 340 -14z m238 -3 c0 -12 -20 -15 -96 -18 -67 -2 -99 0 -104 8
-13 20 11 26 107 25 75 0 93 -3 93 -15z m189 12 c10 -16 -10 -30 -46 -33 -42
-4 -53 3 -45 26 7 16 81 22 91 7z m177 -18 c8 -10 5 -15 -14 -19 -37 -10 -71
-2 -75 17 -5 28 65 30 89 2z m-303 -1 c-4 -22 -22 -20 -26 1 -2 10 3 16 13 16
10 0 15 -7 13 -17z m182 -4 c0 -24 -23 -21 -28 4 -2 10 3 17 12 17 10 0 16 -9
16 -21z m-5289 -1309 c25 -16 50 -40 57 -52 6 -13 21 -77 32 -143 12 -66 25
-134 30 -151 6 -17 10 -46 10 -65 0 -19 7 -85 16 -148 14 -97 15 -126 4 -210
-7 -53 -16 -139 -20 -191 -7 -100 -23 -166 -45 -189 -19 -19 -92 -5 -106 21
-7 12 -9 40 -5 69 4 29 2 50 -4 54 -6 4 -10 -11 -10 -39 0 -48 -16 -68 -34
-45 -6 8 -22 21 -35 30 -24 15 -24 16 -27 230 -2 118 -8 239 -14 269 -6 30
-14 84 -19 120 -5 36 -14 79 -19 95 -51 154 -56 187 -38 226 18 40 62 89 96
107 14 7 36 19 50 27 33 19 30 20 81 -15z m1933 -10 c37 -22 73 -62 99 -109
15 -26 17 -37 8 -59 -25 -60 -41 -142 -47 -235 -9 -128 -21 -133 -110 -50 -36
33 -42 45 -48 93 -3 30 -15 102 -27 160 -31 158 -31 159 16 192 48 33 67 34
109 8z m-1645 -134 c13 -6 32 -27 42 -45 10 -19 25 -39 34 -43 8 -5 15 -17 15
-27 0 -10 7 -24 15 -31 8 -7 15 -20 15 -29 0 -9 5 -22 11 -28 9 -9 7 -21 -6
-50 -25 -51 -22 -169 5 -227 20 -45 38 -146 25 -146 -4 0 -23 14 -42 31 -55
48 -100 66 -124 50 -18 -10 -24 -10 -40 5 -14 13 -19 31 -19 74 0 32 -5 104
-11 161 -10 99 -19 147 -54 274 -16 55 -16 60 0 71 17 13 36 7 134 -40z m145
-42 c10 -26 7 -72 -5 -80 -16 -10 -49 36 -49 69 0 22 4 27 24 27 13 0 27 -7
30 -16z m1719 -40 c42 -39 130 -163 149 -209 9 -22 26 -65 38 -95 23 -60 35
-89 55 -135 8 -16 17 -41 20 -55 4 -14 13 -32 20 -40 7 -8 16 -30 20 -47 11
-55 13 -56 -216 98 -63 43 -133 87 -156 99 -56 29 -56 23 -8 295 8 50 17 96
20 103 7 19 28 14 58 -14z m-1823 -554 c13 -39 15 -40 57 -40 58 0 68 -23 24
-57 -31 -25 -32 -27 -25 -79 7 -62 2 -66 -55 -30 l-38 24 -29 -24 c-50 -40
-55 -34 -47 62 5 71 10 91 30 112 12 14 23 31 23 39 0 8 5 23 11 34 14 27 31
12 49 -41z m217 -216 c20 -32 11 -40 -54 -49 -56 -7 -60 -4 -44 37 5 13 12 36
16 51 l6 28 30 -22 c16 -11 37 -32 46 -45z m-749 -489 c4 -61 -4 -95 -23 -95
-24 0 -27 19 -15 86 15 76 34 80 38 9z"/>
<path d="M4456 6146 c-12 -19 -18 -71 -26 -218 -6 -106 -15 -227 -20 -268 -10
-84 -13 -412 -4 -447 4 -13 10 -23 14 -23 14 0 41 131 51 244 5 61 14 138 19
171 5 33 9 81 9 107 0 26 5 94 10 150 13 136 9 235 -13 276 -9 17 -18 32 -20
32 -2 0 -11 -11 -20 -24z"/>
<path d="M4095 6080 c-129 -15 -138 -35 -33 -74 39 -14 49 -24 64 -59 21 -51
33 -111 41 -197 3 -36 11 -72 18 -80 7 -8 20 -64 29 -125 26 -181 81 -375 106
-375 6 0 10 15 10 33 0 39 -28 293 -40 362 -14 82 -30 176 -39 235 -5 30 -13
73 -19 95 -6 22 -13 67 -17 100 -4 33 -11 68 -16 78 -10 18 -11 18 -104 7z"/>
<path d="M5584 5695 c-4 -8 -10 -15 -14 -15 -9 0 -18 -8 -126 -108 -33 -32
-77 -68 -97 -82 -20 -14 -37 -31 -37 -37 0 -7 -5 -13 -11 -13 -11 0 -161 -128
-167 -142 -2 -5 -8 -8 -13 -8 -5 0 -34 -24 -65 -52 -31 -29 -67 -62 -79 -74
-13 -12 -31 -24 -40 -28 -10 -3 -15 -9 -12 -12 9 -9 42 4 66 28 13 11 44 37
70 56 25 19 55 44 66 54 75 71 129 118 136 118 4 0 18 12 31 28 12 15 37 33
53 40 17 7 41 29 54 48 14 20 36 40 49 45 13 5 26 18 29 29 3 11 10 20 15 20
5 0 29 19 52 43 23 24 49 46 59 50 9 3 17 11 17 17 0 16 -30 12 -36 -5z"/>
<path d="M6384 5210 c-70 -15 -112 -72 -99 -132 8 -34 42 -78 61 -78 6 0 17
-7 24 -15 9 -11 32 -15 79 -15 59 0 70 3 104 31 32 26 37 36 37 73 0 49 -18
78 -68 110 -42 26 -93 36 -138 26z m96 -85 c43 -22 54 -48 30 -70 -36 -32
-122 -17 -148 26 -30 48 52 78 118 44z"/>
<path d="M2324 5181 c-56 -40 -74 -64 -80 -103 -5 -31 -2 -39 31 -71 35 -34
43 -37 97 -37 95 0 173 59 173 132 0 33 -7 46 -38 74 -32 30 -43 34 -90 34
-44 0 -62 -6 -93 -29z m136 -59 l21 -17 -20 -27 c-32 -40 -82 -53 -126 -33
-37 18 -42 30 -22 56 32 41 108 52 147 21z"/>
<path d="M2688 4079 c-22 -16 -28 -29 -28 -58 0 -61 20 -71 172 -88 73 -8 160
-21 193 -29 86 -22 185 -55 191 -65 3 -5 13 -9 23 -9 29 0 252 -115 319 -164
75 -56 119 -61 151 -20 32 41 27 72 -20 115 -23 21 -58 46 -78 56 -20 10 -55
31 -78 46 -24 15 -45 27 -48 27 -3 0 -48 20 -101 45 -52 25 -100 45 -106 45
-5 0 -22 6 -36 14 -58 29 -202 66 -363 91 -126 20 -158 19 -191 -6z"/>
<path d="M6115 4080 c-212 -35 -292 -61 -520 -166 -84 -38 -256 -143 -277
-168 -65 -78 53 -174 123 -100 13 14 33 30 44 35 11 5 43 23 70 39 47 28 121
65 190 95 82 34 103 43 135 54 80 28 182 49 285 61 170 18 172 19 189 45 23
34 20 59 -10 94 -31 37 -60 39 -229 11z"/>
<path d="M4407 3480 c-116 -37 -163 -104 -101 -145 26 -17 27 -16 73 16 39 29
55 34 101 34 46 0 62 -5 101 -34 42 -30 48 -32 68 -19 23 14 37 49 28 73 -9
22 -77 61 -137 79 -65 19 -61 19 -133 -4z"/>
<path d="M3874 2967 c-77 -86 -98 -156 -66 -217 22 -41 87 -89 120 -90 24 0
63 -17 72 -31 3 -4 7 -50 8 -101 7 -227 100 -442 223 -517 27 -17 53 -31 57
-31 4 0 23 -8 42 -18 24 -13 59 -19 109 -21 40 0 76 -3 80 -5 3 -2 35 0 71 5
164 20 298 159 355 365 21 79 46 262 39 290 -7 29 27 64 61 64 40 0 97 35 124
74 20 31 23 44 18 91 -5 45 -14 65 -51 114 -51 66 -76 80 -112 60 -19 -9 -24
-21 -24 -49 0 -29 8 -44 40 -75 50 -49 51 -80 2 -108 -27 -16 -54 -19 -160
-20 -123 -1 -222 14 -307 46 -39 14 -118 13 -175 -2 -25 -7 -70 -20 -100 -28
-37 -11 -98 -15 -186 -15 -113 0 -136 3 -172 21 -23 12 -42 26 -42 32 0 19 22
54 51 79 39 34 48 81 20 109 -31 31 -54 26 -97 -22z m708 -293 c15 -8 43 -14
62 -14 19 0 47 -5 63 -11 15 -6 60 -12 98 -14 l70 -3 3 -48 c5 -66 -33 -234
-76 -339 -22 -54 -83 -137 -118 -161 -65 -43 -104 -54 -193 -54 -129 0 -193
35 -271 146 -33 47 -90 208 -90 256 0 18 -7 60 -15 93 -25 104 -27 100 73 113
144 18 209 29 223 37 40 26 119 25 171 -1z"/>
<path d="M3478 1548 c-3 -7 -1 -24 3 -38 6 -22 7 -20 8 13 1 38 -3 47 -11 25z"/>
<path d="M3503 1389 c6 -73 27 -105 27 -42 0 55 -10 103 -23 103 -6 0 -8 -23
-4 -61z"/>
<path d="M3534 1015 c1 -151 4 -275 7 -275 14 0 19 72 19 275 0 205 -5 275
-19 275 -4 0 -7 -124 -7 -275z"/>
<path d="M2320 7548 c0 -18 18 -34 28 -24 3 4 -2 14 -11 23 -16 16 -17 16 -17
1z"/>
<path d="M6487 7553 c-4 -3 -7 -20 -7 -37 l1 -31 14 34 c8 18 15 35 15 37 0 6
-16 5 -23 -3z"/>
<path d="M1350 7390 c0 -5 7 -10 15 -10 8 0 15 5 15 10 0 6 -7 10 -15 10 -8 0
-15 -4 -15 -10z"/>
<path d="M5585 7159 c-22 -4 -62 -12 -90 -18 -153 -29 -269 -110 -327 -228
-27 -56 -34 -81 -36 -149 -6 -131 33 -218 146 -332 76 -76 181 -149 262 -183
30 -12 64 -29 75 -36 11 -7 30 -13 43 -13 13 0 35 -6 50 -13 104 -52 418 -68
566 -28 43 11 84 25 90 29 6 5 23 12 37 15 27 7 171 129 177 150 2 7 7 21 12
32 31 78 39 106 43 147 8 87 -16 165 -78 257 -27 40 -192 191 -208 191 -3 0
-25 13 -49 29 -52 34 -84 45 -93 32 -3 -6 9 -17 28 -24 18 -8 51 -31 72 -51
22 -20 45 -36 50 -36 21 0 145 -134 189 -204 27 -44 46 -114 46 -173 0 -221
-303 -375 -661 -334 -61 7 -143 22 -182 32 -259 72 -484 251 -548 436 -36 104
-17 187 61 275 57 64 177 129 265 144 22 4 46 12 54 18 8 6 69 12 148 14 73 2
133 7 133 12 0 8 -130 21 -194 19 -23 -1 -59 -5 -81 -10z"/>
<path d="M5907 7134 c-14 -15 7 -24 56 -24 30 0 47 4 42 9 -13 12 -89 24 -98
15z"/>
<path d="M6020 7096 c0 -12 10 -16 40 -16 22 0 40 5 40 10 0 6 -8 10 -17 10
-10 0 -28 3 -40 6 -17 5 -23 2 -23 -10z"/>
<path d="M3228 7072 c-49 -1 -88 -7 -88 -12 0 -6 15 -10 33 -10 137 -1 296
-25 364 -56 17 -8 34 -14 38 -14 4 0 27 -13 52 -30 24 -16 47 -30 51 -30 13 0
102 -103 102 -119 0 -10 5 -22 12 -29 7 -7 12 -42 12 -84 1 -63 -4 -82 -33
-142 -36 -73 -145 -193 -231 -253 -51 -35 -173 -93 -235 -113 -22 -7 -51 -17
-65 -23 -37 -14 -163 -36 -255 -43 -57 -5 -106 -2 -170 11 -254 48 -395 156
-411 314 -9 81 7 136 62 218 45 67 185 213 205 213 5 0 12 7 15 15 4 8 14 15
24 15 10 0 23 7 30 15 7 8 23 15 35 15 12 0 28 7 35 15 7 8 23 15 37 15 13 0
26 7 29 15 4 9 19 15 39 15 37 0 54 14 29 24 -9 3 -30 -1 -47 -9 -16 -8 -34
-15 -38 -15 -11 0 -163 -71 -169 -79 -3 -3 -23 -15 -45 -26 -21 -11 -51 -31
-65 -45 -14 -14 -38 -32 -52 -40 -27 -16 -118 -123 -118 -139 0 -5 -12 -33
-27 -63 -33 -65 -37 -154 -10 -238 10 -30 21 -66 25 -80 4 -14 34 -51 68 -81
127 -117 305 -166 554 -153 177 9 418 86 554 177 67 44 210 183 227 219 5 13
19 39 29 58 11 19 19 46 20 60 0 14 7 43 15 64 10 28 11 45 4 58 -6 10 -12 34
-14 54 -10 72 -86 186 -154 228 -83 52 -231 98 -346 108 -22 2 -79 2 -127 0z"/>
<path d="M5710 7070 c-125 -11 -222 -53 -287 -123 -49 -54 -57 -67 -73 -134
-30 -129 48 -275 204 -381 67 -45 93 -58 191 -95 164 -60 353 -60 500 1 62 25
127 78 165 135 34 50 35 55 35 142 -1 97 -10 125 -69 200 -57 73 -149 143
-236 179 -25 10 -54 22 -65 27 -49 21 -114 38 -165 44 -104 11 -125 12 -200 5z
m207 -79 c219 -43 387 -160 445 -311 20 -49 23 -96 9 -105 -5 -3 -12 -18 -16
-34 -3 -15 -20 -43 -37 -60 -125 -128 -424 -139 -645 -26 -101 52 -182 129
-221 209 -39 79 -40 101 -6 171 39 83 114 133 239 159 94 19 118 19 232 -3z"/>
<path d="M6135 7060 c3 -5 17 -10 31 -10 14 0 22 4 19 10 -3 6 -17 10 -31 10
-14 0 -22 -4 -19 -10z"/>
<path d="M1780 7040 c-11 -7 -12 -14 -4 -27 17 -27 34 -27 34 1 0 29 -10 38
-30 26z"/>
<path d="M2985 7030 c-4 -6 8 -10 29 -10 20 0 36 5 36 10 0 6 -13 10 -29 10
-17 0 -33 -4 -36 -10z"/>
<path d="M3085 6976 c-5 -2 -44 -12 -85 -21 -136 -31 -280 -112 -363 -205
-128 -143 -132 -321 -8 -433 50 -45 76 -58 176 -91 165 -54 400 -22 581 79
119 67 208 166 244 271 25 70 25 102 3 173 -20 63 -94 147 -153 174 -99 45
-116 49 -250 53 -74 2 -139 2 -145 0z m200 -75 c107 -22 158 -43 204 -83 50
-44 71 -92 71 -161 0 -49 -5 -66 -33 -110 -72 -112 -175 -182 -357 -243 -80
-27 -285 -27 -355 0 -73 29 -137 73 -165 114 -21 31 -25 48 -25 113 0 58 5 80
18 93 9 10 17 23 17 31 0 20 121 128 183 164 68 39 125 58 247 80 52 10 97 19
100 19 3 1 46 -7 95 -17z"/>
<path d="M7160 6625 c0 -14 5 -25 10 -25 6 0 10 11 10 25 0 14 -4 25 -10 25
-5 0 -10 -11 -10 -25z"/>
<path d="M1400 6371 c0 -12 5 -21 10 -21 6 0 10 6 10 14 0 8 -4 18 -10 21 -5
3 -10 -3 -10 -14z"/>
<path d="M223 6222 l-223 -2 0 -51 0 -50 618 3 c339 2 625 7 635 12 30 14 19
34 -35 60 l-53 26 -360 2 c-198 2 -460 2 -582 0z"/>
<path d="M2227 5844 c-43 -30 -75 -59 -72 -65 4 -6 -8 -7 -33 -3 -40 6 -69
-10 -38 -22 22 -9 20 -21 -5 -29 -24 -8 -49 -60 -59 -120 -3 -23 -11 -39 -18
-37 -17 3 -15 -15 3 -22 19 -7 19 -25 0 -64 -9 -16 -18 -61 -21 -99 l-6 -68
43 85 c24 47 48 88 53 92 6 4 10 46 10 94 l1 87 63 26 c51 21 70 35 94 71 16
25 43 59 59 75 31 33 37 55 17 55 -7 0 -48 -25 -91 -56z"/>
<path d="M2351 5759 c-25 -28 -55 -65 -67 -83 -24 -35 -56 -54 -62 -37 -5 16
-32 13 -32 -3 0 -7 -7 -19 -15 -26 -20 -17 -20 -60 1 -60 12 0 15 -6 9 -22 -3
-13 -10 -36 -14 -53 -5 -16 -18 -51 -31 -77 -12 -26 -20 -52 -18 -58 5 -15 37
30 83 115 20 39 51 90 68 115 111 163 147 219 147 229 0 23 -26 8 -69 -40z"/>
<path d="M0 5740 l0 -50 48 0 c26 0 90 -2 142 -5 52 -2 196 -4 320 -3 124 1
311 2 415 3 218 1 364 18 401 47 69 55 35 58 -682 58 l-644 0 0 -50z"/>
<path d="M7718 5778 c-34 -12 -35 -18 -3 -48 33 -31 115 -53 202 -54 73 -1
104 -11 62 -20 -13 -3 -68 -7 -123 -10 -76 -4 -111 -11 -153 -31 -71 -32 -70
-57 2 -67 28 -3 330 -7 673 -7 l622 -1 0 125 0 125 -627 -1 c-394 0 -638 -4
-655 -11z m582 -103 c25 -13 33 -13 62 -1 22 10 39 11 49 5 7 -5 26 -6 40 -3
18 3 28 0 32 -10 7 -19 -8 -30 -29 -22 -9 3 -88 6 -176 7 -119 0 -158 3 -150
11 11 11 70 24 120 27 13 0 36 -6 52 -14z m600 -5 c0 -17 -42 -21 -212 -19
-144 2 -176 4 -167 15 7 9 30 11 77 8 37 -3 114 -1 172 4 106 8 130 6 130 -8z
m-824 -5 c18 -13 17 -14 -18 -15 -29 0 -36 3 -32 15 8 19 25 19 50 0z"/>
<path d="M1980 5705 c0 -8 5 -15 10 -15 6 0 10 7 10 15 0 8 -4 15 -10 15 -5 0
-10 -7 -10 -15z"/>
<path d="M75 5650 c-3 -5 -22 -10 -41 -10 l-34 0 0 -50 0 -51 570 3 c566 3
570 3 591 24 28 28 13 59 -33 68 -69 13 -880 21 -964 10 -25 -4 -44 -2 -48 5
-9 14 -33 14 -41 1z"/>
<path d="M1631 5300 c-12 -7 -11 -12 10 -29 40 -34 53 -24 21 16 -12 16 -21
20 -31 13z"/>
<path d="M7336 5181 c-11 -12 -14 -21 -7 -26 18 -10 52 5 49 23 -5 23 -22 25
-42 3z"/>
<path d="M0 3080 l0 -50 48 -1 c26 -1 54 0 62 2 8 1 29 2 45 1 17 -1 154 -4
305 -6 341 -5 312 -3 308 -22 -3 -15 -39 -17 -343 -19 -187 -2 -359 -4 -382
-4 l-43 -1 0 -50 0 -50 1060 2 c823 2 1062 6 1071 15 7 7 10 15 8 18 -5 4
-155 26 -406 58 -63 8 -93 16 -93 24 0 17 -10 16 -34 -2 -11 -8 -31 -15 -44
-15 -19 0 -23 5 -20 23 3 19 11 23 55 27 49 5 103 33 107 55 0 6 -15 18 -34
27 -32 17 -94 18 -852 18 l-818 0 0 -50z m1514 -70 c5 -5 6 -13 2 -17 -8 -9
-704 -8 -713 0 -3 4 -3 12 -1 19 4 10 76 13 353 11 219 -2 352 -6 359 -13z"/>
<path d="M2235 2841 c-31 -13 -75 -62 -81 -90 -23 -115 -62 -214 -88 -224 -9
-4 -13 -13 -10 -21 9 -22 -53 -136 -100 -186 -61 -64 -76 -89 -76 -131 0 -50
26 -93 78 -125 36 -23 80 -66 122 -120 14 -19 103 -183 140 -259 60 -123 122
-160 201 -120 36 19 89 90 89 119 0 41 54 264 78 321 9 22 41 72 70 112 77
104 72 157 -22 240 -53 46 -142 175 -175 253 -13 30 -27 60 -31 65 -5 6 -11
28 -15 50 -17 92 -103 147 -180 116z m73 -148 c6 -10 13 -38 17 -63 20 -120
155 -332 231 -360 30 -12 33 -55 4 -70 -30 -16 -87 -109 -119 -195 -18 -51
-52 -243 -46 -267 12 -50 -29 -63 -52 -17 -18 38 -41 92 -47 115 -4 11 -31 62
-61 113 -56 95 -131 183 -174 204 -13 7 -29 20 -35 29 -9 14 -6 21 11 33 35
24 105 123 142 200 19 39 38 78 43 89 13 25 38 122 38 147 0 25 17 59 30 59 5
0 13 -8 18 -17z"/>
<path d="M0 2498 l0 -48 128 -1 c527 -6 1734 3 1777 13 89 19 150 59 113 73
-7 3 -464 6 -1016 7 l-1002 3 0 -47z"/>
<path d="M7363 2540 c-627 -4 -865 -8 -873 -16 -19 -19 5 -52 48 -65 28 -9
343 -13 1250 -14 l1212 -3 0 49 c0 47 -1 49 -27 49 -455 4 -911 4 -1610 0z"/>
<path d="M4428 485 c-3 -3 -36 -12 -74 -19 -101 -21 -130 -34 -219 -100 -101
-75 -133 -108 -177 -182 -31 -50 -88 -168 -88 -180 0 -2 31 -4 68 -4 l68 0 37
63 c106 179 290 287 487 287 148 0 274 -55 391 -170 42 -41 79 -82 83 -90 34
-77 52 -90 118 -90 l60 0 -7 27 c-9 41 -45 113 -56 113 -5 0 -9 6 -9 13 0 6
-14 25 -30 41 -17 16 -30 33 -30 38 0 21 -59 84 -120 129 -36 27 -69 52 -75
56 -16 13 -115 42 -195 58 -72 14 -221 21 -232 10z"/>
<path d="M4440 250 c-14 -5 -43 -14 -66 -19 -70 -18 -168 -93 -223 -170 -37
-52 -38 -61 -8 -61 13 0 32 13 47 33 42 55 94 101 135 121 22 10 49 24 60 30
11 5 67 12 125 14 87 3 115 0 163 -16 72 -26 148 -81 189 -138 25 -35 38 -44
60 -44 l29 0 -18 31 c-27 46 -118 135 -168 165 -93 54 -249 80 -325 54z"/>
</g>
</svg>
