<svg xmlns="http://www.w3.org/2000/svg" width="300" height="306" viewBox="0 0 300 306" version="1.1">
	<path fill-opacity="0.336" d="M 76 9.504 C 73.525 10.238, 69.813 10.875, 67.750 10.920 C 65.688 10.964, 64 11.450, 64 12 C 64 12.550, 63.269 13, 62.376 13 C 60.203 13, 46.291 20.016, 40.324 24.121 C 34.602 28.058, 21 41.248, 21 42.860 C 21 43.487, 20.539 44, 19.975 44 C 19.412 44, 18.505 45.013, 17.960 46.250 C 17.416 47.488, 16.093 49.850, 15.021 51.500 C 11.706 56.601, 8 64.596, 8 66.646 C 8 67.721, 7.535 69.065, 6.966 69.634 C 6.397 70.203, 5.520 72.880, 5.017 75.584 C 4.513 78.288, 3.648 82.525, 3.094 85 C 1.826 90.669, 1.832 115.697, 3.104 123 C 3.631 126.025, 4.483 131.331, 4.997 134.791 C 5.512 138.251, 6.247 141.591, 6.632 142.214 C 7.017 142.836, 7.672 144.956, 8.087 146.923 C 8.503 148.890, 9.568 152.525, 10.454 155 C 12.106 159.613, 12.622 160.787, 17.923 172.016 C 19.616 175.601, 21 179.088, 21 179.766 C 21 180.445, 21.406 181, 21.902 181 C 22.398 181, 23.275 182.350, 23.850 184 C 24.425 185.650, 25.325 187, 25.850 187 C 26.375 187, 27.292 188.238, 27.888 189.750 C 29.317 193.378, 31.207 196.312, 32.750 197.300 C 33.437 197.740, 34 198.546, 34 199.092 C 34 199.638, 34.436 200.628, 34.968 201.292 C 44.849 213.619, 52.296 221.980, 59.201 228.500 C 71.617 240.224, 74.828 243, 75.973 243 C 76.538 243, 77 243.354, 77 243.787 C 77 244.799, 86.621 252, 87.974 252 C 88.538 252, 89 252.428, 89 252.952 C 89 253.476, 91.137 255.362, 93.750 257.144 C 96.362 258.926, 98.650 260.747, 98.833 261.192 C 99.017 261.636, 99.692 262.007, 100.333 262.016 C 100.975 262.025, 103.075 263.433, 105 265.145 C 106.925 266.858, 111.425 270.622, 115 273.510 C 118.575 276.397, 127.494 284.243, 134.820 290.944 C 149.711 304.566, 147.713 304.087, 155.937 296 C 158.453 293.525, 162.278 290.150, 164.435 288.500 C 166.593 286.850, 169.178 284.712, 170.179 283.750 C 171.181 282.788, 172.412 282, 172.917 282 C 173.421 282, 173.983 281.597, 174.167 281.104 C 174.528 280.133, 188.787 268.857, 201.550 259.451 C 205.922 256.228, 210.047 253.121, 210.715 252.546 C 214.225 249.526, 215.002 249, 215.958 249 C 216.531 249, 217 248.610, 217 248.133 C 217 247.656, 218.912 246.013, 221.250 244.481 C 223.588 242.949, 225.860 241.090, 226.300 240.348 C 226.740 239.607, 227.752 239, 228.550 239 C 229.347 239, 230 238.325, 230 237.500 C 230 236.675, 230.456 236, 231.013 236 C 233.263 236, 261.498 208.156, 262.523 204.926 C 262.860 203.867, 263.491 203, 263.926 203 C 264.887 203, 272 192.442, 272 191.015 C 272 190.457, 272.399 190, 272.886 190 C 273.373 190, 274.511 188.537, 275.414 186.750 C 276.317 184.963, 277.453 182.825, 277.939 182 C 278.904 180.364, 282.430 172.730, 286.321 163.851 C 287.682 160.745, 289.125 156.709, 289.525 154.884 C 289.926 153.059, 290.594 150.876, 291.010 150.033 C 292.170 147.678, 293.937 140.196, 295.033 133 C 295.577 129.425, 296.468 125.195, 297.011 123.601 C 298.302 119.816, 298.298 77.913, 297.006 74.516 C 296.460 73.079, 295.606 69.562, 295.109 66.701 C 294.612 63.841, 293.221 59.025, 292.018 56 C 290.815 52.975, 289.571 49.600, 289.253 48.500 C 288.935 47.400, 288.389 46.275, 288.039 46 C 287.688 45.725, 285.252 42.237, 282.624 38.250 C 279.996 34.262, 277.431 31, 276.923 31 C 276.415 31, 276 30.325, 276 29.500 C 276 28.675, 275.438 27.992, 274.750 27.983 C 274.063 27.973, 272.431 26.839, 271.125 25.462 C 265.976 20.034, 251.052 13.456, 236 9.981 C 232.975 9.283, 223.300 8.523, 214.500 8.293 C 196.812 7.830, 192.819 8.592, 182 14.498 C 178.975 16.149, 175.270 18.135, 173.767 18.910 C 172.264 19.685, 170.145 21.148, 169.059 22.160 C 167.972 23.172, 166.615 24, 166.042 24 C 165.469 24, 165 24.403, 165 24.896 C 165 25.388, 162.750 27.235, 160 29 C 157.250 30.765, 155 32.612, 155 33.104 C 155 33.597, 154.518 34, 153.929 34 C 153.339 34, 152.158 34.699, 151.303 35.554 C 149.898 36.959, 149.584 36.935, 148.018 35.304 C 138.109 24.980, 117.731 13.405, 104 10.300 C 94.953 8.255, 81.500 7.872, 76 9.504 M 201.500 28.909 C 197.560 30.010, 193 31.850, 193 32.339 C 193 32.553, 194.767 33.952, 196.926 35.449 C 201.985 38.955, 204 43.312, 204 50.746 C 204 58.796, 205.405 60, 214.803 60 C 221.682 60, 222.005 60.109, 223.454 62.910 C 225.667 67.191, 223.891 71.109, 216.317 78.645 C 212.805 82.140, 210.284 85.014, 210.715 85.031 C 211.147 85.048, 214.791 85.489, 218.813 86.011 C 228.296 87.243, 233.854 90.238, 236.648 95.623 C 237.709 97.668, 237.518 98.278, 235.048 100.723 C 233.506 102.250, 231.533 104.063, 230.664 104.750 C 228.418 106.527, 210.613 106.371, 205.500 104.529 C 199.603 102.404, 186.810 102.562, 182.614 104.811 C 179.106 106.691, 175.489 109.835, 176.131 110.447 C 176.334 110.640, 178.975 110.388, 182 109.886 C 191.842 108.254, 206.408 108.384, 209.101 110.129 C 210.420 110.984, 212.738 111.988, 214.250 112.361 C 215.762 112.733, 217 113.542, 217 114.159 C 217 114.775, 217.762 115.836, 218.692 116.517 C 220.853 118.097, 221.023 126.894, 218.942 129.432 C 215.194 134.003, 206.445 141.888, 200.195 146.328 C 195.445 149.703, 194.589 151.701, 197.260 153.185 C 201.065 155.299, 210.805 154.568, 223.794 151.194 C 242.701 146.282, 248.368 147.033, 257.094 155.605 L 261.688 160.118 265.237 152.809 C 267.188 148.789, 270.021 142, 271.532 137.723 C 273.043 133.446, 274.666 129.706, 275.139 129.414 C 275.613 129.121, 276 127.544, 276 125.909 C 276 124.274, 276.743 121.263, 277.650 119.218 C 280.101 113.698, 280.129 78.876, 277.687 74.500 C 276.766 72.850, 276.010 70.525, 276.006 69.333 C 276.003 68.142, 275.663 67.017, 275.250 66.833 C 274.837 66.650, 273.150 63.863, 271.500 60.639 C 265.963 49.822, 252.486 37.497, 241.500 33.202 C 232.369 29.632, 208.199 27.039, 201.500 28.909 M 70.080 32.543 C 59.048 35.602, 37.887 48.004, 36.455 52.250 C 36.131 53.212, 35.446 54, 34.933 54 C 34.420 54, 34 54.675, 34 55.500 C 34 56.325, 33.590 57, 33.089 57 C 31.886 57, 28 65.090, 28 67.593 C 28 68.672, 27.283 70.579, 26.407 71.830 C 24.832 74.078, 24.078 77.654, 21.787 93.734 C 19.857 107.280, 23.243 129.341, 29.578 144.500 C 32.676 151.914, 37.652 161.652, 39.250 163.430 C 40.212 164.501, 41 165.967, 41 166.689 C 41 167.410, 41.395 168, 41.879 168 C 42.362 168, 43.317 169.350, 44 171 C 44.683 172.650, 45.638 174, 46.121 174 C 46.605 174, 47 174.637, 47 175.417 C 47 176.196, 47.354 176.983, 47.786 177.167 C 48.218 177.350, 49.645 179.026, 50.955 180.892 L 53.338 184.284 55.318 177.642 C 57.241 171.190, 59.353 169.150, 60.638 172.500 C 60.955 173.325, 61.786 174, 62.485 174 C 63.183 174, 64.315 174.675, 65 175.500 C 66.453 177.250, 75.398 177.560, 79.497 176.001 C 80.942 175.452, 85.222 174.715, 89.008 174.363 C 98.454 173.485, 98.828 171.974, 91.139 165.750 C 89.950 164.788, 88.617 164, 88.177 164 C 87.072 164, 83.007 158.374, 82.968 156.790 C 82.951 156.081, 82.276 154.626, 81.468 153.559 C 80.532 152.321, 80 149.295, 80 145.204 C 80 139.738, 80.442 138.136, 82.986 134.365 L 85.973 129.940 83.411 128.966 C 82.002 128.431, 80.176 127.319, 79.353 126.496 C 78.530 125.673, 77.037 125, 76.036 125 C 75.034 125, 73.955 124.325, 73.638 123.500 C 73.322 122.675, 72.536 122, 71.892 122 C 71.247 122, 70.146 121.214, 69.443 120.253 C 67.622 117.763, 69.444 116.005, 73.872 115.978 C 75.868 115.966, 79.462 115.066, 81.859 113.978 C 84.257 112.890, 86.796 112, 87.502 112 C 88.208 112, 89.045 111.325, 89.362 110.500 C 89.678 109.675, 90.626 109, 91.469 109 C 92.311 109, 93 108.518, 93 107.929 C 93 107.339, 93.760 106.102, 94.689 105.179 C 96.274 103.605, 96.196 103.483, 93.439 103.225 C 90.775 102.975, 81.217 99.263, 80 98.004 C 79.725 97.720, 77.421 95.920, 74.880 94.005 C 69.909 90.259, 65.774 85.174, 66.605 83.829 C 66.887 83.373, 70.637 83, 74.937 83 C 84.083 83, 88.677 81.389, 93.614 76.453 C 95.513 74.554, 97.502 73, 98.033 73 C 100.481 73, 96.958 60.328, 94.003 58.502 C 93.451 58.161, 93 56.773, 93 55.419 C 93 52.854, 100.814 44.480, 106.250 41.219 C 107.763 40.311, 109 39.216, 109 38.784 C 109 38.353, 109.675 38, 110.500 38 C 113.547 38, 111.869 35.248, 107.750 33.488 C 101.862 30.973, 77.911 30.372, 70.080 32.543 M 164.369 52.096 C 162.241 53.782, 158.533 57.002, 156.129 59.250 C 152.503 62.640, 151.480 63.137, 150.129 62.162 C 149.233 61.516, 147.894 60.700, 147.154 60.350 C 146.414 59.999, 144.402 58.427, 142.682 56.856 C 140.962 55.285, 139.035 54, 138.400 54 C 137.765 54, 136.685 53.325, 136 52.500 C 135.315 51.675, 134.135 51, 133.378 51 C 132.326 51, 132 52.833, 132.001 58.750 C 132.002 65.344, 132.338 66.890, 134.251 69.112 C 138.151 73.642, 144.873 76, 153.890 76 L 161.890 76 166.065 71.545 C 170.875 66.413, 173 62.725, 173 59.508 C 173 56.911, 170.466 50.406, 169.134 49.583 C 168.641 49.278, 166.497 50.409, 164.369 52.096 M 142.975 88.251 C 141.586 89.488, 139.643 91.768, 138.658 93.317 C 137.169 95.657, 137.084 96.419, 138.153 97.817 C 141.705 102.463, 142.856 103, 149.208 102.978 C 155.222 102.957, 155.710 102.764, 160.250 98.616 C 162.863 96.229, 165 94.032, 165 93.735 C 165 92.575, 150.692 86, 148.170 86.001 C 146.702 86.002, 144.364 87.014, 142.975 88.251 M 117.250 111.525 C 114.362 112.876, 112 114.435, 112 114.990 C 112 115.546, 111.325 116, 110.500 116 C 109.675 116, 109 116.675, 109 117.500 C 109 118.325, 108.544 119, 107.987 119 C 107.430 119, 106.003 120.999, 104.816 123.442 C 103.023 127.132, 102.877 128.147, 103.952 129.442 C 105.368 131.149, 112 131.609, 112 130 C 112 129.450, 112.789 129, 113.753 129 C 114.717 129, 117.722 127.425, 120.429 125.500 C 125.084 122.190, 125.795 122, 133.485 122 C 139.088 122, 142.222 122.457, 143.559 123.468 C 144.626 124.276, 146.963 124.951, 148.750 124.968 C 151.304 124.993, 152 124.587, 152 123.071 C 152 122.011, 152.588 120.548, 153.306 119.821 C 155.111 117.995, 155.943 115.516, 155.157 114.301 C 154.796 113.742, 152.305 112.320, 149.623 111.142 C 145.574 109.364, 142.858 109.006, 133.623 109.035 C 123.949 109.065, 121.816 109.390, 117.250 111.525 M 178.727 127 C 177.329 128.100, 175.693 129, 175.092 129 C 174.492 129, 174 130.350, 174 132 C 174 133.650, 174.471 135, 175.048 135 C 175.624 135, 177.138 136.125, 178.412 137.500 C 181.432 140.759, 183.499 140.655, 187.089 137.065 C 190.775 133.379, 191.810 128.953, 189.521 126.664 C 187.256 124.399, 181.818 124.569, 178.727 127 M 111.750 136.758 C 110.237 137.696, 109 138.979, 109 139.609 C 109 140.239, 108.341 141.302, 107.535 141.971 C 106.281 143.012, 106.482 143.534, 108.929 145.594 C 110.502 146.917, 112.399 147.985, 113.144 147.967 C 114.945 147.923, 117.792 145.405, 121.750 140.357 C 124.451 136.912, 124.732 136.111, 123.418 135.607 C 120.444 134.466, 114.502 135.052, 111.750 136.758 M 143.551 139.754 C 142.479 142.364, 141.248 144.950, 140.816 145.500 C 140.384 146.050, 138.898 147.915, 137.515 149.644 C 136.132 151.374, 135 153.138, 135 153.566 C 135 153.993, 134.255 155.165, 133.345 156.171 C 131.753 157.930, 132.030 157.999, 140.595 157.969 C 149.472 157.938, 163.859 156.475, 164.830 155.503 C 165.111 155.222, 164.364 153.952, 163.171 152.682 C 161.977 151.411, 161 149.838, 161 149.186 C 161 148.533, 160.594 148, 160.098 148 C 159.602 148, 158.708 146.762, 158.112 145.250 C 155.609 138.897, 151.857 134.999, 148.250 135.004 C 145.911 135.007, 145.208 135.717, 143.551 139.754 M 199.750 173.225 C 196.532 174.584, 196.215 176.979, 198.928 179.435 C 200.323 180.697, 203.155 181.308, 209.178 181.644 C 213.755 181.899, 219.454 182.604, 221.841 183.209 C 225.969 184.257, 226.158 184.463, 225.674 187.406 C 224.899 192.127, 222.631 199.430, 221.740 200.076 C 220.335 201.094, 219.004 212.414, 219.765 216.873 L 220.503 221.192 223.751 218.087 C 225.538 216.380, 227 214.788, 227 214.550 C 227 214.312, 228.912 212.112, 231.250 209.661 C 235.952 204.731, 243.990 193.996, 246.125 189.795 C 246.881 188.308, 248.677 184.933, 250.115 182.295 C 255.224 172.928, 255.868 173.504, 240.238 173.471 C 232.682 173.454, 221.100 173.131, 214.500 172.753 C 206.198 172.277, 201.653 172.423, 199.750 173.225 M 138.004 175.898 C 124.525 178.599, 127.015 182.783, 141.229 181.316 C 145.505 180.875, 147.280 181.191, 150.422 182.956 L 154.315 185.143 157.117 183.071 C 158.820 181.812, 161.443 181, 163.805 181 C 168.102 181, 171.660 178.162, 170.653 175.537 C 169.824 173.377, 149.462 173.602, 138.004 175.898 M 93.500 188.841 C 91.850 189.754, 90.275 190.731, 90 191.013 C 88.137 192.926, 79.256 196.225, 72.603 197.476 C 68.260 198.292, 64.553 199.113, 64.365 199.301 C 63.735 199.931, 74.251 213, 75.388 213 C 75.635 213, 77.630 214.723, 79.821 216.828 C 82.012 218.933, 85.311 221.395, 87.152 222.298 C 90.123 223.755, 90.628 223.770, 91.637 222.434 C 92.375 221.455, 92.483 219.803, 91.943 217.714 C 91.486 215.946, 90.672 212.757, 90.134 210.628 C 89.596 208.498, 88.670 206.270, 88.078 205.678 C 85.039 202.639, 88.939 197.998, 97.957 193.923 C 103.298 191.509, 104.236 189.732, 101.066 188.035 C 98.540 186.683, 97.132 186.833, 93.500 188.841 M 181.557 195.223 C 180.701 196.445, 180 199.270, 180 201.500 C 180 207.542, 182.164 210, 187.485 210 C 192.156 210, 194.502 208.439, 196.084 204.280 C 197.513 200.521, 197.182 198.225, 194.820 195.508 C 191.811 192.047, 183.900 191.877, 181.557 195.223 M 113.631 202.712 C 112.054 203.117, 111.840 203.892, 112.266 207.665 C 112.786 212.285, 114.961 215.218, 118.760 216.424 C 120.438 216.956, 121.387 216.325, 123.433 213.314 C 124.845 211.236, 126 208.121, 126 206.393 C 126 203.673, 125.580 203.166, 122.875 202.625 C 119.459 201.942, 116.522 201.969, 113.631 202.712 M 152.667 205.667 C 152.300 206.033, 152 207.158, 152 208.167 C 152 209.175, 151.621 210, 151.158 210 C 150.080 210, 148.012 216.859, 147.959 220.616 C 147.936 222.202, 146.924 225.506, 145.709 227.957 C 142.926 233.574, 141.846 233.891, 121.771 234.992 C 113.121 235.467, 105.541 236.166, 104.927 236.545 C 104.213 236.986, 104.949 238.274, 106.967 240.117 C 108.703 241.703, 110.340 243, 110.604 243 C 110.868 243, 111.628 243.458, 112.292 244.019 C 115.093 246.381, 117.953 248.595, 120.017 250 C 121.229 250.825, 123.620 252.785, 125.329 254.356 C 127.039 255.926, 131.349 259.289, 134.907 261.827 C 138.465 264.366, 142.482 267.469, 143.834 268.722 C 145.186 269.975, 146.944 271, 147.742 271 C 149.400 271, 155 267.879, 155 266.956 C 155 266.618, 159.275 263.465, 164.500 259.948 C 169.725 256.431, 174 253.204, 174 252.777 C 174 252.349, 174.689 252, 175.531 252 C 176.374 252, 177.322 251.325, 177.638 250.500 C 177.955 249.675, 178.643 249, 179.167 249 C 180.154 249, 188.301 243.207, 191.084 240.526 C 191.955 239.687, 192.987 239, 193.376 239 C 194.067 239, 195.457 237.964, 198.628 235.085 C 202.409 231.653, 190.529 229.759, 180.192 232.145 C 172.918 233.824, 167.788 231.126, 162.193 222.677 C 159.887 219.195, 158 215.323, 158 214.074 C 158 211.525, 155.162 205, 154.053 205 C 153.657 205, 153.033 205.300, 152.667 205.667 " stroke="none" fill="black" fill-rule="evenodd"/>
	<path fill-opacity="0.349" d="M 77 9.542 C 73.975 10.238, 70.347 10.851, 68.938 10.904 C 67.529 10.957, 64.513 11.900, 62.236 13 C 59.959 14.100, 57.645 15, 57.092 15 C 56.540 15, 53.798 16.350, 51 18 C 48.202 19.650, 45.708 21, 45.458 21 C 44.167 21, 33.977 29.127, 29.090 34.054 C 21.833 41.372, 19.147 44.583, 17.787 47.568 C 17.178 48.906, 16.301 50, 15.839 50 C 15.378 50, 15 50.830, 15 51.845 C 15 52.860, 14.100 54.505, 13 55.500 C 11.900 56.495, 10.986 58.028, 10.968 58.905 C 10.951 59.782, 10.276 61.374, 9.468 62.441 C 8.661 63.509, 8 65.331, 8 66.491 C 8 67.651, 7.539 69.061, 6.976 69.624 C 6.413 70.187, 5.514 73.089, 4.979 76.074 C 4.443 79.058, 3.574 83.525, 3.046 86 C 1.836 91.678, 1.824 114.875, 3.028 121.500 C 3.527 124.250, 4.401 129.853, 4.969 133.951 C 5.537 138.049, 6.451 141.851, 7.001 142.401 C 7.550 142.950, 8.003 144.548, 8.006 145.950 C 8.010 147.353, 8.685 149.789, 9.506 151.364 C 10.328 152.940, 11 154.854, 11 155.618 C 11 156.382, 11.900 158.686, 13 160.739 C 14.100 162.791, 15 165.265, 15 166.235 C 15 167.206, 15.450 168, 16 168 C 16.550 168, 17 168.616, 17 169.370 C 17 171.113, 24.667 185.810, 26.569 187.712 C 27.356 188.499, 28 189.608, 28 190.178 C 28 190.747, 29.350 192.917, 31 195 C 32.650 197.083, 34 199.093, 34 199.465 C 34 199.838, 34.562 200.770, 35.250 201.537 C 35.938 202.303, 36.950 203.517, 37.500 204.235 C 45.555 214.740, 73.541 243, 75.890 243 C 76.409 243, 76.983 243.399, 77.167 243.886 C 77.626 245.105, 86.796 252, 87.959 252 C 88.477 252, 89.260 252.607, 89.700 253.348 C 90.140 254.090, 92.413 255.949, 94.750 257.481 C 97.088 259.013, 99 260.656, 99 261.133 C 99 261.610, 99.563 262.007, 100.250 262.016 C 100.938 262.025, 102.925 263.262, 104.666 264.766 C 106.407 266.270, 109.247 268.625, 110.977 270 C 118.180 275.725, 120.447 277.602, 122.449 279.500 C 123.610 280.600, 129.028 285.550, 134.490 290.500 C 139.951 295.450, 145.256 300.318, 146.277 301.317 C 148.397 303.391, 148.686 303.238, 155.461 296.459 C 160.761 291.156, 171.567 282, 172.526 282 C 172.940 282, 173.779 281.353, 174.390 280.561 C 175 279.770, 183.825 272.816, 194 265.107 C 204.175 257.399, 213.044 250.621, 213.708 250.046 C 214.372 249.471, 215.385 249, 215.958 249 C 216.531 249, 217 248.611, 217 248.136 C 217 247.661, 218.905 245.973, 221.234 244.386 C 223.563 242.799, 226.698 240.263, 228.200 238.750 C 229.703 237.238, 231.111 236, 231.328 236 C 231.881 236, 242.219 226.598, 248.922 220 C 253.549 215.446, 259.459 208.897, 263.856 203.452 C 266.489 200.190, 272 191.899, 272 191.199 C 272 190.747, 272.818 189.499, 273.818 188.426 C 275.761 186.340, 285 167.703, 285 165.869 C 285 165.266, 285.831 163.136, 286.846 161.136 C 289.150 156.597, 291.608 148.820, 292.496 143.255 C 292.869 140.921, 293.585 138.757, 294.087 138.446 C 294.589 138.136, 295 136.250, 295 134.255 C 295 132.260, 295.692 127.867, 296.539 124.492 C 298.422 116.982, 298.118 78.583, 296.112 70.500 C 292.553 56.168, 289.997 49.768, 284.136 40.515 C 276.366 28.249, 266.109 20.125, 251.608 14.753 C 239.439 10.245, 231.051 8.788, 214.500 8.307 C 202.260 7.951, 198.488 8.186, 194 9.582 C 187.290 11.669, 176.056 17.147, 173.283 19.684 C 172.571 20.336, 171.091 21.154, 169.994 21.502 C 168.897 21.850, 168 22.554, 168 23.067 C 168 23.580, 167.325 24, 166.500 24 C 165.675 24, 165 24.413, 165 24.918 C 165 25.424, 163.537 26.744, 161.750 27.852 C 159.963 28.961, 157.582 30.685, 156.459 31.684 C 149.639 37.753, 150.372 37.516, 147.288 34.658 C 141.831 29.601, 138.476 26.980, 136.750 26.427 C 135.787 26.118, 135 25.446, 135 24.933 C 135 24.420, 134.325 24, 133.500 24 C 132.675 24, 132 23.654, 132 23.231 C 132 22.212, 121.907 16.714, 115 13.969 C 107.867 11.136, 92.738 7.992, 87 8.151 C 84.525 8.220, 80.025 8.846, 77 9.542 M 199.942 28.875 C 196.280 30.091, 193 31.949, 193 32.808 C 193 33.213, 194.612 34.413, 196.583 35.475 C 201.437 38.089, 204 43.386, 204 50.805 C 204 58.675, 205.479 60, 214.257 60 C 218.924 60, 221.317 60.460, 222.429 61.571 C 224.663 63.806, 224.426 69.574, 222 72 C 220.900 73.100, 220 74.262, 220 74.582 C 220 74.902, 217.680 77.364, 214.845 80.054 C 209.057 85.546, 209.103 85.610, 219.319 86.312 C 224.900 86.696, 226.991 87.363, 230.843 89.991 C 238.903 95.492, 239.016 98.584, 231.346 103.839 C 228.692 105.657, 226.787 105.998, 219.346 105.985 C 214.199 105.976, 208.827 105.367, 206.500 104.529 C 204.293 103.734, 198.800 103.068, 194.246 103.044 C 185.543 102.998, 181.923 104.198, 177.032 108.756 L 174.623 111 177.061 110.976 C 178.403 110.963, 181.300 110.522, 183.500 109.996 C 185.700 109.470, 191.607 108.994, 196.626 108.938 C 204.052 108.856, 206.660 109.249, 210.626 111.048 C 218.256 114.509, 220.200 116.971, 220.152 123.116 C 220.130 125.974, 219.711 128.580, 219.221 128.906 C 218.730 129.233, 217.918 130.225, 217.415 131.112 C 216.494 132.735, 207.911 140.215, 198.779 147.353 L 193.849 151.206 196.175 152.853 C 199.950 155.527, 210.584 154.916, 224.794 151.208 C 231.556 149.444, 238.893 148, 241.099 148 C 246.486 148, 252.660 150.987, 257.426 155.898 C 262.164 160.781, 262.019 160.911, 268.069 146.346 C 270.318 140.931, 273.023 134.575, 274.079 132.223 C 275.136 129.871, 276.003 126.721, 276.006 125.223 C 276.010 123.725, 276.757 121.150, 277.667 119.500 C 280.151 114.995, 280.183 78.885, 277.707 74.500 C 276.775 72.850, 276.010 70.514, 276.006 69.309 C 276.003 68.104, 275.638 66.894, 275.194 66.620 C 274.751 66.346, 273.078 63.507, 271.475 60.311 C 269.649 56.670, 265.561 51.512, 260.530 46.500 C 251.671 37.674, 243.785 33.116, 232.867 30.513 C 225.395 28.732, 203.634 27.649, 199.942 28.875 M 67.500 33.378 C 63.650 34.637, 58.025 36.930, 55 38.473 C 49.824 41.113, 37.858 49.615, 37.199 51.121 C 37.033 51.499, 35.788 53.089, 34.431 54.654 C 30.175 59.567, 26.631 68.484, 22.967 83.500 C 21.199 90.749, 20.642 108.519, 21.965 115.500 C 22.591 118.800, 23.481 124.096, 23.944 127.269 C 24.408 130.442, 25.261 133.609, 25.841 134.308 C 26.421 135.007, 27.329 137.361, 27.859 139.539 C 29.205 145.067, 31.273 150.260, 32.750 151.821 C 33.438 152.548, 34 153.956, 34 154.949 C 34 155.942, 34.675 157.315, 35.500 158 C 36.325 158.685, 37 159.810, 37 160.500 C 37 161.190, 37.683 162.322, 38.518 163.015 C 39.354 163.708, 40.726 165.728, 41.568 167.503 C 42.411 169.278, 43.977 171.672, 45.050 172.823 C 46.122 173.974, 47 175.385, 47 175.958 C 47 176.531, 47.348 177, 47.773 177 C 48.198 177, 49.393 178.575, 50.430 180.500 C 51.467 182.425, 52.587 184, 52.920 184 C 53.253 184, 54.363 181.075, 55.386 177.500 C 56.517 173.551, 57.788 171, 58.624 171 C 59.381 171, 60 171.406, 60 171.901 C 60 172.397, 61.601 173.747, 63.557 174.901 C 67.806 177.408, 74.687 177.608, 83.500 175.480 C 86.800 174.683, 90.770 174.024, 92.321 174.016 C 93.873 174.007, 95.818 173.325, 96.643 172.500 C 97.468 171.675, 97.661 171, 97.071 171 C 96.482 171, 96 170.325, 96 169.500 C 96 168.675, 95.362 168, 94.583 168 C 93.804 168, 93.017 167.662, 92.833 167.250 C 92.650 166.838, 90.787 165.220, 88.693 163.656 C 83.567 159.826, 80 151.949, 80 144.459 C 80 139.820, 80.543 137.986, 82.986 134.365 L 85.973 129.940 83.411 128.966 C 82.002 128.431, 80.176 127.319, 79.353 126.496 C 78.530 125.673, 77.315 125, 76.651 125 C 74.781 125, 68.794 119.120, 69.252 117.735 C 69.477 117.056, 72.156 116.228, 75.204 115.895 C 78.253 115.563, 81.804 114.550, 83.096 113.645 C 84.388 112.740, 86.259 112, 87.254 112 C 88.249 112, 89.322 111.325, 89.638 110.500 C 89.955 109.675, 90.841 109, 91.607 109 C 92.373 109, 93 108.518, 93 107.929 C 93 107.339, 93.753 106.104, 94.674 105.183 C 96.239 103.618, 96.126 103.472, 92.924 102.930 C 86.567 101.854, 77.627 96.761, 71.683 90.830 C 68.484 87.638, 66.148 84.570, 66.492 84.013 C 66.836 83.456, 70.934 83, 75.599 83 C 84.424 83, 91.398 80.733, 92.656 77.455 C 92.963 76.655, 93.616 76, 94.107 76 C 95.846 76, 99 71.968, 98.996 69.750 C 98.994 68.512, 97.646 64.800, 96 61.500 C 94.354 58.200, 93.006 54.930, 93.004 54.233 C 92.999 52.563, 101.105 44.848, 107.168 40.753 C 109.817 38.964, 111.876 36.864, 111.742 36.086 C 110.854 30.900, 80.720 29.056, 67.500 33.378 M 167.193 49.681 C 166.474 49.969, 164.861 51.171, 163.608 52.352 C 156.371 59.176, 151.926 63, 151.233 63 C 150.800 63, 148.968 61.650, 147.161 60 C 145.355 58.350, 143.454 57, 142.938 57 C 142.422 57, 142 56.580, 142 56.067 C 142 55.554, 141.008 54.820, 139.797 54.435 C 138.585 54.051, 136.978 53.121, 136.225 52.368 C 133.004 49.147, 132 50.691, 132 58.865 C 132 65.286, 132.377 67.210, 134.055 69.343 C 137.521 73.749, 144.126 76, 153.590 76 L 161.926 76 166.012 71.750 C 172.473 65.031, 174.582 58.936, 172.073 54.236 C 171.563 53.281, 170.902 51.712, 170.604 50.750 C 170.049 48.954, 169.465 48.771, 167.193 49.681 M 142.459 88.752 C 140.786 90.264, 138.783 92.764, 138.008 94.309 C 136.667 96.982, 136.757 97.267, 139.852 100.159 C 142.721 102.840, 143.808 103.200, 149.045 103.200 C 154.564 103.200, 155.341 102.901, 160.033 98.973 C 162.810 96.648, 164.921 94.263, 164.724 93.673 C 164.127 91.882, 151.703 86.013, 148.500 86.009 C 146.628 86.006, 144.356 87.038, 142.459 88.752 M 118.500 111 C 116.300 112.063, 113.938 112.947, 113.250 112.966 C 112.563 112.985, 112 113.675, 112 114.500 C 112 115.325, 111.325 116, 110.500 116 C 109.675 116, 109 116.675, 109 117.500 C 109 118.325, 108.594 119, 108.099 119 C 106.347 119, 102.852 126.274, 103.453 128.669 C 103.941 130.615, 104.686 131, 107.960 131 C 110.117 131, 112.160 130.550, 112.500 130 C 112.840 129.450, 113.936 129, 114.937 129 C 115.937 129, 117.310 128.332, 117.987 127.515 C 118.665 126.699, 121.115 125.084, 123.433 123.926 C 126.859 122.215, 128.941 121.904, 134.573 122.259 C 138.383 122.499, 143.279 123.390, 145.453 124.238 C 147.627 125.087, 149.877 125.591, 150.453 125.358 C 151.029 125.124, 152.470 122.814, 153.655 120.224 C 155.880 115.363, 155.440 112, 152.579 112 C 151.836 112, 149.940 111.328, 148.364 110.506 C 143.834 108.144, 123.725 108.476, 118.500 111 M 178.727 127 C 177.329 128.100, 175.693 129, 175.092 129 C 172.699 129, 174.077 134.098, 177.250 136.985 C 181.587 140.930, 184.081 140.778, 187.873 136.339 C 191.012 132.664, 191.396 131.775, 191.049 129 C 190.532 124.861, 183 123.639, 178.727 127 M 110.750 137.083 C 109.787 138.137, 109 139.395, 109 139.878 C 109 140.360, 108.300 141.336, 107.443 142.047 C 106.063 143.193, 106.194 143.603, 108.599 145.669 C 111.800 148.420, 113.773 148.557, 116.501 146.217 C 119.771 143.411, 124.997 136.330, 124.307 135.640 C 123.955 135.288, 121.154 135.037, 118.083 135.083 C 113.930 135.145, 112.052 135.658, 110.750 137.083 M 143.169 139.750 C 140.143 145.945, 139.034 147.817, 135.898 152.016 C 130.853 158.770, 130.131 158.393, 146.728 157.675 C 165.629 156.857, 167.296 156.310, 163.160 152.289 C 162.148 151.305, 161.018 149.825, 160.649 149 C 160.280 148.175, 159.088 146.150, 158 144.500 C 156.912 142.850, 155.708 140.845, 155.325 140.044 C 153.747 136.748, 151.390 135, 148.522 135 C 145.895 135, 145.177 135.637, 143.169 139.750 M 199.250 173.285 C 196.480 174.749, 196.368 177.118, 198.958 179.462 C 200.403 180.770, 203.614 181.451, 211.208 182.060 C 223.294 183.029, 226 183.701, 226 185.732 C 226 187.350, 223.429 195.635, 221.418 200.500 C 219.712 204.628, 218.831 213.807, 219.754 217.843 L 220.518 221.186 225.259 216.579 C 227.867 214.044, 230 211.768, 230 211.520 C 230 211.272, 231.342 209.591, 232.983 207.784 C 237.739 202.547, 238.274 201.847, 242.746 194.999 C 245.081 191.425, 247.443 187.956, 247.995 187.292 C 248.548 186.628, 249 185.417, 249 184.601 C 249 183.785, 249.457 182.836, 250.015 182.491 C 250.961 181.906, 254 175.528, 254 174.128 C 254 173.783, 248.262 173.468, 241.250 173.429 C 234.238 173.390, 222.425 173.074, 215 172.727 C 205.395 172.277, 200.851 172.438, 199.250 173.285 M 141.500 175.133 C 139.300 175.630, 135.614 176.308, 133.310 176.641 C 131.005 176.974, 128.876 177.881, 128.579 178.655 C 127.754 180.805, 132.231 182.026, 140.324 181.858 C 147.680 181.706, 153 183.064, 153 185.094 C 153 185.723, 154.545 185.059, 156.433 183.619 C 158.785 181.825, 161.099 181, 163.778 181 C 168.102 181, 171.663 178.170, 170.653 175.537 C 170.163 174.261, 167.980 174.020, 157.781 174.115 C 151.027 174.178, 143.700 174.636, 141.500 175.133 M 91.500 190.084 C 83.755 194.554, 81.001 195.608, 72.572 197.327 C 68.266 198.205, 64.512 199.154, 64.230 199.436 C 63.144 200.523, 75.212 213.861, 81.500 218.523 C 83.700 220.154, 85.725 221.759, 86 222.090 C 86.275 222.421, 87.691 222.983, 89.146 223.339 C 91.081 223.812, 91.959 223.549, 92.416 222.359 C 93.175 220.380, 92.115 214.189, 90.887 213.430 C 90.399 213.129, 90 211.964, 90 210.842 C 90 209.720, 89.255 207.233, 88.346 205.316 C 86.699 201.846, 86.705 201.817, 89.596 199.329 C 91.193 197.954, 94.782 195.747, 97.572 194.426 C 104.064 191.350, 104.337 191.030, 102.347 188.831 C 100.104 186.352, 97.431 186.661, 91.500 190.084 M 181.655 194.829 C 179.532 197.175, 179.474 204.804, 181.557 207.777 C 182.800 209.552, 184.086 210, 187.942 210 C 192.029 210, 193.030 209.604, 194.461 207.419 C 197.156 203.306, 197.519 198.578, 195.366 195.623 C 193.793 193.465, 192.700 193.058, 188.405 193.031 C 184.710 193.009, 182.855 193.503, 181.655 194.829 M 113.750 202.689 C 111.073 203.389, 111.393 210.221, 114.250 213.363 C 117.997 217.485, 120.348 217.543, 123.363 213.591 C 126.815 209.064, 127.012 203.504, 123.750 202.630 C 121.249 201.960, 116.432 201.988, 113.750 202.689 M 151.138 209.123 C 149.907 211.941, 148.670 215.654, 148.389 217.373 C 147.475 222.955, 144.883 230.852, 143.621 231.900 C 141.772 233.434, 128.192 235.292, 123.561 234.644 C 119.987 234.144, 109.077 235.304, 105.069 236.610 C 104.030 236.948, 104.527 237.888, 106.881 240.038 C 108.664 241.667, 110.498 243, 110.955 243 C 111.412 243, 112.045 243.675, 112.362 244.500 C 112.678 245.325, 113.464 246, 114.108 246 C 114.753 246, 115.779 246.626, 116.390 247.390 C 117 248.155, 122.450 252.471, 128.500 256.981 C 134.550 261.491, 140.387 265.927, 141.472 266.840 C 147.420 271.848, 148.119 272.050, 151.431 269.716 C 153.119 268.527, 155.308 266.814, 156.296 265.910 C 157.284 265.005, 159.647 263.428, 161.546 262.405 C 163.446 261.382, 165 260.198, 165 259.773 C 165 259.348, 165.445 259, 165.989 259 C 166.984 259, 169.726 256.989, 173.150 253.750 C 174.168 252.787, 175.252 252, 175.560 252 C 176.068 252, 183.770 246.484, 186.708 244.015 C 187.372 243.457, 188.362 243, 188.908 243 C 189.454 243, 190.260 242.436, 190.700 241.747 C 191.140 241.058, 193.412 239.197, 195.750 237.611 C 198.088 236.025, 200 234.355, 200 233.899 C 200 231.588, 195.288 230.753, 186.062 231.430 C 180.803 231.816, 175.400 232.100, 174.055 232.061 C 171.255 231.980, 165.017 228.058, 165.007 226.372 C 165.003 225.752, 164.354 224.709, 163.565 224.054 C 161.556 222.387, 158 215.326, 158 213.003 C 158 210.826, 154.969 204, 154.002 204 C 153.657 204, 152.368 206.305, 151.138 209.123 " stroke="none" fill="black" fill-rule="evenodd"/>
	<path fill-opacity="0.502" d="M 75.484 9.996 C 65.874 11.706, 57.046 14.762, 48.500 19.339 C 43.869 21.820, 37.651 26.159, 37.167 27.250 C 36.983 27.662, 36.431 28, 35.940 28 C 34.550 28, 22.843 40.166, 19.500 45.086 C 17.850 47.513, 16.163 49.650, 15.750 49.833 C 15.338 50.017, 15 51.003, 15 52.024 C 15 53.046, 14.551 54.160, 14.002 54.499 C 12.509 55.422, 8 65.386, 8 67.763 C 8 68.902, 7.525 69.992, 6.945 70.185 C 6.365 70.378, 5.447 73.228, 4.906 76.518 C 4.365 79.808, 3.522 84.750, 3.034 87.500 C 1.918 93.783, 1.900 112.728, 3.003 120 C 3.462 123.025, 4.303 128.696, 4.872 132.602 C 5.442 136.508, 6.320 140.783, 6.825 142.102 C 7.329 143.421, 8.509 147.200, 9.447 150.500 C 10.385 153.800, 12.018 158.164, 13.076 160.198 C 14.134 162.232, 15 164.820, 15 165.948 C 15 167.077, 15.450 168, 16 168 C 16.550 168, 17.008 168.563, 17.017 169.250 C 17.026 169.938, 18.358 172.975, 19.977 176 C 21.596 179.025, 23.416 182.616, 24.023 183.980 C 24.629 185.343, 25.458 186.693, 25.865 186.980 C 26.272 187.266, 27.678 189.300, 28.990 191.500 C 33.919 199.770, 45.541 213.884, 56.574 225 C 68.997 237.517, 75.253 243.135, 81.072 247 C 82.314 247.825, 84.156 249.288, 85.165 250.250 C 86.174 251.213, 87.274 252, 87.609 252 C 87.944 252, 89.182 252.877, 90.359 253.949 C 91.537 255.021, 96.888 259.143, 102.250 263.109 C 107.612 267.074, 112 270.697, 112 271.160 C 112 271.622, 112.563 272.008, 113.250 272.018 C 113.938 272.027, 116.793 274.165, 119.595 276.768 C 122.397 279.370, 127.786 284.200, 131.570 287.500 C 135.355 290.800, 140.319 295.435, 142.602 297.800 C 146.080 301.403, 147.179 301.993, 149.377 301.442 C 150.819 301.079, 152 300.157, 152 299.392 C 152 298.626, 152.450 298, 153.001 298 C 153.552 298, 155.855 296.088, 158.120 293.750 C 160.384 291.413, 163.251 288.825, 164.490 288 C 165.728 287.175, 168.712 284.818, 171.121 282.762 C 177.246 277.533, 181.705 274.088, 200.500 260.063 C 207.100 255.138, 213.044 250.634, 213.708 250.054 C 214.372 249.474, 215.385 249, 215.958 249 C 216.531 249, 217 248.651, 217 248.224 C 217 247.797, 219.925 245.239, 223.500 242.538 C 227.075 239.838, 230 237.262, 230 236.814 C 230 236.366, 230.435 236, 230.967 236 C 231.498 236, 233.428 234.538, 235.255 232.750 C 237.082 230.963, 240.585 227.667, 243.039 225.426 C 253.376 215.985, 272 194.017, 272 191.263 C 272 190.776, 272.788 189.505, 273.750 188.439 C 275.329 186.689, 280.147 177.315, 283.483 169.500 C 284.187 167.850, 285.716 164.350, 286.882 161.723 C 288.047 159.096, 289.003 156.171, 289.006 155.223 C 289.010 154.275, 289.611 152.353, 290.343 150.951 C 291.074 149.549, 291.968 146.249, 292.329 143.618 C 292.689 140.987, 293.325 138.309, 293.742 137.667 C 297.400 132.033, 298.857 84.106, 295.799 70 C 294.184 62.551, 292.897 58.393, 290.335 52.349 C 289.601 50.616, 289 48.908, 289 48.554 C 289 47.528, 279.262 33.377, 276.766 30.776 C 270.102 23.831, 257.959 16.334, 250.500 14.560 C 248.850 14.167, 246.150 13.267, 244.500 12.559 C 242.850 11.851, 238.350 10.681, 234.500 9.959 C 225.826 8.332, 198.272 7.531, 196.664 8.859 C 196.024 9.388, 193.700 10.156, 191.500 10.566 C 189.300 10.975, 185.925 12.302, 184 13.515 C 182.075 14.727, 178.280 16.974, 175.566 18.509 C 172.853 20.044, 165.912 24.887, 160.142 29.272 C 151.642 35.731, 149.448 36.981, 148.576 35.857 C 146.252 32.859, 132.603 23.085, 124.116 18.341 C 116.656 14.170, 109.913 11.919, 99 9.954 C 86.699 7.739, 88.188 7.736, 75.484 9.996 M 196.529 30.249 L 191.559 32.624 195.534 34.858 C 201.124 38, 204 43.413, 204 50.793 C 204 58.676, 205.475 60, 214.257 60 C 222.551 60, 224.464 61.502, 223.674 67.394 C 223.376 69.614, 222.428 71.945, 221.566 72.575 C 220.705 73.205, 220 74.233, 220 74.860 C 220 75.487, 219.325 76, 218.500 76 C 217.675 76, 217 76.488, 217 77.085 C 217 77.682, 215.425 79.565, 213.500 81.269 C 211.575 82.974, 210 84.676, 210 85.052 C 210 85.429, 213.262 85.950, 217.250 86.210 C 225.381 86.741, 231.545 89.335, 234.944 93.655 C 237.778 97.258, 237.311 98.780, 232.168 102.703 C 228.080 105.820, 227.392 106, 219.548 106 C 214.729 106, 209.469 105.371, 207 104.500 C 204.428 103.592, 199.192 103, 193.742 103 C 186.364 103, 184.127 103.376, 181.368 105.082 C 179.516 106.226, 178 107.546, 178 108.014 C 178 108.482, 177.041 109.170, 175.868 109.542 C 171.317 110.986, 176.261 111.607, 182.276 110.346 C 192.250 108.256, 205.218 108.600, 210.805 111.104 C 217.703 114.196, 220 117.249, 220 123.328 C 220 128.074, 219.715 128.620, 214.730 133.422 C 211.832 136.215, 207.020 140.525, 204.038 143 C 201.055 145.475, 197.464 148.482, 196.057 149.683 L 193.500 151.866 197.218 153.433 C 202.727 155.755, 207.956 155.373, 223.743 151.497 C 231.577 149.574, 239.550 148, 241.462 148 C 245.731 148, 251.468 150.899, 257.220 155.962 L 261.568 159.790 263.640 156.628 C 264.780 154.889, 267.372 149.199, 269.401 143.983 C 271.430 138.768, 273.745 133.022, 274.545 131.216 C 275.345 129.410, 276.003 126.935, 276.006 125.716 C 276.010 124.497, 276.755 122.150, 277.663 120.500 C 279.024 118.027, 279.331 114.160, 279.407 98.500 C 279.487 82.083, 279.231 78.684, 277.519 73.500 C 275.444 67.215, 270.141 56.560, 267.500 53.369 C 266.950 52.704, 265.600 51, 264.500 49.581 C 261.146 45.255, 250.618 37.343, 244.391 34.467 C 235.555 30.388, 228.848 29.032, 214.500 28.424 C 202.270 27.906, 201.206 28.014, 196.529 30.249 M 79.500 31.123 C 68.724 32.014, 58.591 35.467, 50.200 41.109 C 47.835 42.699, 45.693 44, 45.441 44 C 44.942 44, 39.235 48.880, 37.840 50.500 C 32.499 56.701, 31.030 58.676, 31.016 59.679 C 31.007 60.327, 30.397 61.460, 29.661 62.196 C 28.925 62.933, 28.061 64.652, 27.742 66.018 C 27.423 67.383, 26.480 70.525, 25.648 73 C 21.466 85.426, 19.711 106.371, 21.961 117 C 22.601 120.025, 23.493 125.047, 23.943 128.160 C 24.393 131.273, 25.490 134.861, 26.380 136.133 C 27.271 137.404, 28 139.433, 28 140.641 C 28 141.850, 28.653 144.112, 29.451 145.669 C 30.249 147.226, 31.866 150.525, 33.045 153 C 36.041 159.293, 36.582 160.194, 44.938 172.789 C 49.029 178.955, 52.697 184, 53.089 184 C 53.480 184, 54.331 181.787, 54.980 179.081 C 55.629 176.376, 56.717 173.402, 57.398 172.471 C 58.526 170.928, 58.937 171.059, 62.067 173.958 C 65.457 177.097, 65.599 177.131, 73.500 176.626 C 84.032 175.952, 95.595 173.813, 97.154 172.250 C 98.097 171.304, 98.109 171, 97.200 171 C 96.540 171, 96 170.325, 96 169.500 C 96 168.675, 95.550 168, 95 168 C 94.001 168, 93.236 167.423, 87.380 162.254 C 82.964 158.357, 80 151.267, 80 144.605 C 80 140.143, 80.568 138.258, 83 134.655 C 84.650 132.210, 86 129.973, 86 129.684 C 86 129.395, 84.650 128.862, 83 128.500 C 81.350 128.138, 80 127.471, 80 127.018 C 80 126.566, 78.763 125.757, 77.250 125.221 C 75.737 124.685, 73.221 123.049, 71.658 121.586 C 67.884 118.052, 69.304 116.388, 76.613 115.782 C 79.677 115.528, 82.485 114.834, 82.852 114.239 C 83.219 113.645, 84.789 112.840, 86.341 112.451 C 87.892 112.061, 89.398 111.126, 89.688 110.371 C 89.977 109.617, 90.841 109, 91.607 109 C 92.373 109, 93 108.373, 93 107.607 C 93 106.841, 93.675 105.955, 94.500 105.638 C 96.889 104.722, 96.238 103, 93.503 103 C 88.968 103, 77.731 96.854, 72.250 91.377 C 64.654 83.786, 65.017 83, 76.114 83 C 83.631 83, 85.909 82.617, 89.114 80.816 C 91.251 79.615, 93 78.040, 93 77.316 C 93 76.592, 93.450 76, 94 76 C 94.550 76, 95.952 75.048, 97.116 73.884 C 98.811 72.189, 99.125 70.966, 98.692 67.740 C 98.395 65.524, 97.780 63.439, 97.326 63.105 C 96.124 62.222, 93 56.055, 93 54.564 C 93 53.011, 101.764 44.665, 108.239 40.053 C 113.697 36.165, 113.450 35.234, 106.309 32.794 C 100.591 30.841, 90.515 30.212, 79.500 31.123 M 167.125 49.704 C 165.738 50.255, 165.254 50.656, 158.325 57.005 C 156.221 58.933, 153.734 61.108, 152.797 61.839 C 150.992 63.247, 150.777 63.150, 145.928 58.750 C 144.868 57.788, 143.588 57, 143.083 57 C 142.579 57, 142.017 56.663, 141.833 56.250 C 141.650 55.837, 139.578 54.250, 137.229 52.722 C 133.311 50.173, 132.898 50.091, 132.229 51.722 C 131.828 52.700, 131.508 56.291, 131.518 59.701 C 131.532 64.384, 132.042 66.579, 133.597 68.662 C 137.940 74.479, 149.161 77.799, 158.626 76.068 C 161.533 75.537, 163.866 74.110, 166.843 71.042 C 169.129 68.686, 171 66.138, 171 65.379 C 171 64.621, 171.398 64, 171.883 64 C 173.461 64, 173.870 58.579, 172.525 55.500 C 171.804 53.850, 170.955 51.712, 170.638 50.750 C 170.044 48.942, 169.472 48.772, 167.125 49.704 M 143.750 86.689 C 142.787 86.941, 142 87.540, 142 88.022 C 142 88.503, 140.875 90.111, 139.500 91.595 C 136.260 95.091, 136.346 97.086, 139.870 100.227 C 145.522 105.263, 153.642 104.929, 159.769 99.408 C 161.821 97.559, 163.838 96.036, 164.250 96.023 C 164.662 96.010, 164.991 95.213, 164.980 94.250 C 164.967 93.073, 162.694 91.436, 158.041 89.250 C 151.582 86.216, 148.010 85.576, 143.750 86.689 M 126.500 109.023 C 117.860 109.941, 109 114.485, 109 118 C 109 118.550, 108.438 119.011, 107.750 119.025 C 106.274 119.054, 103 125.244, 103 128.006 C 103 131.698, 106.594 132.396, 113.095 129.964 C 116.343 128.750, 119 127.406, 119 126.979 C 119 126.552, 120.814 125.256, 123.031 124.101 C 128.295 121.357, 136.683 121.337, 144.401 124.050 C 147.609 125.177, 150.459 125.875, 150.734 125.600 C 152.239 124.094, 155.720 115.434, 155.280 114.288 C 153.751 110.303, 139.311 107.662, 126.500 109.023 M 179.750 125.689 C 178.787 125.941, 178 126.533, 178 127.006 C 178 127.479, 177.100 128.151, 176 128.500 C 171.792 129.835, 173.921 135.424, 180.155 139.409 C 182.745 141.064, 182.893 141.033, 186.191 138.137 C 188.050 136.505, 190.183 134.026, 190.931 132.630 C 192.107 130.431, 192.066 129.750, 190.622 127.545 C 189.297 125.523, 188.188 125.024, 185.227 125.116 C 183.177 125.180, 180.713 125.438, 179.750 125.689 M 110.390 137.611 C 109.351 139.047, 107.867 140.885, 107.094 141.695 C 105.878 142.970, 106.068 143.495, 108.500 145.584 C 112.270 148.824, 114.587 148.628, 118.375 144.750 C 121.423 141.630, 125 136.655, 125 135.535 C 125 135.241, 122.138 135, 118.640 135 C 112.933 135, 112.086 135.268, 110.390 137.611 M 145 136.500 C 145 137.325, 144.586 138, 144.079 138 C 143.573 138, 142.869 139.319, 142.515 140.931 C 142.161 142.543, 141.225 144.398, 140.436 145.053 C 139.646 145.709, 139 146.659, 139 147.164 C 139 147.670, 138.213 148.932, 137.250 149.970 C 136.287 151.007, 134.644 153.311, 133.597 155.091 L 131.695 158.325 148.028 157.682 C 157.011 157.329, 164.755 156.645, 165.237 156.163 C 165.738 155.662, 165.099 154.050, 163.742 152.394 C 160.915 148.944, 156.059 141.583, 154.081 137.750 C 152.907 135.475, 152 135, 148.831 135 C 146.092 135, 145 135.428, 145 136.500 M 199.250 173.161 C 196.978 174.317, 196.398 176.506, 197.786 178.687 C 199.207 180.923, 204.503 182.293, 214.252 182.948 C 219.615 183.309, 224.410 184.030, 224.907 184.552 C 225.810 185.500, 223.299 197.174, 221.620 199.835 C 219.653 202.950, 218.487 212.493, 219.542 216.843 L 220.595 221.187 225.547 216.181 C 233.118 208.530, 236 205.262, 236 204.330 C 236 203.863, 236.900 202.919, 238 202.232 C 239.100 201.545, 240 200.312, 240 199.492 C 240 198.671, 240.461 198, 241.025 198 C 241.588 198, 242.495 196.988, 243.040 195.750 C 243.584 194.512, 244.910 192.150, 245.985 190.500 C 247.061 188.850, 249.494 184.363, 251.393 180.528 C 254.782 173.683, 255.185 170.772, 252.428 173.060 C 251.450 173.871, 247.516 174.036, 239.267 173.612 C 210.530 172.133, 201.472 172.031, 199.250 173.161 M 140 175.166 C 137.525 175.669, 134.033 176.338, 132.241 176.651 C 130.448 176.965, 128.710 177.660, 128.378 178.198 C 127.065 180.322, 130.435 181.423, 140.015 182.001 C 147.303 182.440, 150.475 183.047, 151.654 184.225 C 152.966 185.538, 153.676 185.623, 155.387 184.673 C 156.549 184.028, 157.860 182.938, 158.300 182.250 C 158.740 181.562, 161.068 181, 163.478 181 C 168.223 181, 171 179.127, 171 175.929 C 171 174.115, 170.213 174.007, 157.750 174.125 C 150.463 174.194, 142.475 174.662, 140 175.166 M 91.500 190.044 C 83.930 194.526, 80.354 195.905, 73.431 197.011 C 66.814 198.068, 64 198.874, 64 199.713 C 64 202.460, 81.563 220.052, 86.820 222.570 C 91.910 225.008, 93.396 223.908, 92.624 218.271 C 92.270 215.691, 91.535 213.135, 90.990 212.590 C 90.446 212.046, 90 210.768, 90 209.750 C 90 208.733, 89.369 206.680, 88.598 205.189 C 87.358 202.791, 87.395 202.230, 88.922 200.344 C 89.872 199.171, 93.091 196.985, 96.075 195.487 C 103.948 191.534, 104.381 191.078, 102.370 188.857 C 100.048 186.291, 97.340 186.587, 91.500 190.044 M 182.053 194.443 C 179.345 197.326, 179.156 205.930, 181.750 208.267 C 186.376 212.436, 193.233 211.080, 195.548 205.538 C 198.655 198.104, 196.276 193.629, 188.768 192.783 C 184.863 192.343, 183.773 192.612, 182.053 194.443 M 113.250 202.608 C 112.507 202.940, 112.003 205.058, 112.007 207.833 C 112.013 211.990, 112.375 212.746, 115.319 214.750 C 119.658 217.704, 120.447 217.605, 123.321 213.750 C 125.968 210.200, 127.131 205.830, 125.941 203.905 C 125.152 202.628, 115.429 201.635, 113.250 202.608 M 152.348 205.750 C 152.024 206.713, 150.913 209.330, 149.880 211.566 C 148.846 213.802, 148 216.937, 148 218.532 C 148 222.016, 145.140 229.922, 143.140 231.970 C 142.071 233.064, 137.845 233.619, 126.602 234.143 C 110.711 234.883, 104.898 235.806, 104.270 237.691 C 104.061 238.318, 104.773 239.111, 105.853 239.453 C 106.932 239.796, 108.068 240.734, 108.376 241.538 C 108.685 242.342, 109.578 243, 110.362 243 C 111.145 243, 112.045 243.675, 112.362 244.500 C 112.678 245.325, 113.589 246, 114.385 246 C 115.182 246, 115.983 246.403, 116.167 246.896 C 116.505 247.807, 131.061 259.368, 142.100 267.495 L 148.167 271.961 154.210 267.731 C 157.534 265.404, 161.208 262.825, 162.376 262 C 163.544 261.175, 164.650 260.163, 164.833 259.750 C 165.017 259.337, 165.574 259, 166.072 259 C 166.993 259, 169.810 256.911, 173.150 253.750 C 174.168 252.787, 175.243 252, 175.540 252 C 176.354 252, 182.451 247.611, 182.833 246.750 C 183.017 246.338, 183.818 246, 184.615 246 C 185.411 246, 186.322 245.325, 186.638 244.500 C 186.955 243.675, 187.629 243, 188.136 243 C 189.228 243, 199.360 235.153, 199.811 233.959 C 200.668 231.688, 195.251 230.740, 184.629 231.300 C 176.761 231.715, 172.771 231.513, 170.555 230.587 C 165.301 228.392, 158.026 217.507, 157.967 211.754 C 157.937 208.848, 155.181 204, 153.558 204 C 153.217 204, 152.672 204.787, 152.348 205.750 " stroke="none" fill="black" fill-rule="evenodd"/>
</svg>