<svg xmlns="http://www.w3.org/2000/svg" width="300" height="306" viewBox="0 0 300 306" version="1.1">
	<path fill-opacity="0.349" d="M 76 9.504 C 73.525 10.238, 69.813 10.875, 67.750 10.920 C 65.688 10.964, 64 11.450, 64 12 C 64 12.550, 63.269 13, 62.376 13 C 60.203 13, 46.291 20.016, 40.324 24.121 C 34.602 28.058, 21 41.248, 21 42.860 C 21 43.487, 20.539 44, 19.975 44 C 19.412 44, 18.505 45.013, 17.960 46.250 C 17.416 47.488, 16.093 49.850, 15.021 51.500 C 11.706 56.601, 8 64.596, 8 66.646 C 8 67.721, 7.535 69.065, 6.966 69.634 C 6.397 70.203, 5.520 72.880, 5.017 75.584 C 4.513 78.288, 3.648 82.525, 3.094 85 C 1.826 90.669, 1.832 115.697, 3.104 123 C 3.631 126.025, 4.483 131.331, 4.997 134.791 C 5.512 138.251, 6.247 141.591, 6.632 142.214 C 7.017 142.836, 7.672 144.956, 8.087 146.923 C 8.503 148.890, 9.568 152.525, 10.454 155 C 12.106 159.613, 12.622 160.787, 17.923 172.016 C 19.616 175.601, 21 179.088, 21 179.766 C 21 180.445, 21.406 181, 21.902 181 C 22.398 181, 23.275 182.350, 23.850 184 C 24.425 185.650, 25.325 187, 25.850 187 C 26.375 187, 27.292 188.238, 27.888 189.750 C 29.317 193.378, 31.207 196.312, 32.750 197.300 C 33.437 197.740, 34 198.546, 34 199.092 C 34 199.638, 34.436 200.628, 34.968 201.292 C 44.849 213.619, 52.296 221.980, 59.201 228.500 C 71.617 240.224, 74.828 243, 75.973 243 C 76.538 243, 77 243.354, 77 243.787 C 77 244.799, 86.621 252, 87.974 252 C 88.538 252, 89 252.428, 89 252.952 C 89 253.476, 91.137 255.362, 93.750 257.144 C 96.362 258.926, 98.650 260.747, 98.833 261.192 C 99.017 261.636, 99.692 262.007, 100.333 262.016 C 100.975 262.025, 103.075 263.433, 105 265.145 C 106.925 266.858, 111.425 270.622, 115 273.510 C 118.575 276.397, 127.494 284.243, 134.820 290.944 C 149.711 304.566, 147.713 304.087, 155.937 296 C 158.453 293.525, 162.278 290.150, 164.435 288.500 C 166.593 286.850, 169.178 284.712, 170.179 283.750 C 171.181 282.788, 172.412 282, 172.917 282 C 173.421 282, 173.983 281.597, 174.167 281.104 C 174.528 280.133, 188.787 268.857, 201.550 259.451 C 205.922 256.228, 210.047 253.121, 210.715 252.546 C 214.225 249.526, 215.002 249, 215.958 249 C 216.531 249, 217 248.610, 217 248.133 C 217 247.656, 218.912 246.013, 221.250 244.481 C 223.588 242.949, 225.860 241.090, 226.300 240.348 C 226.740 239.607, 227.752 239, 228.550 239 C 229.347 239, 230 238.325, 230 237.500 C 230 236.675, 230.456 236, 231.013 236 C 233.263 236, 261.498 208.156, 262.523 204.926 C 262.860 203.867, 263.491 203, 263.926 203 C 264.887 203, 272 192.442, 272 191.015 C 272 190.457, 272.399 190, 272.886 190 C 273.373 190, 274.511 188.537, 275.414 186.750 C 276.317 184.963, 277.453 182.825, 277.939 182 C 278.904 180.364, 282.430 172.730, 286.321 163.851 C 287.682 160.745, 289.125 156.709, 289.525 154.884 C 289.926 153.059, 290.594 150.876, 291.010 150.033 C 292.170 147.678, 293.937 140.196, 295.033 133 C 295.577 129.425, 296.468 125.195, 297.011 123.601 C 298.302 119.816, 298.298 77.913, 297.006 74.516 C 296.460 73.079, 295.606 69.562, 295.109 66.701 C 294.612 63.841, 293.221 59.025, 292.018 56 C 290.815 52.975, 289.571 49.600, 289.253 48.500 C 288.935 47.400, 288.389 46.275, 288.039 46 C 287.688 45.725, 285.252 42.237, 282.624 38.250 C 279.996 34.262, 277.431 31, 276.923 31 C 276.415 31, 276 30.325, 276 29.500 C 276 28.675, 275.438 27.992, 274.750 27.983 C 274.063 27.973, 272.431 26.839, 271.125 25.462 C 265.976 20.034, 251.052 13.456, 236 9.981 C 232.975 9.283, 223.300 8.523, 214.500 8.293 C 196.812 7.830, 192.819 8.592, 182 14.498 C 178.975 16.149, 175.270 18.135, 173.767 18.910 C 172.264 19.685, 170.145 21.148, 169.059 22.160 C 167.972 23.172, 166.615 24, 166.042 24 C 165.469 24, 165 24.403, 165 24.896 C 165 25.388, 162.750 27.235, 160 29 C 157.250 30.765, 155 32.612, 155 33.104 C 155 33.597, 154.518 34, 153.929 34 C 153.339 34, 152.158 34.699, 151.303 35.554 C 149.898 36.959, 149.584 36.935, 148.018 35.304 C 138.109 24.980, 117.731 13.405, 104 10.300 C 94.953 8.255, 81.500 7.872, 76 9.504 M 201.500 28.909 C 197.560 30.010, 193 31.850, 193 32.339 C 193 32.553, 194.767 33.952, 196.926 35.449 C 201.985 38.955, 204 43.312, 204 50.746 C 204 58.796, 205.405 60, 214.803 60 C 221.682 60, 222.005 60.109, 223.454 62.910 C 225.667 67.191, 223.891 71.109, 216.317 78.645 C 212.805 82.140, 210.284 85.014, 210.715 85.031 C 211.147 85.048, 214.791 85.489, 218.813 86.011 C 228.296 87.243, 233.854 90.238, 236.648 95.623 C 237.709 97.668, 237.518 98.278, 235.048 100.723 C 233.506 102.250, 231.533 104.063, 230.664 104.750 C 228.418 106.527, 210.613 106.371, 205.500 104.529 C 199.603 102.404, 186.810 102.562, 182.614 104.811 C 179.106 106.691, 175.489 109.835, 176.131 110.447 C 176.334 110.640, 178.975 110.388, 182 109.886 C 191.842 108.254, 206.408 108.384, 209.101 110.129 C 210.420 110.984, 212.738 111.988, 214.250 112.361 C 215.762 112.733, 217 113.542, 217 114.159 C 217 114.775, 217.762 115.836, 218.692 116.517 C 220.853 118.097, 221.023 126.894, 218.942 129.432 C 215.194 134.003, 206.445 141.888, 200.195 146.328 C 195.445 149.703, 194.589 151.701, 197.260 153.185 C 201.065 155.299, 210.805 154.568, 223.794 151.194 C 242.701 146.282, 248.368 147.033, 257.094 155.605 L 261.688 160.118 265.237 152.809 C 267.188 148.789, 270.021 142, 271.532 137.723 C 273.043 133.446, 274.666 129.706, 275.139 129.414 C 275.613 129.121, 276 127.544, 276 125.909 C 276 124.274, 276.743 121.263, 277.650 119.218 C 280.101 113.698, 280.129 78.876, 277.687 74.500 C 276.766 72.850, 276.010 70.525, 276.006 69.333 C 276.003 68.142, 275.663 67.017, 275.250 66.833 C 274.837 66.650, 273.150 63.863, 271.500 60.639 C 265.963 49.822, 252.486 37.497, 241.500 33.202 C 232.369 29.632, 208.199 27.039, 201.500 28.909 M 70.080 32.543 C 59.048 35.602, 37.887 48.004, 36.455 52.250 C 36.131 53.212, 35.446 54, 34.933 54 C 34.420 54, 34 54.675, 34 55.500 C 34 56.325, 33.590 57, 33.089 57 C 31.886 57, 28 65.090, 28 67.593 C 28 68.672, 27.283 70.579, 26.407 71.830 C 24.832 74.078, 24.078 77.654, 21.787 93.734 C 19.857 107.280, 23.243 129.341, 29.578 144.500 C 32.676 151.914, 37.652 161.652, 39.250 163.430 C 40.212 164.501, 41 165.967, 41 166.689 C 41 167.410, 41.395 168, 41.879 168 C 42.362 168, 43.317 169.350, 44 171 C 44.683 172.650, 45.638 174, 46.121 174 C 46.605 174, 47 174.637, 47 175.417 C 47 176.196, 47.354 176.983, 47.786 177.167 C 48.218 177.350, 49.645 179.026, 50.955 180.892 L 53.338 184.284 55.318 177.642 C 57.241 171.190, 59.353 169.150, 60.638 172.500 C 60.955 173.325, 61.786 174, 62.485 174 C 63.183 174, 64.315 174.675, 65 175.500 C 66.453 177.250, 75.398 177.560, 79.497 176.001 C 80.942 175.452, 85.222 174.715, 89.008 174.363 C 98.454 173.485, 98.828 171.974, 91.139 165.750 C 89.950 164.788, 88.617 164, 88.177 164 C 87.072 164, 83.007 158.374, 82.968 156.790 C 82.951 156.081, 82.276 154.626, 81.468 153.559 C 80.532 152.321, 80 149.295, 80 145.204 C 80 139.738, 80.442 138.136, 82.986 134.365 L 85.973 129.940 83.411 128.966 C 82.002 128.431, 80.176 127.319, 79.353 126.496 C 78.530 125.673, 77.037 125, 76.036 125 C 75.034 125, 73.955 124.325, 73.638 123.500 C 73.322 122.675, 72.536 122, 71.892 122 C 71.247 122, 70.146 121.214, 69.443 120.253 C 67.622 117.763, 69.444 116.005, 73.872 115.978 C 75.868 115.966, 79.462 115.066, 81.859 113.978 C 84.257 112.890, 86.796 112, 87.502 112 C 88.208 112, 89.045 111.325, 89.362 110.500 C 89.678 109.675, 90.626 109, 91.469 109 C 92.311 109, 93 108.518, 93 107.929 C 93 107.339, 93.760 106.102, 94.689 105.179 C 96.274 103.605, 96.196 103.483, 93.439 103.225 C 90.775 102.975, 81.217 99.263, 80 98.004 C 79.725 97.720, 77.421 95.920, 74.880 94.005 C 69.909 90.259, 65.774 85.174, 66.605 83.829 C 66.887 83.373, 70.637 83, 74.937 83 C 84.083 83, 88.677 81.389, 93.614 76.453 C 95.513 74.554, 97.502 73, 98.033 73 C 100.481 73, 96.958 60.328, 94.003 58.502 C 93.451 58.161, 93 56.773, 93 55.419 C 93 52.854, 100.814 44.480, 106.250 41.219 C 107.763 40.311, 109 39.216, 109 38.784 C 109 38.353, 109.675 38, 110.500 38 C 113.547 38, 111.869 35.248, 107.750 33.488 C 101.862 30.973, 77.911 30.372, 70.080 32.543 M 164.369 52.096 C 162.241 53.782, 158.533 57.002, 156.129 59.250 C 152.503 62.640, 151.480 63.137, 150.129 62.162 C 149.233 61.516, 147.894 60.700, 147.154 60.350 C 146.414 59.999, 144.402 58.427, 142.682 56.856 C 140.962 55.285, 139.035 54, 138.400 54 C 137.765 54, 136.685 53.325, 136 52.500 C 135.315 51.675, 134.135 51, 133.378 51 C 132.326 51, 132 52.833, 132.001 58.750 C 132.002 65.344, 132.338 66.890, 134.251 69.112 C 138.151 73.642, 144.873 76, 153.890 76 L 161.890 76 166.065 71.545 C 170.875 66.413, 173 62.725, 173 59.508 C 173 56.911, 170.466 50.406, 169.134 49.583 C 168.641 49.278, 166.497 50.409, 164.369 52.096 M 142.975 88.251 C 141.586 89.488, 139.643 91.768, 138.658 93.317 C 137.169 95.657, 137.084 96.419, 138.153 97.817 C 141.705 102.463, 142.856 103, 149.208 102.978 C 155.222 102.957, 155.710 102.764, 160.250 98.616 C 162.863 96.229, 165 94.032, 165 93.735 C 165 92.575, 150.692 86, 148.170 86.001 C 146.702 86.002, 144.364 87.014, 142.975 88.251 M 117.250 111.525 C 114.362 112.876, 112 114.435, 112 114.990 C 112 115.546, 111.325 116, 110.500 116 C 109.675 116, 109 116.675, 109 117.500 C 109 118.325, 108.544 119, 107.987 119 C 107.430 119, 106.003 120.999, 104.816 123.442 C 103.023 127.132, 102.877 128.147, 103.952 129.442 C 105.368 131.149, 112 131.609, 112 130 C 112 129.450, 112.789 129, 113.753 129 C 114.717 129, 117.722 127.425, 120.429 125.500 C 125.084 122.190, 125.795 122, 133.485 122 C 139.088 122, 142.222 122.457, 143.559 123.468 C 144.626 124.276, 146.963 124.951, 148.750 124.968 C 151.304 124.993, 152 124.587, 152 123.071 C 152 122.011, 152.588 120.548, 153.306 119.821 C 155.111 117.995, 155.943 115.516, 155.157 114.301 C 154.796 113.742, 152.305 112.320, 149.623 111.142 C 145.574 109.364, 142.858 109.006, 133.623 109.035 C 123.949 109.065, 121.816 109.390, 117.250 111.525 M 178.727 127 C 177.329 128.100, 175.693 129, 175.092 129 C 174.492 129, 174 130.350, 174 132 C 174 133.650, 174.471 135, 175.048 135 C 175.624 135, 177.138 136.125, 178.412 137.500 C 181.432 140.759, 183.499 140.655, 187.089 137.065 C 190.775 133.379, 191.810 128.953, 189.521 126.664 C 187.256 124.399, 181.818 124.569, 178.727 127 M 111.750 136.758 C 110.237 137.696, 109 138.979, 109 139.609 C 109 140.239, 108.341 141.302, 107.535 141.971 C 106.281 143.012, 106.482 143.534, 108.929 145.594 C 110.502 146.917, 112.399 147.985, 113.144 147.967 C 114.945 147.923, 117.792 145.405, 121.750 140.357 C 124.451 136.912, 124.732 136.111, 123.418 135.607 C 120.444 134.466, 114.502 135.052, 111.750 136.758 M 143.551 139.754 C 142.479 142.364, 141.248 144.950, 140.816 145.500 C 140.384 146.050, 138.898 147.915, 137.515 149.644 C 136.132 151.374, 135 153.138, 135 153.566 C 135 153.993, 134.255 155.165, 133.345 156.171 C 131.753 157.930, 132.030 157.999, 140.595 157.969 C 149.472 157.938, 163.859 156.475, 164.830 155.503 C 165.111 155.222, 164.364 153.952, 163.171 152.682 C 161.977 151.411, 161 149.838, 161 149.186 C 161 148.533, 160.594 148, 160.098 148 C 159.602 148, 158.708 146.762, 158.112 145.250 C 155.609 138.897, 151.857 134.999, 148.250 135.004 C 145.911 135.007, 145.208 135.717, 143.551 139.754 M 199.750 173.225 C 196.532 174.584, 196.215 176.979, 198.928 179.435 C 200.323 180.697, 203.155 181.308, 209.178 181.644 C 213.755 181.899, 219.454 182.604, 221.841 183.209 C 225.969 184.257, 226.158 184.463, 225.674 187.406 C 224.899 192.127, 222.631 199.430, 221.740 200.076 C 220.335 201.094, 219.004 212.414, 219.765 216.873 L 220.503 221.192 223.751 218.087 C 225.538 216.380, 227 214.788, 227 214.550 C 227 214.312, 228.912 212.112, 231.250 209.661 C 235.952 204.731, 243.990 193.996, 246.125 189.795 C 246.881 188.308, 248.677 184.933, 250.115 182.295 C 255.224 172.928, 255.868 173.504, 240.238 173.471 C 232.682 173.454, 221.100 173.131, 214.500 172.753 C 206.198 172.277, 201.653 172.423, 199.750 173.225 M 138.004 175.898 C 124.525 178.599, 127.015 182.783, 141.229 181.316 C 145.505 180.875, 147.280 181.191, 150.422 182.956 L 154.315 185.143 157.117 183.071 C 158.820 181.812, 161.443 181, 163.805 181 C 168.102 181, 171.660 178.162, 170.653 175.537 C 169.824 173.377, 149.462 173.602, 138.004 175.898 M 93.500 188.841 C 91.850 189.754, 90.275 190.731, 90 191.013 C 88.137 192.926, 79.256 196.225, 72.603 197.476 C 68.260 198.292, 64.553 199.113, 64.365 199.301 C 63.735 199.931, 74.251 213, 75.388 213 C 75.635 213, 77.630 214.723, 79.821 216.828 C 82.012 218.933, 85.311 221.395, 87.152 222.298 C 90.123 223.755, 90.628 223.770, 91.637 222.434 C 92.375 221.455, 92.483 219.803, 91.943 217.714 C 91.486 215.946, 90.672 212.757, 90.134 210.628 C 89.596 208.498, 88.670 206.270, 88.078 205.678 C 85.039 202.639, 88.939 197.998, 97.957 193.923 C 103.298 191.509, 104.236 189.732, 101.066 188.035 C 98.540 186.683, 97.132 186.833, 93.500 188.841 M 181.557 195.223 C 180.701 196.445, 180 199.270, 180 201.500 C 180 207.542, 182.164 210, 187.485 210 C 192.156 210, 194.502 208.439, 196.084 204.280 C 197.513 200.521, 197.182 198.225, 194.820 195.508 C 191.811 192.047, 183.900 191.877, 181.557 195.223 M 113.631 202.712 C 112.054 203.117, 111.840 203.892, 112.266 207.665 C 112.786 212.285, 114.961 215.218, 118.760 216.424 C 120.438 216.956, 121.387 216.325, 123.433 213.314 C 124.845 211.236, 126 208.121, 126 206.393 C 126 203.673, 125.580 203.166, 122.875 202.625 C 119.459 201.942, 116.522 201.969, 113.631 202.712 M 152.667 205.667 C 152.300 206.033, 152 207.158, 152 208.167 C 152 209.175, 151.621 210, 151.158 210 C 150.080 210, 148.012 216.859, 147.959 220.616 C 147.936 222.202, 146.924 225.506, 145.709 227.957 C 142.926 233.574, 141.846 233.891, 121.771 234.992 C 113.121 235.467, 105.541 236.166, 104.927 236.545 C 104.213 236.986, 104.949 238.274, 106.967 240.117 C 108.703 241.703, 110.340 243, 110.604 243 C 110.868 243, 111.628 243.458, 112.292 244.019 C 115.093 246.381, 117.953 248.595, 120.017 250 C 121.229 250.825, 123.620 252.785, 125.329 254.356 C 127.039 255.926, 131.349 259.289, 134.907 261.827 C 138.465 264.366, 142.482 267.469, 143.834 268.722 C 145.186 269.975, 146.944 271, 147.742 271 C 149.400 271, 155 267.879, 155 266.956 C 155 266.618, 159.275 263.465, 164.500 259.948 C 169.725 256.431, 174 253.204, 174 252.777 C 174 252.349, 174.689 252, 175.531 252 C 176.374 252, 177.322 251.325, 177.638 250.500 C 177.955 249.675, 178.643 249, 179.167 249 C 180.154 249, 188.301 243.207, 191.084 240.526 C 191.955 239.687, 192.987 239, 193.376 239 C 194.067 239, 195.457 237.964, 198.628 235.085 C 202.409 231.653, 190.529 229.759, 180.192 232.145 C 172.918 233.824, 167.788 231.126, 162.193 222.677 C 159.887 219.195, 158 215.323, 158 214.074 C 158 211.525, 155.162 205, 154.053 205 C 153.657 205, 153.033 205.300, 152.667 205.667 " stroke="none" fill="black" fill-rule="evenodd"/>
	<path fill-opacity="0.437" d="M 75 9.763 C 66.804 11.385, 58.533 14.124, 52.858 17.098 C 50.855 18.148, 48.149 19.567, 46.844 20.253 C 43.490 22.016, 37.563 26.279, 37.167 27.214 C 36.983 27.646, 36.443 28, 35.966 28 C 34.062 28, 19.620 43.546, 17.787 47.568 C 17.178 48.906, 16.301 50, 15.839 50 C 15.378 50, 15 50.830, 15 51.845 C 15 52.860, 14.100 54.505, 13 55.500 C 11.900 56.495, 10.986 58.028, 10.968 58.905 C 10.951 59.782, 10.276 61.374, 9.468 62.441 C 8.661 63.509, 8 65.331, 8 66.491 C 8 67.651, 7.539 69.061, 6.976 69.624 C 6.413 70.187, 5.514 73.089, 4.979 76.074 C 4.443 79.058, 3.574 83.525, 3.046 86 C 1.836 91.678, 1.824 114.875, 3.028 121.500 C 3.527 124.250, 4.401 129.853, 4.969 133.951 C 5.537 138.049, 6.451 141.851, 7.001 142.401 C 7.550 142.950, 8.003 144.548, 8.006 145.950 C 8.010 147.353, 8.685 149.789, 9.506 151.364 C 10.328 152.940, 11 154.854, 11 155.618 C 11 156.382, 11.900 158.686, 13 160.739 C 14.100 162.791, 15 165.265, 15 166.235 C 15 167.206, 15.414 168, 15.921 168 C 16.427 168, 17.128 169.238, 17.479 170.750 C 17.829 172.262, 19.216 175.300, 20.559 177.500 C 21.903 179.700, 23.496 182.738, 24.099 184.250 C 24.702 185.763, 25.571 187, 26.030 187 C 26.490 187, 27.181 188.012, 27.567 189.250 C 27.954 190.487, 28.552 191.725, 28.898 192 C 29.244 192.275, 31.321 195.190, 33.514 198.477 C 35.706 201.764, 38.850 206.039, 40.500 207.977 C 44.895 213.139, 62.944 231.889, 66.937 235.442 C 68.828 237.124, 71.354 239.513, 72.552 240.750 C 73.750 241.988, 75.203 243, 75.781 243 C 76.360 243, 76.983 243.399, 77.167 243.886 C 77.626 245.105, 86.796 252, 87.959 252 C 88.477 252, 89.260 252.607, 89.700 253.348 C 90.140 254.090, 92.413 255.949, 94.750 257.481 C 97.088 259.013, 99 260.656, 99 261.133 C 99 261.610, 99.563 262.007, 100.250 262.016 C 100.938 262.025, 102.925 263.262, 104.666 264.766 C 106.407 266.270, 109.247 268.625, 110.977 270 C 118.172 275.718, 120.447 277.602, 122.452 279.500 C 123.614 280.600, 126.800 283.489, 129.532 285.920 C 132.265 288.352, 137.566 293.221, 141.312 296.741 C 148.925 303.893, 148.014 303.911, 155.461 296.459 C 160.761 291.156, 171.567 282, 172.526 282 C 172.940 282, 173.779 281.353, 174.390 280.561 C 175 279.770, 183.825 272.816, 194 265.107 C 204.175 257.399, 213.044 250.621, 213.708 250.046 C 214.372 249.471, 215.385 249, 215.958 249 C 216.531 249, 217 248.611, 217 248.136 C 217 247.661, 218.905 245.973, 221.234 244.386 C 223.563 242.799, 226.698 240.263, 228.200 238.750 C 229.703 237.238, 231.111 236, 231.328 236 C 233.233 236, 258.154 211.040, 263.778 203.500 C 267.939 197.922, 272 191.840, 272 191.186 C 272 190.741, 272.818 189.499, 273.818 188.426 C 275.761 186.340, 285 167.703, 285 165.869 C 285 165.266, 285.831 163.136, 286.846 161.136 C 289.150 156.597, 291.608 148.820, 292.496 143.255 C 292.869 140.921, 293.585 138.757, 294.087 138.446 C 294.589 138.136, 295 136.250, 295 134.255 C 295 132.260, 295.692 127.867, 296.539 124.492 C 298.422 116.982, 298.118 78.583, 296.112 70.500 C 292.553 56.168, 289.997 49.768, 284.136 40.515 C 276.366 28.249, 266.109 20.125, 251.608 14.753 C 239.439 10.245, 231.051 8.788, 214.500 8.307 C 199.531 7.872, 193.238 8.768, 186.500 12.296 C 185.400 12.872, 182.250 14.497, 179.500 15.907 C 176.750 17.317, 173.935 19.011, 173.244 19.670 C 172.553 20.329, 171.091 21.154, 169.994 21.502 C 168.897 21.850, 168 22.554, 168 23.067 C 168 23.580, 167.325 24, 166.500 24 C 165.675 24, 165 24.413, 165 24.918 C 165 25.424, 163.537 26.744, 161.750 27.852 C 159.963 28.961, 157.582 30.685, 156.459 31.684 C 149.639 37.753, 150.372 37.516, 147.288 34.658 C 141.831 29.601, 138.476 26.980, 136.750 26.427 C 135.787 26.118, 135 25.446, 135 24.933 C 135 24.420, 134.325 24, 133.500 24 C 132.675 24, 132 23.654, 132 23.231 C 132 22.218, 121.942 16.731, 115 13.957 C 108.319 11.287, 91.989 7.956, 86.500 8.143 C 84.300 8.218, 79.125 8.947, 75 9.763 M 199.942 28.875 C 196.280 30.091, 193 31.949, 193 32.808 C 193 33.213, 194.612 34.413, 196.583 35.475 C 201.437 38.089, 204 43.386, 204 50.805 C 204 58.675, 205.479 60, 214.257 60 C 218.924 60, 221.317 60.460, 222.429 61.571 C 224.663 63.806, 224.426 69.574, 222 72 C 220.900 73.100, 220 74.262, 220 74.582 C 220 74.902, 217.680 77.364, 214.845 80.054 C 209.057 85.546, 209.103 85.610, 219.319 86.312 C 224.900 86.696, 226.991 87.363, 230.843 89.991 C 233.430 91.757, 236.057 94.283, 236.681 95.603 C 237.714 97.793, 237.405 98.354, 233.157 101.995 L 228.500 105.987 219.500 105.978 C 214.203 105.973, 208.854 105.377, 206.500 104.529 C 204.293 103.734, 198.800 103.068, 194.246 103.044 C 185.475 102.997, 181.844 104.221, 176.970 108.866 L 174.500 111.220 178.500 110.592 C 180.700 110.247, 187.697 109.696, 194.050 109.366 C 204.628 108.818, 206.016 108.957, 210.550 111.022 C 218.487 114.635, 219.963 116.548, 219.983 123.250 C 219.992 126.412, 219.619 129, 219.153 129 C 218.687 129, 217.899 129.844, 217.403 130.876 C 216.528 132.694, 208.908 139.436, 198.779 147.353 L 193.849 151.206 196.175 152.853 C 199.972 155.542, 211.467 154.871, 225.160 151.160 C 231.573 149.422, 238.645 148, 240.876 148 C 246.338 148, 251.556 150.506, 257.149 155.813 L 261.798 160.226 265.783 151.837 C 267.975 147.224, 270.502 141.288, 271.399 138.647 C 272.295 136.006, 273.635 132.642, 274.375 131.172 C 275.116 129.702, 276.029 126.497, 276.405 124.050 C 276.780 121.602, 277.622 118.955, 278.275 118.169 C 279.105 117.169, 279.453 110.832, 279.432 97.119 C 279.406 80.565, 279.136 77.031, 277.707 74.500 C 276.775 72.850, 276.010 70.514, 276.006 69.309 C 276.003 68.104, 275.638 66.894, 275.194 66.620 C 274.751 66.346, 273.078 63.507, 271.475 60.311 C 269.649 56.670, 265.561 51.512, 260.530 46.500 C 251.671 37.674, 243.785 33.116, 232.867 30.513 C 225.395 28.732, 203.634 27.649, 199.942 28.875 M 67.500 33.378 C 63.650 34.637, 58.025 36.930, 55 38.473 C 49.824 41.113, 37.858 49.615, 37.199 51.121 C 37.033 51.499, 35.788 53.089, 34.431 54.654 C 30.175 59.567, 26.631 68.484, 22.967 83.500 C 21.199 90.749, 20.642 108.519, 21.965 115.500 C 22.591 118.800, 23.481 124.096, 23.944 127.269 C 24.408 130.442, 25.261 133.609, 25.841 134.308 C 26.421 135.007, 27.329 137.361, 27.859 139.539 C 29.205 145.067, 31.273 150.260, 32.750 151.821 C 33.438 152.548, 34 153.956, 34 154.949 C 34 155.942, 34.675 157.315, 35.500 158 C 36.325 158.685, 37 159.810, 37 160.500 C 37 161.190, 37.683 162.322, 38.518 163.015 C 39.354 163.708, 40.726 165.728, 41.568 167.503 C 42.411 169.278, 43.977 171.672, 45.050 172.823 C 46.122 173.974, 47 175.385, 47 175.958 C 47 176.531, 47.348 177, 47.773 177 C 48.198 177, 49.393 178.575, 50.430 180.500 C 51.467 182.425, 52.627 184, 53.009 184 C 53.391 184, 54.495 181.075, 55.463 177.500 C 56.555 173.464, 57.749 171, 58.611 171 C 59.375 171, 60 171.406, 60 171.901 C 60 172.397, 61.601 173.747, 63.557 174.901 C 67.870 177.446, 75.337 177.668, 83.661 175.500 C 86.829 174.675, 90.708 174, 92.282 174 C 93.855 174, 95.818 173.325, 96.643 172.500 C 97.468 171.675, 97.661 171, 97.071 171 C 96.482 171, 96 170.325, 96 169.500 C 96 168.675, 95.362 168, 94.583 168 C 93.804 168, 93.017 167.662, 92.833 167.250 C 92.650 166.838, 90.787 165.220, 88.693 163.656 C 83.567 159.826, 80 151.949, 80 144.459 C 80 139.820, 80.543 137.986, 82.986 134.365 L 85.973 129.940 83.411 128.966 C 82.002 128.431, 80.176 127.319, 79.353 126.496 C 78.530 125.673, 77.315 125, 76.651 125 C 74.781 125, 68.794 119.120, 69.252 117.735 C 69.477 117.056, 72.156 116.228, 75.204 115.895 C 78.253 115.563, 81.804 114.550, 83.096 113.645 C 84.388 112.740, 86.259 112, 87.254 112 C 88.249 112, 89.322 111.325, 89.638 110.500 C 89.955 109.675, 90.841 109, 91.607 109 C 92.373 109, 93 108.518, 93 107.929 C 93 107.339, 93.753 106.104, 94.674 105.183 C 96.239 103.618, 96.126 103.472, 92.924 102.930 C 86.567 101.854, 77.627 96.761, 71.683 90.830 C 68.484 87.638, 66.148 84.570, 66.492 84.013 C 66.836 83.456, 70.934 83, 75.599 83 C 84.424 83, 91.398 80.733, 92.656 77.455 C 92.963 76.655, 93.616 76, 94.107 76 C 95.934 76, 99 71.915, 99 69.481 C 99 68.096, 97.650 64.432, 96 61.340 C 94.350 58.248, 93 55.181, 93 54.524 C 93 52.733, 101.118 44.851, 107.462 40.481 C 111.943 37.395, 112.802 36.385, 111.778 35.407 C 106.564 30.425, 80.223 29.218, 67.500 33.378 M 167.193 49.681 C 166.474 49.969, 164.861 51.171, 163.608 52.352 C 156.371 59.176, 151.926 63, 151.233 63 C 150.800 63, 148.968 61.650, 147.161 60 C 145.355 58.350, 143.454 57, 142.938 57 C 142.422 57, 142 56.580, 142 56.067 C 142 55.554, 141.008 54.820, 139.797 54.435 C 138.585 54.051, 136.978 53.121, 136.225 52.368 C 133.004 49.147, 132 50.691, 132 58.865 C 132 65.286, 132.377 67.210, 134.055 69.343 C 137.521 73.749, 144.126 76, 153.590 76 L 161.926 76 166.012 71.750 C 172.473 65.031, 174.582 58.936, 172.073 54.236 C 171.563 53.281, 170.902 51.712, 170.604 50.750 C 170.049 48.954, 169.465 48.771, 167.193 49.681 M 142.459 88.752 C 140.786 90.264, 138.783 92.764, 138.008 94.309 C 136.667 96.982, 136.757 97.267, 139.852 100.159 C 142.731 102.850, 143.798 103.200, 149.128 103.200 C 154.691 103.200, 155.507 102.898, 159.825 99.238 C 162.396 97.058, 164.500 94.689, 164.500 93.972 C 164.500 92.159, 152.153 86.014, 148.500 86.009 C 146.628 86.006, 144.356 87.038, 142.459 88.752 M 119.473 110.351 C 118.388 111.094, 116.263 112.002, 114.750 112.370 C 113.237 112.737, 112 113.705, 112 114.519 C 112 115.334, 111.325 116, 110.500 116 C 109.675 116, 109 116.675, 109 117.500 C 109 118.325, 108.594 119, 108.099 119 C 106.347 119, 102.852 126.274, 103.453 128.669 C 103.921 130.532, 104.713 131, 107.397 131 C 110.900 131, 117.453 128.694, 118.427 127.119 C 118.736 126.617, 120.806 125.261, 123.026 124.104 C 127.795 121.617, 138.537 121.213, 142.800 123.360 C 144.285 124.107, 146.703 125.007, 148.174 125.360 C 150.623 125.946, 151.056 125.560, 153.334 120.767 C 155.980 115.199, 155.577 112.031, 152.215 111.968 C 151.272 111.951, 149.626 111.276, 148.559 110.468 C 145.899 108.456, 122.378 108.361, 119.473 110.351 M 178.727 127 C 177.329 128.100, 175.693 129, 175.092 129 C 172.699 129, 174.077 134.098, 177.250 136.985 C 181.587 140.930, 184.081 140.778, 187.873 136.339 C 191.012 132.664, 191.396 131.775, 191.049 129 C 190.532 124.861, 183 123.639, 178.727 127 M 110.722 137.011 C 109.775 138.118, 109 139.413, 109 139.889 C 109 140.365, 108.300 141.336, 107.443 142.047 C 106.063 143.193, 106.194 143.603, 108.599 145.669 C 111.800 148.420, 113.773 148.557, 116.501 146.217 C 119.771 143.411, 124.997 136.330, 124.307 135.640 C 123.955 135.288, 121.142 135, 118.056 135 C 113.671 135, 112.068 135.440, 110.722 137.011 M 143.169 139.750 C 140.147 145.938, 139.143 147.599, 135.163 153 L 131.847 157.500 139.173 157.768 C 149.508 158.147, 164.257 156.744, 164.723 155.339 C 164.934 154.700, 164.255 153.350, 163.214 152.339 C 162.172 151.328, 161.018 149.825, 160.649 149 C 160.280 148.175, 159.088 146.150, 158 144.500 C 156.912 142.850, 155.708 140.845, 155.325 140.044 C 153.747 136.748, 151.390 135, 148.522 135 C 145.895 135, 145.177 135.637, 143.169 139.750 M 199.250 173.288 C 196.480 174.748, 196.368 177.118, 198.958 179.462 C 200.403 180.770, 203.614 181.451, 211.208 182.060 C 223.294 183.029, 226 183.701, 226 185.732 C 226 187.350, 223.429 195.635, 221.418 200.500 C 219.712 204.628, 218.831 213.807, 219.754 217.843 L 220.518 221.186 225.259 216.579 C 227.867 214.044, 230.019 211.640, 230.042 211.235 C 230.066 210.831, 231.416 209.396, 233.042 208.047 C 234.669 206.698, 236 205.160, 236 204.631 C 236 204.101, 236.687 202.955, 237.526 202.084 C 240.500 198.997, 245.718 191.468, 246.421 189.250 C 246.814 188.012, 247.554 187, 248.067 187 C 248.580 187, 249 186.190, 249 185.200 C 249 184.210, 249.508 182.892, 250.128 182.272 C 250.748 181.652, 252.026 179.424, 252.968 177.322 L 254.680 173.500 241.590 173.418 C 234.391 173.373, 222.425 173.058, 215 172.719 C 205.442 172.282, 200.843 172.449, 199.250 173.288 M 137.281 175.808 C 124.155 178.347, 126.088 182.170, 140.357 181.893 C 147.717 181.750, 153 183.088, 153 185.094 C 153 185.723, 154.545 185.059, 156.433 183.619 C 158.785 181.825, 161.099 181, 163.778 181 C 168.102 181, 171.663 178.170, 170.653 175.537 C 170.163 174.261, 167.977 174.019, 157.781 174.109 C 151.027 174.170, 141.801 174.934, 137.281 175.808 M 91.500 190.084 C 83.755 194.554, 81.001 195.608, 72.572 197.327 C 68.266 198.205, 64.512 199.154, 64.230 199.436 C 63.144 200.523, 75.212 213.861, 81.500 218.523 C 83.700 220.154, 85.725 221.759, 86 222.090 C 86.275 222.421, 87.691 222.983, 89.146 223.339 C 91.081 223.812, 91.959 223.549, 92.416 222.359 C 93.175 220.380, 92.115 214.189, 90.887 213.430 C 90.399 213.129, 90 211.964, 90 210.842 C 90 209.720, 89.255 207.233, 88.346 205.316 C 86.699 201.846, 86.705 201.817, 89.596 199.329 C 91.193 197.954, 94.782 195.747, 97.572 194.426 C 104.064 191.350, 104.337 191.030, 102.347 188.831 C 100.104 186.352, 97.431 186.661, 91.500 190.084 M 181.655 194.829 C 179.532 197.175, 179.474 204.804, 181.557 207.777 C 182.800 209.552, 184.086 210, 187.942 210 C 192.029 210, 193.030 209.604, 194.461 207.419 C 197.156 203.306, 197.519 198.578, 195.366 195.623 C 193.793 193.465, 192.700 193.058, 188.405 193.031 C 184.710 193.009, 182.855 193.503, 181.655 194.829 M 113.750 202.689 C 110.680 203.492, 111.409 210.563, 114.923 214.077 C 118.696 217.850, 120.183 217.760, 123.381 213.567 C 126.816 209.064, 127.003 203.502, 123.750 202.630 C 121.249 201.960, 116.432 201.988, 113.750 202.689 M 151.138 209.123 C 149.907 211.941, 148.670 215.654, 148.389 217.373 C 147.466 223.009, 144.878 230.857, 143.589 231.926 C 141.809 233.404, 127.303 235.279, 123.367 234.541 C 120.497 234.003, 109.123 235.289, 105.069 236.610 C 104.030 236.948, 104.527 237.888, 106.881 240.038 C 108.664 241.667, 110.498 243, 110.955 243 C 111.412 243, 112.045 243.675, 112.362 244.500 C 112.678 245.325, 113.464 246, 114.108 246 C 114.753 246, 115.779 246.626, 116.390 247.390 C 117 248.155, 122.450 252.471, 128.500 256.981 C 134.550 261.491, 140.387 265.927, 141.472 266.840 C 147.420 271.848, 148.119 272.050, 151.431 269.716 C 153.119 268.527, 155.308 266.814, 156.296 265.910 C 157.284 265.005, 159.647 263.428, 161.546 262.405 C 163.446 261.382, 165 260.198, 165 259.773 C 165 259.348, 165.445 259, 165.989 259 C 166.984 259, 169.726 256.989, 173.150 253.750 C 174.168 252.787, 175.252 252, 175.560 252 C 176.068 252, 183.770 246.484, 186.708 244.015 C 187.372 243.457, 188.362 243, 188.908 243 C 189.454 243, 190.260 242.436, 190.700 241.747 C 191.140 241.058, 193.412 239.197, 195.750 237.611 C 198.088 236.025, 200 234.355, 200 233.899 C 200 231.482, 195.239 230.761, 183.728 231.434 C 172.334 232.101, 171.667 232.031, 168.415 229.816 C 166.544 228.542, 165.011 226.993, 165.007 226.372 C 165.003 225.752, 164.354 224.709, 163.565 224.054 C 161.505 222.344, 158 215.301, 158 212.870 C 158 210.503, 155.122 204, 154.073 204 C 153.689 204, 152.368 206.305, 151.138 209.123 " stroke="none" fill="black" fill-rule="evenodd"/>
	<path fill-opacity="0.414" d="M 85 8.789 C 83.075 8.947, 80.825 9.326, 80 9.630 C 79.175 9.933, 76.323 10.343, 73.663 10.540 C 67.267 11.013, 58.791 13.853, 59.647 15.237 C 60.032 15.861, 59.840 16.019, 59.186 15.615 C 57.320 14.462, 38.247 24.468, 37.167 27.167 C 36.983 27.625, 36.461 28, 36.005 28 C 35.126 28, 24 38.570, 24 39.405 C 24 39.675, 22.820 41.158, 21.377 42.698 C 19.934 44.239, 18.315 46.737, 17.780 48.249 C 17.244 49.761, 16.399 50.747, 15.903 50.440 C 15.406 50.133, 15 50.719, 15 51.741 C 15 52.763, 14.588 54.028, 14.083 54.550 C 12.130 56.574, 8 65.411, 8 67.566 C 8 68.813, 7.513 69.996, 6.917 70.194 C 6.322 70.393, 5.443 73.243, 4.964 76.528 C 4.486 79.812, 3.650 84.750, 3.107 87.500 C 1.868 93.772, 1.846 112.713, 3.069 120 C 3.576 123.025, 4.430 128.839, 4.966 132.921 C 5.503 137.002, 6.404 140.804, 6.971 141.371 C 7.537 141.937, 8.003 143.548, 8.006 144.950 C 8.010 146.353, 8.685 148.789, 9.506 150.364 C 10.328 151.940, 11.003 154.190, 11.007 155.364 C 11.010 156.539, 11.907 158.850, 13 160.500 C 14.093 162.150, 14.990 164.512, 14.993 165.750 C 14.997 166.988, 15.414 168, 15.921 168 C 16.427 168, 17.131 169.319, 17.485 170.931 C 17.839 172.543, 18.775 174.398, 19.564 175.053 C 20.354 175.709, 21 177.104, 21 178.154 C 21 179.204, 21.648 180.311, 22.439 180.615 C 23.230 180.919, 24.173 182.512, 24.534 184.155 C 24.895 185.798, 25.453 186.880, 25.774 186.559 C 26.095 186.239, 27.408 188.048, 28.692 190.581 C 31.457 196.036, 39.715 207, 41.058 207 C 41.576 207, 41.888 207.520, 41.750 208.155 C 41.516 209.237, 62.733 232.663, 64.156 232.894 C 64.517 232.952, 67.073 235.138, 69.836 237.750 C 74.900 242.537, 76.986 244.252, 81.090 247 C 82.322 247.825, 84.156 249.288, 85.165 250.250 C 86.174 251.213, 87.274 252, 87.609 252 C 87.944 252, 89.182 252.877, 90.359 253.949 C 91.537 255.021, 96.887 259.143, 102.250 263.109 C 107.612 267.074, 112 270.697, 112 271.160 C 112 271.622, 112.595 272, 113.323 272 C 114.051 272, 117.088 274.287, 120.073 277.083 C 123.058 279.879, 128.399 284.716, 131.942 287.833 C 135.485 290.950, 140.359 295.446, 142.774 297.825 C 145.497 300.508, 147.734 301.932, 148.664 301.575 C 149.489 301.259, 150.577 301, 151.082 301 C 151.587 301, 152 300.550, 152 300 C 152 299.005, 155.577 295, 156.467 295 C 156.723 295, 158.450 293.484, 160.303 291.630 C 162.157 289.777, 164.868 287.478, 166.328 286.521 C 167.788 285.564, 168.692 284.311, 168.337 283.736 C 167.982 283.161, 168.145 282.972, 168.700 283.315 C 169.255 283.658, 171.096 282.715, 172.792 281.219 C 174.487 279.724, 177.121 277.600, 178.644 276.500 C 180.167 275.400, 182.220 273.712, 183.207 272.750 C 184.193 271.788, 185.257 271, 185.571 271 C 185.886 271, 186.749 270.438, 187.491 269.750 C 188.232 269.063, 194.097 264.675, 200.523 260 C 206.950 255.325, 213.527 250.262, 215.139 248.750 C 216.750 247.238, 218.481 246, 218.985 246 C 219.488 246, 220.260 245.436, 220.700 244.747 C 221.140 244.058, 223.412 242.197, 225.750 240.611 C 228.088 239.025, 230 237.339, 230 236.864 C 230 236.389, 230.675 236, 231.500 236 C 232.325 236, 233 235.325, 233 234.500 C 233 233.675, 233.418 233, 233.929 233 C 235.590 233, 245.938 222.709, 245.306 221.686 C 244.968 221.139, 245.132 220.964, 245.672 221.297 C 247.523 222.441, 263.449 204.622, 270.531 193.481 C 272.623 190.192, 274.709 187.350, 275.167 187.167 C 275.625 186.983, 276 186.414, 276 185.902 C 276 185.390, 278.025 180.781, 280.500 175.659 C 282.975 170.537, 285 166.039, 285 165.662 C 285 165.286, 285.830 163.071, 286.844 160.739 C 288.923 155.958, 291.609 147.224, 292.595 142.033 C 292.958 140.126, 293.601 137.876, 294.025 137.033 C 296.041 133.020, 297.457 117.030, 297.437 98.500 C 297.415 78.561, 296.262 68.042, 293.364 61.349 C 292.614 59.616, 291.986 57.366, 291.968 56.349 C 291.951 55.332, 291.276 53.626, 290.468 52.559 C 289.661 51.491, 289 49.912, 289 49.049 C 289 48.186, 287.857 46.247, 286.460 44.740 C 285.062 43.233, 284.184 42, 284.508 42 C 285.529 42, 278.701 32.625, 275.533 29.678 C 269.889 24.427, 265.283 21.050, 264.640 21.693 C 264.288 22.045, 264 21.839, 264 21.234 C 264 20.238, 260.045 18.381, 259.112 18.939 C 258.898 19.066, 258.396 18.641, 257.995 17.992 C 257.082 16.515, 244.750 12.303, 235.500 10.308 C 224.748 7.989, 200.817 7.456, 195.896 9.425 C 193.731 10.291, 190.844 11, 189.480 11 C 188.116 11, 186.993 11.338, 186.984 11.750 C 186.976 12.162, 184.726 13.601, 181.984 14.947 C 179.243 16.293, 177 17.830, 177 18.363 C 177 18.897, 176.729 19.062, 176.398 18.731 C 175.567 17.900, 160.474 28.426, 156.250 32.783 C 155.012 34.059, 154 34.776, 154 34.377 C 154 33.978, 152.918 34.668, 151.595 35.911 L 149.189 38.171 148.527 36.086 C 148.163 34.938, 147.258 34, 146.516 34 C 145.774 34, 145.017 33.659, 144.833 33.243 C 144.395 32.246, 136.400 26, 135.562 26 C 135.205 26, 133.760 24.931, 132.351 23.625 C 130.097 21.535, 116.297 14, 114.724 14 C 114.397 14, 112.863 13.465, 111.315 12.811 C 107.514 11.206, 89.352 8.430, 85 8.789 M 198.333 29.381 C 196.592 30.180, 195.017 30.691, 194.833 30.518 C 194.650 30.344, 193.944 30.806, 193.263 31.544 C 192.258 32.636, 192.726 33.280, 195.768 34.990 C 201.202 38.044, 204 43.492, 204 51.020 C 204 59.057, 205.011 59.996, 213.679 60.015 C 217.430 60.024, 221.175 60.457, 222 60.979 C 224.209 62.375, 224.025 70.777, 221.750 72.441 C 220.787 73.145, 220 74.233, 220 74.860 C 220 75.487, 219.325 76, 218.500 76 C 217.675 76, 217 76.702, 217 77.559 C 217 78.416, 216.582 78.860, 216.072 78.544 C 215.562 78.229, 214.864 78.854, 214.521 79.934 C 214.178 81.014, 213.021 82.176, 211.949 82.516 C 210.877 82.856, 210 83.779, 210 84.567 C 210 85.637, 211.391 86, 215.489 86 C 222.450 86, 230.531 89.041, 234.177 93.033 C 237.642 96.827, 237.690 98.003, 234.500 101 C 233.125 102.292, 232 102.960, 232 102.486 C 232 102.011, 231.082 102.608, 229.961 103.811 C 228.181 105.723, 226.881 105.998, 219.711 105.985 C 215.118 105.977, 209.737 105.335, 207.500 104.529 C 205.138 103.678, 199.659 103.070, 194.118 103.044 C 186.309 103.007, 184.171 103.349, 181.368 105.082 C 179.516 106.226, 178 107.524, 178 107.965 C 178 108.406, 176.995 109.029, 175.767 109.351 C 174.096 109.788, 173.821 110.221, 174.674 111.074 C 175.527 111.927, 177.426 111.809, 182.221 110.607 C 190.935 108.421, 204.799 108.486, 209.993 110.736 C 212.197 111.691, 214 112.816, 214 113.236 C 214 113.656, 214.482 114, 215.071 114 C 219.251 114, 221.782 125.896, 218.434 129.806 C 217.449 130.957, 216.204 131.626, 215.667 131.294 C 215.130 130.962, 214.982 131.162, 215.338 131.739 C 215.695 132.315, 214.627 133.847, 212.967 135.143 C 211.306 136.439, 207.822 139.461, 205.224 141.857 C 199.249 147.368, 195.432 150.099, 194.712 149.379 C 194.403 149.070, 194.263 149.588, 194.402 150.530 C 195.048 154.937, 205.719 156.314, 216.540 153.389 C 224.190 151.320, 234.315 149.125, 239.827 148.339 C 245.041 147.596, 250.380 149.942, 257.261 155.998 L 261.804 159.997 263.795 156.622 C 264.891 154.766, 266.092 152.285, 266.465 151.109 C 266.839 149.933, 267.466 149.170, 267.860 149.413 C 268.254 149.657, 268.673 148.676, 268.793 147.234 C 268.912 145.792, 269.570 144.256, 270.255 143.821 C 270.940 143.386, 271.203 143.024, 270.839 143.015 C 270.476 143.007, 271.309 139.962, 272.691 136.250 C 274.074 132.537, 275.617 127.700, 276.120 125.500 C 276.624 123.300, 277.446 120.600, 277.948 119.500 C 278.450 118.400, 279.296 112.494, 279.828 106.375 C 280.921 93.803, 279.891 80.345, 277.236 72.500 C 275.752 68.117, 274.552 65.605, 269.590 56.500 C 268.990 55.400, 268.050 54.169, 267.500 53.765 C 266.950 53.361, 266.835 53.024, 267.243 53.015 C 269.874 52.961, 250.128 36, 247.434 36 C 246.646 36, 246 35.643, 246 35.207 C 246 34.771, 243.412 33.593, 240.250 32.588 C 237.088 31.584, 233.150 30.334, 231.500 29.810 C 229.850 29.286, 222.425 28.648, 215 28.393 C 204.539 28.033, 200.787 28.256, 198.333 29.381 M 78.500 30.939 C 71.601 31.621, 61.649 34.356, 59.294 36.218 C 58.630 36.743, 57.618 36.882, 57.044 36.527 C 56.470 36.172, 56 36.263, 56 36.728 C 56 37.193, 53.188 39.212, 49.750 41.214 C 46.313 43.216, 42.282 46.012, 40.794 47.427 C 39.305 48.842, 37.543 50, 36.877 50 C 36.211 50, 35.940 50.273, 36.273 50.607 C 36.872 51.205, 36.159 52.312, 32.775 56.046 C 31.827 57.093, 30.766 59.086, 30.417 60.475 C 30.068 61.864, 29.382 63, 28.892 63 C 28.401 63, 28 63.922, 28 65.050 C 28 66.177, 27.291 68.470, 26.425 70.146 C 25.558 71.822, 24.455 75.287, 23.974 77.846 C 23.493 80.406, 22.579 84.975, 21.944 88 C 20.481 94.966, 21.135 120.535, 22.819 122.219 C 23.469 122.869, 24 125.229, 24 127.465 C 24 129.700, 24.922 133.249, 26.048 135.351 C 27.175 137.453, 27.970 139.921, 27.815 140.836 C 27.661 141.751, 28.314 143.613, 29.267 144.973 C 30.220 146.332, 31 148.036, 31 148.758 C 31 149.480, 31.724 151.176, 32.610 152.527 C 33.495 153.879, 33.962 155.658, 33.646 156.480 C 33.327 157.312, 33.575 157.870, 34.204 157.738 C 34.827 157.607, 35.823 158.402, 36.418 159.505 C 39.042 164.368, 52.288 184, 52.945 184 C 53.345 184, 54.408 181.353, 55.307 178.118 C 56.207 174.883, 57.631 171.972, 58.471 171.649 C 59.415 171.287, 60 171.625, 60 172.531 C 60 173.339, 60.620 174, 61.378 174 C 62.135 174, 63.351 174.717, 64.078 175.594 C 65.155 176.892, 66.900 177.100, 73.451 176.713 C 84.161 176.081, 95.155 174.047, 96.964 172.363 C 97.965 171.431, 98.044 171, 97.214 171 C 96.546 171, 96 170.325, 96 169.500 C 96 168.675, 95.250 168, 94.333 168 C 93.417 168, 92.968 167.699, 93.336 167.330 C 93.705 166.962, 92.197 165.582, 89.985 164.263 C 87.774 162.945, 86.224 161.446, 86.541 160.933 C 86.859 160.420, 86.479 160, 85.698 160 C 83.631 160, 80 149.679, 80 143.805 C 80 139.739, 80.569 138.070, 83 135 C 86.257 130.887, 86.771 129, 84.635 129 C 83.884 129, 82.126 128.100, 80.727 127 C 79.329 125.900, 77.568 125, 76.815 125 C 76.062 125, 73.952 123.636, 72.127 121.968 C 69.406 119.483, 69.027 118.672, 70.026 117.468 C 70.720 116.632, 72.940 116, 75.184 116 C 79.230 116, 90 111.586, 90 109.927 C 90 109.417, 90.886 109, 91.969 109 C 93.225 109, 93.747 108.504, 93.411 107.629 C 93.122 106.875, 93.586 105.989, 94.443 105.660 C 96.971 104.690, 96.223 103.003, 93.250 102.968 C 91.737 102.951, 89.626 102.276, 88.559 101.468 C 87.491 100.661, 85.916 99.998, 85.059 99.996 C 82.767 99.989, 74.861 94.486, 75.744 93.512 C 76.160 93.054, 75.975 92.980, 75.334 93.347 C 74.044 94.085, 67 86.456, 67 84.320 C 67 83.319, 69.300 83, 76.514 83 C 84.685 83, 86.519 82.682, 89.502 80.750 C 91.412 79.513, 92.981 77.937, 92.988 77.250 C 92.994 76.562, 93.338 76.112, 93.750 76.250 C 94.162 76.387, 95.565 75.435, 96.866 74.134 C 98.821 72.179, 99.138 71.068, 98.692 67.740 C 98.395 65.524, 97.780 63.439, 97.326 63.105 C 96.124 62.222, 93 56.055, 93 54.564 C 93 52.939, 102.045 44.400, 108.303 40.118 C 113.870 36.308, 113.592 35.283, 106.309 32.794 C 100.533 30.819, 88.105 29.990, 78.500 30.939 M 167.042 49.736 C 166.239 50.049, 164.444 51.362, 163.052 52.653 C 161.660 53.944, 159.927 55, 159.201 55 C 158.476 55, 158.110 55.370, 158.390 55.822 C 158.669 56.274, 157.908 57.461, 156.699 58.461 C 155.489 59.461, 153.741 60.935, 152.813 61.737 C 151.019 63.288, 150.846 63.213, 145.928 58.750 C 144.868 57.788, 143.756 57, 143.458 57 C 143.160 57, 142.372 56.557, 141.708 56.015 C 136.005 51.365, 134.067 50, 133.167 50 C 130.678 50, 130.531 63.040, 132.963 68.142 C 135.636 73.748, 150.232 78.139, 159.291 76.061 C 166.250 74.466, 174.604 63.270, 173.385 57.175 C 173.036 55.429, 172.388 54, 171.945 54 C 171.502 54, 170.995 53.023, 170.820 51.828 C 170.473 49.476, 169.330 48.843, 167.042 49.736 M 143.750 86.689 C 142.787 86.941, 142 87.564, 142 88.073 C 142 89.175, 138.332 92.999, 137.793 92.459 C 137.587 92.254, 137.324 93.331, 137.208 94.854 C 137.059 96.811, 137.896 98.484, 140.064 100.561 C 142.819 103.201, 143.774 103.493, 149.441 103.429 C 155.290 103.363, 156.084 103.072, 160.342 99.429 C 162.868 97.268, 164.933 94.825, 164.931 94 C 164.929 93.141, 162.061 91.109, 158.214 89.242 C 151.993 86.223, 148.138 85.543, 143.750 86.689 M 126 108.982 C 118.937 109.868, 113.900 112.153, 109.784 116.336 C 99.452 126.839, 101.302 134.611, 113.035 129.986 C 116.030 128.806, 118.710 127.514, 118.991 127.117 C 119.271 126.720, 121.128 125.406, 123.118 124.197 C 125.882 122.519, 128.302 122, 133.368 122 C 137.369 122, 140 122.420, 140 123.059 C 140 123.641, 140.432 123.851, 140.959 123.525 C 141.487 123.199, 142.949 123.468, 144.209 124.122 C 150.628 127.457, 149.883 127.774, 153.611 120.120 C 155.853 115.517, 155.739 112, 153.348 112 C 152.568 112, 150.933 111.378, 149.715 110.617 C 147.048 108.951, 133.623 108.026, 126 108.982 M 178 127 C 176.732 128.100, 175.313 129, 174.847 129 C 174.381 129, 174 130.144, 174 131.542 C 174 134.273, 175.894 136.685, 180.202 139.439 C 182.773 141.083, 183.021 141.078, 185.347 139.333 C 189.012 136.583, 191.881 131.832, 191.679 128.846 C 191.581 127.386, 191.194 126.381, 190.819 126.612 C 190.445 126.843, 189.856 126.575, 189.510 126.016 C 188.370 124.171, 180.485 124.845, 178 127 M 110.186 137.717 C 108.984 139.211, 108 140.786, 108 141.217 C 108 141.648, 107.213 142.007, 106.250 142.016 C 104.942 142.028, 105.354 142.785, 107.886 145.016 C 109.748 146.657, 112.223 147.987, 113.386 147.971 C 115.907 147.936, 121.526 143.068, 122.467 140.104 C 122.834 138.947, 123.765 138, 124.536 138 C 125.371 138, 125.705 137.394, 125.362 136.500 C 124.936 135.390, 123.174 135, 118.579 135 C 113.030 135, 112.141 135.288, 110.186 137.717 M 145 136.500 C 145 137.325, 144.559 138, 144.019 138 C 143.480 138, 142.730 139.228, 142.353 140.728 C 141.977 142.229, 140.230 145.491, 138.472 147.978 C 136.714 150.465, 134.439 153.811, 133.416 155.413 L 131.557 158.325 147.528 157.729 C 156.313 157.401, 164.267 156.838, 165.205 156.477 C 166.764 155.877, 166.733 155.634, 164.855 153.660 C 162.550 151.238, 156.249 141.927, 154.081 137.741 C 152.909 135.477, 151.995 135, 148.831 135 C 146.092 135, 145 135.428, 145 136.500 M 199.500 173.136 C 196.445 174.959, 196.041 176.132, 197.631 178.560 C 199.462 181.355, 202.071 182.030, 214.304 182.877 C 220.569 183.311, 224.394 184.020, 224.902 184.841 C 225.631 186.022, 223.030 197.525, 221.458 200.068 C 221.086 200.670, 220.180 203.713, 219.445 206.831 C 218.414 211.207, 218.365 213.413, 219.235 216.500 C 219.854 218.700, 220.491 220.674, 220.651 220.887 C 221.079 221.459, 233 209.097, 233 208.082 C 233 207.604, 233.675 206.955, 234.500 206.638 C 235.325 206.322, 236 205.482, 236 204.772 C 236 204.062, 236.900 202.919, 238 202.232 C 239.100 201.545, 240 200.312, 240 199.492 C 240 198.671, 240.461 198, 241.025 198 C 241.588 198, 242.495 196.988, 243.040 195.750 C 243.584 194.512, 244.928 192.150, 246.026 190.500 C 247.125 188.850, 248.294 186.718, 248.625 185.761 C 248.956 184.805, 249.739 184.315, 250.364 184.672 C 250.989 185.029, 251.203 184.989, 250.840 184.584 C 250.477 184.179, 251.311 181.378, 252.693 178.360 C 255.261 172.750, 255.212 170.749, 252.561 172.950 C 251.483 173.844, 248.103 174.027, 240.287 173.612 C 211.291 172.073, 201.473 171.958, 199.500 173.136 M 139.500 175.156 C 137.300 175.665, 133.930 176.407, 132.011 176.806 C 127.400 177.763, 126.801 180.510, 131.019 181.354 C 132.731 181.696, 133.869 182.403, 133.547 182.924 C 133.179 183.519, 134.173 183.524, 136.224 182.936 C 141.592 181.396, 147.240 181.849, 150.962 184.118 C 153.176 185.468, 154.558 185.827, 154.795 185.114 C 155 184.501, 155.782 184, 156.534 184 C 157.285 184, 158.260 183.364, 158.700 182.587 C 159.182 181.736, 161.490 181.060, 164.500 180.888 C 169.548 180.600, 170.774 179.620, 170.930 175.750 C 170.994 174.159, 169.747 174.010, 157.250 174.115 C 149.688 174.178, 141.700 174.647, 139.500 175.156 M 93.340 188.883 C 91.602 189.856, 89.127 191.337, 87.840 192.174 C 84.816 194.142, 79.337 195.923, 74.407 196.541 C 69.614 197.143, 63.997 198.918, 64.010 199.828 C 64.021 200.592, 69.606 207.753, 72.259 210.404 C 73.227 211.370, 73.720 212.644, 73.355 213.235 C 72.989 213.827, 73.155 214.022, 73.724 213.671 C 74.292 213.319, 76.888 215.017, 79.492 217.442 C 84.751 222.339, 89.115 224.554, 91.615 223.594 C 92.962 223.077, 93.148 222.095, 92.624 218.271 C 92.270 215.691, 91.546 213.146, 91.014 212.614 C 90.392 211.992, 90.485 211.107, 91.274 210.132 C 91.948 209.298, 92.047 208.886, 91.493 209.217 C 90.940 209.547, 89.769 208.137, 88.892 206.084 C 87.409 202.610, 87.421 202.199, 89.065 200.168 C 90.037 198.968, 93.101 196.934, 95.875 195.649 C 103.138 192.284, 104.179 191.260, 102.715 188.915 C 101.234 186.543, 97.543 186.531, 93.340 188.883 M 182.500 193.351 C 180.266 194.694, 179.892 195.767, 179.819 201.044 C 179.737 206.966, 180.784 208.856, 184.810 210.055 C 189.460 211.440, 193.570 210.038, 195.173 206.520 C 195.804 205.134, 196.612 204, 196.968 204 C 197.324 204, 197.524 202.685, 197.412 201.077 C 197.128 196.975, 194.023 193.072, 191 193.018 C 189.625 192.993, 187.600 192.787, 186.500 192.560 C 185.400 192.334, 183.600 192.689, 182.500 193.351 M 113.250 202.662 C 112.500 202.965, 112 205.038, 112 207.843 C 112 211.466, 112.459 212.806, 114.039 213.792 C 115.160 214.492, 115.879 215.388, 115.636 215.783 C 115.393 216.177, 117.043 216.630, 119.303 216.789 C 121.563 216.948, 123.093 216.760, 122.704 216.370 C 122.314 215.981, 122.712 214.871, 123.587 213.904 C 126.105 211.122, 127.089 205.232, 125.329 203.472 C 123.910 202.053, 116.064 201.527, 113.250 202.662 M 152.667 204.667 C 152.300 205.033, 152 206.121, 152 207.083 C 152 208.046, 151.576 208.983, 151.057 209.167 C 150.538 209.350, 149.583 211.750, 148.935 214.500 C 146.009 226.911, 144.623 230.756, 142.606 232.059 C 141.211 232.959, 135.436 233.641, 125.500 234.078 C 110.387 234.743, 104.941 235.677, 104.260 237.720 C 104.056 238.331, 104.773 239.111, 105.853 239.453 C 106.932 239.796, 108.068 240.734, 108.376 241.538 C 108.685 242.342, 109.626 243, 110.469 243 C 111.311 243, 112 243.675, 112 244.500 C 112 245.325, 112.629 246, 113.397 246 C 114.166 246, 116.078 247.103, 117.647 248.451 C 119.216 249.798, 125.450 254.775, 131.500 259.509 C 137.550 264.243, 143.194 268.681, 144.043 269.372 C 147.577 272.245, 148.190 272.157, 154.315 267.902 C 157.717 265.539, 160.787 263.187, 161.138 262.675 C 161.489 262.163, 162.389 262.099, 163.138 262.532 C 163.887 262.966, 164.184 262.970, 163.798 262.541 C 162.990 261.645, 165.329 259, 166.929 259 C 167.518 259, 168 258.621, 168 258.157 C 168 257.694, 169.547 256.482, 171.439 255.463 C 173.330 254.444, 174.654 253.249, 174.380 252.806 C 174.106 252.362, 174.809 252, 175.941 252 C 177.073 252, 178 251.593, 178 251.095 C 178 250.597, 180.025 249.003, 182.500 247.553 C 184.975 246.102, 187 244.485, 187 243.958 C 187 243.431, 187.498 243, 188.106 243 C 188.714 243, 190.478 241.988, 192.027 240.750 C 193.576 239.512, 196.090 237.525, 197.614 236.334 C 199.866 234.573, 200.158 233.896, 199.177 232.714 C 197.412 230.586, 190.547 229.974, 182 231.180 C 173.175 232.426, 168.333 231.016, 165.351 226.334 C 164.358 224.775, 163.182 223.239, 162.738 222.919 C 160.911 221.607, 157.998 214.789, 157.967 211.754 C 157.948 209.964, 157.089 207.488, 156.056 206.250 C 154.025 203.815, 153.680 203.654, 152.667 204.667 " stroke="none" fill="black" fill-rule="evenodd"/>
</svg>