<svg xmlns="http://www.w3.org/2000/svg" width="31" height="35" viewBox="0 0 31 35" version="1.1">
	<path fill-opacity="0.364" d="M 9.420 1.885 C 7.726 2.918, 5.762 5.160, 5.055 6.868 C 3.838 9.805, 3.918 11.552, 5.586 18.406 C 6.113 20.572, 5.858 21.631, 4.587 22.560 C 3.500 23.355, 3.265 24.046, 3.940 24.463 C 5.798 25.611, 5.085 28, 2.883 28 C 1.212 28, 0.885 27.549, 1.327 25.856 C 1.728 24.325, 1.580 24.020, 0.811 24.789 C -2.009 27.609, 3 30.508, 5.926 27.750 C 7.020 26.719, 7.159 27.246, 6.721 30.750 L 6.190 35 10.522 35 C 13.806 35, 14.964 34.577, 15.311 33.250 C 15.746 31.583, 15.774 31.583, 15.884 33.250 C 15.976 34.634, 16.921 35, 20.405 35 L 24.810 35 24.260 30.901 C 23.725 26.911, 23.767 26.838, 25.859 28.144 C 27.464 29.146, 28.448 29.208, 29.753 28.386 C 31.943 27.007, 32.553 24.333, 30.678 24.333 C 29.809 24.333, 29.457 25.032, 29.754 26.167 C 30.107 27.518, 29.677 28, 28.117 28 C 25.915 28, 25.202 25.611, 27.060 24.463 C 27.735 24.046, 27.500 23.355, 26.413 22.560 C 25.137 21.627, 24.888 20.580, 25.425 18.406 C 27.104 11.607, 27.135 9.161, 25.577 6.149 C 22.561 0.318, 15.184 -1.629, 9.420 1.885 M 10.667 4.667 C 9.601 5.732, 9.897 9, 11.059 9 C 11.641 9, 11.840 9.450, 11.500 10 C 11.160 10.550, 10.121 10.993, 9.191 10.985 C 7.861 10.973, 7.790 10.786, 8.857 10.110 C 9.798 9.513, 9.876 9.042, 9.111 8.569 C 8.481 8.179, 7.491 9.022, 6.801 10.537 C 5.820 12.690, 5.873 13.684, 7.085 15.843 C 8.475 18.320, 9.047 18.500, 15.500 18.500 C 21.953 18.500, 22.525 18.320, 23.915 15.843 C 25.127 13.684, 25.180 12.690, 24.199 10.537 C 23.509 9.022, 22.519 8.179, 21.889 8.569 C 21.124 9.042, 21.202 9.513, 22.143 10.110 C 23.210 10.786, 23.139 10.973, 21.809 10.985 C 20.879 10.993, 19.840 10.550, 19.500 10 C 19.160 9.450, 19.390 9, 20.011 9 C 21.835 9, 20.667 4.552, 18.747 4.186 C 16.541 3.766, 15.208 6.892, 17.096 8.059 C 18.201 8.742, 18.230 9.170, 17.242 10.158 C 15.585 11.815, 15.630 17, 17.300 17 C 18.015 17, 19.231 16.438, 20.002 15.750 C 21.194 14.687, 21.206 14.761, 20.079 16.250 C 19.295 17.287, 17.429 18, 15.500 18 C 13.571 18, 11.705 17.287, 10.921 16.250 C 9.794 14.761, 9.806 14.687, 10.998 15.750 C 11.769 16.438, 12.985 17, 13.700 17 C 15.370 17, 15.415 11.815, 13.758 10.158 C 12.770 9.170, 12.799 8.742, 13.904 8.059 C 14.667 7.588, 15.015 6.481, 14.677 5.601 C 14.051 3.970, 11.871 3.462, 10.667 4.667 M 8.500 13 C 8.840 13.550, 9.541 14, 10.059 14 C 10.577 14, 11 13.550, 11 13 C 11 12.450, 10.298 12, 9.441 12 C 8.584 12, 8.160 12.450, 8.500 13 M 20 13 C 20 13.550, 20.423 14, 20.941 14 C 21.459 14, 22.160 13.550, 22.500 13 C 22.840 12.450, 22.416 12, 21.559 12 C 20.702 12, 20 12.450, 20 13 M 10.667 21.667 C 9.371 22.962, 10.023 26.711, 11.829 28.345 C 15.468 31.639, 21 29.102, 21 24.140 C 21 21.526, 18.171 20.113, 16.925 22.104 C 16.300 23.102, 16.615 23.591, 18.026 23.820 C 21.770 24.426, 19.540 29, 15.500 29 C 13.131 29, 11 27.247, 11 25.300 C 11 24.585, 11.886 24, 12.969 24 C 14.308 24, 14.753 23.520, 14.362 22.500 C 13.764 20.944, 11.827 20.507, 10.667 21.667 M 0.079 26.583 C 0.127 27.748, 0.364 27.985, 0.683 27.188 C 0.972 26.466, 0.936 25.603, 0.604 25.271 C 0.272 24.939, 0.036 25.529, 0.079 26.583 M 12.250 26.250 C 12.479 26.938, 13.942 27.500, 15.500 27.500 C 17.058 27.500, 18.521 26.938, 18.750 26.250 C 19.033 25.402, 17.989 25, 15.500 25 C 13.011 25, 11.967 25.402, 12.250 26.250 M 8.762 33.707 C 10.006 33.946, 11.806 33.937, 12.762 33.687 C 13.718 33.437, 12.700 33.241, 10.500 33.252 C 8.300 33.263, 7.518 33.468, 8.762 33.707 M 18.762 33.707 C 20.006 33.946, 21.806 33.937, 22.762 33.687 C 23.718 33.437, 22.700 33.241, 20.500 33.252 C 18.300 33.263, 17.518 33.468, 18.762 33.707 " stroke="none" fill="black" fill-rule="evenodd"/>
	<path fill-opacity="0.246" d="M 14.269 0.693 C 15.242 0.947, 16.592 0.930, 17.269 0.656 C 17.946 0.382, 17.150 0.175, 15.500 0.195 C 13.850 0.215, 13.296 0.439, 14.269 0.693 M 9.923 1.250 C 9.881 1.387, 9.693 2.311, 9.504 3.302 C 9.316 4.293, 8.372 6.318, 7.406 7.802 C 5.904 10.110, 5.887 10.306, 7.287 9.160 C 8.186 8.423, 9.204 6.934, 9.547 5.851 C 9.964 4.538, 10.892 3.986, 12.336 4.192 C 14.005 4.430, 14.500 5.186, 14.500 7.500 C 14.500 9.150, 14.950 10.500, 15.500 10.500 C 16.050 10.500, 16.500 9.150, 16.500 7.500 C 16.500 5.186, 16.995 4.430, 18.664 4.192 C 20.108 3.986, 21.036 4.538, 21.453 5.851 C 21.796 6.934, 22.814 8.423, 23.713 9.160 C 25.113 10.306, 25.096 10.110, 23.594 7.802 C 22.628 6.318, 21.723 4.318, 21.582 3.356 C 21.441 2.395, 20.690 1.437, 19.913 1.228 C 18.808 0.931, 18.827 1.079, 20 1.909 C 21.247 2.791, 21.131 2.972, 19.309 2.985 C 18.104 2.993, 16.816 3.489, 16.446 4.087 C 15.962 4.870, 15.470 4.870, 14.687 4.087 C 14.089 3.489, 12.678 2.993, 11.550 2.985 C 9.860 2.972, 9.763 2.799, 11 2 C 12 1.354, 12.083 1.026, 11.250 1.015 C 10.563 1.007, 9.966 1.113, 9.923 1.250 M 4.068 10.685 C 4.030 11.887, 4.522 14.137, 5.160 15.685 C 6.596 19.168, 6.341 21.131, 4.240 22.750 C 3.298 23.476, 3.117 24, 3.809 24 C 4.464 24, 5 24.702, 5 25.559 C 5 26.416, 5.450 26.840, 6 26.500 C 6.595 26.132, 7 27.323, 7 29.441 C 7 32.801, 7.185 33, 10.300 33 C 12.115 33, 14.089 32.511, 14.687 31.913 C 15.470 31.130, 15.962 31.130, 16.446 31.913 C 16.816 32.511, 18.666 33, 20.559 33 C 23.836 33, 24 32.830, 24 29.441 C 24 27.323, 24.405 26.132, 25 26.500 C 25.550 26.840, 26 26.416, 26 25.559 C 26 24.702, 26.536 24, 27.191 24 C 27.883 24, 27.702 23.476, 26.760 22.750 C 24.643 21.118, 24.405 19.167, 25.885 15.566 C 26.548 13.952, 26.927 11.702, 26.726 10.566 C 26.428 8.879, 26.223 9.050, 25.611 11.500 C 23.697 19.161, 23.765 19.113, 15.273 18.792 C 7.644 18.504, 7.530 18.460, 6.646 15.500 C 6.153 13.850, 5.387 11.600, 4.943 10.500 C 4.167 8.577, 4.133 8.585, 4.068 10.685 M 10 21.906 C 10 22.405, 9.151 22.591, 8.113 22.319 C 5.786 21.711, 4.272 23.784, 6.437 24.614 C 7.429 24.995, 8 26.452, 8 28.607 C 8 31.773, 8.218 31.999, 11.250 31.978 L 14.500 31.956 12 29.950 L 9.500 27.945 12.320 29.165 C 14.499 30.108, 15.865 30.118, 18.320 29.212 L 21.500 28.039 19 29.997 L 16.500 31.956 19.750 31.978 C 22.782 31.999, 23 31.773, 23 28.607 C 23 26.452, 23.571 24.995, 24.563 24.614 C 26.728 23.784, 25.214 21.711, 22.887 22.319 C 21.849 22.591, 21 22.405, 21 21.906 C 21 20.641, 17.629 20.771, 16.313 22.087 C 15.530 22.870, 15.038 22.870, 14.554 22.087 C 13.743 20.775, 10 20.627, 10 21.906 " stroke="none" fill="black" fill-rule="evenodd"/>
	<path fill-opacity="0.581" d="M 14.639 8.694 C 13.513 9.820, 13.954 11, 15.500 11 C 16.325 11, 17 10.577, 17 10.059 C 17 8.798, 15.438 7.895, 14.639 8.694 M 7 20 C 7 20.588, 10.500 21, 15.500 21 C 20.500 21, 24 20.588, 24 20 C 24 19.412, 20.500 19, 15.500 19 C 10.500 19, 7 19.412, 7 20 " stroke="none" fill="black" fill-rule="evenodd"/>
</svg>