<svg xmlns="http://www.w3.org/2000/svg" width="385" height="439" viewBox="0 0 385 439" version="1.1">
	<path fill-opacity="0.395" d="M 176 0.626 C 143.663 4.720, 113.802 19.146, 91.455 41.467 C 85.931 46.985, 79.078 54.650, 76.227 58.500 C 48.815 95.515, 40.737 145.354, 55.049 189.151 C 60.271 205.128, 72.395 227.355, 80.689 236.154 L 83.191 238.809 79.096 242.904 C 75.444 246.556, 75 247.519, 75 251.777 C 75 256.581, 76.606 259.999, 80.276 263.005 C 81.986 264.406, 80.606 265.536, 60.437 279.255 C 41.971 291.816, 38.202 294, 34.986 294 C 32.909 294, 28.351 294.902, 24.855 296.005 C 8.606 301.130, -0.890 315.236, 0.224 332.593 C 0.835 342.113, 4.309 349.254, 11.548 355.869 C 28.125 371.020, 53.780 367.526, 65.863 348.473 C 67.313 346.185, 72.325 340.887, 77 336.698 L 85.500 329.081 85.762 366.981 L 86.024 404.881 81.090 409.815 C 78.081 412.824, 75.685 416.320, 74.949 418.775 C 73.409 423.916, 74.418 430.841, 77.340 435.177 L 79.579 438.500 128.204 438.759 L 176.828 439.019 180.418 434.825 C 187.121 426.994, 187.626 418.151, 181.847 409.846 C 179.448 406.398, 179.513 403.888, 182.088 400.615 C 187.817 393.332, 197.183 393.332, 202.912 400.615 C 205.487 403.888, 205.552 406.398, 203.153 409.846 C 197.374 418.151, 197.879 426.994, 204.582 434.825 L 208.172 439.019 256.796 438.759 L 305.421 438.500 307.660 435.177 C 310.582 430.841, 311.591 423.916, 310.051 418.775 C 309.315 416.320, 306.919 412.824, 303.910 409.815 L 298.976 404.881 299.238 366.981 L 299.500 329.081 308 336.698 C 312.675 340.887, 317.687 346.185, 319.137 348.473 C 328.315 362.946, 346.699 369.103, 362.500 362.994 C 370.430 359.929, 379.898 350.663, 382.418 343.500 C 383.386 340.750, 384.587 337.719, 385.089 336.764 C 386.120 334.799, 386.357 321.309, 385.343 322.324 C 384.982 322.685, 383.933 320.757, 383.014 318.040 C 380.754 311.365, 376.424 305.344, 371 301.335 C 365.922 297.582, 355.674 294, 350.014 294 C 346.798 294, 343.029 291.816, 324.563 279.255 C 304.394 265.536, 303.014 264.406, 304.724 263.005 C 308.394 259.999, 310 256.581, 310 251.777 C 310 247.519, 309.556 246.556, 305.904 242.904 L 301.809 238.809 304.311 236.154 C 308.711 231.486, 318.032 216.789, 322.587 207.335 C 337.362 176.673, 340.859 141.998, 332.514 108.892 C 325.915 82.711, 313.730 61.629, 293.545 41.467 C 274.182 22.126, 250.657 9.376, 222.500 2.963 C 213.659 0.950, 184.871 -0.498, 176 0.626 M 143.746 49.022 C 115.369 56.191, 105.688 91.973, 126.668 112.147 C 135.623 120.758, 146.958 124.275, 158.751 122.102 C 167.147 120.555, 172.327 117.922, 178.332 112.147 C 201.592 89.781, 186.955 50.180, 154.794 48.463 C 150.782 48.249, 145.811 48.501, 143.746 49.022 M 223.746 49.022 C 195.342 56.197, 185.668 91.954, 206.668 112.147 C 215.623 120.758, 226.958 124.275, 238.751 122.102 C 247.147 120.555, 252.327 117.922, 258.332 112.147 C 281.575 89.798, 266.931 50.178, 234.794 48.463 C 230.782 48.249, 225.811 48.501, 223.746 49.022 M 102.997 102.709 C 93.494 111.507, 86.818 120.437, 81.473 131.500 C 75.883 143.069, 74.087 150.025, 73.334 163.018 C 71.903 187.718, 80.337 208.241, 100.139 228.250 L 110.778 239 192.500 239 L 274.222 239 284.861 228.250 C 304.663 208.241, 313.097 187.718, 311.666 163.018 C 310.913 150.025, 309.117 143.069, 303.527 131.500 C 298.182 120.437, 291.506 111.507, 282.003 102.709 C 274.662 95.912, 273 94.921, 273 97.340 C 273 100.714, 266.538 111.147, 261.492 115.919 C 255.252 121.820, 247.945 125.524, 239.436 127.096 C 230.759 128.700, 223.601 127.524, 211.869 122.566 C 210.521 121.997, 210.228 122.576, 210.182 125.904 C 210.077 133.533, 204.633 140.813, 197.750 142.531 L 195 143.217 195 183.108 C 195 220.437, 195.112 223, 196.750 222.992 C 200.767 222.975, 211.944 220.791, 218 218.840 C 232.645 214.122, 244.413 206.751, 255.592 195.293 C 259.875 190.903, 262.256 189.161, 263.380 189.592 C 266.207 190.677, 265.182 192.608, 257.841 200.022 C 236.951 221.120, 207.949 231.109, 179.692 226.938 C 160.251 224.069, 141.410 214.415, 127.159 200.022 C 119.818 192.608, 118.793 190.677, 121.620 189.592 C 122.744 189.161, 125.125 190.903, 129.408 195.293 C 140.587 206.751, 152.355 214.122, 167 218.840 C 173.056 220.791, 184.233 222.975, 188.250 222.992 C 189.888 223, 190 220.437, 190 183.108 L 190 143.217 187.250 142.531 C 180.367 140.813, 174.923 133.533, 174.818 125.904 C 174.772 122.576, 174.479 121.997, 173.131 122.566 C 161.399 127.524, 154.241 128.700, 145.564 127.096 C 137.055 125.524, 129.748 121.820, 123.508 115.919 C 118.462 111.147, 112 100.714, 112 97.340 C 112 94.921, 110.338 95.912, 102.997 102.709 M 169.500 97.195 C 166.700 98.783, 166.033 100.027, 166.015 103.693 C 166.005 105.871, 166.707 107.382, 168.223 108.443 C 172.979 111.775, 179.011 109.113, 178.985 103.693 C 178.967 99.940, 178.276 98.708, 175.316 97.150 C 172.651 95.747, 172.045 95.752, 169.500 97.195 M 209.500 97.195 C 206.700 98.783, 206.033 100.027, 206.015 103.693 C 206.005 105.871, 206.707 107.382, 208.223 108.443 C 212.979 111.775, 219.011 109.113, 218.985 103.693 C 218.967 99.940, 218.276 98.708, 215.316 97.150 C 212.651 95.747, 212.045 95.752, 209.500 97.195 M 190.704 103.495 C 189.767 105.460, 189 107.233, 189 107.434 C 189 107.635, 190.575 107.800, 192.500 107.800 C 196.496 107.800, 196.542 107.673, 194.162 103.211 L 192.408 99.921 190.704 103.495 M 94.499 125.003 C 94.124 126.184, 94.020 127.354, 94.268 127.602 C 94.517 127.850, 104.978 130.991, 117.517 134.581 C 140.471 141.154, 141.928 141.325, 141.985 137.442 C 141.993 136.861, 131.988 133.541, 119.750 130.065 C 107.512 126.588, 96.978 123.544, 96.340 123.300 C 95.703 123.055, 94.874 123.822, 94.499 125.003 M 265.750 129.803 C 253.238 133.427, 243.007 136.866, 243.015 137.446 C 243.072 141.324, 244.533 141.153, 267.483 134.581 C 280.022 130.991, 290.483 127.850, 290.732 127.602 C 291.374 126.959, 290.003 122.978, 289.183 123.107 C 288.807 123.166, 278.262 126.179, 265.750 129.803 M 94.180 152.250 L 94.500 154.500 119.250 154.767 L 144 155.035 144 152.517 L 144 150 118.930 150 L 93.861 150 94.180 152.250 M 241 152.517 L 241 155.035 265.750 154.767 L 290.500 154.500 290.820 152.250 L 291.139 150 266.070 150 L 241 150 241 152.517 M 116.750 169.803 C 104.237 173.427, 94.007 176.866, 94.015 177.446 C 94.073 181.414, 95.469 181.265, 117.872 174.901 C 130.047 171.443, 140.505 168.306, 141.111 167.931 C 142.248 167.229, 141.417 162.913, 140.183 163.107 C 139.807 163.166, 129.262 166.179, 116.750 169.803 M 243.483 165.053 C 243.080 166.322, 243.251 167.537, 243.889 167.931 C 244.495 168.306, 254.953 171.443, 267.128 174.901 C 289.535 181.266, 290.927 181.415, 290.985 177.442 C 290.993 176.861, 280.988 173.541, 268.750 170.065 C 256.512 166.588, 245.978 163.544, 245.340 163.300 C 244.703 163.055, 243.867 163.844, 243.483 165.053 M 125.283 269.750 C 119.456 280.229, 116.353 298.125, 118.003 311.738 C 119.301 322.452, 121.091 328.251, 126.109 338 C 135.863 356.952, 152.989 370.637, 173.864 376.161 C 184.411 378.951, 200.650 378.935, 211.287 376.122 C 226.772 372.027, 242.543 361.704, 251.484 349.810 C 267.075 329.069, 271.434 304.841, 263.953 280.500 C 262.770 276.650, 260.864 271.813, 259.717 269.750 L 257.632 266 233.705 266 L 209.777 266 210.431 269.485 C 211.270 273.958, 209.493 280.605, 206.346 284.765 C 203.892 288.007, 195.499 293, 192.500 293 C 189.501 293, 181.108 288.007, 178.654 284.765 C 175.507 280.605, 173.730 273.958, 174.569 269.485 L 175.223 266 151.295 266 L 127.368 266 125.283 269.750 M 180.403 267.157 C 179.058 269.332, 179.817 277.002, 181.695 280.218 C 182.727 281.984, 185.017 284.274, 186.785 285.307 L 190 287.184 190 283.651 C 190 281.708, 189.550 279.840, 189 279.500 C 187.618 278.646, 187.744 274.656, 189.200 273.200 C 190.743 271.657, 194.257 271.657, 195.800 273.200 C 197.256 274.656, 197.382 278.646, 196 279.500 C 195.450 279.840, 195 281.708, 195 283.651 L 195 287.184 198.215 285.307 C 199.983 284.274, 202.273 281.984, 203.305 280.218 C 205.183 277.002, 205.942 269.332, 204.597 267.157 C 204.123 266.391, 200.039 266, 192.500 266 C 184.961 266, 180.877 266.391, 180.403 267.157 M 27.500 299.998 C 17.668 303.072, 8.490 311.975, 6.033 320.823 C 4.533 326.223, 4.777 334.990, 6.575 340.266 C 8.484 345.870, 14.712 353.175, 20.349 356.424 C 31.503 362.853, 45.747 361.429, 55.441 352.917 C 72.138 338.257, 68.296 311.589, 48.139 302.239 C 42.251 299.507, 32.469 298.445, 27.500 299.998 M 341.500 300.338 C 328.416 304.674, 320.415 314.337, 319.247 327.212 C 317.029 351.674, 343.427 368.657, 364.651 356.424 C 370.464 353.074, 376.589 345.754, 378.569 339.791 C 382.183 328.911, 378.544 314.001, 370.653 307.362 C 362.401 300.418, 350.160 297.469, 341.500 300.338 M 134.614 306.250 C 136.071 320.967, 140.998 332.634, 149.771 342.137 C 161.414 354.750, 175.572 361, 192.500 361 C 223.525 361, 247.182 338.625, 250.386 306.250 L 250.906 301 192.500 301 L 134.094 301 134.614 306.250 M 140 309.395 C 140 314.796, 143.641 325.135, 147.810 331.572 C 157.959 347.243, 173.951 355.976, 192.500 355.976 C 211.049 355.976, 227.041 347.243, 237.190 331.572 C 241.359 325.135, 245 314.796, 245 309.395 L 245 306 192.500 306 L 140 306 140 309.395 M 0.336 330 C 0.336 334.125, 0.513 335.813, 0.728 333.750 C 0.944 331.688, 0.944 328.313, 0.728 326.250 C 0.513 324.188, 0.336 325.875, 0.336 330 M 84.133 413.759 C 79.318 418.339, 78.014 423.417, 80.101 429.453 L 81.500 433.500 127.925 433.760 C 173.501 434.015, 174.389 433.983, 176.527 431.974 C 181.288 427.502, 181.886 418.521, 177.808 412.750 L 175.864 410 131.974 410 L 88.084 410 84.133 413.759 M 207.192 412.750 C 203.114 418.521, 203.712 427.502, 208.473 431.974 C 210.611 433.983, 211.499 434.015, 257.075 433.760 L 303.500 433.500 304.899 429.453 C 306.986 423.417, 305.682 418.339, 300.867 413.759 L 296.916 410 253.026 410 L 209.136 410 207.192 412.750 " stroke="none" fill="black" fill-rule="evenodd"/>
	<path fill-opacity="0.598" d="M 180 0.570 C 178.625 0.810, 174.125 1.488, 170 2.077 C 149.802 4.960, 123.356 15.986, 107 28.344 C 79.731 48.948, 61.401 76.165, 53.019 108.500 C 41.748 151.978, 51.318 197.972, 79.047 233.596 L 83.792 239.692 81.017 241.331 C 77.815 243.223, 74.998 248.524, 75.004 252.651 C 75.008 255.879, 78.257 261.778, 80.506 262.641 C 81.328 262.956, 82 263.593, 82 264.055 C 82 264.518, 72.662 271.286, 61.250 279.095 C 40.948 292.988, 40.335 293.321, 32.870 294.547 C 23.364 296.109, 17.480 298.668, 11.986 303.632 C 6.280 308.787, 3.273 313.772, 1.356 321.256 C -2.805 337.497, 4.732 353.804, 19.836 361.240 C 35.967 369.183, 55.399 363.966, 65.026 349.110 C 67.749 344.907, 80.853 331.966, 84.750 329.631 C 85.741 329.037, 86 336.918, 86 367.725 L 86 406.569 83.014 408.333 C 75.073 413.023, 72.336 425.778, 77.411 434.439 L 80.084 439 127.577 439 C 180.979 439, 177.907 439.428, 182.655 431.325 C 186.182 425.307, 185.754 416.249, 181.649 410.046 L 178.878 405.858 180.786 402.179 C 185.834 392.449, 199.166 392.449, 204.214 402.179 L 206.122 405.858 203.351 410.046 C 199.246 416.249, 198.818 425.307, 202.345 431.325 C 207.093 439.428, 204.021 439, 257.423 439 L 304.916 439 307.589 434.439 C 312.664 425.778, 309.927 413.023, 301.986 408.333 L 299 406.569 299 367.725 C 299 336.918, 299.259 329.037, 300.250 329.631 C 304.117 331.948, 317.240 344.891, 319.926 349.036 C 331.016 366.149, 354.805 370.132, 371.282 357.633 C 376.394 353.756, 381.584 346.288, 383.082 340.654 C 383.690 338.369, 384.595 335.719, 385.094 334.764 C 386.256 332.537, 386.282 323.707, 385.125 324.423 C 384.644 324.720, 383.977 323.284, 383.644 321.232 C 382.266 312.743, 374.270 302.753, 365.362 298.391 C 362.536 297.007, 356.686 295.294, 352.362 294.584 C 344.603 293.311, 344.227 293.107, 323.750 279.095 C 312.337 271.286, 303 264.518, 303 264.055 C 303 263.593, 303.672 262.956, 304.494 262.641 C 306.743 261.778, 309.992 255.879, 309.996 252.651 C 310.002 248.524, 307.185 243.223, 303.983 241.331 L 301.208 239.692 305.953 233.596 C 341.681 187.695, 346.579 125.914, 318.561 74.567 C 298.268 37.378, 260.433 10.354, 217.500 2.383 C 209.608 0.917, 184.860 -0.279, 180 0.570 M 175.500 5.624 C 152.109 9.157, 132.129 16.821, 112.726 29.703 C 108.752 32.341, 100.519 39.450, 94.432 45.500 C 74.098 65.708, 61.638 88.605, 55.522 117 C 52.948 128.950, 52.415 152.431, 54.428 165.224 C 58.358 190.200, 68.249 212.624, 84.214 232.750 L 89.172 239 96.260 239 L 103.347 239 95.848 231.250 C 63.532 197.851, 59.060 153.772, 84.224 116.676 C 88.915 109.761, 99.064 98.890, 105.394 94 C 109.262 91.012, 109.930 89.972, 109.962 86.886 C 110.189 65.229, 125.271 47.299, 146.176 43.835 C 159.705 41.593, 173.675 46.561, 183.409 57.075 C 186.484 60.396, 189 63.538, 189 64.057 C 189 64.576, 190.575 65, 192.500 65 C 194.425 65, 196 64.576, 196 64.057 C 196 63.538, 198.516 60.396, 201.591 57.075 C 227.992 28.559, 274.625 47.487, 275.038 86.886 C 275.070 89.972, 275.738 91.012, 279.606 94 C 285.936 98.890, 296.085 109.761, 300.776 116.676 C 325.940 153.772, 321.468 197.851, 289.152 231.250 L 281.653 239 288.740 239 L 295.828 239 300.786 232.750 C 316.751 212.624, 326.642 190.200, 330.572 165.224 C 332.585 152.431, 332.052 128.950, 329.478 117 C 323.362 88.605, 310.902 65.708, 290.568 45.500 C 275.104 30.131, 258.933 19.842, 239.500 13.006 C 223.285 7.303, 215.156 5.904, 196 5.521 C 186.375 5.328, 177.150 5.375, 175.500 5.624 M 138.729 50.373 C 110.358 62.273, 106.550 99.846, 131.993 116.836 C 150.831 129.416, 176.376 122.231, 186.560 101.487 C 189.218 96.074, 189.500 94.541, 189.500 85.500 C 189.500 76.736, 189.168 74.791, 186.812 69.764 C 183.374 62.429, 175.557 54.616, 168.236 51.199 C 159.893 47.306, 146.910 46.942, 138.729 50.373 M 218.729 50.373 C 202.907 57.009, 194.218 70.930, 195.209 88.054 C 196.557 111.336, 218.873 127.548, 241.951 122.012 C 249.139 120.287, 258.224 113.930, 262.968 107.305 C 276.606 88.260, 269.478 61.114, 248.236 51.199 C 239.893 47.306, 226.910 46.942, 218.729 50.373 M 192.079 70.583 C 192.127 71.748, 192.364 71.985, 192.683 71.188 C 192.972 70.466, 192.936 69.603, 192.604 69.271 C 192.272 68.939, 192.036 69.529, 192.079 70.583 M 105.893 99.399 C 90.396 112.176, 78.239 131.957, 74.361 150.713 C 72.131 161.495, 72.920 180.787, 75.988 190.500 C 80.863 205.930, 92.746 223.722, 104.975 233.899 L 111.104 239 192.500 239 L 273.896 239 280.025 233.899 C 292.254 223.722, 304.137 205.930, 309.012 190.500 C 312.080 180.787, 312.869 161.495, 310.639 150.713 C 306.761 131.957, 294.604 112.176, 279.107 99.399 L 273.713 94.953 271.434 100.562 C 266.918 111.672, 260.265 118.700, 249.672 123.550 C 238.828 128.514, 226.250 128.550, 215.540 123.647 L 210 121.111 210 124.990 C 210 127.124, 209.522 130.137, 208.939 131.685 C 207.432 135.680, 202.222 140.772, 198.322 142.059 L 195 143.155 195 183.221 L 195 223.287 201.750 222.652 C 221.403 220.804, 243.323 209.556, 256.853 194.376 C 261.541 189.116, 262.158 188.729, 263.583 190.154 C 265.007 191.579, 264.623 192.293, 259.389 197.946 C 223.117 237.125, 161.883 237.125, 125.611 197.946 C 120.377 192.293, 119.993 191.579, 121.417 190.154 C 122.842 188.729, 123.459 189.116, 128.147 194.376 C 141.677 209.556, 163.597 220.804, 183.250 222.652 L 190 223.287 190 183.221 L 190 143.155 186.678 142.059 C 182.778 140.772, 177.568 135.680, 176.061 131.685 C 175.478 130.137, 175 127.124, 175 124.990 L 175 121.111 169.460 123.647 C 158.750 128.550, 146.172 128.514, 135.328 123.550 C 124.735 118.700, 118.082 111.672, 113.566 100.562 L 111.287 94.953 105.893 99.399 M 167.483 99.385 C 165.305 102.709, 165.907 105.859, 169.186 108.297 C 171.554 110.059, 172.237 110.144, 174.949 109.021 C 181.285 106.397, 179.703 97.774, 172.779 97.193 C 169.795 96.943, 168.819 97.347, 167.483 99.385 M 207.557 99.223 C 203.174 105.479, 209.850 112.733, 215.870 108.255 C 219.079 105.869, 219.685 102.695, 217.554 99.442 C 215.399 96.153, 209.793 96.030, 207.557 99.223 M 190.202 103.522 L 188.026 108 192.533 108 L 197.041 108 194.897 103.750 C 193.719 101.412, 192.669 99.397, 192.566 99.272 C 192.462 99.147, 191.398 101.059, 190.202 103.522 M 95 125.961 C 95 127.380, 96.038 128.206, 98.750 128.944 C 100.813 129.505, 111.042 132.419, 121.481 135.418 C 131.921 138.417, 140.541 140.787, 140.636 140.685 C 140.732 140.583, 140.965 139.625, 141.155 138.556 C 141.461 136.830, 139.098 135.916, 120 130.377 C 108.175 126.948, 97.713 124.110, 96.750 124.071 C 95.654 124.026, 95 124.733, 95 125.961 M 265 130.377 C 245.902 135.916, 243.539 136.830, 243.845 138.556 C 244.035 139.625, 244.268 140.583, 244.364 140.685 C 244.459 140.787, 253.079 138.417, 263.519 135.418 C 273.958 132.419, 284.188 129.505, 286.250 128.944 C 288.962 128.206, 290 127.380, 290 125.961 C 290 124.733, 289.346 124.026, 288.250 124.071 C 287.288 124.110, 276.825 126.948, 265 130.377 M 95 152 C 95 153.946, 95.667 154, 119.500 154 C 143.333 154, 144 153.946, 144 152 C 144 150.054, 143.333 150, 119.500 150 C 95.667 150, 95 150.054, 95 152 M 241 152 C 241 153.946, 241.667 154, 265.500 154 C 289.333 154, 290 153.946, 290 152 C 290 150.054, 289.333 150, 265.500 150 C 241.667 150, 241 150.054, 241 152 M 116 170.475 C 97.204 175.955, 94.543 176.979, 94.845 178.622 C 95.035 179.655, 95.267 180.582, 95.360 180.682 C 95.547 180.882, 141.333 167.899, 141.774 167.521 C 142.643 166.775, 140.520 164.017, 139.143 164.104 C 138.239 164.161, 127.825 167.028, 116 170.475 M 243.583 165.643 C 243.237 166.547, 243.076 167.392, 243.226 167.521 C 243.667 167.899, 289.453 180.882, 289.640 180.682 C 289.733 180.582, 289.965 179.657, 290.155 178.626 C 290.457 176.987, 287.741 175.956, 268.500 170.407 C 256.400 166.917, 245.986 164.047, 245.357 164.031 C 244.728 164.014, 243.930 164.739, 243.583 165.643 M 125.988 268.232 C 118.303 280.764, 115.125 301.956, 118.515 318.069 C 121.762 333.505, 128.085 345.085, 139.500 356.500 C 150.915 367.915, 162.495 374.238, 177.931 377.485 C 195.740 381.232, 214.769 377.828, 231.779 367.855 C 239.134 363.542, 252.542 350.134, 256.855 342.779 C 270.066 320.247, 271.519 293.713, 260.730 272 L 257.500 265.500 233.556 265.500 L 209.612 265.500 209.868 271.022 C 210.009 274.059, 209.617 277.884, 208.998 279.522 C 206.727 285.532, 198.174 292, 192.500 292 C 186.826 292, 178.273 285.532, 176.002 279.522 C 175.383 277.884, 174.991 274.059, 175.132 271.022 L 175.389 265.500 151.691 265.232 L 127.993 264.964 125.988 268.232 M 76.426 274.160 C 69.866 278.648, 60.268 285.244, 55.095 288.817 L 45.691 295.313 51.140 298.069 C 62.651 303.889, 69.552 314.231, 70.801 327.531 L 71.500 334.969 80.462 326.984 C 85.392 322.593, 89.779 319, 90.212 319 C 90.646 319, 91 338.350, 91 362 L 91 405 132.776 405 L 174.552 405 176.526 400.797 C 177.612 398.486, 180.229 395.223, 182.343 393.547 C 185.708 390.878, 186.970 390.500, 192.500 390.500 C 198.030 390.500, 199.292 390.878, 202.657 393.547 C 204.771 395.223, 207.388 398.486, 208.474 400.797 L 210.448 405 252.224 405 L 294 405 294 362 C 294 338.350, 294.354 319, 294.788 319 C 295.221 319, 299.608 322.593, 304.538 326.984 L 313.500 334.969 314.199 327.531 C 315.448 314.231, 322.349 303.889, 333.860 298.069 L 339.309 295.313 329.905 288.817 C 324.732 285.244, 315.134 278.648, 308.574 274.160 L 296.649 266 279.709 266 L 262.770 266 264.194 268.250 C 270.126 277.623, 273.578 297.018, 271.934 311.745 C 267.352 352.807, 233.528 383.259, 192.500 383.259 C 151.472 383.259, 117.648 352.807, 113.066 311.745 C 111.422 297.018, 114.874 277.623, 120.806 268.250 L 122.230 266 105.291 266 L 88.351 266 76.426 274.160 M 179.607 267.582 C 178.595 270.220, 178.923 274.880, 180.364 278.329 C 181.689 281.501, 187.215 287, 189.077 287 C 190.377 287, 190.226 281.590, 188.841 278.551 C 187.876 276.432, 187.985 275.674, 189.496 274.004 C 190.494 272.902, 191.845 272, 192.500 272 C 193.155 272, 194.506 272.902, 195.504 274.004 C 197.015 275.674, 197.124 276.432, 196.159 278.551 C 194.774 281.590, 194.623 287, 195.923 287 C 197.785 287, 203.311 281.501, 204.636 278.329 C 206.077 274.880, 206.405 270.220, 205.393 267.582 C 204.885 266.258, 202.781 266, 192.500 266 C 182.219 266, 180.115 266.258, 179.607 267.582 M 25.882 300.321 C 12.601 305.287, 4.667 316.388, 4.671 330 C 4.675 343.894, 13.038 355.028, 26.868 359.551 C 39.849 363.797, 55.741 357.242, 62.479 344.862 C 66.332 337.782, 67.145 326.643, 64.375 318.886 C 62.167 312.705, 55.379 305.262, 48.918 301.941 C 43.448 299.128, 31.348 298.277, 25.882 300.321 M 339.698 300.384 C 330.865 303.674, 323.743 310.675, 320.522 319.233 C 317.830 326.387, 318.728 337.892, 322.521 344.862 C 329.259 357.242, 345.151 363.797, 358.132 359.551 C 384.954 350.779, 388.476 315.918, 363.894 302.539 C 357.484 299.050, 346.020 298.029, 339.698 300.384 M 135 305.451 C 135 318.412, 141.767 333.854, 151.838 343.872 C 163.546 355.520, 175.688 360.479, 192.500 360.479 C 209.312 360.479, 221.454 355.520, 233.162 343.872 C 243.233 333.854, 250 318.412, 250 305.451 L 250 301 192.500 301 L 135 301 135 305.451 M 139.017 306.750 C 139.027 307.163, 139.655 310.427, 140.414 314.003 C 144.908 335.200, 160.740 351.082, 181.835 355.553 C 190.225 357.331, 194.775 357.331, 203.165 355.553 C 224.260 351.082, 240.092 335.200, 244.586 314.003 C 245.345 310.427, 245.973 307.163, 245.983 306.750 C 245.992 306.337, 221.925 306, 192.500 306 C 163.075 306, 139.008 306.337, 139.017 306.750 M 0.300 330 C 0.300 333.025, 0.487 334.262, 0.716 332.750 C 0.945 331.238, 0.945 328.762, 0.716 327.250 C 0.487 325.738, 0.300 326.975, 0.300 330 M 85.346 412.048 C 80.921 414.891, 78.660 420.113, 79.240 426.151 C 80.146 435.574, 76.971 435.004, 128.405 434.968 C 162.623 434.944, 173.892 434.638, 175.123 433.701 C 180.933 429.277, 182.658 419.756, 178.710 413.898 L 176.421 410.500 132.460 410.261 C 89.800 410.029, 88.407 410.082, 85.346 412.048 M 207.783 411.750 C 205.124 414.799, 204 417.754, 204.004 421.684 C 204.008 425.544, 206.878 431.418, 209.877 433.701 C 211.108 434.638, 222.377 434.944, 256.595 434.968 C 308.029 435.004, 304.854 435.574, 305.760 426.151 C 306.346 420.042, 304.036 414.803, 299.526 412.016 C 296.386 410.076, 294.632 410, 252.787 410 C 212.628 410, 209.193 410.134, 207.783 411.750 " stroke="none" fill="black" fill-rule="evenodd"/>
	<path fill-opacity="0.959" d="M 179.184 1.104 C 163.162 2.529, 141.132 8.821, 126.899 16.038 C 117.592 20.756, 102.749 31.363, 94.402 39.260 C 70.223 62.136, 55.491 89.958, 50.329 122.491 C 49.130 130.046, 48.871 136.752, 49.267 149.991 C 49.721 165.170, 50.193 169.058, 52.816 179.207 C 57.776 198.403, 66.547 216.709, 78.037 231.846 L 83.847 239.500 80.803 241.917 C 74.150 247.199, 73.625 255.598, 79.586 261.387 L 82.922 264.627 60.952 279.563 L 38.983 294.500 32.089 295.139 C 5.080 297.643, -8.594 328.333, 7.314 350.740 C 12.977 358.715, 25.399 365, 35.500 365 C 40.773 365, 49.275 362.484, 53.903 359.555 C 55.882 358.303, 59.300 355.128, 61.500 352.500 C 63.700 349.871, 70 343.284, 75.500 337.861 L 85.500 328.002 85.762 366.942 L 86.023 405.882 81.078 410.826 C 75.669 416.236, 74.392 419.909, 75.255 427.573 C 75.531 430.020, 76.824 433.588, 78.128 435.504 L 80.500 438.986 128.054 438.993 L 175.608 439 178.753 435.750 C 186.476 427.770, 186.848 417.541, 179.771 407.739 C 178.714 406.274, 178.836 405.363, 180.500 402.320 C 183.379 397.054, 187.299 394.500, 192.500 394.500 C 197.701 394.500, 201.621 397.054, 204.500 402.320 C 206.164 405.363, 206.286 406.274, 205.229 407.739 C 198.152 417.541, 198.524 427.770, 206.247 435.750 L 209.392 439 256.946 438.993 L 304.500 438.986 306.872 435.504 C 308.176 433.588, 309.469 430.020, 309.745 427.573 C 310.608 419.909, 309.331 416.236, 303.922 410.826 L 298.977 405.882 299.238 366.942 L 299.500 328.002 309.500 337.861 C 315 343.284, 321.300 349.871, 323.500 352.500 C 328.332 358.272, 332.926 361.307, 340.028 363.416 C 357.174 368.507, 375.683 359.238, 382.331 342.230 C 383.249 339.881, 384 336.870, 384 335.539 C 384 334.207, 384.450 332.840, 385 332.500 C 385.550 332.160, 386 330.532, 386 328.882 C 386 327.137, 385.582 326.140, 385 326.500 C 384.434 326.850, 384 326.023, 384 324.597 C 384 320.168, 380.058 311.347, 376.038 306.780 C 370.465 300.450, 361.496 295.935, 352.911 295.139 L 346.017 294.500 324.048 279.563 L 302.078 264.627 305.414 261.387 C 311.375 255.598, 310.850 247.199, 304.197 241.917 L 301.153 239.500 306.963 231.846 C 318.453 216.709, 327.224 198.403, 332.184 179.207 C 334.807 169.058, 335.279 165.170, 335.733 149.991 C 336.129 136.752, 335.870 130.046, 334.671 122.491 C 328.292 82.286, 305.455 46.520, 272.194 24.644 C 256.574 14.370, 243.819 8.839, 225.717 4.492 C 216.719 2.330, 196.095 -0.215, 190.500 0.146 C 189.400 0.217, 184.308 0.648, 179.184 1.104 M 177.090 5.048 C 135.739 10.238, 100.993 31.199, 76.885 65.500 C 54.814 96.901, 47.112 139.561, 56.597 177.865 C 61.929 199.398, 73.689 222.285, 86.339 235.750 C 89.243 238.841, 89.750 239, 96.690 239 L 103.987 239 97.177 232.250 C 68.378 203.705, 60.664 164.514, 77.065 130.072 C 83.416 116.735, 92.234 105.542, 104.624 95.087 L 110.748 89.920 111.195 82.190 C 113.049 50.164, 149.110 33.065, 176.516 51.218 C 179.158 52.969, 183.161 56.784, 185.410 59.697 C 188.738 64.005, 190.059 64.992, 192.500 64.992 C 194.941 64.992, 196.262 64.005, 199.590 59.697 C 215.527 39.059, 248.024 38.459, 264.446 58.499 C 270.243 65.574, 273.289 73.286, 273.805 82.190 L 274.252 89.920 280.376 95.087 C 325.469 133.136, 328.653 191.781, 287.823 232.250 L 281.013 239 288.310 239 C 295.250 239, 295.757 238.841, 298.661 235.750 C 321.615 211.317, 335.136 169.576, 331.956 132.960 C 325.751 61.498, 268.363 6.994, 196.738 4.537 C 190.007 4.307, 181.166 4.536, 177.090 5.048 M 146 48.159 C 121.390 52.162, 107.672 79.642, 118.900 102.448 C 132.529 130.132, 172.571 129.948, 186.250 102.138 C 189.292 95.955, 189.500 94.857, 189.500 85.016 C 189.500 75.408, 189.254 74.025, 186.650 69 C 178.628 53.517, 162.837 45.421, 146 48.159 M 226 48.159 C 218.873 49.318, 211.642 53.089, 205.952 58.612 C 187.314 76.704, 192.959 108.851, 216.682 119.712 C 248.671 134.357, 281.059 101.621, 266.555 69.302 C 259.753 54.145, 242.976 45.399, 226 48.159 M 191.710 71 C 191.998 72.100, 192.353 73, 192.500 73 C 192.647 73, 193.002 72.100, 193.290 71 C 193.617 69.750, 193.320 69, 192.500 69 C 191.680 69, 191.383 69.750, 191.710 71 M 102.791 101.988 C 89.067 114.634, 79.281 130.416, 74.880 147 C 72.057 157.639, 71.810 174.954, 74.334 185.296 C 78.372 201.842, 86.757 216.056, 100.555 229.750 L 109.877 239 192.500 239 L 275.123 239 284.445 229.750 C 303.710 210.631, 312.296 191.325, 312.350 167 C 312.392 148.283, 306.806 131.925, 294.878 115.836 C 290.180 109.498, 275.578 95, 273.893 95 C 273.490 95, 272.412 97.255, 271.496 100.012 C 268.687 108.469, 260.080 118.297, 251.648 122.676 C 240.523 128.453, 224.433 128.412, 213.152 122.579 C 209.194 120.532, 209.273 120.498, 209.793 124.042 C 210.823 131.062, 205.051 139.508, 197.525 141.992 L 194 143.155 194 183.220 L 194 223.286 201.774 222.753 C 221.879 221.375, 245.048 208.993, 259.368 191.974 C 261.567 189.361, 262.308 189.011, 263.517 190.014 C 266.738 192.687, 250.192 208.209, 235.919 215.904 C 212.826 228.355, 186.995 230.518, 162.581 222.046 C 148.848 217.280, 132.751 206.453, 124.182 196.217 C 120.613 191.954, 120.223 191.059, 121.483 190.014 C 122.692 189.011, 123.433 189.361, 125.632 191.974 C 139.952 208.993, 163.121 221.375, 183.226 222.753 L 191 223.286 191 183.220 L 191 143.155 187.475 141.992 C 179.949 139.508, 174.177 131.062, 175.207 124.042 C 175.727 120.498, 175.806 120.532, 171.848 122.579 C 160.567 128.412, 144.477 128.453, 133.352 122.676 C 124.920 118.297, 116.313 108.469, 113.504 100.012 C 112.588 97.255, 111.510 95, 111.107 95 C 110.704 95, 106.962 98.145, 102.791 101.988 M 168.746 98.250 C 164.197 101.725, 166.766 109.250, 172.500 109.250 C 175.674 109.250, 179 105.995, 179 102.889 C 179 98.397, 172.439 95.429, 168.746 98.250 M 208 99 C 205.518 101.482, 205.456 104.106, 207.810 107.014 C 211.697 111.814, 219.934 108.001, 218.507 102.063 C 217.285 96.981, 211.659 95.341, 208 99 M 190.453 102.859 C 189.379 105.375, 188.387 107.673, 188.250 107.967 C 188.113 108.260, 190.025 108.500, 192.500 108.500 C 194.975 108.500, 197 108.432, 197 108.349 C 197 108.266, 195.967 105.968, 194.703 103.242 L 192.407 98.284 190.453 102.859 M 188.333 113.087 C 178.420 115.989, 176.615 130.771, 185.466 136.569 C 186.806 137.448, 189.972 138.167, 192.500 138.167 C 200.375 138.167, 205.167 133.375, 205.167 125.500 C 205.167 116.312, 197.253 110.476, 188.333 113.087 M 95 125.814 C 95 127.324, 98.773 128.697, 117.485 133.996 C 129.852 137.498, 140.258 140.076, 140.609 139.725 C 142.586 137.747, 138.165 135.863, 118.320 130.226 C 106.265 126.802, 96.087 124, 95.701 124 C 95.316 124, 95 124.816, 95 125.814 M 266.008 130.352 C 249.574 135.101, 244.437 136.968, 244.184 138.282 C 244.002 139.227, 244.427 140, 245.128 140 C 245.829 140, 256.212 137.213, 268.201 133.808 C 286.276 128.673, 290 127.306, 290 125.808 C 290 124.813, 289.438 124.032, 288.750 124.071 C 288.063 124.110, 277.828 126.936, 266.008 130.352 M 95 152 C 95 153.944, 95.667 154, 119 154 C 142.333 154, 143 153.944, 143 152 C 143 150.056, 142.333 150, 119 150 C 95.667 150, 95 150.056, 95 152 M 242 152 C 242 153.944, 242.667 154, 266 154 C 289.333 154, 290 153.944, 290 152 C 290 150.056, 289.333 150, 266 150 C 242.667 150, 242 150.056, 242 152 M 117 170.455 C 101.078 175.082, 95.416 177.131, 95.177 178.351 C 94.999 179.258, 95.427 180, 96.128 180 C 96.829 180, 107.212 177.213, 119.201 173.808 C 137.276 168.673, 141 167.306, 141 165.808 C 141 164.813, 140.438 164.047, 139.750 164.104 C 139.063 164.161, 128.825 167.019, 117 170.455 M 244 165.808 C 244 167.306, 247.724 168.673, 265.799 173.808 C 277.788 177.213, 288.171 180, 288.872 180 C 289.573 180, 290.001 179.260, 289.823 178.356 C 289.584 177.137, 283.812 175.077, 267.500 170.387 C 255.400 166.908, 245.162 164.047, 244.750 164.031 C 244.338 164.014, 244 164.813, 244 165.808 M 82.455 246.455 C 79.086 249.823, 79.140 254.844, 82.581 258.076 L 85.161 260.500 192.500 260.500 L 299.839 260.500 302.419 258.076 C 305.860 254.844, 305.914 249.823, 302.545 246.455 L 300.091 244 192.500 244 L 84.909 244 82.455 246.455 M 67.165 280.067 L 44.950 295.135 50.872 298.094 C 62.775 304.042, 70.169 315.613, 70.380 328.621 C 70.446 332.675, 70.660 335.994, 70.856 335.996 C 71.052 335.998, 75.439 332.120, 80.606 327.377 L 90 318.754 90 362.377 L 90 406 132.422 406 L 174.845 406 176.013 402.460 C 178.722 394.252, 188.306 389.021, 196.723 391.158 C 201.790 392.444, 207.382 397.597, 208.987 402.460 L 210.155 406 252.578 406 L 295 406 295 362.377 L 295 318.754 304.394 327.377 C 309.561 332.120, 313.948 335.998, 314.144 335.996 C 314.340 335.994, 314.554 332.675, 314.620 328.621 C 314.831 315.613, 322.225 304.042, 334.128 298.094 L 340.050 295.135 317.835 280.067 L 295.621 265 279.203 265 C 263.946 265, 262.839 265.124, 263.542 266.750 C 270.001 281.702, 272.483 294.095, 271.729 307.633 C 270.645 327.102, 263.419 344.017, 250.049 358.390 C 240.970 368.149, 226.066 376.899, 212 380.727 C 202.994 383.178, 182.006 383.178, 173 380.727 C 158.934 376.899, 144.030 368.149, 134.951 358.390 C 121.581 344.017, 114.355 327.102, 113.271 307.633 C 112.517 294.095, 114.999 281.702, 121.458 266.750 C 122.161 265.124, 121.054 265, 105.797 265 L 89.379 265 67.165 280.067 M 123.975 271.250 C 110.576 299.925, 116.736 334.640, 139.211 357.115 C 164.134 382.039, 203.903 386.257, 233.262 367.092 C 265.224 346.227, 277.025 305.490, 261.025 271.250 L 258.105 265 233.600 265 L 209.094 265 209.686 269.993 C 210.809 279.477, 205.039 288.410, 196.049 291.103 C 192.698 292.107, 191.354 292.025, 187.580 290.584 C 179.190 287.379, 174.246 279.016, 175.330 269.862 L 175.906 265 151.400 265 L 126.895 265 123.975 271.250 M 179.607 266.582 C 178.479 269.522, 178.991 276.178, 180.606 279.583 C 182.124 282.781, 187.392 287, 189.868 287 C 191.454 287, 191.279 282.766, 189.556 279.445 C 187.738 275.940, 189.081 273, 192.500 273 C 195.919 273, 197.262 275.940, 195.444 279.445 C 193.721 282.766, 193.546 287, 195.132 287 C 197.608 287, 202.876 282.781, 204.394 279.583 C 206.009 276.178, 206.521 269.522, 205.393 266.582 C 204.885 265.258, 202.781 265, 192.500 265 C 182.219 265, 180.115 265.258, 179.607 266.582 M 32 298.707 C 20.973 300.483, 11.139 307.762, 6.883 317.298 C 3.394 325.118, 3.565 335.596, 7.306 343.214 C 17.221 363.405, 44.221 367.052, 59.051 350.204 C 66.344 341.920, 68.555 327.869, 64.155 317.780 C 58.908 305.748, 43.826 296.802, 32 298.707 M 344.355 299.042 C 334.267 301.032, 324.882 308.525, 320.823 317.830 C 316.445 327.866, 318.673 341.939, 325.949 350.204 C 340.779 367.052, 367.779 363.405, 377.694 343.214 C 381.435 335.596, 381.606 325.118, 378.117 317.298 C 372.496 304.703, 357.304 296.488, 344.355 299.042 M 135.379 308.163 C 137.503 331.024, 151.718 349.198, 174 357.542 C 180.551 359.995, 182.892 360.350, 192.500 360.350 C 202.108 360.350, 204.449 359.995, 211 357.542 C 233.282 349.198, 247.497 331.024, 249.621 308.163 L 250.287 301 192.500 301 L 134.713 301 135.379 308.163 M 139.015 307.250 C 139.023 308.488, 139.709 312.383, 140.540 315.907 C 146.044 339.259, 168.477 357, 192.500 357 C 216.523 357, 238.956 339.259, 244.460 315.907 C 245.291 312.383, 245.977 308.488, 245.985 307.250 L 246 305 192.500 305 L 139 305 139.015 307.250 M 0.232 330 C 0.232 331.925, 0.438 332.712, 0.689 331.750 C 0.941 330.788, 0.941 329.212, 0.689 328.250 C 0.438 327.288, 0.232 328.075, 0.232 330 M 84.615 412.088 C 83.155 413.237, 81.294 415.465, 80.480 417.039 C 78.563 420.747, 78.586 428.298, 80.526 432.050 L 82.051 435 128.519 435 L 174.987 435 178.084 430.750 C 180.854 426.949, 181.139 425.906, 180.785 420.872 C 180.568 417.777, 179.617 414.064, 178.672 412.622 L 176.954 410 132.112 410 C 88.152 410, 87.217 410.041, 84.615 412.088 M 206.328 412.622 C 205.383 414.064, 204.432 417.777, 204.215 420.872 C 203.861 425.906, 204.146 426.949, 206.916 430.750 L 210.013 435 256.481 435 L 302.949 435 304.474 432.050 C 306.414 428.298, 306.437 420.747, 304.520 417.039 C 303.706 415.465, 301.845 413.237, 300.385 412.088 C 297.783 410.041, 296.848 410, 252.888 410 L 208.046 410 206.328 412.622 " stroke="none" fill="black" fill-rule="evenodd"/>
</svg>