<svg xmlns="http://www.w3.org/2000/svg" width="385" height="439" viewBox="0 0 385 439" version="1.1">
	<path fill-opacity="0.694" d="M 175.165 1.108 C 126.721 7.639, 85.431 36.768, 64.046 79.500 C 60.743 86.100, 56.924 94.992, 55.559 99.260 C 40.688 145.756, 49.384 195.487, 79.047 233.596 L 83.792 239.692 81.017 241.331 C 78.044 243.087, 75 248.451, 75 251.933 C 75 255.263, 77.641 260.759, 79.926 262.186 C 81.067 262.898, 82 263.792, 82 264.172 C 82 264.552, 72.663 271.276, 61.250 279.115 C 40.830 293.140, 40.377 293.387, 32.781 294.623 C 22.792 296.248, 17.217 298.781, 11.162 304.445 C 3.828 311.305, 0.564 319.167, 0.552 330 C 0.545 337.077, 0.981 339.441, 3.157 344.120 C 6.825 352.007, 12.118 357.440, 19.836 361.240 C 35.967 369.183, 55.399 363.966, 65.026 349.110 C 67.749 344.907, 80.853 331.966, 84.750 329.631 C 85.741 329.037, 86 336.918, 86 367.725 L 86 406.569 83.014 408.333 C 75.099 413.008, 72.382 425.857, 77.471 434.540 L 80.084 439 127.577 439 C 180.979 439, 177.907 439.428, 182.655 431.325 C 186.217 425.248, 185.761 416.149, 181.595 410.137 L 178.771 406.063 180.733 402.281 C 185.860 392.399, 199.140 392.399, 204.267 402.281 L 206.229 406.063 203.405 410.137 C 199.239 416.149, 198.783 425.248, 202.345 431.325 C 207.093 439.428, 204.021 439, 257.423 439 L 304.916 439 307.529 434.540 C 312.618 425.857, 309.901 413.008, 301.986 408.333 L 299 406.569 299 367.725 C 299 336.918, 299.259 329.037, 300.250 329.631 C 304.117 331.948, 317.240 344.891, 319.926 349.036 C 331.016 366.149, 354.805 370.132, 371.282 357.633 C 376.394 353.756, 381.584 346.288, 383.082 340.654 C 383.690 338.369, 384.595 335.719, 385.094 334.764 C 386.347 332.362, 386.269 323.716, 385 324.500 C 384.444 324.844, 384 324.094, 383.999 322.809 C 383.998 318.569, 378.443 308.630, 373.576 304.161 C 367.655 298.723, 362.060 296.224, 352.219 294.623 C 344.623 293.387, 344.170 293.140, 323.750 279.115 C 312.337 271.276, 303 264.552, 303 264.172 C 303 263.792, 303.933 262.898, 305.074 262.186 C 307.359 260.759, 310 255.263, 310 251.933 C 310 248.451, 306.956 243.087, 303.983 241.331 L 301.208 239.692 305.953 233.596 C 332.209 199.865, 342.196 156.755, 333.504 114.674 C 330.969 102.402, 327.379 92.339, 320.956 79.500 C 300.794 39.200, 263.527 11.373, 217.811 2.484 C 207.610 0.501, 185.066 -0.227, 175.165 1.108 M 175 5.614 C 139.299 12.025, 117.027 23.049, 94.426 45.500 C 73.798 65.989, 61.441 88.884, 55.295 118 C 52.738 130.112, 52.781 160.091, 55.371 171.960 C 57.810 183.138, 61.334 193.605, 66.149 203.978 C 70.962 214.348, 74.496 220.047, 82.748 230.750 L 89.109 239 96.228 239 L 103.347 239 95.848 231.250 C 83.585 218.577, 76.168 206.177, 71.349 190.297 C 69.026 182.642, 68.671 179.683, 68.610 167.500 C 68.552 155.800, 68.913 152.203, 70.807 145.605 C 76.617 125.365, 89.314 106.488, 105.533 93.975 C 109.366 91.017, 110.659 89.412, 110.303 88.051 C 109.460 84.827, 111.768 73.186, 114.383 67.474 C 117.827 59.953, 125.938 51.648, 133.457 47.947 C 150.794 39.411, 170.367 42.988, 183.409 57.075 C 186.484 60.396, 189 63.538, 189 64.057 C 189 64.576, 190.575 65, 192.500 65 C 194.425 65, 196 64.576, 196 64.057 C 196 63.538, 198.516 60.396, 201.591 57.075 C 225.690 31.046, 268.658 44.260, 274.126 79.381 C 274.708 83.123, 274.965 87.024, 274.697 88.051 C 274.341 89.412, 275.634 91.017, 279.467 93.975 C 295.686 106.488, 308.383 125.365, 314.193 145.605 C 316.087 152.203, 316.448 155.800, 316.390 167.500 C 316.329 179.683, 315.974 182.642, 313.651 190.297 C 308.832 206.177, 301.415 218.577, 289.152 231.250 L 281.653 239 288.772 239 L 295.891 239 302.252 230.750 C 310.504 220.047, 314.038 214.348, 318.851 203.978 C 323.666 193.605, 327.190 183.138, 329.629 171.960 C 332.219 160.091, 332.262 130.112, 329.705 118 C 323.559 88.884, 311.202 65.989, 290.574 45.500 C 275.153 30.182, 261.322 21.255, 240.983 13.493 C 225.663 7.647, 214.722 5.729, 195 5.430 C 185.375 5.284, 176.375 5.367, 175 5.614 M 138.729 50.373 C 122.907 57.009, 114.218 70.930, 115.209 88.054 C 116.001 101.724, 123.860 113.348, 136.513 119.560 C 141.926 122.218, 143.459 122.500, 152.500 122.500 C 161.264 122.500, 163.209 122.168, 168.236 119.812 C 175.564 116.377, 183.377 108.564, 186.812 101.236 C 189.168 96.209, 189.500 94.264, 189.500 85.500 C 189.500 76.736, 189.168 74.791, 186.812 69.764 C 183.374 62.429, 175.557 54.616, 168.236 51.199 C 159.893 47.306, 146.910 46.942, 138.729 50.373 M 218.729 50.373 C 203.005 56.968, 194.308 70.636, 195.190 87.367 C 195.948 101.721, 203.998 113.829, 216.764 119.812 C 221.791 122.168, 223.736 122.500, 232.500 122.500 C 241.541 122.500, 243.074 122.218, 248.487 119.560 C 256.113 115.816, 262.816 109.113, 266.560 101.487 C 269.218 96.074, 269.500 94.541, 269.500 85.500 C 269.500 76.736, 269.168 74.791, 266.812 69.764 C 263.374 62.429, 255.557 54.616, 248.236 51.199 C 239.893 47.306, 226.910 46.942, 218.729 50.373 M 192.079 70.583 C 192.127 71.748, 192.364 71.985, 192.683 71.188 C 192.972 70.466, 192.936 69.603, 192.604 69.271 C 192.272 68.939, 192.036 69.529, 192.079 70.583 M 105.140 100.043 C 92.001 111.021, 79.356 130.564, 75.403 146 C 70.531 165.023, 72.717 186.578, 81.231 203.465 C 87.367 215.636, 96.980 227.776, 106.338 235.173 L 111.180 239 192.500 239 L 273.820 239 278.662 235.173 C 288.020 227.776, 297.633 215.636, 303.769 203.465 C 312.283 186.578, 314.469 165.023, 309.597 146 C 305.644 130.564, 292.999 111.021, 279.860 100.043 L 273.727 94.918 271.441 100.544 C 266.918 111.673, 260.271 118.698, 249.672 123.550 C 238.828 128.514, 226.250 128.550, 215.540 123.647 L 210 121.111 210 124.990 C 210 127.124, 209.522 130.137, 208.939 131.685 C 207.432 135.680, 202.222 140.772, 198.322 142.059 L 195 143.155 195 183.221 L 195 223.287 201.750 222.652 C 221.028 220.840, 242.056 210.298, 255.623 195.645 C 261.429 189.373, 262.245 188.817, 263.620 190.192 C 264.995 191.566, 264.563 192.358, 259.389 197.946 C 241.746 217.003, 218.497 227.156, 192.500 227.156 C 166.503 227.156, 143.254 217.003, 125.611 197.946 C 120.437 192.358, 120.005 191.566, 121.380 190.192 C 122.755 188.817, 123.571 189.373, 129.377 195.645 C 142.944 210.298, 163.972 220.840, 183.250 222.652 L 190 223.287 190 183.221 L 190 143.155 186.678 142.059 C 182.778 140.772, 177.568 135.680, 176.061 131.685 C 175.478 130.137, 175 127.124, 175 124.990 L 175 121.111 169.460 123.647 C 158.750 128.550, 146.172 128.514, 135.328 123.550 C 124.729 118.698, 118.082 111.673, 113.559 100.544 L 111.273 94.918 105.140 100.043 M 167.557 99.223 C 166.701 100.445, 166 102.437, 166 103.650 C 166 105.874, 170.223 110, 172.500 110 C 174.777 110, 179 105.874, 179 103.650 C 179 99.817, 176.246 97, 172.500 97 C 170.134 97, 168.644 97.670, 167.557 99.223 M 207.557 99.223 C 206.701 100.445, 206 102.437, 206 103.650 C 206 105.874, 210.223 110, 212.500 110 C 214.777 110, 219 105.874, 219 103.650 C 219 99.817, 216.246 97, 212.500 97 C 210.134 97, 208.644 97.670, 207.557 99.223 M 190.202 103.522 L 188.026 108 192.533 108 L 197.041 108 194.897 103.750 C 193.719 101.412, 192.669 99.397, 192.566 99.272 C 192.462 99.147, 191.398 101.059, 190.202 103.522 M 95 125.860 C 95 127.427, 98.571 128.740, 117.750 134.224 C 137.587 139.895, 140.582 140.521, 141.136 139.114 C 141.487 138.226, 141.487 137.210, 141.136 136.856 C 140.406 136.115, 98.080 124, 96.225 124 C 95.551 124, 95 124.837, 95 125.860 M 265.500 130.178 C 253.950 133.496, 244.214 136.501, 243.864 136.855 C 243.513 137.210, 243.513 138.226, 243.864 139.114 C 244.418 140.521, 247.413 139.895, 267.250 134.224 C 286.429 128.740, 290 127.427, 290 125.860 C 290 124.728, 289.315 124.028, 288.250 124.072 C 287.288 124.112, 277.050 126.859, 265.500 130.178 M 95 152 C 95 153.946, 95.667 154, 119.500 154 C 143.333 154, 144 153.946, 144 152 C 144 150.054, 143.333 150, 119.500 150 C 95.667 150, 95 150.054, 95 152 M 241 152 C 241 153.946, 241.667 154, 265.500 154 C 289.333 154, 290 153.946, 290 152 C 290 150.054, 289.333 150, 265.500 150 C 241.667 150, 241 150.054, 241 152 M 116 170.475 C 97.204 175.955, 94.543 176.979, 94.845 178.622 C 95.035 179.655, 95.267 180.582, 95.360 180.682 C 95.547 180.882, 141.333 167.899, 141.774 167.521 C 142.643 166.775, 140.520 164.017, 139.143 164.104 C 138.239 164.161, 127.825 167.028, 116 170.475 M 243.583 165.643 C 243.237 166.547, 243.076 167.392, 243.226 167.521 C 243.667 167.899, 289.453 180.882, 289.640 180.682 C 289.733 180.582, 289.965 179.657, 290.155 178.626 C 290.457 176.987, 287.741 175.956, 268.500 170.407 C 256.400 166.917, 245.986 164.047, 245.357 164.031 C 244.728 164.014, 243.930 164.739, 243.583 165.643 M 125.988 268.232 C 120.046 277.923, 116.536 293.556, 117.288 306.987 C 117.971 319.188, 119.891 326.290, 125.594 337.711 C 133.033 352.609, 145.096 364.366, 160.317 371.554 C 171.740 376.949, 178.879 378.486, 192.500 378.486 C 206.121 378.486, 213.260 376.949, 224.683 371.554 C 239.899 364.369, 251.962 352.612, 259.411 337.711 C 265.885 324.760, 267.486 317.974, 267.486 303.500 C 267.486 289.862, 265.870 282.319, 260.735 272 L 257.500 265.500 233.545 265.500 L 209.591 265.500 209.870 270.759 C 210.247 277.857, 208.629 282.199, 204.075 286.313 C 196.315 293.324, 188.707 293.344, 180.994 286.375 C 176.373 282.200, 174.752 277.883, 175.130 270.759 L 175.410 265.500 151.701 265.232 L 127.993 264.964 125.988 268.232 M 180.035 266.934 C 177.436 271.791, 179.730 279.912, 184.941 284.297 C 189.313 287.976, 190.321 287.752, 189.657 283.250 C 188.455 275.098, 188.484 274.800, 190.606 273.368 C 192.472 272.110, 192.983 272.165, 195.070 273.856 C 197.169 275.555, 197.295 276.058, 196.214 278.430 C 194.784 281.568, 194.600 287, 195.923 287 C 197.785 287, 203.311 281.501, 204.636 278.329 C 206.259 274.445, 206.398 269.612, 204.965 266.934 C 204.034 265.195, 202.777 265, 192.500 265 C 182.223 265, 180.966 265.195, 180.035 266.934 M 66.814 280.689 L 45.293 295.379 50.897 298.039 C 62.415 303.509, 69.543 314.089, 70.801 327.586 L 71.500 335.078 80.500 327.061 L 89.500 319.043 89.761 362.022 L 90.021 405 132.443 405 L 174.865 405 175.549 402.750 C 177.564 396.115, 185.694 390, 192.500 390 C 199.306 390, 207.436 396.115, 209.451 402.750 L 210.135 405 252.557 405 L 294.979 405 295.239 362.022 L 295.500 319.043 304.500 327.061 L 313.500 335.078 314.199 327.586 C 315.457 314.089, 322.585 303.509, 334.103 298.039 L 339.707 295.379 318.186 280.689 L 296.666 266 279.807 266 L 262.949 266 264.458 268.919 C 269.697 279.049, 272.296 291.029, 272.177 304.500 C 271.915 334.314, 254.978 361.486, 228.500 374.572 C 215.954 380.772, 206.123 383.102, 192.500 383.102 C 155.528 383.102, 124.117 358.557, 114.945 322.500 C 110.596 305.402, 112.854 283.785, 120.542 268.919 L 122.051 266 105.193 266 L 88.334 266 66.814 280.689 M 27 299.876 C 21.549 301.669, 16.190 305.047, 12.738 308.868 C 7.981 314.134, 6.443 317.260, 4.998 324.603 C 2.786 335.848, 7.409 347.593, 16.765 354.496 C 28.164 362.906, 41.864 363.005, 53.843 354.764 C 67.923 345.078, 70.337 323.467, 58.872 309.751 C 53.335 303.127, 46.154 299.707, 37.038 299.350 C 32.892 299.187, 28.375 299.424, 27 299.876 M 339.882 300.321 C 327.016 305.132, 318.807 316.401, 318.868 329.168 C 318.938 343.915, 326.608 354.733, 340.285 359.376 C 349.561 362.524, 359.769 360.742, 368.235 354.496 C 374.316 350.009, 377.516 345.091, 379.560 337.090 C 380.942 331.680, 381.011 329.733, 380.002 324.603 C 378.557 317.259, 377.019 314.134, 372.257 308.863 C 366.763 302.782, 359.993 299.743, 351 299.320 C 346.305 299.100, 342.147 299.474, 339.882 300.321 M 135.332 308.395 C 136.491 322.113, 142.437 334.665, 152.433 344.500 C 159.736 351.686, 168.138 356.350, 178.596 359.025 C 188.384 361.528, 196.616 361.528, 206.404 359.025 C 216.862 356.350, 225.264 351.686, 232.567 344.500 C 242.563 334.665, 248.509 322.113, 249.668 308.395 L 250.293 301 192.500 301 L 134.707 301 135.332 308.395 M 139.415 306.362 C 138.531 308.666, 141.884 321.017, 145.272 327.935 C 153.347 344.426, 173.747 356.965, 192.500 356.965 C 211.253 356.965, 231.653 344.426, 239.728 327.935 C 243.116 321.017, 246.469 308.666, 245.585 306.362 C 244.808 304.336, 140.192 304.336, 139.415 306.362 M 0.300 330 C 0.300 333.025, 0.487 334.262, 0.716 332.750 C 0.945 331.238, 0.945 328.762, 0.716 327.250 C 0.487 325.738, 0.300 326.975, 0.300 330 M 85.346 412.048 C 80.921 414.891, 78.660 420.113, 79.240 426.151 C 80.146 435.574, 76.971 435.004, 128.405 434.968 C 162.623 434.944, 173.892 434.638, 175.123 433.701 C 180.933 429.277, 182.658 419.756, 178.710 413.898 L 176.421 410.500 132.460 410.261 C 89.800 410.029, 88.407 410.082, 85.346 412.048 M 207.783 411.750 C 205.124 414.799, 204 417.754, 204.004 421.684 C 204.008 425.544, 206.878 431.418, 209.877 433.701 C 211.108 434.638, 222.377 434.944, 256.595 434.968 C 308.029 435.004, 304.854 435.574, 305.760 426.151 C 306.346 420.042, 304.036 414.803, 299.526 412.016 C 296.386 410.076, 294.632 410, 252.787 410 C 212.628 410, 209.193 410.134, 207.783 411.750 " stroke="none" fill="black" fill-rule="evenodd"/>
	<path fill-opacity="0.339" d="M 181.500 0.610 C 146.780 4.182, 117.284 17.417, 93.618 40.042 C 66.992 65.496, 52.023 96.918, 49.031 133.635 C 46.184 168.564, 56.144 202.441, 77.877 231.753 L 83.815 239.761 80.815 241.978 C 74.209 246.863, 73.552 255.511, 79.349 261.271 L 82.599 264.500 77.171 268.309 C 74.185 270.404, 64.253 277.197, 55.099 283.404 C 38.930 294.368, 38.271 294.705, 31.978 295.215 C 16.105 296.503, 3.916 307.871, 0.909 324.190 C -2.925 344.996, 14.020 365, 35.477 365 C 47.041 365, 56.806 359.659, 64.951 348.879 C 69.203 343.252, 83.879 329, 85.422 329 C 85.740 329, 85.988 346.438, 85.972 367.750 L 85.945 406.500 82.483 409 C 74.864 414.501, 72.693 426.914, 77.882 435.308 L 80.163 439 127.915 439 L 175.667 439 179.300 435.367 C 183.799 430.867, 185.359 426.346, 184.788 419.460 C 184.474 415.671, 183.560 413.112, 181.604 410.548 C 179.104 407.270, 178.963 406.642, 180.012 403.465 C 183.809 391.959, 201.191 391.959, 204.988 403.465 C 206.037 406.642, 205.896 407.270, 203.396 410.548 C 201.440 413.112, 200.526 415.671, 200.212 419.460 C 199.641 426.346, 201.201 430.867, 205.700 435.367 L 209.333 439 257.085 439 L 304.837 439 307.118 435.308 C 312.307 426.914, 310.136 414.501, 302.517 409 L 299.055 406.500 299.028 367.750 C 299.012 346.438, 299.260 329, 299.578 329 C 301.121 329, 315.797 343.252, 320.049 348.879 C 328.194 359.659, 337.959 365, 349.523 365 C 364.702 365, 379.364 354.057, 383.018 340 C 383.661 337.525, 384.595 334.719, 385.094 333.764 C 386.255 331.539, 386.280 324.709, 385.125 325.423 C 384.644 325.720, 383.949 324.085, 383.582 321.789 C 381.413 308.225, 367.834 296.417, 353.022 295.215 C 346.729 294.705, 346.070 294.368, 329.901 283.404 C 320.747 277.197, 310.815 270.404, 307.829 268.309 L 302.401 264.500 305.651 261.271 C 311.448 255.511, 310.791 246.863, 304.185 241.978 L 301.185 239.761 307.123 231.753 C 333.036 196.804, 342.244 154.501, 332.985 112.935 C 320.468 56.737, 274.018 12.376, 217.433 2.578 C 208.162 0.973, 188.462 -0.106, 181.500 0.610 M 181 5.010 C 168.634 6.075, 160.874 7.687, 148.604 11.741 C 127.657 18.660, 112.216 28.045, 95.867 43.793 C 75.386 63.522, 62.278 86.627, 55.829 114.369 C 52.793 127.431, 52.139 153.170, 54.487 167.224 C 58.549 191.531, 70.192 216.845, 85.580 234.823 L 89.156 239 96.299 239 L 103.442 239 97.381 232.750 C 82.927 217.846, 74.905 203.984, 70.619 186.500 C 62.777 154.511, 75.896 118.526, 103.729 95.682 C 109.189 91.201, 111.004 89.122, 110.647 87.760 C 109.777 84.432, 111.793 74.133, 114.450 68.328 C 121.547 52.826, 135.629 43.718, 152.500 43.718 C 165.609 43.718, 177.484 49.434, 185.241 59.478 C 188.727 63.992, 190.044 64.992, 192.500 64.992 C 194.956 64.992, 196.273 63.992, 199.759 59.478 C 207.516 49.434, 219.391 43.718, 232.500 43.718 C 249.371 43.718, 263.453 52.826, 270.550 68.328 C 273.207 74.133, 275.223 84.432, 274.353 87.760 C 273.996 89.122, 275.811 91.201, 281.271 95.682 C 309.104 118.526, 322.223 154.511, 314.381 186.500 C 310.095 203.984, 302.073 217.846, 287.619 232.750 L 281.558 239 288.701 239 L 295.844 239 299.420 234.823 C 314.808 216.845, 326.451 191.531, 330.513 167.224 C 332.861 153.170, 332.207 127.431, 329.171 114.369 C 324.850 95.781, 317.104 78.505, 306.159 63.043 C 298.651 52.437, 281.376 35.451, 271.199 28.670 C 244.599 10.945, 211.848 2.354, 181 5.010 M 147.357 48.104 C 135.363 49.623, 124.249 57.686, 118.750 68.856 C 115.739 74.973, 115.500 76.194, 115.500 85.479 C 115.500 94.209, 115.836 96.208, 118.110 101 C 121.981 109.158, 128.040 115.402, 135.782 119.213 C 141.983 122.266, 143.171 122.500, 152.479 122.500 C 161.240 122.500, 163.213 122.166, 168.175 119.840 C 176.121 116.115, 182.397 109.970, 186.250 102.144 C 189.263 96.024, 189.500 94.809, 189.500 85.500 C 189.500 76.191, 189.263 74.976, 186.250 68.856 C 179.080 54.292, 163.622 46.044, 147.357 48.104 M 227.357 48.104 C 215.363 49.623, 204.249 57.686, 198.750 68.856 C 195.737 74.976, 195.500 76.191, 195.500 85.500 C 195.500 94.809, 195.737 96.024, 198.750 102.144 C 202.603 109.970, 208.879 116.115, 216.825 119.840 C 221.787 122.166, 223.760 122.500, 232.521 122.500 C 241.829 122.500, 243.017 122.266, 249.218 119.213 C 256.960 115.402, 263.019 109.158, 266.890 101 C 269.164 96.208, 269.500 94.209, 269.500 85.479 C 269.500 76.194, 269.261 74.973, 266.250 68.856 C 259.080 54.292, 243.622 46.044, 227.357 48.104 M 191.710 71 C 191.998 72.100, 192.353 73, 192.500 73 C 192.647 73, 193.002 72.100, 193.290 71 C 193.617 69.750, 193.320 69, 192.500 69 C 191.680 69, 191.383 69.750, 191.710 71 M 101.239 103.750 C 87.482 117.306, 79.234 131.033, 74.951 147.500 C 72.500 156.926, 72.006 173.333, 73.898 182.500 C 77.718 201.011, 87.688 218.095, 102.791 232.012 L 110.375 239 192.500 239 L 274.625 239 282.209 232.012 C 297.312 218.095, 307.282 201.011, 311.102 182.500 C 312.994 173.333, 312.500 156.926, 310.049 147.500 C 305.766 131.033, 297.518 117.306, 283.761 103.750 C 275.058 95.174, 273.001 93.740, 272.999 96.250 C 272.999 96.938, 271.704 100.236, 270.123 103.579 C 266.326 111.603, 258.384 119.447, 250.062 123.391 C 243.957 126.284, 242.735 126.500, 232.500 126.500 C 222.644 126.500, 220.902 126.220, 215.750 123.805 L 210 121.111 210 125.087 C 210 127.275, 209.392 130.519, 208.649 132.298 C 206.920 136.435, 201.035 141.614, 197.074 142.484 L 194 143.159 194 183.079 L 194 223 198.872 223 C 201.551 223, 208.046 221.909, 213.304 220.575 C 229.652 216.428, 243.946 208.029, 255.897 195.547 C 261.322 189.882, 262.504 189.075, 263.668 190.240 C 266.703 193.275, 247.945 210.100, 233.500 217.300 C 211.392 228.318, 186.211 230.183, 163.500 222.483 C 149.758 217.825, 134.944 208.172, 125.474 197.708 C 120.797 192.540, 120.167 191.404, 121.332 190.240 C 122.496 189.075, 123.678 189.882, 129.103 195.547 C 141.054 208.029, 155.348 216.428, 171.696 220.575 C 176.954 221.909, 183.449 223, 186.128 223 L 191 223 191 183.079 L 191 143.159 187.926 142.484 C 183.965 141.614, 178.080 136.435, 176.351 132.298 C 175.608 130.519, 175 127.275, 175 125.087 L 175 121.111 169.250 123.805 C 164.098 126.220, 162.356 126.500, 152.500 126.500 C 142.265 126.500, 141.043 126.284, 134.938 123.391 C 126.616 119.447, 118.674 111.603, 114.877 103.579 C 113.296 100.236, 112.001 96.938, 112.001 96.250 C 111.999 93.740, 109.942 95.174, 101.239 103.750 M 168 99 C 166.900 100.100, 166 101.920, 166 103.045 C 166 105.377, 170.201 110, 172.320 110 C 174.881 110, 179 105.948, 179 103.427 C 179 100.282, 175.681 97, 172.500 97 C 171.125 97, 169.100 97.900, 168 99 M 208 99 C 205.209 101.791, 205.468 105.437, 208.635 107.927 C 210.084 109.067, 211.904 110, 212.680 110 C 214.799 110, 219 105.377, 219 103.045 C 219 100.234, 215.523 97, 212.500 97 C 211.125 97, 209.100 97.900, 208 99 M 190.314 103.102 L 188.127 108 192.584 108 L 197.041 108 195.159 104.250 C 194.124 102.188, 193.103 99.984, 192.889 99.352 C 192.675 98.721, 191.516 100.408, 190.314 103.102 M 95 125.799 C 95 127.289, 98.941 128.723, 117.926 134.136 C 139.322 140.237, 140.885 140.547, 141.348 138.776 C 141.621 137.732, 141.317 136.698, 140.672 136.478 C 136.713 135.130, 96.917 124, 96.053 124 C 95.474 124, 95 124.810, 95 125.799 M 265.360 130.354 C 253.732 133.734, 244.170 136.838, 244.110 137.250 C 243.607 140.690, 244.528 140.565, 267 134.157 C 286.048 128.726, 290 127.290, 290 125.799 C 290 124.713, 289.307 124.041, 288.250 124.104 C 287.288 124.161, 276.987 126.974, 265.360 130.354 M 95 152 C 95 153.944, 95.667 154, 119 154 C 142.333 154, 143 153.944, 143 152 C 143 150.056, 142.333 150, 119 150 C 95.667 150, 95 150.056, 95 152 M 242 152 C 242 153.944, 242.667 154, 266 154 C 289.333 154, 290 153.944, 290 152 C 290 150.056, 289.333 150, 266 150 C 242.667 150, 242 150.056, 242 152 M 117.008 170.352 C 100.574 175.101, 95.437 176.968, 95.184 178.282 C 94.968 179.406, 95.483 179.989, 96.677 179.969 C 97.680 179.953, 108.185 177.140, 120.022 173.719 C 138.213 168.463, 141.490 167.229, 141.198 165.750 C 141.009 164.787, 140.324 164.032, 139.677 164.071 C 139.030 164.110, 128.828 166.936, 117.008 170.352 M 243.813 165.689 C 243.506 167.248, 246.452 168.366, 264.978 173.719 C 276.815 177.140, 287.320 179.953, 288.323 179.969 C 289.513 179.989, 290.032 179.406, 289.817 178.290 C 289.567 176.991, 284.685 175.200, 269.494 170.832 C 243.274 163.294, 244.247 163.488, 243.813 165.689 M 67.272 280.151 L 45.131 295.302 50.838 298.001 C 57.437 301.122, 64.986 308.918, 67.995 315.722 C 69.090 318.198, 70.327 323.642, 70.743 327.820 L 71.500 335.417 80.500 327.282 L 89.500 319.148 90 362.324 L 90.500 405.500 132.500 405.736 L 174.500 405.971 176.650 401.066 C 182.868 386.878, 202.132 386.878, 208.350 401.066 L 210.500 405.971 252.500 405.736 L 294.500 405.500 295 362.324 L 295.500 319.148 304.500 327.282 L 313.500 335.417 314.257 327.820 C 314.673 323.642, 315.910 318.198, 317.005 315.722 C 320.014 308.918, 327.563 301.122, 334.162 298.001 L 339.869 295.302 317.728 280.151 L 295.587 265 279.187 265 C 266.452 265, 262.904 265.279, 263.313 266.250 C 270.334 282.896, 272 290.129, 272 303.956 C 272 325.682, 263.634 345.315, 247.839 360.657 C 232.575 375.484, 213.959 383, 192.500 383 C 171.041 383, 152.425 375.484, 137.161 360.657 C 121.366 345.315, 113 325.682, 113 303.956 C 113 290.129, 114.666 282.896, 121.687 266.250 C 122.096 265.279, 118.548 265, 105.813 265 L 89.413 265 67.272 280.151 M 125.581 267.842 C 110.168 297.648, 115.918 334.052, 139.715 357.321 C 148.177 365.596, 156.254 370.581, 168.247 374.931 C 183.522 380.473, 201.478 380.473, 216.753 374.931 C 228.746 370.581, 236.823 365.596, 245.285 357.321 C 269.082 334.052, 274.832 297.648, 259.419 267.842 L 257.949 265 233.621 265 L 209.294 265 209.776 270.018 C 210.699 279.621, 204.962 288.433, 196.049 291.103 C 192.698 292.107, 191.354 292.025, 187.580 290.584 C 179.257 287.405, 174.345 279.167, 175.237 269.883 L 175.706 265 151.379 265 L 127.051 265 125.581 267.842 M 179.922 267.146 C 179.271 268.362, 178.983 271.475, 179.258 274.330 C 179.672 278.645, 180.330 279.918, 183.832 283.185 C 186.082 285.283, 188.615 287, 189.461 287 C 191.499 287, 191.480 282.663, 189.429 279.532 C 187.387 276.416, 188.994 273, 192.500 273 C 196.006 273, 197.613 276.416, 195.571 279.532 C 193.520 282.663, 193.501 287, 195.539 287 C 196.385 287, 198.918 285.283, 201.168 283.185 C 204.670 279.918, 205.328 278.645, 205.742 274.330 C 206.587 265.544, 205.815 265, 192.500 265 C 181.835 265, 180.994 265.144, 179.922 267.146 M 25.500 300.269 C 11.738 305.936, 4.630 316.031, 4.563 330.006 C 4.517 339.375, 7.847 346.935, 14.659 352.931 C 25.891 362.818, 40.963 363.626, 53.483 355.012 C 61.897 349.223, 66.319 340.234, 66.260 329.039 C 66.200 317.684, 59.871 307.530, 49.563 302.252 C 43.642 299.219, 30.650 298.149, 25.500 300.269 M 341 299.886 C 327.473 304.280, 318.811 315.624, 318.740 329.039 C 318.681 340.234, 323.103 349.223, 331.517 355.012 C 344.037 363.626, 359.109 362.818, 370.341 352.931 C 377.162 346.927, 380.485 339.373, 380.427 330.006 C 380.350 317.461, 374.302 307.687, 363 301.840 C 358.192 299.353, 345.982 298.268, 341 299.886 M 135.292 307.750 C 137.152 329.301, 151.275 348.693, 170.805 356.512 C 206.947 370.980, 246.353 346.627, 249.708 307.750 L 250.290 301 192.500 301 L 134.710 301 135.292 307.750 M 139 307.290 C 139 311.331, 141.956 321.323, 144.980 327.500 C 150.872 339.538, 162.496 349.608, 175.734 354.145 C 185.275 357.414, 199.725 357.414, 209.266 354.145 C 222.504 349.608, 234.128 339.538, 240.020 327.500 C 243.044 321.323, 246 311.331, 246 307.290 L 246 305 192.500 305 L 139 305 139 307.290 M 0.272 330 C 0.272 332.475, 0.467 333.488, 0.706 332.250 C 0.944 331.012, 0.944 328.988, 0.706 327.750 C 0.467 326.512, 0.272 327.525, 0.272 330 M 84.126 412.883 C 82.428 414.468, 80.581 416.972, 80.020 418.448 C 78.474 422.514, 78.797 428.847, 80.716 432.096 L 82.431 435 128.314 435 L 174.198 435 177.067 431.928 C 181.631 427.043, 182.256 418.372, 178.461 412.581 L 176.770 410 131.991 410 L 87.212 410 84.126 412.883 M 206.539 412.581 C 202.744 418.372, 203.369 427.043, 207.933 431.928 L 210.802 435 256.686 435 L 302.569 435 304.284 432.096 C 307.806 426.135, 305.636 416.013, 299.972 411.980 C 297.301 410.078, 295.441 410, 252.711 410 L 208.230 410 206.539 412.581 " stroke="none" fill="black" fill-rule="evenodd"/>
	<path fill-opacity="0.977" d="M 180.500 1.046 C 114.453 6.748, 61.816 55.688, 50.411 122 C 49.138 129.398, 48.892 135.483, 49.300 149.500 C 49.762 165.357, 50.187 168.869, 52.866 179 C 54.539 185.325, 56.867 192.975, 58.039 196 C 63.104 209.071, 72.630 225.580, 80.634 235.160 L 84.131 239.346 80.945 241.840 C 74.152 247.157, 73.571 255.545, 79.591 261.391 L 82.932 264.636 61.216 279.511 C 39.854 294.144, 39.393 294.397, 32.951 295.028 C 13.861 296.897, 0.795 311.101, 0.780 330 C 0.767 345.692, 9.957 358.286, 24.855 362.992 C 32.517 365.413, 37.868 365.525, 44.972 363.416 C 52.076 361.306, 56.670 358.271, 61.500 352.496 C 63.700 349.866, 70 343.260, 75.500 337.816 L 85.500 327.919 85.762 367.138 L 86.024 406.356 82.483 409.275 C 75.613 414.938, 73.112 424.464, 76.483 432.128 C 79.762 439.581, 75.391 439, 128.164 439 L 175.608 439 178.753 435.750 C 186.476 427.770, 186.848 417.541, 179.771 407.739 C 178.714 406.274, 178.836 405.363, 180.500 402.320 C 183.379 397.054, 187.299 394.500, 192.500 394.500 C 197.701 394.500, 201.621 397.054, 204.500 402.320 C 206.164 405.363, 206.286 406.274, 205.229 407.739 C 198.152 417.541, 198.524 427.770, 206.247 435.750 L 209.392 439 256.836 439 C 309.609 439, 305.238 439.581, 308.517 432.128 C 311.888 424.464, 309.387 414.938, 302.517 409.275 L 298.976 406.356 299.238 367.138 L 299.500 327.919 309.500 337.816 C 315 343.260, 321.300 349.866, 323.500 352.496 C 325.700 355.126, 329.118 358.303, 331.097 359.555 C 335.749 362.500, 344.235 365, 349.576 365 C 355.424 365, 365.755 361.552, 370.308 358.082 C 377.681 352.461, 384 341.827, 384 335.039 C 384 333.432, 384.450 331.840, 385 331.500 C 385.550 331.160, 386 329.982, 386 328.882 C 386 327.782, 385.550 327.160, 385 327.500 C 384.418 327.860, 384 326.856, 384 325.097 C 384 319.726, 380.118 311.352, 375.201 306.119 C 369.376 299.918, 360.997 295.904, 352.049 295.028 C 345.607 294.397, 345.146 294.144, 323.784 279.511 L 302.068 264.636 305.409 261.391 C 311.429 255.545, 310.848 247.157, 304.055 241.840 L 300.869 239.346 304.366 235.160 C 312.370 225.580, 321.896 209.071, 326.961 196 C 328.133 192.975, 330.461 185.325, 332.134 179 C 334.813 168.869, 335.238 165.357, 335.700 149.500 C 336.498 122.083, 332.858 104.621, 321.491 81.336 C 295.388 27.863, 239.372 -4.037, 180.500 1.046 M 179.500 4.639 C 130.279 10.126, 88.414 39.027, 67.146 82.204 C 56.972 102.857, 52.740 120.810, 52.698 143.500 C 52.652 167.591, 56.841 185.957, 67.133 206.796 C 72.267 217.193, 80.591 229.772, 86.293 235.750 C 89.240 238.840, 89.754 239, 96.731 239 L 104.069 239 97.125 232.056 C 76.313 211.244, 66.611 185.922, 69.136 159 C 69.574 154.325, 70.634 147.800, 71.491 144.500 C 73.952 135.021, 82.307 119.189, 89.243 110.858 C 95.280 103.607, 108.592 91, 110.211 91 C 110.645 91, 111.005 88.188, 111.011 84.750 C 111.038 68.894, 120.274 54.558, 134.938 47.609 C 141.043 44.716, 142.265 44.500, 152.500 44.500 C 162.345 44.500, 164.101 44.782, 169.226 47.184 C 176.365 50.529, 181.718 54.785, 186.034 60.545 C 188.741 64.158, 189.963 65, 192.500 65 C 195.037 65, 196.259 64.158, 198.966 60.545 C 203.282 54.785, 208.635 50.529, 215.774 47.184 C 220.899 44.782, 222.655 44.500, 232.500 44.500 C 242.735 44.500, 243.957 44.716, 250.062 47.609 C 264.726 54.558, 273.962 68.894, 273.989 84.750 C 273.995 88.188, 274.355 91, 274.789 91 C 276.408 91, 289.720 103.607, 295.757 110.858 C 302.693 119.189, 311.048 135.021, 313.509 144.500 C 321.616 175.717, 312.262 207.669, 287.875 232.056 L 280.931 239 288.269 239 C 295.246 239, 295.760 238.840, 298.707 235.750 C 304.409 229.772, 312.733 217.193, 317.867 206.796 C 328.159 185.957, 332.348 167.591, 332.302 143.500 C 332.260 120.810, 328.028 102.857, 317.854 82.204 C 298.372 42.652, 261.844 15.096, 217.500 6.496 C 209.397 4.924, 186.833 3.822, 179.500 4.639 M 146.305 48.037 C 132.685 49.954, 119.586 61.683, 115.940 75.225 C 115.346 77.427, 114.888 82.215, 114.921 85.865 C 115.017 96.672, 118.738 105.534, 126.167 112.650 C 144.712 130.415, 174.709 125.241, 186.548 102.237 C 189.291 96.907, 189.500 95.721, 189.500 85.500 C 189.500 75.360, 189.277 74.070, 186.650 69 C 178.616 53.495, 163.463 45.621, 146.305 48.037 M 226.224 48.047 C 206.476 50.821, 191.941 71.151, 195.156 91.500 C 199.904 121.549, 236.762 133.792, 258.833 112.650 C 270.760 101.224, 273.807 81.357, 265.796 67.235 C 257.764 53.074, 242.639 45.740, 226.224 48.047 M 191.393 70.582 C 191.727 71.452, 192.007 72.464, 192.015 72.832 C 192.036 73.726, 193.965 70.707, 193.985 69.750 C 193.993 69.338, 193.277 69, 192.393 69 C 191.338 69, 190.995 69.544, 191.393 70.582 M 100.679 104.250 C 85.035 119.740, 76.642 135.195, 73.352 154.574 C 71.917 163.030, 71.837 166.031, 72.814 174.835 C 75.160 195.979, 83.201 212.136, 99.645 228.750 L 109.791 239 192.500 239 L 275.209 239 285.355 228.750 C 301.799 212.136, 309.840 195.979, 312.186 174.835 C 313.163 166.031, 313.083 163.030, 311.648 154.574 C 309.635 142.720, 304.953 130.748, 298.436 120.792 C 293.948 113.936, 276.057 95, 274.067 95 C 273.565 95, 272.610 96.687, 271.943 98.750 C 266.540 115.462, 250.384 127, 232.389 127 C 225.707 127, 220.262 125.630, 210.917 121.597 C 209.621 121.038, 209.416 121.474, 209.787 123.999 C 210.824 131.065, 205.071 139.501, 197.514 141.995 L 193.977 143.163 194.239 183.298 L 194.500 223.434 199.500 223.171 C 206.611 222.798, 220.113 219.314, 227.777 215.876 C 237.366 211.573, 246.545 205.125, 254.703 196.959 C 259.741 191.916, 262.394 189.937, 263.531 190.374 C 267.050 191.724, 252.040 206.230, 238.832 214.242 C 215.552 228.365, 185.940 230.943, 160.353 221.076 C 146.517 215.740, 133.083 206.494, 124.402 196.334 C 120.670 191.965, 120.138 190.884, 121.469 190.374 C 122.606 189.937, 125.259 191.916, 130.297 196.959 C 138.455 205.125, 147.634 211.573, 157.223 215.876 C 164.887 219.314, 178.389 222.798, 185.500 223.171 L 190.500 223.434 190.761 183.298 L 191.023 143.163 187.486 141.995 C 179.929 139.501, 174.176 131.065, 175.213 123.999 C 175.584 121.474, 175.379 121.038, 174.083 121.597 C 164.738 125.630, 159.293 127, 152.611 127 C 134.616 127, 118.460 115.462, 113.057 98.750 C 112.390 96.688, 111.435 95, 110.933 95 C 110.432 95, 105.817 99.162, 100.679 104.250 M 168.637 98.506 C 166.191 100.952, 165.711 103.910, 167.353 106.415 C 170.029 110.500, 175.705 110.288, 177.990 106.019 C 180.023 102.220, 176.845 97, 172.500 97 C 171.204 97, 169.465 97.678, 168.637 98.506 M 208.637 98.506 C 206.191 100.952, 205.711 103.910, 207.353 106.415 C 210.029 110.500, 215.705 110.288, 217.990 106.019 C 220.023 102.220, 216.845 97, 212.500 97 C 211.204 97, 209.465 97.678, 208.637 98.506 M 190.433 102.623 C 189.370 105.300, 188.387 107.718, 188.250 107.995 C 188.113 108.273, 190.025 108.500, 192.500 108.500 C 194.975 108.500, 197 108.445, 197 108.378 C 197 108.311, 195.957 105.894, 194.683 103.006 L 192.365 97.755 190.433 102.623 M 187.071 113.702 C 182.077 116.321, 179.500 120.336, 179.500 125.500 C 179.500 133.393, 187.157 139.944, 194.722 138.524 C 199.451 137.637, 204.637 132.451, 205.524 127.722 C 207.398 117.732, 195.960 109.041, 187.071 113.702 M 95.005 125.750 C 95.010 127.172, 99.216 128.707, 117.475 133.947 C 129.831 137.492, 140.234 140.099, 140.593 139.740 C 142.587 137.746, 138.209 135.876, 118.320 130.226 C 106.265 126.802, 96.087 124, 95.701 124 C 95.316 124, 95.002 124.787, 95.005 125.750 M 266.008 130.352 C 249.574 135.101, 244.437 136.968, 244.184 138.282 C 244.002 139.227, 244.449 140.001, 245.177 140.002 C 245.905 140.003, 256.284 137.190, 268.243 133.752 C 285.885 128.679, 289.987 127.170, 289.993 125.750 C 289.997 124.787, 289.438 124.032, 288.750 124.071 C 288.063 124.110, 277.828 126.936, 266.008 130.352 M 95 152 C 95 153.944, 95.667 154, 119 154 C 142.333 154, 143 153.944, 143 152 C 143 150.056, 142.333 150, 119 150 C 95.667 150, 95 150.056, 95 152 M 242 152 C 242 153.944, 242.667 154, 266 154 C 289.333 154, 290 153.944, 290 152 C 290 150.056, 289.333 150, 266 150 C 242.667 150, 242 150.056, 242 152 M 117 170.455 C 101.078 175.082, 95.416 177.131, 95.177 178.351 C 94.999 179.258, 95.427 180, 96.128 180 C 96.829 180, 107.212 177.213, 119.201 173.808 C 137.276 168.673, 141 167.306, 141 165.808 C 141 164.813, 140.438 164.047, 139.750 164.104 C 139.063 164.161, 128.825 167.019, 117 170.455 M 244 165.808 C 244 167.306, 247.724 168.673, 265.799 173.808 C 277.788 177.213, 288.171 180, 288.872 180 C 289.573 180, 290.001 179.260, 289.823 178.356 C 289.584 177.137, 283.812 175.077, 267.500 170.387 C 255.400 166.908, 245.162 164.047, 244.750 164.031 C 244.338 164.014, 244 164.813, 244 165.808 M 86.500 243.710 C 78.823 245.615, 77.222 255.995, 84.059 259.530 C 88.339 261.744, 296.661 261.744, 300.941 259.530 C 306.332 256.743, 306.856 249.866, 302.010 245.500 C 299.822 243.529, 298.281 243.498, 194.145 243.357 C 136.040 243.278, 87.600 243.437, 86.500 243.710 M 66.681 280.188 L 44.861 295.211 49.681 297.470 C 62.201 303.340, 70.222 315.434, 70.402 328.710 C 70.456 332.718, 70.673 335.999, 70.884 335.999 C 71.095 336, 75.483 332.131, 80.634 327.403 L 90 318.806 90 362.403 L 90 406 132.422 406 L 174.845 406 175.920 402.742 C 178.136 396.028, 185.489 390.677, 192.500 390.677 C 199.511 390.677, 206.864 396.028, 209.080 402.742 L 210.155 406 252.578 406 L 295 406 295 362.403 L 295 318.806 304.366 327.403 C 309.517 332.131, 313.905 336, 314.116 335.999 C 314.327 335.999, 314.544 332.718, 314.598 328.710 C 314.778 315.434, 322.799 303.340, 335.319 297.471 L 340.137 295.211 318.023 280.106 L 295.909 265 279.455 265 C 265.794 265, 263 265.245, 263 266.441 C 263 267.234, 263.415 268.138, 263.921 268.451 C 265.313 269.311, 269.768 283.583, 271.097 291.437 C 272.509 299.783, 271.760 315.094, 269.529 323.500 C 263.451 346.401, 247.645 365.182, 225.744 375.525 C 213.993 381.075, 207.214 382.496, 192.500 382.496 C 177.786 382.496, 171.007 381.075, 159.256 375.525 C 137.355 365.182, 121.549 346.401, 115.471 323.500 C 113.240 315.094, 112.491 299.783, 113.903 291.437 C 115.232 283.583, 119.687 269.311, 121.079 268.451 C 121.585 268.138, 122 267.234, 122 266.441 C 122 265.240, 119.205 265.014, 105.250 265.082 L 88.500 265.165 66.681 280.188 M 123.954 271.286 C 118.590 282.748, 116.677 292.798, 117.258 306.469 C 117.872 320.921, 120.663 330.679, 127.420 342 C 141.315 365.279, 165.449 379, 192.500 379 C 219.551 379, 243.685 365.279, 257.580 342 C 264.337 330.679, 267.128 320.921, 267.742 306.469 C 268.323 292.798, 266.410 282.748, 261.046 271.286 L 258.105 265 233.600 265 L 209.094 265 209.686 269.993 C 210.809 279.477, 205.039 288.410, 196.049 291.103 C 192.698 292.107, 191.354 292.025, 187.580 290.584 C 179.190 287.379, 174.246 279.016, 175.330 269.862 L 175.906 265 151.400 265 L 126.895 265 123.954 271.286 M 179.607 266.582 C 178.463 269.563, 179 276.198, 180.670 279.717 C 182.272 283.094, 187.131 286.988, 189.750 286.996 C 191.410 287.001, 191.291 282.154, 189.554 279.016 C 187.794 275.837, 189.183 273, 192.500 273 C 195.817 273, 197.206 275.837, 195.446 279.016 C 193.709 282.154, 193.590 287.001, 195.250 286.996 C 197.869 286.988, 202.728 283.094, 204.330 279.717 C 206 276.198, 206.537 269.563, 205.393 266.582 C 204.885 265.258, 202.781 265, 192.500 265 C 182.219 265, 180.115 265.258, 179.607 266.582 M 28.197 299.559 C 18.169 302.258, 12.580 306.576, 7.946 315.204 C 4.921 320.836, 4.562 322.343, 4.541 329.500 C 4.522 335.585, 5.026 338.606, 6.646 342.122 C 9.564 348.459, 15.384 354.635, 21.437 357.818 C 25.831 360.130, 27.690 360.482, 35.500 360.484 C 42.916 360.485, 45.243 360.090, 48.722 358.237 C 58.338 353.115, 63.948 345.794, 65.989 335.705 C 69.350 319.084, 58.274 302.739, 41.201 299.122 C 34.816 297.770, 34.847 297.769, 28.197 299.559 M 342.500 299.360 C 326.163 303.495, 315.755 319.601, 319.011 335.705 C 321.052 345.794, 326.662 353.115, 336.278 358.237 C 339.757 360.090, 342.084 360.485, 349.500 360.484 C 357.310 360.482, 359.169 360.130, 363.563 357.818 C 369.616 354.635, 375.436 348.459, 378.354 342.122 C 379.974 338.606, 380.478 335.585, 380.459 329.500 C 380.438 322.343, 380.079 320.836, 377.054 315.204 C 375.194 311.742, 371.933 307.531, 369.807 305.847 C 362.180 299.807, 351.119 297.179, 342.500 299.360 M 135 304.864 C 135 318.072, 142.330 334.269, 153.081 344.816 C 162.177 353.740, 179.814 360.965, 192.500 360.965 C 205.186 360.965, 222.823 353.740, 231.919 344.816 C 242.670 334.269, 250 318.072, 250 304.864 L 250 302 192.500 302 L 135 302 135 304.864 M 139.015 307.250 C 139.023 308.488, 139.694 312.317, 140.506 315.760 C 145.051 335.041, 160.959 350.949, 180.240 355.494 C 208.698 362.204, 237.785 344.217, 244.494 315.760 C 245.306 312.317, 245.977 308.488, 245.985 307.250 L 246 305 192.500 305 L 139 305 139.015 307.250 M 0.158 330 C 0.158 331.375, 0.385 331.938, 0.662 331.250 C 0.940 330.563, 0.940 329.438, 0.662 328.750 C 0.385 328.063, 0.158 328.625, 0.158 330 M 84.615 412.088 C 79.008 416.498, 77.119 425.463, 80.442 431.889 L 82.051 435 128.351 435 L 174.651 435 176.701 432.750 C 179.989 429.139, 181 426.449, 180.996 421.316 C 180.994 418.281, 180.260 415.298, 179.011 413.250 L 177.029 410 132.150 410 C 88.151 410, 87.218 410.041, 84.615 412.088 M 205.989 413.250 C 204.740 415.298, 204.006 418.281, 204.004 421.316 C 204 426.449, 205.011 429.139, 208.299 432.750 L 210.349 435 256.649 435 L 302.949 435 304.558 431.889 C 307.881 425.463, 305.992 416.498, 300.385 412.088 C 297.782 410.041, 296.849 410, 252.850 410 L 207.971 410 205.989 413.250 " stroke="none" fill="black" fill-rule="evenodd"/>
</svg>