<svg xmlns="http://www.w3.org/2000/svg" width="385" height="439" viewBox="0 0 385 439" version="1.1">
	<path fill-opacity="0.391" d="M 176 0.626 C 143.663 4.720, 113.802 19.146, 91.455 41.467 C 85.931 46.985, 79.078 54.650, 76.227 58.500 C 48.815 95.515, 40.737 145.354, 55.049 189.151 C 60.271 205.128, 72.395 227.355, 80.689 236.154 L 83.191 238.809 79.096 242.904 C 75.444 246.556, 75 247.519, 75 251.777 C 75 256.581, 76.606 259.999, 80.276 263.005 C 81.986 264.406, 80.606 265.536, 60.437 279.255 C 41.971 291.816, 38.202 294, 34.986 294 C 32.909 294, 28.351 294.902, 24.855 296.005 C 8.606 301.130, -0.890 315.236, 0.224 332.593 C 0.835 342.113, 4.309 349.254, 11.548 355.869 C 28.125 371.020, 53.780 367.526, 65.863 348.473 C 67.313 346.185, 72.325 340.887, 77 336.698 L 85.500 329.081 85.762 366.981 L 86.024 404.881 81.090 409.815 C 78.081 412.824, 75.685 416.320, 74.949 418.775 C 73.409 423.916, 74.418 430.841, 77.340 435.177 L 79.579 438.500 128.204 438.759 L 176.828 439.019 180.418 434.825 C 187.121 426.994, 187.626 418.151, 181.847 409.846 C 179.448 406.398, 179.513 403.888, 182.088 400.615 C 187.817 393.332, 197.183 393.332, 202.912 400.615 C 205.487 403.888, 205.552 406.398, 203.153 409.846 C 197.374 418.151, 197.879 426.994, 204.582 434.825 L 208.172 439.019 256.796 438.759 L 305.421 438.500 307.660 435.177 C 310.582 430.841, 311.591 423.916, 310.051 418.775 C 309.315 416.320, 306.919 412.824, 303.910 409.815 L 298.976 404.881 299.238 366.981 L 299.500 329.081 308 336.698 C 312.675 340.887, 317.687 346.185, 319.137 348.473 C 328.315 362.946, 346.699 369.103, 362.500 362.994 C 370.430 359.929, 379.898 350.663, 382.418 343.500 C 383.386 340.750, 384.587 337.719, 385.089 336.764 C 386.120 334.799, 386.357 321.309, 385.343 322.324 C 384.982 322.685, 383.933 320.757, 383.014 318.040 C 380.754 311.365, 376.424 305.344, 371 301.335 C 365.922 297.582, 355.674 294, 350.014 294 C 346.798 294, 343.029 291.816, 324.563 279.255 C 304.394 265.536, 303.014 264.406, 304.724 263.005 C 308.394 259.999, 310 256.581, 310 251.777 C 310 247.519, 309.556 246.556, 305.904 242.904 L 301.809 238.809 304.311 236.154 C 308.711 231.486, 318.032 216.789, 322.587 207.335 C 337.362 176.673, 340.859 141.998, 332.514 108.892 C 325.915 82.711, 313.730 61.629, 293.545 41.467 C 274.182 22.126, 250.657 9.376, 222.500 2.963 C 213.659 0.950, 184.871 -0.498, 176 0.626 M 143.746 49.022 C 115.369 56.191, 105.688 91.973, 126.668 112.147 C 135.623 120.758, 146.958 124.275, 158.751 122.102 C 167.147 120.555, 172.327 117.922, 178.332 112.147 C 201.592 89.781, 186.955 50.180, 154.794 48.463 C 150.782 48.249, 145.811 48.501, 143.746 49.022 M 223.746 49.022 C 195.342 56.197, 185.668 91.954, 206.668 112.147 C 215.623 120.758, 226.958 124.275, 238.751 122.102 C 247.147 120.555, 252.327 117.922, 258.332 112.147 C 281.575 89.798, 266.931 50.178, 234.794 48.463 C 230.782 48.249, 225.811 48.501, 223.746 49.022 M 102.997 102.709 C 93.494 111.507, 86.818 120.437, 81.473 131.500 C 75.883 143.069, 74.087 150.025, 73.334 163.018 C 71.903 187.718, 80.337 208.241, 100.139 228.250 L 110.778 239 192.500 239 L 274.222 239 284.861 228.250 C 304.663 208.241, 313.097 187.718, 311.666 163.018 C 310.913 150.025, 309.117 143.069, 303.527 131.500 C 298.182 120.437, 291.506 111.507, 282.003 102.709 C 274.662 95.912, 273 94.921, 273 97.340 C 273 100.714, 266.538 111.147, 261.492 115.919 C 255.252 121.820, 247.945 125.524, 239.436 127.096 C 230.759 128.700, 223.601 127.524, 211.869 122.566 C 210.521 121.997, 210.228 122.576, 210.182 125.904 C 210.077 133.533, 204.633 140.813, 197.750 142.531 L 195 143.217 195 183.108 C 195 220.437, 195.112 223, 196.750 222.992 C 200.767 222.975, 211.944 220.791, 218 218.840 C 232.645 214.122, 244.413 206.751, 255.592 195.293 C 259.875 190.903, 262.256 189.161, 263.380 189.592 C 266.207 190.677, 265.182 192.608, 257.841 200.022 C 236.951 221.120, 207.949 231.109, 179.692 226.938 C 160.251 224.069, 141.410 214.415, 127.159 200.022 C 119.818 192.608, 118.793 190.677, 121.620 189.592 C 122.744 189.161, 125.125 190.903, 129.408 195.293 C 140.587 206.751, 152.355 214.122, 167 218.840 C 173.056 220.791, 184.233 222.975, 188.250 222.992 C 189.888 223, 190 220.437, 190 183.108 L 190 143.217 187.250 142.531 C 180.367 140.813, 174.923 133.533, 174.818 125.904 C 174.772 122.576, 174.479 121.997, 173.131 122.566 C 161.399 127.524, 154.241 128.700, 145.564 127.096 C 137.055 125.524, 129.748 121.820, 123.508 115.919 C 118.462 111.147, 112 100.714, 112 97.340 C 112 94.921, 110.338 95.912, 102.997 102.709 M 169.500 97.195 C 166.700 98.783, 166.033 100.027, 166.015 103.693 C 166.005 105.871, 166.707 107.382, 168.223 108.443 C 172.979 111.775, 179.011 109.113, 178.985 103.693 C 178.967 99.940, 178.276 98.708, 175.316 97.150 C 172.651 95.747, 172.045 95.752, 169.500 97.195 M 209.500 97.195 C 206.700 98.783, 206.033 100.027, 206.015 103.693 C 206.005 105.871, 206.707 107.382, 208.223 108.443 C 212.979 111.775, 219.011 109.113, 218.985 103.693 C 218.967 99.940, 218.276 98.708, 215.316 97.150 C 212.651 95.747, 212.045 95.752, 209.500 97.195 M 190.704 103.495 C 189.767 105.460, 189 107.233, 189 107.434 C 189 107.635, 190.575 107.800, 192.500 107.800 C 196.496 107.800, 196.542 107.673, 194.162 103.211 L 192.408 99.921 190.704 103.495 M 94.499 125.003 C 94.124 126.184, 94.020 127.354, 94.268 127.602 C 94.517 127.850, 104.978 130.991, 117.517 134.581 C 140.471 141.154, 141.928 141.325, 141.985 137.442 C 141.993 136.861, 131.988 133.541, 119.750 130.065 C 107.512 126.588, 96.978 123.544, 96.340 123.300 C 95.703 123.055, 94.874 123.822, 94.499 125.003 M 265.750 129.803 C 253.238 133.427, 243.007 136.866, 243.015 137.446 C 243.072 141.324, 244.533 141.153, 267.483 134.581 C 280.022 130.991, 290.483 127.850, 290.732 127.602 C 291.374 126.959, 290.003 122.978, 289.183 123.107 C 288.807 123.166, 278.262 126.179, 265.750 129.803 M 94.180 152.250 L 94.500 154.500 119.250 154.767 L 144 155.035 144 152.517 L 144 150 118.930 150 L 93.861 150 94.180 152.250 M 241 152.517 L 241 155.035 265.750 154.767 L 290.500 154.500 290.820 152.250 L 291.139 150 266.070 150 L 241 150 241 152.517 M 116.750 169.803 C 104.237 173.427, 94.007 176.866, 94.015 177.446 C 94.073 181.414, 95.469 181.265, 117.872 174.901 C 130.047 171.443, 140.505 168.306, 141.111 167.931 C 142.248 167.229, 141.417 162.913, 140.183 163.107 C 139.807 163.166, 129.262 166.179, 116.750 169.803 M 243.483 165.053 C 243.080 166.322, 243.251 167.537, 243.889 167.931 C 244.495 168.306, 254.953 171.443, 267.128 174.901 C 289.535 181.266, 290.927 181.415, 290.985 177.442 C 290.993 176.861, 280.988 173.541, 268.750 170.065 C 256.512 166.588, 245.978 163.544, 245.340 163.300 C 244.703 163.055, 243.867 163.844, 243.483 165.053 M 125.283 269.750 C 119.456 280.229, 116.353 298.125, 118.003 311.738 C 119.301 322.452, 121.091 328.251, 126.109 338 C 135.863 356.952, 152.989 370.637, 173.864 376.161 C 184.411 378.951, 200.650 378.935, 211.287 376.122 C 226.772 372.027, 242.543 361.704, 251.484 349.810 C 267.075 329.069, 271.434 304.841, 263.953 280.500 C 262.770 276.650, 260.864 271.813, 259.717 269.750 L 257.632 266 233.705 266 L 209.777 266 210.431 269.485 C 211.270 273.958, 209.493 280.605, 206.346 284.765 C 203.892 288.007, 195.499 293, 192.500 293 C 189.501 293, 181.108 288.007, 178.654 284.765 C 175.507 280.605, 173.730 273.958, 174.569 269.485 L 175.223 266 151.295 266 L 127.368 266 125.283 269.750 M 180.403 267.157 C 179.058 269.332, 179.817 277.002, 181.695 280.218 C 182.727 281.984, 185.017 284.274, 186.785 285.307 L 190 287.184 190 283.651 C 190 281.708, 189.550 279.840, 189 279.500 C 187.618 278.646, 187.744 274.656, 189.200 273.200 C 190.743 271.657, 194.257 271.657, 195.800 273.200 C 197.256 274.656, 197.382 278.646, 196 279.500 C 195.450 279.840, 195 281.708, 195 283.651 L 195 287.184 198.215 285.307 C 199.983 284.274, 202.273 281.984, 203.305 280.218 C 205.183 277.002, 205.942 269.332, 204.597 267.157 C 204.123 266.391, 200.039 266, 192.500 266 C 184.961 266, 180.877 266.391, 180.403 267.157 M 27.500 299.998 C 17.668 303.072, 8.490 311.975, 6.033 320.823 C 4.533 326.223, 4.777 334.990, 6.575 340.266 C 8.484 345.870, 14.712 353.175, 20.349 356.424 C 31.503 362.853, 45.747 361.429, 55.441 352.917 C 72.138 338.257, 68.296 311.589, 48.139 302.239 C 42.251 299.507, 32.469 298.445, 27.500 299.998 M 341.500 300.338 C 328.416 304.674, 320.415 314.337, 319.247 327.212 C 317.029 351.674, 343.427 368.657, 364.651 356.424 C 370.464 353.074, 376.589 345.754, 378.569 339.791 C 382.183 328.911, 378.544 314.001, 370.653 307.362 C 362.401 300.418, 350.160 297.469, 341.500 300.338 M 134.614 306.250 C 136.071 320.967, 140.998 332.634, 149.771 342.137 C 161.414 354.750, 175.572 361, 192.500 361 C 223.525 361, 247.182 338.625, 250.386 306.250 L 250.906 301 192.500 301 L 134.094 301 134.614 306.250 M 140 309.395 C 140 314.796, 143.641 325.135, 147.810 331.572 C 157.959 347.243, 173.951 355.976, 192.500 355.976 C 211.049 355.976, 227.041 347.243, 237.190 331.572 C 241.359 325.135, 245 314.796, 245 309.395 L 245 306 192.500 306 L 140 306 140 309.395 M 0.336 330 C 0.336 334.125, 0.513 335.813, 0.728 333.750 C 0.944 331.688, 0.944 328.313, 0.728 326.250 C 0.513 324.188, 0.336 325.875, 0.336 330 M 84.133 413.759 C 79.318 418.339, 78.014 423.417, 80.101 429.453 L 81.500 433.500 127.925 433.760 C 173.501 434.015, 174.389 433.983, 176.527 431.974 C 181.288 427.502, 181.886 418.521, 177.808 412.750 L 175.864 410 131.974 410 L 88.084 410 84.133 413.759 M 207.192 412.750 C 203.114 418.521, 203.712 427.502, 208.473 431.974 C 210.611 433.983, 211.499 434.015, 257.075 433.760 L 303.500 433.500 304.899 429.453 C 306.986 423.417, 305.682 418.339, 300.867 413.759 L 296.916 410 253.026 410 L 209.136 410 207.192 412.750 " stroke="none" fill="black" fill-rule="evenodd"/>
	<path fill-opacity="0.353" d="M 175 1.017 C 125.915 7.854, 84.858 37.052, 63.234 80.500 C 45.749 115.633, 43.534 158.504, 57.314 195.099 C 62.413 208.642, 74.449 229.426, 81.621 237.072 L 84.033 239.644 81.482 241.009 C 78.006 242.870, 74.999 248.026, 75.004 252.118 C 75.008 255.790, 78.109 261.721, 80.506 262.641 C 81.328 262.956, 82 263.571, 82 264.008 C 82 264.445, 72.367 271.372, 60.594 279.401 C 45.520 289.681, 38.346 294.005, 36.344 294.016 C 34.780 294.024, 30.959 294.629, 27.853 295.360 C 5.948 300.516, -5.942 324.158, 3.261 344.259 C 6.661 351.686, 11.733 357.035, 19.232 361.101 C 25.172 364.322, 26.024 364.500, 35.500 364.500 C 45.097 364.500, 45.762 364.355, 52 360.917 C 56.501 358.436, 59.730 355.701, 62.500 352.026 C 66.729 346.414, 78.623 334.298, 83.250 330.890 L 86 328.864 85.961 367.682 L 85.923 406.500 82.724 408.512 C 75.043 413.345, 72.381 425.524, 77.126 434.127 L 79.539 438.500 127.290 438.760 C 181.030 439.052, 177.880 439.473, 182.637 431.357 C 186.632 424.539, 185.575 413.608, 180.363 407.849 C 178.942 406.278, 178.998 405.775, 180.995 402.222 C 186.477 392.470, 198.523 392.470, 204.005 402.222 C 206.002 405.775, 206.058 406.278, 204.637 407.849 C 199.425 413.608, 198.368 424.539, 202.363 431.357 C 207.120 439.473, 203.970 439.052, 257.710 438.760 L 305.461 438.500 307.874 434.127 C 312.619 425.524, 309.957 413.345, 302.276 408.512 L 299.077 406.500 299.039 367.682 L 299 328.864 301.750 330.890 C 306.377 334.298, 318.271 346.414, 322.500 352.026 C 325.270 355.701, 328.499 358.436, 333 360.917 C 339.238 364.356, 339.903 364.500, 349.500 364.499 C 358.506 364.499, 360.026 364.222, 364.786 361.714 C 367.693 360.183, 371.839 357.333, 374 355.381 C 377.942 351.819, 384 341.230, 384 337.899 C 384 336.920, 384.450 335.840, 385 335.500 C 385.550 335.160, 386 332.134, 386 328.774 C 386 325.415, 385.690 322.976, 385.312 323.355 C 384.934 323.733, 383.807 321.379, 382.807 318.124 C 380.686 311.213, 374.226 303.389, 367.282 299.319 C 362.653 296.607, 353.650 294.043, 348.656 294.016 C 346.654 294.005, 339.480 289.681, 324.406 279.401 C 312.633 271.372, 303 264.445, 303 264.008 C 303 263.571, 303.672 262.956, 304.494 262.641 C 306.891 261.721, 309.992 255.790, 309.996 252.118 C 310.001 248.026, 306.994 242.870, 303.518 241.009 L 300.967 239.644 303.379 237.072 C 307.460 232.721, 316.848 218.259, 321.170 209.665 C 336.148 179.883, 340.363 147.564, 333.537 114.849 C 321.783 58.515, 278.042 14.955, 221.199 2.976 C 210.074 0.632, 185.306 -0.419, 175 1.017 M 173.736 6.022 C 137.290 11.775, 106.136 29.344, 84.380 56.414 C 43.153 107.709, 42.588 179.242, 83 230.920 L 88.500 237.953 95.400 237.976 L 102.301 238 95.563 231.250 C 82.443 218.107, 72.961 200.608, 69.429 183.023 C 67.238 172.110, 67.937 154.844, 71.011 144 C 73.362 135.703, 79.056 123.686, 84.135 116.303 C 88.269 110.292, 101.938 95.981, 106.534 92.851 C 109.547 90.799, 109.987 89.965, 109.993 86.299 C 110.025 66.704, 123.315 49.295, 141.960 44.426 C 158.429 40.125, 175.057 45.906, 186.183 59.801 C 191.146 65.999, 193.854 65.999, 198.817 59.801 C 209.943 45.906, 226.571 40.125, 243.040 44.426 C 261.685 49.295, 274.975 66.704, 275.007 86.299 C 275.013 89.965, 275.453 90.799, 278.466 92.851 C 283.062 95.981, 296.731 110.292, 300.865 116.303 C 318.124 141.396, 321.688 172.223, 310.515 199.768 C 306.201 210.402, 297.958 222.714, 289.437 231.250 L 282.699 238 289.600 237.976 L 296.500 237.953 302 230.920 C 342.412 179.242, 341.847 107.709, 300.620 56.414 C 281.321 32.401, 254.327 15.661, 223.111 8.346 C 214.684 6.371, 209.104 5.783, 196 5.486 C 186.925 5.280, 176.906 5.521, 173.736 6.022 M 140.386 49.885 C 125.578 54.937, 115.040 69.692, 115.011 85.412 C 114.965 110.364, 139.868 128.818, 163.523 121.361 C 187.653 113.755, 197.625 85.033, 183.354 64.241 C 174.034 50.663, 155.882 44.598, 140.386 49.885 M 220.386 49.885 C 196.893 57.900, 187.603 86.471, 201.834 106.942 C 216.535 128.090, 248.532 128.147, 263.053 107.052 C 280.497 81.711, 262.669 47.745, 232.095 48.070 C 228.468 48.109, 223.199 48.925, 220.386 49.885 M 192.079 70.583 C 192.127 71.748, 192.364 71.985, 192.683 71.188 C 192.972 70.466, 192.936 69.603, 192.604 69.271 C 192.272 68.939, 192.036 69.529, 192.079 70.583 M 104.841 100.683 C 84.368 118.564, 74.355 138.666, 73.299 164 C 72.860 174.544, 73.114 177.908, 74.922 185.500 C 79.088 202.997, 91.036 222.172, 105.091 233.916 L 111.175 239 192.500 239 L 273.825 239 279.909 233.916 C 293.964 222.172, 305.912 202.997, 310.078 185.500 C 311.886 177.908, 312.140 174.544, 311.701 164 C 310.645 138.666, 300.632 118.564, 280.159 100.683 L 273.500 94.867 272.357 98.784 C 269.921 107.129, 263.497 115.318, 255.139 120.731 C 243.136 128.505, 226.783 129.662, 214.865 123.580 L 210.230 121.215 209.796 126.446 C 209.195 133.695, 206.038 138.425, 199.929 141.227 L 195 143.488 195 183.389 L 195 223.289 201.250 222.681 C 213.850 221.455, 229.133 215.941, 240.505 208.520 C 243.802 206.368, 250.043 201.054, 254.372 196.711 C 261.451 189.612, 262.399 188.971, 263.780 190.352 C 265.161 191.733, 264.583 192.643, 258.044 199.387 C 230.980 227.298, 190.056 235.279, 155.277 219.430 C 144.637 214.581, 135.242 207.932, 126.956 199.387 C 120.417 192.643, 119.839 191.733, 121.220 190.352 C 122.601 188.971, 123.549 189.612, 130.628 196.711 C 134.957 201.054, 141.198 206.368, 144.495 208.520 C 155.867 215.941, 171.150 221.455, 183.750 222.681 L 190 223.289 190 183.389 L 190 143.488 185.071 141.227 C 178.962 138.425, 175.805 133.695, 175.204 126.446 L 174.770 121.215 170.135 123.580 C 155.907 130.841, 136.290 127.699, 123.621 116.129 C 119.696 112.546, 114.069 103.669, 112.659 98.840 L 111.500 94.867 104.841 100.683 M 167.655 98.829 C 164.013 102.853, 167.113 110, 172.500 110 C 177.976 110, 181.161 102.265, 177.171 98.655 C 174.744 96.458, 169.717 96.550, 167.655 98.829 M 207.655 98.829 C 204.013 102.853, 207.113 110, 212.500 110 C 217.976 110, 221.161 102.265, 217.171 98.655 C 214.744 96.458, 209.717 96.550, 207.655 98.829 M 190.289 103.690 L 188.079 108 192.621 108 L 197.163 108 195.206 104.750 C 194.130 102.963, 193.081 101.023, 192.875 100.440 C 192.669 99.857, 191.505 101.320, 190.289 103.690 M 94.583 125.643 C 94.237 126.547, 94.076 127.392, 94.226 127.521 C 94.377 127.650, 104.842 130.705, 117.483 134.309 C 139.900 140.702, 142.786 141.084, 141.654 137.511 C 141.352 136.559, 100.211 124.215, 96.857 124.071 C 95.953 124.032, 94.930 124.739, 94.583 125.643 M 265.080 130.332 C 253.298 133.736, 243.518 136.967, 243.346 137.511 C 242.214 141.084, 245.100 140.702, 267.517 134.309 C 280.158 130.705, 290.623 127.650, 290.774 127.521 C 291.635 126.782, 289.523 124.011, 288.143 124.071 C 287.239 124.110, 276.861 126.927, 265.080 130.332 M 95 152 C 95 153.946, 95.667 154, 119.500 154 C 143.333 154, 144 153.946, 144 152 C 144 150.054, 143.333 150, 119.500 150 C 95.667 150, 95 150.054, 95 152 M 241 152 C 241 153.946, 241.667 154, 265.500 154 C 289.333 154, 290 153.946, 290 152 C 290 150.054, 289.333 150, 265.500 150 C 241.667 150, 241 150.054, 241 152 M 116 170.377 C 96.902 175.916, 94.539 176.830, 94.845 178.556 C 95.035 179.625, 95.291 180.606, 95.414 180.735 C 95.657 180.991, 141.317 168.016, 141.771 167.563 C 142.596 166.738, 140.544 164.010, 139.143 164.071 C 138.239 164.110, 127.825 166.948, 116 170.377 M 243.583 165.643 C 243.237 166.547, 243.077 167.411, 243.229 167.563 C 243.683 168.016, 289.343 180.991, 289.586 180.735 C 289.709 180.606, 289.965 179.625, 290.155 178.556 C 290.461 176.830, 288.098 175.916, 269 170.377 C 257.175 166.948, 246.761 164.110, 245.857 164.071 C 244.953 164.032, 243.930 164.739, 243.583 165.643 M 67.171 280.645 L 45.842 295.202 50.671 297.442 C 61.964 302.682, 69.752 314.281, 70.880 327.540 L 71.500 334.832 81 326.297 L 90.500 317.761 90.761 361.381 L 91.021 405 132.902 405 L 174.783 405 175.406 402.518 C 176.286 399.013, 181.876 392.950, 185.702 391.351 C 189.827 389.628, 195.173 389.628, 199.298 391.351 C 203.124 392.950, 208.714 399.013, 209.594 402.518 L 210.217 405 252.098 405 L 293.979 405 294.239 361.381 L 294.500 317.761 304 326.297 L 313.500 334.832 314.120 327.540 C 315.248 314.280, 323.036 302.682, 334.330 297.441 L 339.161 295.200 317.664 280.600 L 296.168 266 279.977 266 C 264.927 266, 263.841 266.123, 264.564 267.750 C 264.991 268.712, 266.587 273.100, 268.109 277.500 C 279.480 310.360, 268.458 346.426, 240.647 367.357 C 225.721 378.591, 211.620 383.243, 192.500 383.243 C 173.380 383.243, 159.279 378.591, 144.353 367.357 C 121.721 350.323, 109.357 321.597, 112.948 294.391 C 113.938 286.897, 117.396 274.593, 120.436 267.750 C 121.160 266.122, 120.074 266.003, 104.857 266.045 L 88.500 266.089 67.171 280.645 M 124.545 270.911 C 113.629 292.453, 115.036 320.525, 128.145 342.743 C 132.503 350.129, 145.941 363.586, 153.221 367.855 C 178.239 382.524, 206.761 382.524, 231.779 367.855 C 239.059 363.586, 252.497 350.129, 256.855 342.743 C 269.964 320.525, 271.371 292.453, 260.455 270.911 L 257.966 266 233.983 266 L 210 266 210 271.532 C 210 280.739, 206.191 286.813, 197.836 290.930 C 193.582 293.026, 191.797 293.005, 187 290.804 C 179.003 287.134, 175 280.705, 175 271.532 L 175 266 151.017 266 L 127.034 266 124.545 270.911 M 179.416 269.596 C 178.419 274.911, 180.465 280.413, 184.752 283.947 C 186.789 285.626, 188.803 287, 189.228 287 C 190.431 287, 190.135 280.535, 188.873 279.273 C 187.386 277.786, 188.543 273.389, 190.632 272.588 C 191.539 272.239, 193.117 272.220, 194.139 272.544 C 196.383 273.256, 197.697 277.703, 196.127 279.273 C 194.865 280.535, 194.569 287, 195.772 287 C 196.197 287, 198.211 285.626, 200.248 283.947 C 204.535 280.413, 206.581 274.911, 205.584 269.596 L 204.909 266 192.500 266 L 180.091 266 179.416 269.596 M 24.035 301.202 C 16.800 303.980, 8.945 311.778, 6.676 318.437 C 5.722 321.238, 5 326.441, 5 330.518 C 5 357.869, 38.676 370.871, 57.845 350.922 C 63.816 344.708, 66.307 337.495, 65.775 327.962 C 65.445 322.039, 64.728 319.270, 62.428 315.039 C 55.136 301.629, 38.521 295.641, 24.035 301.202 M 339.319 300.856 C 327.423 304.966, 319.944 315.055, 319.225 327.962 C 318.693 337.495, 321.184 344.708, 327.155 350.922 C 341.971 366.340, 367.503 362.690, 376.940 343.804 C 379.498 338.684, 380 336.507, 380 330.518 C 380 320.493, 377.755 314.624, 371.543 308.412 C 362.795 299.665, 350.863 296.867, 339.319 300.856 M 135.015 305.750 C 135.076 325.352, 148.507 345.932, 167 354.761 C 184.857 363.288, 200.143 363.288, 218 354.761 C 236.493 345.932, 249.924 325.352, 249.985 305.750 L 250 301 192.500 301 L 135 301 135.015 305.750 M 139.622 310.250 C 143.679 336.962, 165.947 356.394, 192.500 356.394 C 219.053 356.394, 241.321 336.962, 245.378 310.250 L 246.024 306 192.500 306 L 138.976 306 139.622 310.250 M 0.320 330 C 0.320 333.575, 0.502 335.038, 0.723 333.250 C 0.945 331.462, 0.945 328.538, 0.723 326.750 C 0.502 324.962, 0.320 326.425, 0.320 330 M 85.041 412.619 C 78.863 417.817, 77.221 425.570, 80.989 431.750 L 82.971 435 128.382 435 L 173.793 435 176.801 431.574 C 181.766 425.919, 182.220 418.092, 177.901 412.601 L 175.855 410 132.004 410 L 88.153 410 85.041 412.619 M 207.099 412.601 C 202.780 418.092, 203.234 425.919, 208.199 431.574 L 211.207 435 256.618 435 L 302.029 435 304.011 431.750 C 307.779 425.570, 306.137 417.817, 299.959 412.619 L 296.847 410 252.996 410 L 209.145 410 207.099 412.601 " stroke="none" fill="black" fill-rule="evenodd"/>
	<path fill-opacity="0.857" d="M 181.500 0.610 C 146.780 4.182, 117.284 17.417, 93.618 40.042 C 39.950 91.348, 33.353 171.703, 77.877 231.753 L 83.815 239.761 80.815 241.978 C 74.209 246.863, 73.552 255.511, 79.349 261.271 L 82.599 264.500 77.171 268.309 C 74.185 270.404, 64.253 277.197, 55.099 283.404 C 38.930 294.368, 38.271 294.705, 31.978 295.215 C 3.355 297.538, -10.166 333.308, 9.826 353.818 C 25.827 370.232, 51.522 368.099, 64.738 349.258 C 68.290 344.194, 83.795 329, 85.410 329 C 85.735 329, 85.988 346.438, 85.972 367.750 L 85.945 406.500 82.483 409 C 74.864 414.501, 72.693 426.914, 77.882 435.308 L 80.163 439 127.915 439 L 175.667 439 179.300 435.367 C 183.799 430.867, 185.359 426.346, 184.788 419.460 C 184.474 415.671, 183.560 413.112, 181.604 410.548 C 179.104 407.270, 178.963 406.642, 180.012 403.465 C 183.809 391.959, 201.191 391.959, 204.988 403.465 C 206.037 406.642, 205.896 407.270, 203.396 410.548 C 201.440 413.112, 200.526 415.671, 200.212 419.460 C 199.641 426.346, 201.201 430.867, 205.700 435.367 L 209.333 439 257.085 439 L 304.837 439 307.118 435.308 C 312.307 426.914, 310.136 414.501, 302.517 409 L 299.055 406.500 299.028 367.750 C 299.012 346.438, 299.265 329, 299.590 329 C 301.194 329, 316.698 344.177, 320.213 349.189 C 324.805 355.735, 332.445 361.427, 339.483 363.545 C 357.393 368.935, 377.616 358.417, 382.599 341.119 C 383.489 338.029, 384.618 334.719, 385.109 333.764 C 386.259 331.523, 386.272 324.714, 385.125 325.423 C 384.644 325.720, 383.949 324.085, 383.582 321.789 C 381.413 308.225, 367.834 296.417, 353.022 295.215 C 346.729 294.705, 346.070 294.368, 329.901 283.404 C 320.747 277.197, 310.815 270.404, 307.829 268.309 L 302.401 264.500 305.651 261.271 C 311.448 255.511, 310.791 246.863, 304.185 241.978 L 301.185 239.761 307.123 231.753 C 333.052 196.782, 342.249 154.524, 332.984 112.929 C 320.468 56.738, 274.016 12.376, 217.433 2.578 C 208.162 0.973, 188.462 -0.106, 181.500 0.610 M 180.500 5.046 C 162.673 6.585, 145.914 11.383, 129.546 19.633 C 115.991 26.466, 107.625 32.468, 95.867 43.793 C 75.386 63.522, 62.278 86.627, 55.829 114.369 C 52.793 127.431, 52.139 153.170, 54.487 167.224 C 58.528 191.410, 70.269 216.934, 85.580 234.823 C 89.153 238.996, 89.162 239, 96.242 239 L 103.328 239 96.831 232.250 C 77.414 212.078, 68.736 191.989, 68.646 167 C 68.599 153.896, 70.319 145.031, 75.148 133.500 C 80.800 120, 92.682 104.404, 104.441 95.047 C 109.477 91.040, 111.032 89.230, 110.660 87.808 C 109.779 84.437, 111.777 74.168, 114.450 68.328 C 121.547 52.826, 135.629 43.718, 152.500 43.718 C 166.581 43.718, 180.437 50.929, 187.148 61.750 C 188.769 64.365, 189.815 65, 192.500 65 C 195.185 65, 196.231 64.365, 197.852 61.750 C 204.563 50.929, 218.419 43.718, 232.500 43.718 C 249.371 43.718, 263.453 52.826, 270.550 68.328 C 273.223 74.168, 275.221 84.437, 274.340 87.808 C 273.968 89.230, 275.523 91.040, 280.559 95.047 C 292.318 104.404, 304.200 120, 309.852 133.500 C 314.681 145.031, 316.401 153.896, 316.354 167 C 316.264 191.989, 307.586 212.078, 288.169 232.250 L 281.672 239 288.758 239 C 295.838 239, 295.847 238.996, 299.420 234.823 C 314.731 216.934, 326.472 191.410, 330.513 167.224 C 332.861 153.170, 332.207 127.431, 329.171 114.369 C 324.850 95.781, 317.104 78.505, 306.159 63.043 C 298.727 52.545, 281.400 35.467, 271.474 28.856 C 244.439 10.853, 211.894 2.335, 180.500 5.046 M 147.357 48.104 C 135.363 49.623, 124.249 57.686, 118.750 68.856 C 115.739 74.973, 115.500 76.194, 115.500 85.479 C 115.500 94.266, 115.831 96.206, 118.188 101.236 C 121.623 108.564, 129.436 116.377, 136.764 119.812 C 141.791 122.168, 143.736 122.500, 152.500 122.500 C 161.239 122.500, 163.216 122.164, 168.175 119.840 C 176.121 116.115, 182.397 109.970, 186.250 102.144 C 189.263 96.024, 189.500 94.809, 189.500 85.500 C 189.500 76.191, 189.263 74.976, 186.250 68.856 C 179.080 54.292, 163.622 46.044, 147.357 48.104 M 227.357 48.104 C 215.363 49.623, 204.249 57.686, 198.750 68.856 C 195.737 74.976, 195.500 76.191, 195.500 85.500 C 195.500 94.809, 195.737 96.024, 198.750 102.144 C 202.603 109.970, 208.879 116.115, 216.825 119.840 C 221.784 122.164, 223.761 122.500, 232.500 122.500 C 241.264 122.500, 243.209 122.168, 248.236 119.812 C 255.564 116.377, 263.377 108.564, 266.812 101.236 C 269.169 96.206, 269.500 94.266, 269.500 85.479 C 269.500 76.194, 269.261 74.973, 266.250 68.856 C 259.080 54.292, 243.622 46.044, 227.357 48.104 M 191.638 70.500 C 191.955 71.325, 192.343 72, 192.500 72 C 192.657 72, 193.045 71.325, 193.362 70.500 C 193.709 69.595, 193.367 69, 192.500 69 C 191.633 69, 191.291 69.595, 191.638 70.500 M 101.239 103.750 C 87.482 117.306, 79.234 131.033, 74.951 147.500 C 72.500 156.926, 72.006 173.333, 73.898 182.500 C 77.718 201.011, 87.688 218.095, 102.791 232.012 L 110.375 239 192.500 239 L 274.625 239 282.209 232.012 C 297.312 218.095, 307.282 201.011, 311.102 182.500 C 312.994 173.333, 312.500 156.926, 310.049 147.500 C 305.766 131.033, 297.518 117.306, 283.761 103.750 C 275.058 95.174, 273.001 93.740, 272.999 96.250 C 272.999 96.938, 271.704 100.236, 270.123 103.579 C 266.326 111.603, 258.384 119.447, 250.062 123.391 C 243.957 126.284, 242.735 126.500, 232.500 126.500 C 222.644 126.500, 220.902 126.220, 215.750 123.805 L 210 121.111 210 124.990 C 210 132.702, 205.816 138.786, 198.250 142.079 L 194 143.929 194 183.464 L 194 223 198.872 223 C 201.551 223, 208.046 221.909, 213.304 220.575 C 229.770 216.398, 244.339 207.806, 255.883 195.466 C 261.372 189.599, 262.356 188.927, 263.619 190.191 C 264.882 191.454, 264.296 192.479, 259.010 198.248 C 246.288 212.131, 227.165 222.525, 207.922 226.014 C 200.299 227.396, 184.701 227.396, 177.078 226.014 C 157.835 222.525, 138.712 212.131, 125.990 198.248 C 120.704 192.479, 120.118 191.454, 121.381 190.191 C 122.644 188.927, 123.628 189.599, 129.117 195.466 C 140.661 207.806, 155.230 216.398, 171.696 220.575 C 176.954 221.909, 183.449 223, 186.128 223 L 191 223 191 183.464 L 191 143.929 186.750 142.079 C 179.184 138.786, 175 132.702, 175 124.990 L 175 121.111 169.250 123.805 C 164.098 126.220, 162.356 126.500, 152.500 126.500 C 142.265 126.500, 141.043 126.284, 134.938 123.391 C 126.616 119.447, 118.674 111.603, 114.877 103.579 C 113.296 100.236, 112.001 96.938, 112.001 96.250 C 111.999 93.740, 109.942 95.174, 101.239 103.750 M 168 99 C 165.209 101.791, 165.468 105.437, 168.635 107.927 C 170.084 109.067, 171.823 110, 172.500 110 C 174.909 110, 179 105.864, 179 103.427 C 179 100.282, 175.681 97, 172.500 97 C 171.125 97, 169.100 97.900, 168 99 M 208 99 C 205.209 101.791, 205.468 105.437, 208.635 107.927 C 210.084 109.067, 211.823 110, 212.500 110 C 214.909 110, 219 105.864, 219 103.427 C 219 100.282, 215.681 97, 212.500 97 C 211.125 97, 209.100 97.900, 208 99 M 190.314 103.102 L 188.127 108 192.584 108 L 197.041 108 195.159 104.250 C 194.124 102.188, 193.103 99.984, 192.889 99.352 C 192.675 98.721, 191.516 100.408, 190.314 103.102 M 95 125.783 C 95 127.249, 99.047 128.735, 117.750 134.137 C 137.513 139.846, 140.584 140.498, 141.136 139.104 C 141.487 138.222, 141.487 137.234, 141.136 136.910 C 140.419 136.245, 97.641 124, 96.035 124 C 95.466 124, 95 124.802, 95 125.783 M 265 130.475 C 246.204 135.955, 243.543 136.979, 243.845 138.622 C 244.035 139.655, 244.260 140.553, 244.345 140.618 C 244.430 140.683, 254.738 137.773, 267.250 134.151 C 285.948 128.739, 290 127.248, 290 125.783 C 290 124.712, 289.301 124.041, 288.250 124.104 C 287.288 124.161, 276.825 127.028, 265 130.475 M 95 152 C 95 153.944, 95.667 154, 119 154 C 142.333 154, 143 153.944, 143 152 C 143 150.056, 142.333 150, 119 150 C 95.667 150, 95 150.056, 95 152 M 242 152 C 242 153.944, 242.667 154, 266 154 C 289.333 154, 290 153.944, 290 152 C 290 150.056, 289.333 150, 266 150 C 242.667 150, 242 150.056, 242 152 M 117.008 170.352 C 100.574 175.101, 95.437 176.968, 95.184 178.282 C 94.968 179.406, 95.483 179.989, 96.677 179.969 C 97.680 179.953, 108.185 177.140, 120.022 173.719 C 138.213 168.463, 141.490 167.229, 141.198 165.750 C 141.009 164.787, 140.324 164.032, 139.677 164.071 C 139.030 164.110, 128.828 166.936, 117.008 170.352 M 243.813 165.689 C 243.506 167.248, 246.452 168.366, 264.978 173.719 C 276.815 177.140, 287.320 179.953, 288.323 179.969 C 289.513 179.989, 290.032 179.406, 289.817 178.290 C 289.567 176.991, 284.685 175.200, 269.494 170.832 C 243.274 163.294, 244.247 163.488, 243.813 165.689 M 67.308 280.149 L 45.121 295.297 50.833 297.998 C 57.437 301.122, 64.985 308.916, 67.995 315.722 C 69.090 318.198, 70.327 323.642, 70.743 327.820 L 71.500 335.417 80.500 327.282 L 89.500 319.148 90 362.324 L 90.500 405.500 132.228 405.761 L 173.955 406.022 176.492 401.016 C 183.669 386.853, 201.331 386.853, 208.508 401.016 L 211.045 406.022 252.772 405.761 L 294.500 405.500 295 362.324 L 295.500 319.148 304.500 327.282 L 313.500 335.417 314.257 327.820 C 314.673 323.642, 315.910 318.198, 317.005 315.722 C 320.015 308.916, 327.563 301.122, 334.167 297.998 L 339.879 295.297 317.692 280.149 L 295.505 265 279.145 265 C 266.443 265, 262.904 265.279, 263.313 266.250 C 270.332 282.891, 272 290.129, 272 303.937 C 272 347.854, 236.660 383, 192.500 383 C 171.041 383, 152.425 375.484, 137.161 360.657 C 121.303 345.254, 113 325.761, 113 303.937 C 113 290.129, 114.668 282.891, 121.687 266.250 C 122.096 265.279, 118.557 265, 105.855 265 L 89.495 265 67.308 280.149 M 125.581 267.842 C 110.187 297.613, 115.947 334.080, 139.715 357.321 C 148.177 365.596, 156.254 370.581, 168.247 374.931 C 183.522 380.473, 201.478 380.473, 216.753 374.931 C 228.746 370.581, 236.823 365.596, 245.285 357.321 C 269.053 334.080, 274.813 297.613, 259.419 267.842 L 257.949 265 233.621 265 L 209.294 265 209.776 270.018 C 210.699 279.621, 204.962 288.433, 196.049 291.103 C 192.698 292.107, 191.354 292.025, 187.580 290.584 C 179.257 287.405, 174.345 279.167, 175.237 269.883 L 175.706 265 151.379 265 L 127.051 265 125.581 267.842 M 180.035 266.934 C 178.548 269.712, 178.760 275.636, 180.464 278.931 C 181.982 281.867, 187.461 287, 189.077 287 C 190.328 287, 190.249 281.334, 188.965 278.934 C 187.505 276.207, 189.416 273, 192.500 273 C 195.584 273, 197.495 276.207, 196.035 278.934 C 194.751 281.334, 194.672 287, 195.923 287 C 197.539 287, 203.018 281.867, 204.536 278.931 C 206.240 275.636, 206.452 269.712, 204.965 266.934 C 204.034 265.195, 202.777 265, 192.500 265 C 182.223 265, 180.966 265.195, 180.035 266.934 M 25.500 300.269 C 11.738 305.936, 4.630 316.031, 4.563 330.006 C 4.517 339.375, 7.847 346.935, 14.659 352.931 C 25.891 362.818, 40.963 363.626, 53.483 355.012 C 61.897 349.223, 66.319 340.234, 66.260 329.039 C 66.200 317.684, 59.871 307.530, 49.563 302.252 C 43.642 299.219, 30.650 298.149, 25.500 300.269 M 341 299.886 C 327.473 304.280, 318.811 315.624, 318.740 329.039 C 318.681 340.234, 323.103 349.223, 331.517 355.012 C 344.037 363.626, 359.109 362.818, 370.341 352.931 C 377.162 346.927, 380.485 339.373, 380.427 330.006 C 380.350 317.461, 374.302 307.687, 363 301.840 C 358.192 299.353, 345.982 298.268, 341 299.886 M 135 305.340 C 135 311.770, 138.575 324.581, 142.139 330.927 C 149.391 343.836, 161.720 353.980, 175.325 358.229 C 185.319 361.351, 199.681 361.351, 209.675 358.229 C 223.280 353.980, 235.609 343.836, 242.861 330.927 C 246.425 324.581, 250 311.770, 250 305.340 L 250 301 192.500 301 L 135 301 135 305.340 M 139.439 309.750 C 142.368 330.653, 156.117 347.417, 175.891 354.197 C 185.195 357.387, 199.805 357.387, 209.109 354.197 C 228.883 347.417, 242.632 330.653, 245.561 309.750 L 246.227 305 192.500 305 L 138.773 305 139.439 309.750 M 0.272 330 C 0.272 332.475, 0.467 333.488, 0.706 332.250 C 0.944 331.012, 0.944 328.988, 0.706 327.750 C 0.467 326.512, 0.272 327.525, 0.272 330 M 84.126 412.883 C 82.428 414.468, 80.581 416.972, 80.020 418.448 C 78.474 422.514, 78.797 428.847, 80.716 432.096 L 82.431 435 128.314 435 L 174.198 435 177.067 431.928 C 181.631 427.043, 182.256 418.372, 178.461 412.581 L 176.770 410 131.991 410 L 87.212 410 84.126 412.883 M 206.539 412.581 C 202.744 418.372, 203.369 427.043, 207.933 431.928 L 210.802 435 256.686 435 L 302.569 435 304.284 432.096 C 307.806 426.135, 305.636 416.013, 299.972 411.980 C 297.301 410.078, 295.441 410, 252.711 410 L 208.230 410 206.539 412.581 " stroke="none" fill="black" fill-rule="evenodd"/>
</svg>