<?xml version="1.0" standalone="no"?>
<!DOCTYPE svg PUBLIC "-//W3C//DTD SVG 20010904//EN"
 "http://www.w3.org/TR/2001/REC-SVG-20010904/DTD/svg10.dtd">
<svg version="1.0" xmlns="http://www.w3.org/2000/svg"
 width="250.000000pt" height="250.000000pt" viewBox="0 0 250.000000 250.000000"
 preserveAspectRatio="xMidYMid meet">
<metadata>
Created by potrace 1.10, written by Peter Selinger 2001-2011
</metadata>
<g transform="translate(0.000000,250.000000) scale(0.100000,-0.100000)"
fill="#000000" stroke="none">
<path d="M1346 2005 c-12 -19 -16 -50 -16 -133 0 -119 -6 -132 -62 -146 -16
-3 -28 -10 -28 -14 0 -4 -4 -13 -9 -21 -7 -11 -12 -10 -27 3 -11 10 -35 27
-54 40 -31 19 -35 27 -36 65 0 41 -5 49 -72 112 -71 68 -114 91 -134 71 -6 -6
-15 -70 -20 -144 -5 -79 -14 -138 -21 -145 -7 -6 -59 -25 -117 -41 -127 -35
-134 -48 -50 -99 50 -30 60 -33 108 -27 28 3 52 2 52 -2 -1 -22 -20 -33 -78
-45 -37 -8 -62 -18 -62 -26 0 -16 91 -63 123 -63 13 0 41 9 63 19 74 36 183
64 224 57 72 -11 65 39 -11 74 -68 32 -63 52 17 65 34 5 68 16 77 23 12 10 16
10 21 -3 3 -8 18 -15 33 -15 40 0 56 -14 48 -38 -5 -19 -54 -41 -90 -42 -26
-1 -37 -17 -26 -39 23 -43 130 -78 157 -51 22 22 178 52 245 47 74 -6 104 6
98 38 -5 26 -62 63 -108 71 -65 10 -69 13 -44 34 13 10 48 21 81 25 32 3 64
10 72 15 38 24 -42 105 -116 117 -37 6 -51 18 -34 28 5 3 10 16 10 28 0 26
-156 187 -182 187 -8 0 -23 -11 -32 -25z m181 -179 c-6 -40 15 -66 55 -66 30
0 93 -40 93 -59 0 -15 -3 -16 -70 -26 -53 -9 -83 -24 -91 -47 -8 -27 12 -46
55 -54 55 -11 101 -33 101 -48 0 -11 -19 -15 -85 -15 -47 0 -94 -5 -105 -11
-10 -5 -30 -10 -43 -10 -14 0 -41 -7 -60 -15 -47 -19 -97 -19 -125 1 -32 22
-27 31 18 39 41 7 70 34 70 66 0 22 -28 44 -73 59 -44 14 -43 27 4 57 83 53
80 47 86 173 3 63 10 121 16 128 8 10 28 -5 85 -62 70 -71 74 -78 69 -110z
m-504 71 c62 -55 67 -62 67 -101 1 -50 11 -63 73 -100 27 -15 46 -33 44 -39
-2 -7 -34 -19 -72 -28 -81 -18 -103 -39 -77 -75 9 -13 29 -28 45 -35 15 -6 27
-16 27 -21 0 -5 -4 -6 -10 -3 -13 8 -146 -30 -222 -62 l-58 -26 -42 19 -41 19
43 12 c46 13 80 38 80 58 0 22 -35 45 -61 39 -13 -3 -35 -5 -48 -5 -30 1 -93
43 -83 53 4 4 46 19 92 33 120 35 126 43 133 193 3 66 8 126 12 132 8 14 17 8
98 -63z"/>
<path d="M1420 1412 c-110 -35 -204 -36 -266 -1 l-43 23 -123 -43 c-89 -31
-140 -44 -185 -45 -119 -2 -120 -46 -2 -167 38 -38 79 -73 93 -78 41 -16 226
42 226 71 0 4 -4 8 -10 8 -5 0 -10 9 -10 20 0 14 17 28 59 50 l60 30 46 -52
c26 -29 57 -69 68 -90 12 -21 25 -38 29 -38 4 0 30 9 58 20 28 11 67 20 86 20
20 0 49 8 65 17 24 14 28 23 24 43 -7 32 41 81 98 101 99 35 -9 140 -142 138
-25 0 -84 -12 -131 -27z m195 -5 c98 -31 112 -62 40 -97 -54 -26 -85 -63 -85
-100 0 -32 -32 -50 -88 -50 -20 0 -50 -7 -66 -15 -15 -8 -32 -15 -36 -15 -4 0
-33 33 -64 73 -80 104 -84 106 -165 65 -58 -29 -66 -37 -69 -65 -4 -39 -13
-47 -84 -67 -92 -26 -97 -25 -182 65 -95 99 -96 112 -4 119 52 4 64 2 56 -8
-15 -17 -2 -71 22 -92 28 -25 55 -15 90 33 36 49 37 61 6 84 l-24 18 71 27 70
27 46 -24 c69 -35 129 -40 209 -16 187 57 194 58 257 38z m-631 -96 c3 -5 -4
-22 -16 -37 -41 -54 -60 -57 -78 -14 -7 17 -11 32 -9 34 29 24 92 35 103 17z"/>
<path d="M1415 1343 c-28 -6 -62 -34 -69 -59 -4 -14 2 -30 18 -49 24 -27 27
-28 52 -15 15 8 38 30 52 48 21 28 23 36 14 57 -11 24 -23 27 -67 18z m55 -32
c0 -5 -16 -27 -36 -48 l-36 -38 -19 24 c-25 31 -24 38 9 55 30 17 82 21 82 7z"/>
<path d="M1665 1154 c-14 -15 -25 -30 -25 -34 0 -23 -72 -33 -300 -41 -135 -5
-288 -13 -340 -17 -91 -8 -96 -7 -113 14 -43 55 -237 121 -237 81 0 -26 20
-71 42 -94 11 -12 17 -26 14 -31 -3 -6 -71 -13 -150 -17 -79 -4 -149 -11 -156
-15 -27 -17 3 -41 121 -101 127 -63 130 -64 204 -35 52 20 99 20 115 0 20 -23
-10 -47 -73 -59 -48 -9 -52 -12 -50 -38 3 -38 204 -284 241 -294 14 -3 51 0
82 7 30 7 70 15 88 17 40 6 56 32 42 69 -9 23 -7 33 16 65 15 22 30 39 33 39
3 0 12 -12 19 -27 19 -43 110 -163 129 -170 9 -4 37 0 62 7 25 7 70 16 100 21
61 9 104 40 83 61 -31 31 -14 53 86 110 134 77 135 95 6 179 -35 23 -64 45
-64 48 0 4 11 18 24 30 24 22 28 23 105 12 44 -6 122 -26 172 -46 126 -49 169
-45 169 13 0 53 -137 142 -218 142 -46 0 -60 10 -135 98 -33 39 -60 41 -92 6z
m-865 -44 c14 -7 43 -29 64 -48 l39 -35 91 8 c105 8 166 11 401 20 199 7 237
16 272 62 14 18 33 33 43 33 10 0 34 -20 55 -45 49 -60 76 -77 129 -81 79 -5
186 -75 186 -120 0 -29 -29 -32 -74 -9 -61 32 -181 66 -253 72 -63 5 -76 3
-94 -13 -53 -48 -47 -71 31 -124 69 -47 92 -69 85 -80 -3 -5 -45 -31 -93 -59
-95 -54 -121 -85 -103 -119 15 -29 16 -28 -31 -40 -49 -12 -124 -31 -151 -37
-24 -5 -64 38 -124 133 -25 39 -48 72 -52 72 -11 0 -57 -51 -71 -78 -6 -13 -9
-34 -6 -47 8 -32 -2 -55 -25 -55 -10 0 -43 -7 -74 -15 -71 -18 -90 -11 -148
57 -80 92 -157 193 -157 204 0 6 18 14 41 17 44 6 89 40 89 67 0 25 -37 54
-72 56 -17 1 -56 -9 -86 -22 l-55 -24 -106 52 c-120 58 -116 56 -109 63 10 10
50 14 142 16 138 2 168 26 121 94 -38 57 -34 66 23 51 26 -7 59 -19 72 -26z"/>
<path d="M1339 976 c-2 -2 -81 -7 -176 -10 -191 -7 -223 -14 -223 -49 0 -61
44 -79 135 -55 43 12 49 10 112 -21 l66 -32 63 22 c51 18 69 30 89 61 30 45
30 50 7 71 -17 15 -62 23 -73 13z m71 -33 c0 -5 -9 -21 -19 -37 -14 -20 -39
-36 -80 -51 l-60 -22 -48 29 c-50 30 -85 32 -194 12 -33 -6 -37 -4 -43 21 -4
15 -5 30 -2 32 12 12 446 27 446 16z"/>
<path d="M1400 798 c-42 -12 -70 -35 -70 -57 0 -30 31 -106 47 -118 29 -23 47
-13 103 54 74 88 75 91 54 114 -19 21 -74 24 -134 7z m119 -17 c11 -7 0 -25
-49 -80 -35 -39 -68 -70 -73 -68 -6 2 -19 27 -29 57 -22 64 -16 73 52 88 59
13 82 14 99 3z"/>
<path d="M959 771 c-72 -32 -84 -58 -53 -107 27 -40 52 -49 76 -27 25 22 61
101 54 119 -10 26 -40 32 -77 15z m53 -17 c3 -3 -4 -27 -15 -55 -24 -57 -49
-64 -72 -19 -20 38 -21 37 23 59 39 21 55 25 64 15z"/>
</g>
</svg>
